<?xml version="1.0" encoding="UTF-8"?>
<svg version="1.1" xmlns="http://www.w3.org/2000/svg" width="500" height="500">
<path d="M0 0 C165 0 330 0 500 0 C500 165 500 330 500 500 C335 500 170 500 0 500 C0 335 0 170 0 0 Z " fill="#FEFEFE" transform="translate(0,0)"/>
<path d="M0 0 C0.89203125 0.00902344 1.7840625 0.01804688 2.703125 0.02734375 C3.37859375 0.03894531 4.0540625 0.05054688 4.75 0.0625 C4.75 0.7225 4.75 1.3825 4.75 2.0625 C6.049375 2.4028125 6.049375 2.4028125 7.375 2.75 C11.41573255 4.32139599 13.62197109 6.08342484 16.75 9.0625 C16.75 9.7225 16.75 10.3825 16.75 11.0625 C17.389375 11.330625 18.02875 11.59875 18.6875 11.875 C20.75 13.0625 20.75 13.0625 21.75 16.0625 C22.41 16.0625 23.07 16.0625 23.75 16.0625 C23.75 16.7225 23.75 17.3825 23.75 18.0625 C24.471875 18.18625 25.19375 18.31 25.9375 18.4375 C28.75 19.0625 28.75 19.0625 31 20.125 C39.05444958 22.87083508 46.38527456 20.33933247 53.89453125 17.15234375 C56.07878057 16.06525986 56.07878057 16.06525986 57.625 13 C59.75 10.0625 59.75 10.0625 63 9.1875 C63.9075 9.14625 64.815 9.105 65.75 9.0625 C66.74 11.0425 66.74 11.0425 67.75 13.0625 C68.41 13.0625 69.07 13.0625 69.75 13.0625 C71.94872915 17.47740853 72.05067641 21.6063486 72 26.4375 C72.01160156 27.53191406 72.01160156 27.53191406 72.0234375 28.6484375 C72.00618294 33.47971499 71.27436141 37.47731766 69.75 42.0625 C69.09 42.0625 68.43 42.0625 67.75 42.0625 C67.42 44.0425 67.09 46.0225 66.75 48.0625 C66.09 48.0625 65.43 48.0625 64.75 48.0625 C64.75 48.7225 64.75 49.3825 64.75 50.0625 C63.375 51.6875 63.375 51.6875 61.75 53.0625 C61.09 53.0625 60.43 53.0625 59.75 53.0625 C59.75 53.7225 59.75 54.3825 59.75 55.0625 C58.739375 55.35125 57.72875 55.64 56.6875 55.9375 C56.05199219 56.11925781 55.41648437 56.30101562 54.76171875 56.48828125 C52.84183829 57.03628596 50.92094333 57.58073272 49 58.125 C46.90430774 58.72952661 44.81921256 59.37276248 42.75 60.0625 C41.04983156 60.14428114 39.34663703 60.16999501 37.64453125 60.16015625 C36.66162109 60.15693359 35.67871094 60.15371094 34.66601562 60.15039062 C33.64185547 60.14201172 32.61769531 60.13363281 31.5625 60.125 C30.00885742 60.11823242 30.00885742 60.11823242 28.42382812 60.11132812 C25.86582734 60.0995401 23.30794267 60.08308515 20.75 60.0625 C20.75 59.4025 20.75 58.7425 20.75 58.0625 C19.656875 58.124375 18.56375 58.18625 17.4375 58.25 C13.27680927 58.03843945 13.36673032 57.80870396 10.75 55.0625 C8.81593812 54.34132438 6.88045677 53.62336734 4.93359375 52.9375 C-2.173778 50.08946552 -10.26844787 44.69842021 -14.25 38.0625 C-14.25 37.0725 -14.25 36.0825 -14.25 35.0625 C-14.91 35.0625 -15.57 35.0625 -16.25 35.0625 C-19.25 29.4375 -19.25 29.4375 -19.25 26.0625 C-19.91 26.0625 -20.57 26.0625 -21.25 26.0625 C-21.277193 24.47926312 -21.29648306 22.89588938 -21.3125 21.3125 C-21.32410156 20.43078125 -21.33570313 19.5490625 -21.34765625 18.640625 C-21.25826198 16.2806162 -20.91912821 14.31751476 -20.25 12.0625 C-19.59 12.0625 -18.93 12.0625 -18.25 12.0625 C-18.25 11.0725 -18.25 10.0825 -18.25 9.0625 C-17.59 9.0625 -16.93 9.0625 -16.25 9.0625 C-16.25 8.4025 -16.25 7.7425 -16.25 7.0625 C-15.59 7.0625 -14.93 7.0625 -14.25 7.0625 C-14.25 6.4025 -14.25 5.7425 -14.25 5.0625 C-13.59 5.0625 -12.93 5.0625 -12.25 5.0625 C-12.25 4.4025 -12.25 3.7425 -12.25 3.0625 C-11.26 3.0625 -10.27 3.0625 -9.25 3.0625 C-9.25 2.4025 -9.25 1.7425 -9.25 1.0625 C-6.09493858 0.12630187 -3.28413498 -0.0432123 0 0 Z " fill="#0B97FC" transform="translate(28.25,241.9375)"/>
<path d="M0 0 C4.62265646 -0.04632952 9.2444824 -0.08602507 13.8671875 -0.10986328 C15.43427281 -0.11981813 17.00134007 -0.1333869 18.56835938 -0.15087891 C41.20611702 -0.39694149 41.20611702 -0.39694149 48 3 C48 3.66 48 4.32 48 5 C48.639375 5.0825 49.27875 5.165 49.9375 5.25 C54.20541517 6.29520372 58.03107667 8.14091826 62 10 C62 10.66 62 11.32 62 12 C62.53625 12.226875 63.0725 12.45375 63.625 12.6875 C69.80293069 16.10161959 73.9858967 20.62503815 77 27 C77 27.99 77 28.98 77 30 C77.66 30 78.32 30 79 30 C81.4342342 34.8684684 80.47699661 42.07562522 79 47.1875 C78.67 48.115625 78.34 49.04375 78 50 C77.34 50 76.68 50 76 50 C75.95875 50.598125 75.9175 51.19625 75.875 51.8125 C74.55023634 55.12440916 72.16789339 55.60612691 69 57 C68.01 57.66 67.02 58.32 66 59 C60.66362793 59.83519397 55.31947079 60.14237409 50.390625 57.71484375 C45.84342831 54.27308625 42.19903562 50.10338101 38.57421875 45.7265625 C36.64968575 43.61578437 34.49361828 42.36015542 32 41 C32 40.34 32 39.68 32 39 C28.93744039 38.9729509 25.8751214 38.95313702 22.8125 38.9375 C21.94818359 38.92912109 21.08386719 38.92074219 20.19335938 38.91210938 C15.99713231 38.89603188 12.09063114 38.92440962 8 40 C8 40.66 8 41.32 8 42 C2.375 45 2.375 45 -1 45 C-1.05384521 42.70858714 -1.09272087 40.41681812 -1.125 38.125 C-1.14820313 36.84882813 -1.17140625 35.57265625 -1.1953125 34.2578125 C-1 31 -1 31 1 29 C1.99 29 2.98 29 4 29 C4 28.34 4 27.68 4 27 C14.98856378 22.56601813 25.37421435 22.27766139 37 24 C37 24.66 37 25.32 37 26 C38.32 26 39.64 26 41 26 C41 26.66 41 27.32 41 28 C43.31 28.33 45.62 28.66 48 29 C48 29.66 48 30.32 48 31 C48.5775 31.226875 49.155 31.45375 49.75 31.6875 C53.22081236 33.71214054 55.42042439 36.50966273 56.875 40.25 C57.95248093 42.36963607 57.95248093 42.36963607 61.125 42.75 C62.07375 42.8325 63.0225 42.915 64 43 C64 41.02 64 39.04 64 37 C63.34 37 62.68 37 62 37 C62 36.34 62 35.68 62 35 C61.01 35 60.02 35 59 35 C58.05741535 33.58612303 57.12133307 32.16726676 56.2265625 30.72265625 C52.65900238 25.71216576 47.56289994 22.44224875 42 20 C42 19.34 42 18.68 42 18 C22.28093067 15.74551604 22.28093067 15.74551604 4 22 C2.68 22 1.36 22 0 22 C0 14.74 0 7.48 0 0 Z " fill="#08A2FE" transform="translate(8,199)"/>
<path d="M0 0 C1.98 0 3.96 0 6 0 C6 9.24 6 18.48 6 28 C10.455 24.535 10.455 24.535 15 21 C18.98394876 19.67201708 22.64054275 19.77667918 26.8125 19.75 C27.60720703 19.729375 28.40191406 19.70875 29.22070312 19.6875 C34.25826775 19.65416624 37.58659595 20.29936628 42 23 C42 23.66 42 24.32 42 25 C42.5775 25.2475 43.155 25.495 43.75 25.75 C46.44802385 27.24890214 48.08748093 28.55988946 50 31 C50.75 34.75 50.75 34.75 51 38 C51.66 38 52.32 38 53 38 C53.02703562 40.58340384 53.04685611 43.16652308 53.0625 45.75 C53.07087891 46.47960937 53.07925781 47.20921875 53.08789062 47.9609375 C53.10391684 51.48670558 52.95292713 54.61034916 52 58 C51.34 58 50.68 58 50 58 C50 58.99 50 59.98 50 61 C49.34 61 48.68 61 48 61 C48 61.66 48 62.32 48 63 C47.01 63.33 46.02 63.66 45 64 C44.67 64.66 44.34 65.32 44 66 C43.01 66 42.02 66 41 66 C40.731875 66.61875 40.46375 67.2375 40.1875 67.875 C39 70 39 70 36 72 C33.16715056 72.19616473 30.45506624 72.2786831 27.625 72.25 C26.49191406 72.26160156 26.49191406 72.26160156 25.3359375 72.2734375 C21.10785214 72.25865398 17.85834907 71.93686049 14 70 C14 69.34 14 68.68 14 68 C13.113125 68 12.22625 68 11.3125 68 C7.01406181 66.70235828 6.15802244 64.86157268 3.98046875 61.10546875 C3 59 3 59 2.48828125 56.80078125 C2.32714844 56.20652344 2.16601562 55.61226563 2 55 C1.34 54.67 0.68 54.34 0 54 C0 36.18 0 18.36 0 0 Z " fill="#F7F7F7" transform="translate(137,214)"/>
<path d="M0 0 C1.65 0 3.3 0 5 0 C5.1017053 7.68624527 5.17159403 15.37231595 5.21972656 23.05908203 C5.23979933 25.67210373 5.26706358 28.28508075 5.30175781 30.89794922 C5.35046435 34.66124522 5.37301311 38.42394549 5.390625 42.1875 C5.41127014 43.34926758 5.43191528 44.51103516 5.45318604 45.70800781 C5.45527543 53.31897643 4.70844121 59.17193165 -0.81640625 64.875 C-5.66666667 68 -5.66666667 68 -9 68 C-9 68.66 -9 69.32 -9 70 C-10.32 70 -11.64 70 -13 70 C-13 70.66 -13 71.32 -13 72 C-15.39614126 72.05425226 -17.79103853 72.09379027 -20.1875 72.125 C-20.86103516 72.14175781 -21.53457031 72.15851563 -22.22851562 72.17578125 C-26.28807807 72.21538674 -29.34998815 71.80020002 -33 70 C-33 69.34 -33 68.68 -33 68 C-33.8353125 67.9071875 -33.8353125 67.9071875 -34.6875 67.8125 C-37.99068042 66.6519231 -39.71894733 64.59786554 -42 62 C-42 61.34 -42 60.68 -42 60 C-42.66 60 -43.32 60 -44 60 C-44 59.34 -44 58.68 -44 58 C-44.66 58 -45.32 58 -46 58 C-47.01965824 53.79188662 -47.13364501 49.82250521 -47.125 45.5 C-47.12757813 44.2109375 -47.13015625 42.921875 -47.1328125 41.59375 C-47.02135753 38.57790967 -46.70804225 35.92207912 -46 33 C-45.34 33 -44.68 33 -44 33 C-43.87625 32.1646875 -43.87625 32.1646875 -43.75 31.3125 C-42.12238821 26.29403032 -38.25741639 22.62782017 -33.8203125 19.9453125 C-27.11597721 17.69815303 -17.2097412 17.39788512 -10.546875 19.93359375 C-8.81913053 21.12469032 -7.48186706 22.51813294 -6 24 C-3.90010348 25.17574711 -3.90010348 25.17574711 -2 26 C-2 26.66 -2 27.32 -2 28 C-1.34 28 -0.68 28 0 28 C0 18.76 0 9.52 0 0 Z " fill="#FBFBFB" transform="translate(448,214)"/>
<path d="M0 0 C0.74572266 -0.00322266 1.49144531 -0.00644531 2.25976562 -0.00976562 C8.36959525 0.0501881 11.13374991 1.13374991 15.3125 5.3125 C15.94929688 5.59480469 16.58609375 5.87710938 17.2421875 6.16796875 C19.68673569 7.51938879 20.52348863 8.73942598 21.9375 11.125 C22.34226562 11.79144531 22.74703125 12.45789063 23.1640625 13.14453125 C25.84211461 18.20003778 26.59236023 22.31866357 26.5078125 28.01953125 C26.5049826 28.74492599 26.50215271 29.47032074 26.49923706 30.21769714 C26.48809799 32.52030368 26.46300566 34.82251227 26.4375 37.125 C26.42746206 38.69205165 26.41833763 40.25910943 26.41015625 41.82617188 C26.3881793 45.65509978 26.35369339 49.48373256 26.3125 53.3125 C24.0025 53.3125 21.6925 53.3125 19.3125 53.3125 C19.3125 50.0125 19.3125 46.7125 19.3125 43.3125 C18.6525 43.3125 17.9925 43.3125 17.3125 43.3125 C17.27125 43.910625 17.23 44.50875 17.1875 45.125 C16.3125 47.3125 16.3125 47.3125 13.5 49.0625 C10.3125 50.3125 10.3125 50.3125 6.3125 50.3125 C5.9825 51.3025 5.6525 52.2925 5.3125 53.3125 C3.2502952 53.366848 1.18767184 53.40544961 -0.875 53.4375 C-2.02355469 53.46070313 -3.17210937 53.48390625 -4.35546875 53.5078125 C-7.60490372 53.31734152 -9.77410521 52.70610127 -12.6875 51.3125 C-12.6875 50.6525 -12.6875 49.9925 -12.6875 49.3125 C-13.30625 49.23 -13.925 49.1475 -14.5625 49.0625 C-17.36255419 48.07424558 -17.42863932 46.90890015 -18.6875 44.3125 C-19.326875 44.02375 -19.96625 43.735 -20.625 43.4375 C-23.80199628 41.70459294 -24.37255647 39.65557676 -25.6875 36.3125 C-26.0325143 33.1746635 -25.9730204 30.08923282 -25.875 26.9375 C-25.86146484 26.10605469 -25.84792969 25.27460938 -25.83398438 24.41796875 C-25.79889059 22.38252934 -25.74509228 20.34742709 -25.6875 18.3125 C-25.0275 18.3125 -24.3675 18.3125 -23.6875 18.3125 C-23.666875 17.136875 -23.64625 15.96125 -23.625 14.75 C-23.0505834 10.18702873 -21.09640538 7.98795891 -17.8671875 4.85546875 C-12.00069717 0.70266646 -7.00641255 -0.1537843 0 0 Z " fill="#F4F4F4" transform="translate(304.6875,232.6875)"/>
<path d="M0 0 C1.98 0 3.96 0 6 0 C6 9.24 6 18.48 6 28 C10.455 24.535 10.455 24.535 15 21 C18.98394876 19.67201708 22.64054275 19.77667918 26.8125 19.75 C27.60720703 19.729375 28.40191406 19.70875 29.22070312 19.6875 C34.25826775 19.65416624 37.58659595 20.29936628 42 23 C42 23.66 42 24.32 42 25 C42.5775 25.2475 43.155 25.495 43.75 25.75 C46.44802385 27.24890214 48.08748093 28.55988946 50 31 C50.75 34.75 50.75 34.75 51 38 C51.66 38 52.32 38 53 38 C53.02703562 40.58340384 53.04685611 43.16652308 53.0625 45.75 C53.07087891 46.47960937 53.07925781 47.20921875 53.08789062 47.9609375 C53.10391684 51.48670558 52.95292713 54.61034916 52 58 C51.34 58 50.68 58 50 58 C50 58.99 50 59.98 50 61 C49.34 61 48.68 61 48 61 C48 61.66 48 62.32 48 63 C47.01 63.33 46.02 63.66 45 64 C44.67 64.66 44.34 65.32 44 66 C43.01 66 42.02 66 41 66 C40.731875 66.61875 40.46375 67.2375 40.1875 67.875 C39 70 39 70 36 72 C33.16715056 72.19616473 30.45506624 72.2786831 27.625 72.25 C26.49191406 72.26160156 26.49191406 72.26160156 25.3359375 72.2734375 C21.10785214 72.25865398 17.85834907 71.93686049 14 70 C14 69.34 14 68.68 14 68 C13.113125 68 12.22625 68 11.3125 68 C7.01406181 66.70235828 6.15802244 64.86157268 3.98046875 61.10546875 C3 59 3 59 2.48828125 56.80078125 C2.32714844 56.20652344 2.16601562 55.61226563 2 55 C1.34 54.67 0.68 54.34 0 54 C0 36.18 0 18.36 0 0 Z M20 25 C20 25.66 20 26.32 20 27 C19.01 27 18.02 27 17 27 C17 27.66 17 28.32 17 29 C16.401875 29.103125 15.80375 29.20625 15.1875 29.3125 C12.66578648 30.10503854 11.60314301 30.91591409 10 33 C10 33.99 10 34.98 10 36 C9.34 36 8.68 36 8 36 C8 36.99 8 37.98 8 39 C7.34 39 6.68 39 6 39 C5.29936057 47.18969641 6.28925971 53.15586163 11 60 C14.10846055 63.53973911 17.22259931 65.65875709 22 66 C28.02301778 66.38858179 31.61112658 65.69443671 37 63 C37 62.34 37 61.68 37 61 C37.639375 60.731875 38.27875 60.46375 38.9375 60.1875 C41.33131686 59.11332248 41.33131686 59.11332248 42 56 C42.66 56 43.32 56 44 56 C47.61055322 50.58417017 46.5933742 43.30617902 46 37 C44.18697658 31.51692432 39.60914361 28.44345092 34.625 25.8671875 C29.824842 24.28142102 24.9863504 24.62032865 20 25 Z " fill="#1E1E1E" transform="translate(137,214)"/>
<path d="M0 0 C0.74572266 -0.00322266 1.49144531 -0.00644531 2.25976562 -0.00976562 C8.36959525 0.0501881 11.13374991 1.13374991 15.3125 5.3125 C15.94929688 5.59480469 16.58609375 5.87710938 17.2421875 6.16796875 C19.68673569 7.51938879 20.52348863 8.73942598 21.9375 11.125 C22.34226562 11.79144531 22.74703125 12.45789063 23.1640625 13.14453125 C25.84211461 18.20003778 26.59236023 22.31866357 26.5078125 28.01953125 C26.5049826 28.74492599 26.50215271 29.47032074 26.49923706 30.21769714 C26.48809799 32.52030368 26.46300566 34.82251227 26.4375 37.125 C26.42746206 38.69205165 26.41833763 40.25910943 26.41015625 41.82617188 C26.3881793 45.65509978 26.35369339 49.48373256 26.3125 53.3125 C24.0025 53.3125 21.6925 53.3125 19.3125 53.3125 C19.3125 50.0125 19.3125 46.7125 19.3125 43.3125 C18.6525 43.3125 17.9925 43.3125 17.3125 43.3125 C17.27125 43.910625 17.23 44.50875 17.1875 45.125 C16.3125 47.3125 16.3125 47.3125 13.5 49.0625 C10.3125 50.3125 10.3125 50.3125 6.3125 50.3125 C5.9825 51.3025 5.6525 52.2925 5.3125 53.3125 C3.2502952 53.366848 1.18767184 53.40544961 -0.875 53.4375 C-2.02355469 53.46070313 -3.17210937 53.48390625 -4.35546875 53.5078125 C-7.60490372 53.31734152 -9.77410521 52.70610127 -12.6875 51.3125 C-12.6875 50.6525 -12.6875 49.9925 -12.6875 49.3125 C-13.30625 49.23 -13.925 49.1475 -14.5625 49.0625 C-17.36255419 48.07424558 -17.42863932 46.90890015 -18.6875 44.3125 C-19.326875 44.02375 -19.96625 43.735 -20.625 43.4375 C-23.80199628 41.70459294 -24.37255647 39.65557676 -25.6875 36.3125 C-26.0325143 33.1746635 -25.9730204 30.08923282 -25.875 26.9375 C-25.86146484 26.10605469 -25.84792969 25.27460938 -25.83398438 24.41796875 C-25.79889059 22.38252934 -25.74509228 20.34742709 -25.6875 18.3125 C-25.0275 18.3125 -24.3675 18.3125 -23.6875 18.3125 C-23.666875 17.136875 -23.64625 15.96125 -23.625 14.75 C-23.0505834 10.18702873 -21.09640538 7.98795891 -17.8671875 4.85546875 C-12.00069717 0.70266646 -7.00641255 -0.1537843 0 0 Z M-15.6875 12.3125 C-20.53207718 18.68345081 -21.59341038 24.41813808 -20.6875 32.3125 C-20.3575 33.3025 -20.0275 34.2925 -19.6875 35.3125 C-19.0275 35.6425 -18.3675 35.9725 -17.6875 36.3125 C-17.460625 37.055 -17.23375 37.7975 -17 38.5625 C-15.11567786 42.51060353 -12.61967548 44.45102977 -8.6875 46.3125 C-3.27029464 47.56196601 1.88734172 47.59740591 7.3125 46.3125 C7.395 45.69375 7.4775 45.075 7.5625 44.4375 C8.54875439 41.64311257 9.74640399 41.595548 12.3125 40.3125 C13.11778889 38.26249129 13.11778889 38.26249129 13.3125 36.3125 C13.9725 36.3125 14.6325 36.3125 15.3125 36.3125 C15.3125 35.3225 15.3125 34.3325 15.3125 33.3125 C15.9725 33.3125 16.6325 33.3125 17.3125 33.3125 C17.39389142 30.91597472 17.45317009 28.52224564 17.5 26.125 C17.52513672 25.45146484 17.55027344 24.77792969 17.57617188 24.08398438 C17.64119757 19.6405616 17.11634843 16.80882431 14.3125 13.3125 C13.6525 13.3125 12.9925 13.3125 12.3125 13.3125 C12.3125 11.9925 12.3125 10.6725 12.3125 9.3125 C10.9925 9.3125 9.6725 9.3125 8.3125 9.3125 C8.3125 8.6525 8.3125 7.9925 8.3125 7.3125 C-0.71706821 4.98228885 -8.82443521 5.62101183 -15.6875 12.3125 Z " fill="#181818" transform="translate(304.6875,232.6875)"/>
<path d="M0 0 C1.65 0 3.3 0 5 0 C5.1017053 7.68624527 5.17159403 15.37231595 5.21972656 23.05908203 C5.23979933 25.67210373 5.26706358 28.28508075 5.30175781 30.89794922 C5.35046435 34.66124522 5.37301311 38.42394549 5.390625 42.1875 C5.41127014 43.34926758 5.43191528 44.51103516 5.45318604 45.70800781 C5.45527543 53.31897643 4.70844121 59.17193165 -0.81640625 64.875 C-5.66666667 68 -5.66666667 68 -9 68 C-9 68.66 -9 69.32 -9 70 C-10.32 70 -11.64 70 -13 70 C-13 70.66 -13 71.32 -13 72 C-15.39614126 72.05425226 -17.79103853 72.09379027 -20.1875 72.125 C-20.86103516 72.14175781 -21.53457031 72.15851563 -22.22851562 72.17578125 C-26.28807807 72.21538674 -29.34998815 71.80020002 -33 70 C-33 69.34 -33 68.68 -33 68 C-33.8353125 67.9071875 -33.8353125 67.9071875 -34.6875 67.8125 C-37.99068042 66.6519231 -39.71894733 64.59786554 -42 62 C-42 61.34 -42 60.68 -42 60 C-42.66 60 -43.32 60 -44 60 C-44 59.34 -44 58.68 -44 58 C-44.66 58 -45.32 58 -46 58 C-47.01965824 53.79188662 -47.13364501 49.82250521 -47.125 45.5 C-47.12757813 44.2109375 -47.13015625 42.921875 -47.1328125 41.59375 C-47.02135753 38.57790967 -46.70804225 35.92207912 -46 33 C-45.34 33 -44.68 33 -44 33 C-43.87625 32.1646875 -43.87625 32.1646875 -43.75 31.3125 C-42.12238821 26.29403032 -38.25741639 22.62782017 -33.8203125 19.9453125 C-27.11597721 17.69815303 -17.2097412 17.39788512 -10.546875 19.93359375 C-8.81913053 21.12469032 -7.48186706 22.51813294 -6 24 C-3.90010348 25.17574711 -3.90010348 25.17574711 -2 26 C-2 26.66 -2 27.32 -2 28 C-1.34 28 -0.68 28 0 28 C0 18.76 0 9.52 0 0 Z M-25 25 C-25 25.66 -25 26.32 -25 27 C-25.70125 26.9175 -26.4025 26.835 -27.125 26.75 C-31.59772186 27.13893234 -34.36374223 29.65593112 -37.75 32.4375 C-41.04096617 36.55120771 -41.2282722 40.70052631 -41.125 45.8125 C-41.10695313 46.97394531 -41.08890625 48.13539063 -41.0703125 49.33203125 C-41.04710937 50.21246094 -41.02390625 51.09289062 -41 52 C-40.34 52 -39.68 52 -39 52 C-39 53.32 -39 54.64 -39 56 C-38.34 56 -37.68 56 -37 56 C-36.731875 56.598125 -36.46375 57.19625 -36.1875 57.8125 C-33.97739824 61.88374008 -31.36994671 63.69267948 -27.0234375 65.42578125 C-20.41494239 67.301165 -14.97463927 66.05087963 -9 63 C-9 62.34 -9 61.68 -9 61 C-8.34 61 -7.68 61 -7 61 C-2.79783626 57.9386952 -0.28454461 54.73888374 0.5625 49.5625 C0.67000982 43.2194207 0.40661816 38.4918351 -3 33 C-5.10366251 30.87741822 -5.10366251 30.87741822 -7.5 29.1875 C-8.2734375 28.60355469 -9.046875 28.01960938 -9.84375 27.41796875 C-13.34682081 25.11431892 -16.09987673 24.88441398 -20.1875 24.9375 C-21.08855469 24.94652344 -21.98960937 24.95554688 -22.91796875 24.96484375 C-23.94857422 24.98224609 -23.94857422 24.98224609 -25 25 Z " fill="#131313" transform="translate(448,214)"/>
<path d="M0 0 C2.31 0 4.62 0 7 0 C7 8.58 7 17.16 7 26 C11.81375192 22.72171131 11.81375192 22.72171131 13 20 C19.84485427 17.62045839 26.96852101 17.29539903 34 19 C34 19.66 34 20.32 34 21 C34.556875 21.04125 35.11375 21.0825 35.6875 21.125 C39.11801689 22.42303342 41.29894985 24.82554953 43 28 C43.90861747 33.05804985 44.13503266 37.99702486 44.09765625 43.12109375 C44.0962413 43.86585464 44.09482635 44.61061554 44.09336853 45.37794495 C44.08781989 47.73117273 44.07527733 50.0843015 44.0625 52.4375 C44.05747835 54.04361841 44.05291661 55.64973832 44.04882812 57.25585938 C44.03786735 61.17061043 44.02063884 65.08528849 44 69 C42.02 69 40.04 69 38 69 C37.98598145 67.41131104 37.98598145 67.41131104 37.97167969 65.79052734 C37.93166151 61.84284149 37.8658709 57.89592529 37.79248047 53.94873047 C37.76433913 52.24375329 37.74309065 50.53864731 37.72900391 48.83349609 C37.70747863 46.37530911 37.660783 43.91865952 37.609375 41.4609375 C37.60814636 40.70444916 37.60691772 39.94796082 37.60565186 39.16854858 C37.46535454 34.04368394 36.35930337 31.07848039 33 27 C30.19096379 25.5954819 27.81885492 25.86790746 24.6875 25.875 C23.55699219 25.87242187 22.42648438 25.86984375 21.26171875 25.8671875 C18.37846404 25.98458949 15.8009145 26.33787012 13 27 C13 27.66 13 28.32 13 29 C12.34 29 11.68 29 11 29 C11 29.66 11 30.32 11 31 C10.34 31 9.68 31 9 31 C8.21761885 35.91981312 7.8238773 40.6935076 7.68359375 45.68359375 C7.66281265 46.38396255 7.64203156 47.08433136 7.62062073 47.80592346 C7.55587535 50.01636106 7.49659392 52.22690485 7.4375 54.4375 C7.39424319 55.94727607 7.35062677 57.45704188 7.30664062 58.96679688 C7.20027252 62.64442196 7.09879998 66.32216291 7 70 C5.00045254 70.04254356 2.99958364 70.04080783 1 70 C0 69 0 69 -0.12025452 66.26023865 C-0.11803391 65.03668167 -0.11581329 63.81312469 -0.11352539 62.55249023 C-0.11367142 61.87934784 -0.11381744 61.20620544 -0.1139679 60.51266479 C-0.11326878 58.27794216 -0.10547652 56.0433019 -0.09765625 53.80859375 C-0.09579206 52.26302638 -0.09436816 50.71745843 -0.09336853 49.17189026 C-0.0895434 45.09642923 -0.07971317 41.02100363 -0.06866455 36.94555664 C-0.05845032 32.78988118 -0.05387089 28.63420001 -0.04882812 24.47851562 C-0.03809089 16.31899413 -0.02101454 8.15950147 0 0 Z " fill="#1E1E1E" transform="translate(222,216)"/>
<path d="M0 0 C2.33250584 1.86104189 4.04603774 3.70409434 6 6 C6 6.66 6 7.32 6 8 C6.66 8 7.32 8 8 8 C8.77298951 13.45639655 9.13811416 18.71268522 9.09765625 24.21875 C9.0962413 24.96209595 9.09482635 25.70544189 9.09336853 26.47131348 C9.08783109 28.81425229 9.07529091 31.15709073 9.0625 33.5 C9.05747689 35.10156111 9.05291542 36.70312373 9.04882812 38.3046875 C9.03788227 42.20316288 9.02066196 46.1015645 9 50 C6.69 50 4.38 50 2 50 C1.97494385 49.04109863 1.9498877 48.08219727 1.92407227 47.09423828 C1.8300138 43.54201523 1.72978942 39.98998844 1.62768555 36.43798828 C1.58433074 34.89962347 1.54265605 33.36121037 1.50268555 31.82275391 C1.44499602 29.6134586 1.38129821 27.40440652 1.31640625 25.1953125 C1.29969376 24.50567413 1.28298126 23.81603577 1.26576233 23.10549927 C1.19193005 19.42885736 1.19193005 19.42885736 0 16 C-0.039992 14.00039988 -0.04346799 11.99952758 0 10 C-1.32 9.67 -2.64 9.34 -4 9 C-4 8.34 -4 7.68 -4 7 C-6.22889496 6.94571027 -8.45817471 6.90707662 -10.6875 6.875 C-11.92886719 6.85179687 -13.17023438 6.82859375 -14.44921875 6.8046875 C-19.42660717 7.07847124 -22.57165018 8.78582509 -27 11 C-27.33 23.87 -27.66 36.74 -28 50 C-30.64 50 -33.28 50 -36 50 C-36.07533781 45.82319455 -36.12914847 41.64677089 -36.16479492 37.46948242 C-36.17968738 36.05469863 -36.20000836 34.63995933 -36.22631836 33.2253418 C-36.39734243 23.77877668 -35.61948346 15.15391835 -33 6 C-32.34 6 -31.68 6 -31 6 C-31 5.34 -31 4.68 -31 4 C-30.360625 3.896875 -29.72125 3.79375 -29.0625 3.6875 C-28.381875 3.460625 -27.70125 3.23375 -27 3 C-26.67 2.01 -26.34 1.02 -26 0 C-17.6156761 -3.97152185 -8.21708507 -4.58195484 0 0 Z " fill="#191919" transform="translate(379,236)"/>
<path d="M0 0 C1.11246094 -0.00515625 2.22492188 -0.0103125 3.37109375 -0.015625 C7.67543536 0.34263109 10.53661176 1.04723448 13.375 4.375 C13.766875 4.99375 14.15875 5.6125 14.5625 6.25 C13.5725 7.57 12.5825 8.89 11.5625 10.25 C9.0875 9.755 9.0875 9.755 6.5625 9.25 C6.5625 8.59 6.5625 7.93 6.5625 7.25 C5.2425 7.25 3.9225 7.25 2.5625 7.25 C2.5625 6.59 2.5625 5.93 2.5625 5.25 C0.9125 5.25 -0.7375 5.25 -2.4375 5.25 C-2.4375 5.91 -2.4375 6.57 -2.4375 7.25 C-3.4275 7.25 -4.4175 7.25 -5.4375 7.25 C-5.4375 7.91 -5.4375 8.57 -5.4375 9.25 C-6.0975 9.25 -6.7575 9.25 -7.4375 9.25 C-6.2643818 15.24291419 -6.2643818 15.24291419 -2.45703125 19.73828125 C-0.47515223 20.70291263 1.47629039 21.54138248 3.5625 22.25 C3.5625 22.91 3.5625 23.57 3.5625 24.25 C4.2225 24.25 4.8825 24.25 5.5625 24.25 C5.5625 24.91 5.5625 25.57 5.5625 26.25 C6.5525 26.25 7.5425 26.25 8.5625 26.25 C8.5625 26.91 8.5625 27.57 8.5625 28.25 C9.366875 28.4975 10.17125 28.745 11 29 C13.5625 30.25 13.5625 30.25 14.375 31.875 C15.33412964 44.02397544 15.33412964 44.02397544 12.20703125 47.953125 C5.820659 53.34545636 -0.38248189 52.8609143 -8.4375 52.25 C-8.4375 51.59 -8.4375 50.93 -8.4375 50.25 C-9.3346875 50.064375 -9.3346875 50.064375 -10.25 49.875 C-12.4375 49.25 -12.4375 49.25 -15.4375 47.25 C-15.1075 45.6 -14.7775 43.95 -14.4375 42.25 C-9.7106506 40.72072519 -7.7336207 42.10193965 -3.4375 44.25 C0.23107722 44.75125283 0.23107722 44.75125283 3.5625 44.25 C4.2225 43.26 4.8825 42.27 5.5625 41.25 C6.2225 41.25 6.8825 41.25 7.5625 41.25 C7.31618443 37.19914321 7.31618443 37.19914321 6.5625 33.25 C4.64185207 31.6600567 4.64185207 31.6600567 2.5625 31.25 C2.5625 30.59 2.5625 29.93 2.5625 29.25 C1.881875 28.981875 1.20125 28.71375 0.5 28.4375 C-0.469375 28.045625 -1.43875 27.65375 -2.4375 27.25 C-4.2009375 26.6003125 -4.2009375 26.6003125 -6 25.9375 C-9.80024833 24.07192355 -11.17905166 22.78856022 -13.4375 19.25 C-13.93359375 15.8046875 -13.93359375 15.8046875 -13.875 12.125 C-13.87371094 10.90554687 -13.87242187 9.68609375 -13.87109375 8.4296875 C-13.4375 5.25 -13.4375 5.25 -12.16015625 3.4453125 C-7.99420574 0.55465296 -5.1320108 -0.02373184 0 0 Z " fill="#222222" transform="translate(478.4375,233.75)"/>
<path d="M0 0 C1.2065625 0.0309375 1.2065625 0.0309375 2.4375 0.0625 C2.7675 1.0525 3.0975 2.0425 3.4375 3.0625 C4.0975 3.0625 4.7575 3.0625 5.4375 3.0625 C6.05625 4.42375 6.05625 4.42375 6.6875 5.8125 C9.09352255 10.2808276 10.91095628 12.4753678 15.6875 14.3125 C16.595 14.56 17.5025 14.8075 18.4375 15.0625 C18.4375 15.7225 18.4375 16.3825 18.4375 17.0625 C26.14413752 18.41538935 33.60607008 19.59508565 41.4375 19.0625 C42.40558594 19.00578125 43.37367187 18.9490625 44.37109375 18.890625 C51.73928928 18.10218115 55.82365046 15.83912173 61.18359375 10.7421875 C63.8409287 8.76185123 65.20008254 8.70849668 68.4375 9.0625 C68.21412494 12.9715636 67.52886489 13.97907988 64.5625 16.6875 C63.53125 17.47125 62.5 18.255 61.4375 19.0625 C60.921875 19.619375 60.40625 20.17625 59.875 20.75 C56.69313268 23.65518321 53.6479043 24.0625 49.4375 24.0625 C49.4375 24.7225 49.4375 25.3825 49.4375 26.0625 C40.72115762 27.37817432 32.13710102 27.60909574 23.4375 26.0625 C23.4375 25.4025 23.4375 24.7425 23.4375 24.0625 C20.4675 23.7325 17.4975 23.4025 14.4375 23.0625 C14.4375 22.4025 14.4375 21.7425 14.4375 21.0625 C13.4475 21.0625 12.4575 21.0625 11.4375 21.0625 C11.4375 20.4025 11.4375 19.7425 11.4375 19.0625 C10.715625 18.835625 9.99375 18.60875 9.25 18.375 C3.26624707 15.58258196 0.32636513 10.7370565 -2.5625 5.0625 C-3.375 2.6875 -3.375 2.6875 -3.5625 1.0625 C-2.5625 0.0625 -2.5625 0.0625 0 0 Z " fill="#D9EDFE" transform="translate(26.5625,257.9375)"/>
<path d="M0 0 C2.31 0 4.62 0 7 0 C7 16.83 7 33.66 7 51 C4.69 51 2.38 51 0 51 C0 34.17 0 17.34 0 0 Z " fill="#272727" transform="translate(202,235)"/>
<path d="M0 0 C1.75070517 0.11470137 3.50057536 0.24219028 5.25 0.375 C6.22453125 0.44460937 7.1990625 0.51421875 8.203125 0.5859375 C10.89633189 0.98465249 12.66963279 1.63507063 15 3 C15 3.66 15 4.32 15 5 C15.556875 5.061875 16.11375 5.12375 16.6875 5.1875 C19.97199875 6.34151307 21.65442984 8.47400137 24 11 C24.76763672 11.69609375 24.76763672 11.69609375 25.55078125 12.40625 C27.21781864 14.23954179 27.83971387 15.78640064 28.625 18.125 C29.42522693 20.80017942 29.42522693 20.80017942 31 23 C31.07226502 24.85287502 31.0838122 26.70833878 31.0625 28.5625 C31.05347656 29.57441406 31.04445313 30.58632812 31.03515625 31.62890625 C31.02355469 32.41136719 31.01195313 33.19382813 31 34 C30.34 34 29.68 34 29 34 C29 35.65 29 37.3 29 39 C28.01 39 27.02 39 26 39 C25.67 35.37 25.34 31.74 25 28 C24.34 28 23.68 28 23 28 C22.01 25.03 21.02 22.06 20 19 C19.34 19 18.68 19 18 19 C17.731875 18.360625 17.46375 17.72125 17.1875 17.0625 C16.11332248 14.66868314 16.11332248 14.66868314 13 14 C11.24609375 12.22265625 11.24609375 12.22265625 9.4375 10.0625 C5.56255218 5.22329465 5.56255218 5.22329465 0 3 C0 2.01 0 1.02 0 0 Z " fill="#1CA3FD" transform="translate(67,199)"/>
<path d="M0 0 C3.39677151 1.13225717 4.02230115 2.01392924 6.1875 4.75 C9.23513044 8.38246358 12.23364327 10.66741156 16.3984375 12.89453125 C18 14 18 14 19 17 C12.4 17 5.8 17 -1 17 C-1.020625 14.56625 -1.04125 12.1325 -1.0625 9.625 C-1.071604 8.86010254 -1.08070801 8.09520508 -1.09008789 7.30712891 C-1.11111111 2.22222222 -1.11111111 2.22222222 0 0 Z " fill="#0F9AFC" transform="translate(9,284)"/>
<path d="M0 0 C0.98484375 0.02707031 1.9696875 0.05414063 2.984375 0.08203125 C3.73203125 0.11683594 4.4796875 0.15164062 5.25 0.1875 C5.25 0.8475 5.25 1.5075 5.25 2.1875 C6.57 2.1875 7.89 2.1875 9.25 2.1875 C9.25 2.8475 9.25 3.5075 9.25 4.1875 C10.57 4.5175 11.89 4.8475 13.25 5.1875 C13.25 6.5075 13.25 7.8275 13.25 9.1875 C13.91 9.1875 14.57 9.1875 15.25 9.1875 C15.25 21.0675 15.25 32.9475 15.25 45.1875 C16.9 45.1875 18.55 45.1875 20.25 45.1875 C19.755 25.8825 19.755 25.8825 19.25 6.1875 C18.59 6.1875 17.93 6.1875 17.25 6.1875 C16.92 4.5375 16.59 2.8875 16.25 1.1875 C16.91 1.5175 17.57 1.8475 18.25 2.1875 C18.25 2.8475 18.25 3.5075 18.25 4.1875 C18.91 4.1875 19.57 4.1875 20.25 4.1875 C21.02298951 9.64389655 21.38811416 14.90018522 21.34765625 20.40625 C21.3462413 21.14959595 21.34482635 21.89294189 21.34336853 22.65881348 C21.33783109 25.00175229 21.32529091 27.34459073 21.3125 29.6875 C21.30747689 31.28906111 21.30291542 32.89062373 21.29882812 34.4921875 C21.28788227 38.39066288 21.27066196 42.2890645 21.25 46.1875 C18.94 46.1875 16.63 46.1875 14.25 46.1875 C14.22494385 45.22859863 14.1998877 44.26969727 14.17407227 43.28173828 C14.0800138 39.72951523 13.97978942 36.17748844 13.87768555 32.62548828 C13.83433074 31.08712347 13.79265605 29.54871037 13.75268555 28.01025391 C13.69499602 25.8009586 13.63129821 23.59190652 13.56640625 21.3828125 C13.54969376 20.69317413 13.53298126 20.00353577 13.51576233 19.29299927 C13.44193005 15.61635736 13.44193005 15.61635736 12.25 12.1875 C12.210008 10.18789988 12.20653201 8.18702758 12.25 6.1875 C10.93 5.8575 9.61 5.5275 8.25 5.1875 C8.25 4.5275 8.25 3.8675 8.25 3.1875 C2.31 3.1875 -3.63 3.1875 -9.75 3.1875 C-5.5452889 0.03396667 -4.89908143 -0.17496719 0 0 Z " fill="#7A7A7A" transform="translate(366.75,239.8125)"/>
<path d="M0 0 C3.5 0.125 3.5 0.125 4.5 1.125 C4.58713831 2.83272358 4.60700007 4.54398649 4.59765625 6.25390625 C4.59443359 7.28837891 4.59121094 8.32285156 4.58789062 9.38867188 C4.57951172 10.47728516 4.57113281 11.56589844 4.5625 12.6875 C4.55798828 13.77998047 4.55347656 14.87246094 4.54882812 15.99804688 C4.53699826 18.70708495 4.52051543 21.41601599 4.5 24.125 C5.82 24.455 7.14 24.785 8.5 25.125 C7.125 26.625 7.125 26.625 5.5 28.125 C4.84 28.125 4.18 28.125 3.5 28.125 C3.5 19.545 3.5 10.965 3.5 2.125 C1.19 2.125 -1.12 2.125 -3.5 2.125 C-3.17 25.225 -2.84 48.325 -2.5 72.125 C-3.16 72.125 -3.82 72.125 -4.5 72.125 C-4.52312524 62.88502448 -4.54091601 53.64505886 -4.55181217 44.40506077 C-4.55704061 40.11500085 -4.56413753 35.82496067 -4.57543945 31.53491211 C-4.58626975 27.398206 -4.59227714 23.26151892 -4.59487724 19.12479973 C-4.59673124 17.54307696 -4.60035136 15.96135529 -4.60573006 14.37964058 C-4.6129424 12.17177162 -4.61399086 9.96398227 -4.61352539 7.75610352 C-4.615746 6.49701675 -4.61796661 5.23792999 -4.62025452 3.94068909 C-4.44275468 -0.21536571 -4.27490478 0.15267517 0 0 Z " fill="#B4B4B4" transform="translate(225.5,213.875)"/>
<path d="M0 0 C1.24546405 2.49092811 0.7767578 3.41080733 0 6 C-0.66 6 -1.32 6 -2 6 C-2.33 7.98 -2.66 9.96 -3 12 C-3.66 12 -4.32 12 -5 12 C-5 12.66 -5 13.32 -5 14 C-6.375 15.625 -6.375 15.625 -8 17 C-8.66 17 -9.32 17 -10 17 C-10 17.66 -10 18.32 -10 19 C-11.010625 19.28875 -12.02125 19.5775 -13.0625 19.875 C-13.69800781 20.05675781 -14.33351562 20.23851562 -14.98828125 20.42578125 C-16.90816171 20.97378596 -18.82905667 21.51823272 -20.75 22.0625 C-22.84569226 22.66702661 -24.93078744 23.31026248 -27 24 C-28.70016844 24.08178114 -30.40336297 24.10749501 -32.10546875 24.09765625 C-33.08837891 24.09443359 -34.07128906 24.09121094 -35.08398438 24.08789062 C-36.10814453 24.07951172 -37.13230469 24.07113281 -38.1875 24.0625 C-39.74114258 24.05573242 -39.74114258 24.05573242 -41.32617188 24.04882812 C-43.88417266 24.0370401 -46.44205733 24.02058515 -49 24 C-49 23.34 -49 22.68 -49 22 C-51.31 22 -53.62 22 -56 22 C-56.33 21.34 -56.66 20.68 -57 20 C-55.0412957 20.14076315 -53.08303907 20.2877676 -51.125 20.4375 C-49.48917969 20.55931641 -49.48917969 20.55931641 -47.8203125 20.68359375 C-45 21 -45 21 -43 22 C-40.45384991 22.23172827 -37.92603775 22.41894529 -35.375 22.5625 C-34.66859375 22.60568359 -33.9621875 22.64886719 -33.234375 22.69335938 C-31.48981463 22.79944751 -29.74493303 22.90022889 -28 23 C-28 22.34 -28 21.68 -28 21 C-25.36 21 -22.72 21 -20 21 C-20 20.34 -20 19.68 -20 19 C-18.73160474 18.49384702 -17.46016898 17.99530901 -16.1875 17.5 C-15.47980469 17.2215625 -14.77210937 16.943125 -14.04296875 16.65625 C-12 16 -12 16 -9 16 C-8.67 15.01 -8.34 14.02 -8 13 C-7.34 13 -6.68 13 -6 13 C-5.67 11.02 -5.34 9.04 -5 7 C-4.34 7 -3.68 7 -3 7 C-3 6.34 -3 5.68 -3 5 C-2.34 5 -1.68 5 -1 5 C-0.67 3.35 -0.34 1.7 0 0 Z " fill="#91C8FD" transform="translate(98,278)"/>
<path d="M0 0 C2.31 0 4.62 0 7 0 C7 0.66 7 1.32 7 2 C7.66 2 8.32 2 9 2 C9.125 5.375 9.125 5.375 9 9 C7 11 7 11 5.0546875 11.1953125 C3.03645833 11.13020833 1.01822917 11.06510417 -1 11 C-2.4783226 8.04335481 -2.06032783 5.25770263 -2 2 C-1.34 2 -0.68 2 0 2 C0 1.34 0 0.68 0 0 Z " fill="#2D2D2D" transform="translate(202,214)"/>
<path d="M0 0 C0.66 0 1.32 0 2 0 C2 9.24 2 18.48 2 28 C1.34 28 0.68 28 0 28 C0 27.34 0 26.68 0 26 C-0.969375 25.71125 -1.93875 25.4225 -2.9375 25.125 C-6 24 -6 24 -7 22 C-5.68 22 -4.36 22 -3 22 C-3 22.66 -3 23.32 -3 24 C-2.34 24 -1.68 24 -1 24 C-1.00523682 23.30849854 -1.01047363 22.61699707 -1.01586914 21.90454102 C-1.036575 18.79053648 -1.04963963 15.67654639 -1.0625 12.5625 C-1.07087891 11.47388672 -1.07925781 10.38527344 -1.08789062 9.26367188 C-1.09111328 8.22919922 -1.09433594 7.19472656 -1.09765625 6.12890625 C-1.10289307 5.17056885 -1.10812988 4.21223145 -1.11352539 3.22485352 C-1 1 -1 1 0 0 Z " fill="#BDBDBD" transform="translate(446,214)"/>
<path d="M0 0 C2.60590285 1.30295142 2.96190955 2.2991275 4 5 C4.1953125 7.796875 4.1953125 7.796875 4.125 10.75 C4.10695313 11.73484375 4.08890625 12.7196875 4.0703125 13.734375 C4.03550781 14.85585937 4.03550781 14.85585937 4 16 C3.34 16 2.68 16 2 16 C2 17.65 2 19.3 2 21 C1.01 21 0.02 21 -1 21 C-1 18.36 -1 15.72 -1 13 C-0.34 13 0.32 13 1 13 C0.67 8.71 0.34 4.42 0 0 Z " fill="#76BEFD" transform="translate(94,217)"/>
<path d="M0 0 C6.27 0 12.54 0 19 0 C18.67 0.66 18.34 1.32 18 2 C15.27779617 2.31330467 12.6677157 2.51264983 9.9375 2.625 C7.318125 2.74875 4.69875 2.8725 2 3 C1.67 8.94 1.34 14.88 1 21 C1.99 21.33 2.98 21.66 4 22 C2.68 22 1.36 22 0 22 C0 14.74 0 7.48 0 0 Z " fill="#1FB3FF" transform="translate(8,199)"/>
<path d="M0 0 C0.33 0.66 0.66 1.32 1 2 C0.67 2.99 0.34 3.98 0 5 C-0.66 5 -1.32 5 -2 5 C-2 5.99 -2 6.98 -2 8 C-2.66 8 -3.32 8 -4 8 C-4 14.93 -4 21.86 -4 29 C-3.34 29 -2.68 29 -2 29 C-1.67 30.32 -1.34 31.64 -1 33 C-1.66 33 -2.32 33 -3 33 C-3 32.34 -3 31.68 -3 31 C-3.66 31 -4.32 31 -5 31 C-6.01965824 26.79188662 -6.13364501 22.82250521 -6.125 18.5 C-6.12757813 17.2109375 -6.13015625 15.921875 -6.1328125 14.59375 C-6.02135753 11.57790967 -5.70804225 8.92207912 -5 6 C-4.34 6 -3.68 6 -3 6 C-2.87625 5.38125 -2.7525 4.7625 -2.625 4.125 C-2 2 -2 2 0 0 Z " fill="#454545" transform="translate(407,241)"/>
<path d="M0 0 C4.79557489 2.77638546 7.28741048 4.63140415 9 10 C9.3359375 13.41015625 9.3359375 13.41015625 9.375 17.0625 C9.40335937 18.27035156 9.43171875 19.47820312 9.4609375 20.72265625 C8.92566424 24.52853985 7.95959587 25.65454952 5 28 C5.15984375 27.28457031 5.3196875 26.56914062 5.484375 25.83203125 C6.89989935 18.05737098 6.49126296 11.11183196 3 4 C2.01 3.34 1.02 2.68 0 2 C0 1.34 0 0.68 0 0 Z " fill="#ACACAC" transform="translate(439,243)"/>
<path d="M0 0 C-2.36859974 1.18429987 -3.75753404 1.10095343 -6.39453125 1.0625 C-7.26787109 1.05476562 -8.14121094 1.04703125 -9.04101562 1.0390625 C-10.87695546 1.01318597 -12.71289301 0.98714642 -14.54882812 0.9609375 C-20.82921307 0.90153997 -20.82921307 0.90153997 -27 2 C-20.99412649 -6.25807607 -7.76619234 -3.32836815 0 0 Z " fill="#5E5E5E" transform="translate(379,236)"/>
<path d="M0 0 C2.33294775 -0.04241723 4.66702567 -0.04092937 7 0 C8 1 8 1 8.11352539 3.22485352 C8.10828857 4.18319092 8.10305176 5.14152832 8.09765625 6.12890625 C8.09443359 7.16337891 8.09121094 8.19785156 8.08789062 9.26367188 C8.07951172 10.35228516 8.07113281 11.44089844 8.0625 12.5625 C8.05798828 13.65498047 8.05347656 14.74746094 8.04882812 15.87304688 C8.03699826 18.58208495 8.02051543 21.29101599 8 24 C9.32 24.33 10.64 24.66 12 25 C10.625 26.5 10.625 26.5 9 28 C8.34 28 7.68 28 7 28 C7 19.42 7 10.84 7 2 C4.36 2 1.72 2 -1 2 C-0.67 1.34 -0.34 0.68 0 0 Z " fill="#D3D3D3" transform="translate(222,214)"/>
<path d="M0 0 C0.33 0.66 0.66 1.32 1 2 C0.01 2 -0.98 2 -2 2 C-2 2.66 -2 3.32 -2 4 C-2.99 4.33 -3.98 4.66 -5 5 C-5.33 8.63 -5.66 12.26 -6 16 C-2.535 15.505 -2.535 15.505 1 15 C-5 19 -5 19 -8 19 C-8.05384521 16.70858714 -8.09272087 14.41681812 -8.125 12.125 C-8.14820313 10.84882813 -8.17140625 9.57265625 -8.1953125 8.2578125 C-8 5 -8 5 -6 3 C-5.01 3 -4.02 3 -3 3 C-3 2.34 -3 1.68 -3 1 C-2.01 0.67 -1.02 0.34 0 0 Z " fill="#78C9FE" transform="translate(15,225)"/>
<path d="M0 0 C0.66 0.33 1.32 0.66 2 1 C1.68289063 2.15371094 1.36578125 3.30742187 1.0390625 4.49609375 C-0.53729813 11.58971659 -0.46649159 18.82972809 -0.625 26.0625 C-0.66326196 27.51499527 -0.70231819 28.96746984 -0.7421875 30.41992188 C-0.83728105 33.94642312 -0.92163114 37.47308279 -1 41 C-1.33 41 -1.66 41 -2 41 C-2 29.45 -2 17.9 -2 6 C-1.34 6 -0.68 6 0 6 C0 4.02 0 2.04 0 0 Z " fill="#D8D8D8" transform="translate(344,245)"/>
<path d="M0 0 C1.9587043 0.14076315 3.91696093 0.2877676 5.875 0.4375 C7.51082031 0.55931641 7.51082031 0.55931641 9.1796875 0.68359375 C12 1 12 1 14 2 C16.71262116 2.2322646 19.40773126 2.41936235 22.125 2.5625 C23.25615234 2.62727539 23.25615234 2.62727539 24.41015625 2.69335938 C26.27321888 2.7994832 28.13658524 2.90025001 30 3 C30 3.33 30 3.66 30 4 C22.74 4 15.48 4 8 4 C8 3.34 8 2.68 8 2 C5.69 2 3.38 2 1 2 C0.67 1.34 0.34 0.68 0 0 Z " fill="#95CCFD" transform="translate(41,298)"/>
<path d="M0 0 C0 3.38023517 -0.87455622 5.83468937 -2 9 C-2.66 9 -3.32 9 -4 9 C-4 11.97 -4 14.94 -4 18 C-3.34 18 -2.68 18 -2 18 C-2 19.98 -2 21.96 -2 24 C-1.34 24 -0.68 24 0 24 C0.33 25.32 0.66 26.64 1 28 C0.34 27.67 -0.32 27.34 -1 27 C-1 26.34 -1 25.68 -1 25 C-1.66 25 -2.32 25 -3 25 C-3 23.68 -3 22.36 -3 21 C-3.66 21 -4.32 21 -5 21 C-5.5582789 7.06370458 -5.5582789 7.06370458 -2 2 C-1.34 1.34 -0.68 0.68 0 0 Z " fill="#8C8C8C" transform="translate(412,245)"/>
<path d="M0 0 C0.85013672 -0.01224609 1.70027344 -0.02449219 2.57617188 -0.03710938 C3.80883789 -0.04000977 3.80883789 -0.04000977 5.06640625 -0.04296875 C5.80963135 -0.04707764 6.55285645 -0.05118652 7.31860352 -0.05541992 C9.72244353 0.22016722 11.34893314 0.99542529 13.4375 2.1875 C12.21933594 2.17589844 11.00117187 2.16429687 9.74609375 2.15234375 C8.12239738 2.14295822 6.49869933 2.13385884 4.875 2.125 C4.07513672 2.11662109 3.27527344 2.10824219 2.45117188 2.09960938 C-3.69567152 2.07452022 -9.61188256 2.52132712 -15.5625 4.1875 C-15.2325 3.1975 -14.9025 2.2075 -14.5625 1.1875 C-9.72512894 -0.05412502 -4.95863563 0.00377657 0 0 Z " fill="#97D6FE" transform="translate(31.5625,220.8125)"/>
<path d="M0 0 C3.63 0 7.26 0 11 0 C11 0.66 11 1.32 11 2 C11.99 2.33 12.98 2.66 14 3 C4.595 3.495 4.595 3.495 -5 4 C-4.67 3.34 -4.34 2.68 -4 2 C-2.68 2 -1.36 2 0 2 C0 1.34 0 0.68 0 0 Z " fill="#A3A3A3" transform="translate(158,231)"/>
<path d="M0 0 C0.66 0.33 1.32 0.66 2 1 C-0.47821122 4.71731683 -2.75180558 6.0117286 -7 7 C-11.67829626 7.24541882 -16.3200536 7.17525458 -21 7 C-21 6.67 -21 6.34 -21 6 C-19.60974609 5.92652344 -19.60974609 5.92652344 -18.19140625 5.8515625 C-16.99386719 5.77679688 -15.79632813 5.70203125 -14.5625 5.625 C-13.36753906 5.55539062 -12.17257812 5.48578125 -10.94140625 5.4140625 C-9.97074219 5.27742188 -9.00007813 5.14078125 -8 5 C-7.67 4.34 -7.34 3.68 -7 3 C-3.5625 1.3125 -3.5625 1.3125 0 0 Z " fill="#B2B2B2" transform="translate(318,280)"/>
<path d="M0 0 C2.31 0.33 4.62 0.66 7 1 C7 1.66 7 2.32 7 3 C7.75925781 2.855625 8.51851562 2.71125 9.30078125 2.5625 C10.79158203 2.2840625 10.79158203 2.2840625 12.3125 2 C13.29863281 1.814375 14.28476563 1.62875 15.30078125 1.4375 C18 1 18 1 21 1 C17.59159826 4.14943004 15.076146 4.43225213 10.5 4.4375 C8.81390625 4.46650391 8.81390625 4.46650391 7.09375 4.49609375 C3.43701813 3.90972387 2.28856997 2.83266626 0 0 Z " fill="#74BFFD" transform="translate(57,254)"/>
<path d="M0 0 C2.64 0.33 5.28 0.66 8 1 C8 1.66 8 2.32 8 3 C9.1446875 3.37125 9.1446875 3.37125 10.3125 3.75 C13.2364045 5.10995558 14.30004356 6.31585826 16 9 C14.35 8.67 12.7 8.34 11 8 C11 7.34 11 6.68 11 6 C10.34 6 9.68 6 9 6 C9 5.34 9 4.68 9 4 C8.01 4 7.02 4 6 4 C6 3.34 6 2.68 6 2 C3.03 1.505 3.03 1.505 0 1 C0 0.67 0 0.34 0 0 Z " fill="#9FD5FE" transform="translate(32,237)"/>
<path d="M0 0 C0.33 0.66 0.66 1.32 1 2 C0.67 2.99 0.34 3.98 0 5 C-0.66 5 -1.32 5 -2 5 C-2 8.3 -2 11.6 -2 15 C-1.34 15 -0.68 15 0 15 C0.33 16.65 0.66 18.3 1 20 C-0.97265625 18.9375 -0.97265625 18.9375 -3 17 C-3.49609375 13.75 -3.49609375 13.75 -3.4375 10 C-3.43621094 8.7625 -3.43492187 7.525 -3.43359375 6.25 C-3 3 -3 3 -1.47265625 1.0625 C-0.98667969 0.711875 -0.50070312 0.36125 0 0 Z " fill="#575757" transform="translate(468,236)"/>
<path d="M0 0 C4.62 0 9.24 0 14 0 C14.33 0.66 14.66 1.32 15 2 C11.04 1.67 7.08 1.34 3 1 C3 1.66 3 2.32 3 3 C0.36 3.66 -2.28 4.32 -5 5 C-4.34 4.01 -3.68 3.02 -3 2 C-2.01 2 -1.02 2 0 2 C0 1.34 0 0.68 0 0 Z " fill="#686868" transform="translate(420,238)"/>
<path d="M0 0 C-2.55274874 2.45605371 -3.85890643 2.98802939 -7.453125 3.29296875 C-8.70609375 3.25816406 -9.9590625 3.22335937 -11.25 3.1875 C-12.51328125 3.16042969 -13.7765625 3.13335937 -15.078125 3.10546875 C-16.52445312 3.05326172 -16.52445312 3.05326172 -18 3 C-18 2.34 -18 1.68 -18 1 C-14.04 1.33 -10.08 1.66 -6 2 C-6 1.34 -6 0.68 -6 0 C-2.25 -1.125 -2.25 -1.125 0 0 Z " fill="#646464" transform="translate(488,283)"/>
<path d="M0 0 C0.66 0 1.32 0 2 0 C2.33 1.32 2.66 2.64 3 4 C3.66 4 4.32 4 5 4 C5 4.99 5 5.98 5 7 C6.32 7 7.64 7 9 7 C8.67 5.35 8.34 3.7 8 2 C8.66 2 9.32 2 10 2 C10 3.98 10 5.96 10 8 C7.1875 8.3125 7.1875 8.3125 4 8 C1.95691589 5.39330648 1.04553582 3.13660747 0 0 Z " fill="#A3D5FD" transform="translate(62,234)"/>
<path d="M0 0 C1.75070517 0.11470137 3.50057536 0.24219028 5.25 0.375 C6.22453125 0.44460937 7.1990625 0.51421875 8.203125 0.5859375 C10.89633189 0.98465249 12.66963279 1.63507063 15 3 C14.67 3.66 14.34 4.32 14 5 C13.17242187 4.50886719 13.17242187 4.50886719 12.328125 4.0078125 C9.61219077 2.83212285 7.69448241 2.79751362 4.75 2.875 C3.41195312 2.90207031 3.41195312 2.90207031 2.046875 2.9296875 C1.37140625 2.95289063 0.6959375 2.97609375 0 3 C0 2.01 0 1.02 0 0 Z " fill="#62BDFE" transform="translate(67,199)"/>
<path d="M0 0 C2.31 0 4.62 0 7 0 C7 0.33 7 0.66 7 1 C5.02 1 3.04 1 1 1 C1 1.99 1 2.98 1 4 C2.175625 4.1546875 2.175625 4.1546875 3.375 4.3125 C6 5 6 5 8 8 C6.35 7.67 4.7 7.34 3 7 C3 6.34 3 5.68 3 5 C2.01 5 1.02 5 0 5 C0 3.35 0 1.7 0 0 Z " fill="#BBE1FE" transform="translate(66,198)"/>
<path d="M0 0 C-3.07692746 2.6815279 -5.19734663 3.42087807 -9.25 3.6875 C-10.14203125 3.75324219 -11.0340625 3.81898438 -11.953125 3.88671875 C-12.62859375 3.92410156 -13.3040625 3.96148437 -14 4 C-14 3.34 -14 2.68 -14 2 C-11.36 2 -8.72 2 -6 2 C-6 1.34 -6 0.68 -6 0 C-2.25 -1.125 -2.25 -1.125 0 0 Z " fill="#61AFFC" transform="translate(84,297)"/>
<path d="M0 0 C0.33 0.66 0.66 1.32 1 2 C0.67 2.99 0.34 3.98 0 5 C-0.66 5 -1.32 5 -2 5 C-2 5.99 -2 6.98 -2 8 C-2.66 8 -3.32 8 -4 8 C-4.33 9.65 -4.66 11.3 -5 13 C-6.33332095 10.3333581 -5.67102033 8.83319697 -5 6 C-4.34 6 -3.68 6 -3 6 C-2.87625 5.38125 -2.7525 4.7625 -2.625 4.125 C-2 2 -2 2 0 0 Z " fill="#666666" transform="translate(407,241)"/>
<path d="M0 0 C0.33 0 0.66 0 1 0 C1 3.3 1 6.6 1 10 C4.465 9.505 4.465 9.505 8 9 C5 11 5 11 0 13 C0 8.71 0 4.42 0 0 Z " fill="#42B8FF" transform="translate(8,231)"/>
<path d="M0 0 C0 3 0 3 -1.3125 4.60546875 C-1.869375 5.12753906 -2.42625 5.64960938 -3 6.1875 C-3.556875 6.71730469 -4.11375 7.24710938 -4.6875 7.79296875 C-5.120625 8.19128906 -5.55375 8.58960938 -6 9 C-6.66 8.67 -7.32 8.34 -8 8 C-4 1.42857143 -4 1.42857143 0 0 Z " fill="#DBDBDB" transform="translate(418,241)"/>
<path d="M0 0 C3.08089673 2.77280706 4.68775452 5.06326356 6 9 C5.01 9 4.02 9 3 9 C2.87625 8.360625 2.7525 7.72125 2.625 7.0625 C2.315625 6.0415625 2.315625 6.0415625 2 5 C1.34 4.67 0.68 4.34 0 4 C0 2.68 0 1.36 0 0 Z " fill="#49B1FD" transform="translate(22,260)"/>
</svg>
