<?xml version="1.0" encoding="UTF-8"?>
<svg version="1.1" xmlns="http://www.w3.org/2000/svg" width="500" height="500">
<path d="M0 0 C165 0 330 0 500 0 C500 165 500 330 500 500 C335 500 170 500 0 500 C0 335 0 170 0 0 Z " fill="#4AD5BD" transform="translate(0,0)"/>
<path d="M0 0 C6.1826637 2.12556626 13.67558103 5.86363238 16.9921875 11.765625 C20.25816747 19.16851294 20.90872852 25.97575568 20 34 C17.25475207 41.00130344 12.54455657 46.49287462 6.4375 50.8125 C-0.92129527 53.35462928 -9.34994308 52.74837167 -16.6796875 50.2265625 C-23.61602257 46.55988032 -27.87872288 39.71842535 -30.37109375 32.46484375 C-32.54566731 23.9421362 -30.41606547 17.49569007 -26 10 C-22.44696642 5.18778693 -18.54983102 3.02782287 -13 1 C-9.00020373 -0.99989814 -4.34715104 -0.50051286 0 0 Z " fill="#F1FCFA" transform="translate(405,223)"/>
<path d="M0 0 C7.52336559 2.72518196 14.95556896 7.71310106 18.7890625 14.9765625 C20.3055714 20.88705871 19.65976876 27.30464753 19.3984375 33.3515625 C18.7384375 33.3515625 18.0784375 33.3515625 17.3984375 33.3515625 C17.1921875 34.1971875 16.9859375 35.0428125 16.7734375 35.9140625 C15.09239944 40.11665766 12.73390989 43.28800362 9.3984375 46.3515625 C8.7384375 46.3515625 8.0784375 46.3515625 7.3984375 46.3515625 C7.1921875 46.9909375 6.9859375 47.6303125 6.7734375 48.2890625 C5.3984375 50.3515625 5.3984375 50.3515625 2.9609375 51.1015625 C1.7853125 51.1840625 0.6096875 51.2665625 -0.6015625 51.3515625 C-1.42269531 51.42632812 -2.24382812 51.50109375 -3.08984375 51.578125 C-11.324499 52.02072316 -17.45809662 50.01123387 -23.67578125 44.51953125 C-30.3467096 37.42904766 -32.16585799 30.83210211 -31.88671875 21.18359375 C-31.25150816 14.87499542 -28.37526159 9.58836634 -23.6015625 5.3515625 C-20.69492092 3.48264738 -17.69917543 1.87906907 -14.6015625 0.3515625 C-10.19690239 -1.85076755 -4.65477869 -1.16020009 0 0 Z " fill="#F1FCFA" transform="translate(267.6015625,223.6484375)"/>
<path d="M0 0 C5.6196721 3.97684461 9.14455437 8.95536963 11.19140625 15.55078125 C12.24307046 22.49695844 10.50257221 28.43208946 7.19140625 34.55078125 C4.69140625 37.48828125 4.69140625 37.48828125 2.19140625 39.55078125 C1.55203125 40.10765625 0.91265625 40.66453125 0.25390625 41.23828125 C-5.1481367 44.67594495 -10.2106011 44.81316594 -16.37109375 44.42578125 C-17.11294922 44.40257812 -17.85480469 44.379375 -18.61914062 44.35546875 C-23.56784225 44.07344123 -26.14527823 43.12606885 -29.80859375 39.55078125 C-30.55109375 38.93203125 -31.29359375 38.31328125 -32.05859375 37.67578125 C-34.24896032 35.01605041 -34.50086687 32.93577696 -34.80859375 29.55078125 C-35.46859375 29.55078125 -36.12859375 29.55078125 -36.80859375 29.55078125 C-38.99053202 23.00496645 -38.53757718 15.64980914 -35.79296875 9.33203125 C-32.83687572 3.98291053 -28.83060369 -0.01376403 -23.30859375 -2.63671875 C-14.92416377 -4.58310428 -7.55788284 -4.30665876 0 0 Z " fill="#49D3BD" transform="translate(162.80859375,228.44921875)"/>
<path d="M0 0 C1.44729492 -0.03673828 1.44729492 -0.03673828 2.92382812 -0.07421875 C10.80268252 -0.10613848 16.6765587 1.53850381 22.99609375 6.3046875 C28.38028609 11.87917354 30.42651232 15.82568981 30.875 23.625 C30.74811277 30.77948747 28.01364613 36.58417503 23.1875 41.8125 C22.32125 42.5859375 22.32125 42.5859375 21.4375 43.375 C21.1075 44.365 20.7775 45.355 20.4375 46.375 C13.8948494 49.82372906 6.0885617 49.68626572 -1.125 49.75 C-2.01807861 49.76377686 -2.91115723 49.77755371 -3.83129883 49.79174805 C-5.0923645 49.78268433 -5.0923645 49.78268433 -6.37890625 49.7734375 C-7.13631104 49.77005371 -7.89371582 49.76666992 -8.67407227 49.76318359 C-10.5625 49.375 -10.5625 49.375 -12.5625 46.375 C-12.81646729 44.35728455 -12.81646729 44.35728455 -12.82128906 42.02709961 C-12.82759338 41.1528685 -12.83389771 40.27863739 -12.84039307 39.37791443 C-12.8363446 38.4372261 -12.83229614 37.49653778 -12.828125 36.52734375 C-12.83003845 35.55970596 -12.8319519 34.59206818 -12.83392334 33.59510803 C-12.83528428 31.54997497 -12.83159419 29.50483325 -12.82324219 27.4597168 C-12.81252988 24.32125561 -12.8231466 21.18336535 -12.8359375 18.04492188 C-12.83461612 16.05989456 -12.83205416 14.07486761 -12.828125 12.08984375 C-12.83217346 11.1471312 -12.83622192 10.20441864 -12.84039307 9.23313904 C-12.83408875 8.36206009 -12.82778442 7.49098114 -12.82128906 6.59350586 C-12.81969788 5.82534042 -12.81810669 5.05717499 -12.81646729 4.26573181 C-12.01396603 -1.70871739 -4.49090442 0.00583613 0 0 Z " fill="#F1FBFA" transform="translate(202.5625,224.625)"/>
<path d="M0 0 C4.5197223 2.10114181 7.91203568 4.94303413 11.5 8.375 C11.17 10.025 10.84 11.675 10.5 13.375 C8.4375 14.25 8.4375 14.25 5.5 14.375 C3.59486685 13.01482355 1.95778403 11.46585636 0.23828125 9.87890625 C-4.37383662 5.88864697 -10.05157204 5.93599071 -15.87890625 6.0625 C-19.68118905 6.51582731 -21.71047275 7.7895845 -24.5 10.375 C-28.84644762 16.01363475 -30.21120599 20.26294012 -29.5 27.375 C-26.90762712 33.12985265 -23.21076694 37.51961653 -17.5 40.375 C-7.83239879 41.4185876 -7.83239879 41.4185876 0.9375 38 C7.05836094 32.42610961 11.07073421 25.18154555 15.125 18.0625 C17.53592276 13.86749439 19.77965965 10.53728929 23.5 7.375 C24.04527344 6.86324219 24.59054688 6.35148438 25.15234375 5.82421875 C31.23989443 0.2428539 36.46760172 -1.01803956 44.6640625 -0.89453125 C48.87634231 -0.49419061 52.60847254 0.76073676 56.5 2.375 C56.995 4.85 56.995 4.85 57.5 7.375 C50.95323741 6.49370504 50.95323741 6.49370504 48.53125 5.859375 C42.49852809 4.42080285 36.79803858 4.86756948 31.359375 7.90234375 C26.82292052 11.49529194 23.62054712 16.70786516 22.5 22.375 C21.84 22.375 21.18 22.375 20.5 22.375 C20.314375 23.48875 20.314375 23.48875 20.125 24.625 C19.54513299 27.17641485 18.76291261 29.1017573 17.5 31.375 C16.84 31.375 16.18 31.375 15.5 31.375 C15.2525 32.096875 15.005 32.81875 14.75 33.5625 C11.30396912 41.31606947 4.82805133 44.71097433 -2.5 48.375 C-19.81689152 49.69115896 -19.81689152 49.69115896 -26.70703125 45 C-29.85543326 42.14654633 -32.25489241 38.96717215 -34.5 35.375 C-35.04011719 34.60800781 -35.58023438 33.84101563 -36.13671875 33.05078125 C-39.00187532 27.42719314 -38.45488503 19.93308349 -36.84375 13.9296875 C-30.14061279 -0.80565722 -14.86694854 -5.44969433 0 0 Z " fill="#2876AB" transform="translate(57.5,225.625)"/>
<path d="M0 0 C4.50101306 -0.7077841 9.07499226 -0.50914574 13.625 -0.5 C15.51412109 -0.54253906 15.51412109 -0.54253906 17.44140625 -0.5859375 C26.16111384 -0.60423699 31.29438924 0.62917305 37.66430664 6.54589844 C40.5758602 9.71555902 40.45780452 14.49510902 40.41015625 18.61328125 C39.67198698 22.90872336 37.27213709 26.19242558 34 29 C30.7890625 30.22265625 30.7890625 30.22265625 28 31 C28.99193359 32.10408203 28.99193359 32.10408203 30.00390625 33.23046875 C30.84824219 34.20628906 31.69257813 35.18210937 32.5625 36.1875 C33.40941406 37.15042969 34.25632812 38.11335938 35.12890625 39.10546875 C37 42 37 42 36.83984375 44.80078125 C36 47 36 47 35 48 C32.8203125 48.484375 32.8203125 48.484375 30 48 C27.64160478 46.01218759 25.79055246 43.65757716 23.875 41.25 C23.35035156 40.61578125 22.82570313 39.9815625 22.28515625 39.328125 C20.83628379 37.56746986 19.41586833 35.78721296 18 34 C17.37867188 33.24589844 16.75734375 32.49179687 16.1171875 31.71484375 C15 30 15 30 15.25 27.3125 C16 25 16 25 17 24 C18.43530239 23.86898863 19.87358964 23.76992531 21.3125 23.6875 C24.4298819 23.35491308 25.86455849 23.08588974 28.5625 21.375 C30.59913788 18.01012003 30.6304724 15.85288689 30 12 C25.69840693 8.31783633 21.0788804 8.46143316 15.6875 8.3125 C14.85154297 8.27833984 14.01558594 8.24417969 13.15429688 8.20898438 C11.10332228 8.12694539 9.05168462 8.0617849 7 8 C7.01047363 9.10512939 7.02094727 10.21025879 7.03173828 11.34887695 C7.06792407 15.44698856 7.09089529 19.54508603 7.10986328 23.64331055 C7.11992411 25.41742324 7.13357422 27.19151935 7.15087891 28.96557617 C7.17512378 31.51485284 7.18648218 34.06391037 7.1953125 36.61328125 C7.20563507 37.40712723 7.21595764 38.20097321 7.22659302 39.01887512 C7.2273811 42.88223043 7.19440369 44.70839446 5 48 C2.5 48.3125 2.5 48.3125 0 48 C-2.38541367 45.61458633 -2.25190887 45.11797506 -2.25878906 41.87329102 C-2.26824554 40.59670372 -2.26824554 40.59670372 -2.27789307 39.29432678 C-2.2738446 38.37348801 -2.26979614 37.45264923 -2.265625 36.50390625 C-2.26753845 35.55942123 -2.2694519 34.61493622 -2.27142334 33.64183044 C-2.27278586 31.64199559 -2.26908479 29.64215191 -2.26074219 27.64233398 C-2.2500555 24.57841114 -2.26062915 21.51507625 -2.2734375 18.45117188 C-2.27211568 16.51041537 -2.26955283 14.56965923 -2.265625 12.62890625 C-2.26967346 11.71009171 -2.27372192 10.79127716 -2.27789307 9.84461975 C-2.27158875 8.99040939 -2.26528442 8.13619904 -2.25878906 7.25610352 C-2.25719788 6.50490738 -2.25560669 5.75371124 -2.25396729 4.97975159 C-2 3 -2 3 0 0 Z " fill="#F3FCFB" transform="translate(430,225)"/>
<path d="M0 0 C5.16265357 2.73450442 9.11017374 6.75239622 10.96484375 12.31640625 C11.20452323 17.26978208 11.22413673 20.79782028 8.96484375 25.31640625 C8.30484375 25.31640625 7.64484375 25.31640625 6.96484375 25.31640625 C6.65546875 26.18265625 6.65546875 26.18265625 6.33984375 27.06640625 C4.38932447 30.25816507 2.43496347 32.03284896 -1.03515625 33.31640625 C-6.3349327 34.18153685 -11.6677073 34.80996465 -16.36328125 31.84765625 C-19.3410148 28.89494567 -22.79407136 25.34435558 -23.30078125 21.08203125 C-23.25772265 14.14959633 -23.11132442 8.19145083 -18.09765625 2.94140625 C-13.3301975 -1.61877168 -6.14138834 -2.06284637 0 0 Z " fill="#50D7BF" transform="translate(268.03515625,232.68359375)"/>
<path d="M0 0 C3.0625 2.5 3.0625 2.5 5 5 C4.87165745 7.31016597 4.63394255 8.36605745 3 10 C-0.96432207 10.37755448 -2.97573056 9.68284629 -6.25 7.5 C-10.94532307 4.74999381 -14.63812066 4.087771 -20 5 C-25.27322153 6.82534591 -27.79691086 9.60719203 -31 14 C-32.88900708 19.66702123 -32.31838509 23.88551671 -29.875 29.25 C-28.21618028 32.28195382 -27.08930282 33.92770724 -24.375 36.125 C-19.00480206 37.51727354 -13.16678994 38.31406985 -7.91015625 36.1328125 C-6.24502832 35.13446446 -4.6203786 34.06944988 -3 33 C-0.1875 32.125 -0.1875 32.125 2 32 C4 34 4 34 4.4375 36.375 C4 39 4 39 2.0625 41.0625 C-5.08397494 45.58373925 -11.41585228 48.41194861 -20 47 C-27.23652145 45.0147596 -32.62533967 42.51856568 -36.81640625 36.16015625 C-37.20699219 35.44730469 -37.59757812 34.73445313 -38 34 C-38.53496094 33.07832031 -39.06992187 32.15664063 -39.62109375 31.20703125 C-42.31496681 24.94167776 -42.31271321 17.01423894 -40.19140625 10.52734375 C-37.04354388 5.0485383 -31.13026493 -1.40803493 -25.17578125 -3.703125 C-16.54085772 -4.88131923 -7.22850099 -5.48797741 0 0 Z " fill="#F2FCFA" transform="translate(331,228)"/>
<path d="M0 0 C3.88166251 2.42096721 5.74693504 4.39628887 7.125 8.875 C8.34081175 14.55917973 8.66196295 19.49663854 6.125 24.875 C1.20325126 29.48458708 -2.87611632 32.16419368 -9.72265625 32.015625 C-15.18450343 31.6587711 -18.62415909 30.52952045 -22.25 26.4375 C-25.96913434 21.83333101 -26.33877867 17.52184208 -26.28515625 11.73828125 C-25.60698983 7.00403379 -23.30325715 4.09046877 -19.875 0.875 C-13.55002993 -3.62275649 -6.76558937 -3.41029708 0 0 Z " fill="#4FD7BF" transform="translate(408.875,234.125)"/>
<path d="M0 0 C5.6196721 3.97684461 9.14455437 8.95536963 11.19140625 15.55078125 C12.24307046 22.49695844 10.50257221 28.43208946 7.19140625 34.55078125 C4.69140625 37.48828125 4.69140625 37.48828125 2.19140625 39.55078125 C1.55203125 40.10765625 0.91265625 40.66453125 0.25390625 41.23828125 C-5.1481367 44.67594495 -10.2106011 44.81316594 -16.37109375 44.42578125 C-17.11294922 44.40257812 -17.85480469 44.379375 -18.61914062 44.35546875 C-23.56784225 44.07344123 -26.14527823 43.12606885 -29.80859375 39.55078125 C-30.55109375 38.93203125 -31.29359375 38.31328125 -32.05859375 37.67578125 C-34.24896032 35.01605041 -34.50086687 32.93577696 -34.80859375 29.55078125 C-35.46859375 29.55078125 -36.12859375 29.55078125 -36.80859375 29.55078125 C-38.99053202 23.00496645 -38.53757718 15.64980914 -35.79296875 9.33203125 C-32.83687572 3.98291053 -28.83060369 -0.01376403 -23.30859375 -2.63671875 C-14.92416377 -4.58310428 -7.55788284 -4.30665876 0 0 Z M-30.80859375 11.55078125 C-33.26277938 15.60552273 -33.27838179 19.91614158 -32.80859375 24.55078125 C-31.91062262 27.91899397 -31.91062262 27.91899397 -30.80859375 30.55078125 C-29.81859375 30.55078125 -28.82859375 30.55078125 -27.80859375 30.55078125 C-27.58171875 31.10765625 -27.35484375 31.66453125 -27.12109375 32.23828125 C-25.27929802 35.48334992 -23.85543401 37.31228636 -20.80859375 39.55078125 C-14.62481693 40.68479675 -8.98211876 39.97328747 -3.53125 36.828125 C0.18343292 34.07370025 2.71311889 30.98564332 4.19140625 26.55078125 C4.65972239 20.80047324 4.96680858 15.43871737 2.75390625 10.05078125 C-1.91630897 5.49447372 -6.83240472 2.29841834 -13.49609375 2.05078125 C-20.66299206 2.52277802 -25.94568832 6.52107432 -30.80859375 11.55078125 Z " fill="#308DBC" transform="translate(162.80859375,228.44921875)"/>
<path d="M0 0 C15.625 0 15.625 0 21.8125 5.5 C25.17659809 9.34468354 25.11557247 12.25176038 25.0625 17.1875 C25.05347656 18.27417969 25.04445312 19.36085937 25.03515625 20.48046875 C25.02355469 21.31191406 25.01195312 22.14335937 25 23 C24.34 23 23.68 23 23 23 C22.773125 23.5775 22.54625 24.155 22.3125 24.75 C20.33370463 28.14222063 17.49013058 30.25493471 14 32 C9.38 32 4.76 32 0 32 C0 21.44 0 10.88 0 0 Z " fill="#50D7BF" transform="translate(199,233)"/>
<path d="M0 0 C0.81976822 0.00202423 1.63953644 0.00404846 2.48414612 0.00613403 C3.32143753 0.00517731 4.15872894 0.00422058 5.02139282 0.00323486 C6.79600601 0.00255298 8.57062168 0.00440781 10.3452301 0.00857544 C13.06672257 0.01391694 15.78804949 0.00863418 18.50953674 0.00222778 C20.23024023 0.00288869 21.95094362 0.00417013 23.67164612 0.00613403 C24.48939011 0.0041098 25.30713409 0.00208557 26.1496582 0 C31.91439222 0.02399146 31.91439222 0.02399146 34.14430237 1.13894653 C34.26930237 3.51394653 34.26930237 3.51394653 34.14430237 6.13894653 C32.14430237 8.13894653 32.14430237 8.13894653 28.66773987 8.33425903 C27.28479269 8.32096146 25.90191583 8.29710885 24.51930237 8.26394653 C23.81289612 8.2549231 23.10648987 8.24589966 22.37867737 8.23660278 C20.63374139 8.21302257 18.88897942 8.17715114 17.14430237 8.13894653 C17.154776 9.30989868 17.16524963 10.48085083 17.17604065 11.68728638 C17.21217733 16.02205358 17.23517969 20.35680742 17.25416565 24.69168091 C17.26423771 26.56963335 17.27789599 28.44757007 17.29518127 30.32546997 C17.3193769 33.02114744 17.3307732 35.71661799 17.33961487 38.41238403 C17.34993744 39.25513885 17.36026001 40.09789368 17.37089539 40.96618652 C17.37129381 43.025159 17.26687824 45.08362588 17.14430237 47.13894653 C16.48430237 47.79894653 15.82430237 48.45894653 15.14430237 49.13894653 C10.58874681 48.58339098 10.58874681 48.58339098 9.14430237 47.13894653 C9.05565029 44.25460833 9.02908941 41.39432495 9.04664612 38.51004028 C9.04806107 37.64580948 9.04947601 36.78157867 9.05093384 35.89115906 C9.05654998 33.11955361 9.06910518 30.34802773 9.08180237 27.57644653 C9.08681529 25.70209874 9.09137856 23.82774968 9.09547424 21.95339966 C9.10652465 17.3485511 9.12380007 12.74376232 9.14430237 8.13894653 C8.15688049 8.16214966 7.16945862 8.18535278 6.15211487 8.20925903 C4.87078674 8.22730591 3.58945862 8.24535278 2.26930237 8.26394653 C0.35504456 8.29875122 0.35504456 8.29875122 -1.59788513 8.33425903 C-4.85569763 8.13894653 -4.85569763 8.13894653 -6.85569763 6.13894653 C-7.04319763 3.57644653 -7.04319763 3.57644653 -6.85569763 1.13894653 C-5.01750876 -0.69924233 -2.44571034 0.01022101 0 0 Z " fill="#F3FCFB" transform="translate(343.85569763183594,224.86105346679688)"/>
<path d="M0 0 C2.125 -0.375 2.125 -0.375 5 0 C6.66317042 1.41645972 8.0552028 2.92894955 9.47265625 4.58984375 C12.70526009 7.57442172 16.79855938 7.161241 21 7.1875 C22.03125 7.20167969 23.0625 7.21585937 24.125 7.23046875 C27.00455151 6.99963514 28.50553975 6.34776937 31 5 C35.52631579 5.52631579 35.52631579 5.52631579 37 7 C37.04063832 8.66617115 37.042721 10.33388095 37 12 C31.62648608 14.67261613 27.4690539 15.47110284 21.5 15.375 C20.41912109 15.39240234 20.41912109 15.39240234 19.31640625 15.41015625 C12.46512865 15.37298838 6.99539601 13.55349338 2 8.625 C-1.00994832 5.46757092 -1.00994832 5.46757092 -0.9375 2.0625 C-0.628125 1.381875 -0.31875 0.70125 0 0 Z " fill="#EAFAF7" transform="translate(80,259)"/>
<path d="M0 0 C1.11439453 -0.01224609 2.22878906 -0.02449219 3.37695312 -0.03710938 C4.97120117 -0.04000977 4.97120117 -0.04000977 6.59765625 -0.04296875 C7.57355713 -0.04707764 8.54945801 -0.05118652 9.55493164 -0.05541992 C11.9375 0.1875 11.9375 0.1875 13.9375 2.1875 C13.40178571 5.72321429 13.40178571 5.72321429 11.9375 7.1875 C7.79787717 7.44051239 3.64644004 7.37272549 -0.5 7.375 C-1.67111328 7.38724609 -2.84222656 7.39949219 -4.04882812 7.41210938 C-5.16580078 7.41404297 -6.28277344 7.41597656 -7.43359375 7.41796875 C-8.46411865 7.42207764 -9.49464355 7.42618652 -10.55639648 7.43041992 C-13.0625 7.1875 -13.0625 7.1875 -15.0625 5.1875 C-15.0625 3.8675 -15.0625 2.5475 -15.0625 1.1875 C-10.16848066 -0.44383978 -5.12416204 0.00297398 0 0 Z " fill="#EEFBF9" transform="translate(46.0625,246.8125)"/>
<path d="M0 0 C0.33 0 0.66 0 1 0 C1.33 4.95 1.66 9.9 2 15 C1.67 14.34 1.34 13.68 1 13 C-2.24849977 14.72226496 -2.24849977 14.72226496 -3 18 C-3.66 18 -4.32 18 -5 18 C-4.690625 17.030625 -4.38125 16.06125 -4.0625 15.0625 C-2.98329259 11.36451656 -2.60774387 7.75247976 -2.34375 3.91796875 C-2 2 -2 2 0 0 Z " fill="#7AE1D0" transform="translate(235,243)"/>
<path d="M0 0 C0.58523437 0.21914062 1.17046875 0.43828125 1.7734375 0.6640625 C0.505 1.4684375 0.505 1.4684375 -0.7890625 2.2890625 C-4.53430966 4.77397589 -7.86984122 7.68472409 -11.2265625 10.6640625 C-10.01182628 6.07505901 -7.49631254 3.75991827 -4.078125 0.703125 C-2.2265625 -0.3359375 -2.2265625 -0.3359375 0 0 Z " fill="#3AA7C6" transform="translate(139.2265625,227.3359375)"/>
<path d="M0 0 C0.66 0.33 1.32 0.66 2 1 C0.88200014 2.33920838 -0.24461897 3.67122556 -1.375 5 C-2.00148438 5.7425 -2.62796875 6.485 -3.2734375 7.25 C-4.12808594 8.11625 -4.12808594 8.11625 -5 9 C-5.66 9 -6.32 9 -7 9 C-5.64978174 4.58110387 -3.73884332 2.65654657 0 0 Z " fill="#3EB5BA" transform="translate(90,232)"/>
<path d="M0 0 C0.33 0.66 0.66 1.32 1 2 C1.66 2 2.32 2 3 2 C3 4.64 3 7.28 3 10 C2.01 9.67 1.02 9.34 0 9 C0 6.03 0 3.06 0 0 Z " fill="#6ADECA" transform="translate(287,244)"/>
<path d="M0 0 C0.66 0.33 1.32 0.66 2 1 C0.88200014 2.33920838 -0.24461897 3.67122556 -1.375 5 C-2.00148438 5.7425 -2.62796875 6.485 -3.2734375 7.25 C-4.12808594 8.11625 -4.12808594 8.11625 -5 9 C-5.66 9 -6.32 9 -7 9 C-5.44499019 5.18315774 -2.96404505 2.80804268 0 0 Z " fill="#D1F5F0" transform="translate(385,227)"/>
<path d="M0 0 C0.66 0.33 1.32 0.66 2 1 C1.04882866 2.1725131 0.08882991 3.33787015 -0.875 4.5 C-1.40867187 5.1496875 -1.94234375 5.799375 -2.4921875 6.46875 C-2.98976563 6.9740625 -3.48734375 7.479375 -4 8 C-4.66 8 -5.32 8 -6 8 C-4.55746343 4.63408134 -2.66735273 2.48952921 0 0 Z " fill="#6CDFCC" transform="translate(306,234)"/>
</svg>
