<?xml version="1.0" encoding="UTF-8"?>
<!DOCTYPE svg PUBLIC "-//W3C//DTD SVG 1.1//EN" "http://www.w3.org/Graphics/SVG/1.1/DTD/svg11.dtd">
<svg xmlns="http://www.w3.org/2000/svg" version="1.1" width="500px" height="500px" style="shape-rendering:geometricPrecision; text-rendering:geometricPrecision; image-rendering:optimizeQuality; fill-rule:evenodd; clip-rule:evenodd" xmlns:xlink="http://www.w3.org/1999/xlink">
<g><path style="opacity:1" fill="#fdfefd" d="M -0.5,-0.5 C 166.167,-0.5 332.833,-0.5 499.5,-0.5C 499.5,166.167 499.5,332.833 499.5,499.5C 332.833,499.5 166.167,499.5 -0.5,499.5C -0.5,332.833 -0.5,166.167 -0.5,-0.5 Z"/></g>
<g><path style="opacity:1" fill="#de6866" d="M 186.5,8.5 C 180.797,8.37477 175.13,8.7081 169.5,9.5C 169.918,8.77842 170.584,8.27842 171.5,8C 176.684,7.18368 181.684,7.35034 186.5,8.5 Z"/></g>
<g><path style="opacity:1" fill="#c90f10" d="M 186.5,8.5 C 195.202,9.84208 201.868,14.1754 206.5,21.5C 206.427,23.0269 207.094,24.0269 208.5,24.5C 210.101,30.7107 210.768,37.044 210.5,43.5C 210.371,45.2161 210.038,46.8828 209.5,48.5C 208.094,48.9731 207.427,49.9731 207.5,51.5C 206.833,52.8333 206.167,54.1667 205.5,55.5C 202.833,57.5 200.5,59.8333 198.5,62.5C 196.02,63.242 193.687,64.242 191.5,65.5C 183.383,67.062 175.383,66.7287 167.5,64.5C 167.027,63.0937 166.027,62.427 164.5,62.5C 160.485,59.4836 157.152,55.8169 154.5,51.5C 154.245,49.0326 153.245,47.0326 151.5,45.5C 151.5,44.5 151.5,43.5 151.5,42.5C 151.21,36.6784 151.877,31.0117 153.5,25.5C 156.5,17.8333 161.833,12.5 169.5,9.5C 175.13,8.7081 180.797,8.37477 186.5,8.5 Z"/></g>
<g><path style="opacity:1" fill="#abd4a9" d="M 270.5,10.5 C 254.119,10.1961 237.786,10.5294 221.5,11.5C 221.611,10.8826 221.944,10.3826 222.5,10C 238.672,9.1719 254.672,9.33857 270.5,10.5 Z"/></g>
<g><path style="opacity:1" fill="#afd6ad" d="M 287.5,10.5 C 303.661,9.33846 319.995,9.1718 336.5,10C 337.056,10.3826 337.389,10.8826 337.5,11.5C 320.881,10.5288 304.214,10.1955 287.5,10.5 Z"/></g>
<g><path style="opacity:1" fill="#369831" d="M 270.5,10.5 C 270.811,11.4778 271.478,12.1445 272.5,12.5C 273.666,28.8231 273.833,45.1565 273,61.5C 272.626,62.4162 272.126,63.2496 271.5,64C 254.833,64.6667 238.167,64.6667 221.5,64C 221,63.5 220.5,63 220,62.5C 219.333,45.8333 219.333,29.1667 220,12.5C 220.383,11.944 220.883,11.6107 221.5,11.5C 237.786,10.5294 254.119,10.1961 270.5,10.5 Z"/></g>
<g><path style="opacity:1" fill="#369831" d="M 287.5,10.5 C 304.214,10.1955 320.881,10.5288 337.5,11.5C 338.651,28.4262 338.818,45.4262 338,62.5C 337.5,63 337,63.5 336.5,64C 319.833,64.6667 303.167,64.6667 286.5,64C 285.874,63.2496 285.374,62.4162 285,61.5C 284.333,45.1667 284.333,28.8333 285,12.5C 285.708,11.6195 286.542,10.9528 287.5,10.5 Z"/></g>
<g><path style="opacity:1" fill="#e37a79" d="M 206.5,21.5 C 207.906,21.9731 208.573,22.9731 208.5,24.5C 207.094,24.0269 206.427,23.0269 206.5,21.5 Z"/></g>
<g><path style="opacity:1" fill="#dc6161" d="M 208.5,24.5 C 211.508,30.609 212.174,36.9423 210.5,43.5C 210.768,37.044 210.101,30.7107 208.5,24.5 Z"/></g>
<g><path style="opacity:1" fill="#e07070" d="M 153.5,25.5 C 151.877,31.0117 151.21,36.6784 151.5,42.5C 150.355,38.6888 150.188,34.6888 151,30.5C 151.374,28.5087 152.207,26.842 153.5,25.5 Z"/></g>
<g><path style="opacity:1" fill="#e58584" d="M 151.5,45.5 C 153.245,47.0326 154.245,49.0326 154.5,51.5C 152.755,49.9674 151.755,47.9674 151.5,45.5 Z"/></g>
<g><path style="opacity:1" fill="#e27a79" d="M 209.5,48.5 C 209.573,50.0269 208.906,51.0269 207.5,51.5C 207.427,49.9731 208.094,48.9731 209.5,48.5 Z"/></g>
<g><path style="opacity:1" fill="#f2bcbc" d="M 205.5,55.5 C 204.167,58.8333 201.833,61.1667 198.5,62.5C 200.5,59.8333 202.833,57.5 205.5,55.5 Z"/></g>
<g><path style="opacity:1" fill="#df6e6d" d="M 164.5,62.5 C 166.027,62.427 167.027,63.0937 167.5,64.5C 165.973,64.573 164.973,63.9063 164.5,62.5 Z"/></g>
<g><path style="opacity:1" fill="#d74b49" d="M 167.5,64.5 C 175.383,66.7287 183.383,67.062 191.5,65.5C 188.135,67.0392 184.469,67.7058 180.5,67.5C 177.833,67.3333 175.167,67.1667 172.5,67C 170.509,66.6264 168.842,65.793 167.5,64.5 Z"/></g>
<g><path style="opacity:1" fill="#379831" d="M 206.5,128.5 C 190.214,129.471 173.881,129.804 157.5,129.5C 156.167,128.833 155.167,127.833 154.5,126.5C 154.195,109.786 154.529,93.1193 155.5,76.5C 171.995,75.3384 188.662,75.1717 205.5,76C 206.025,76.6924 206.692,77.1924 207.5,77.5C 208.666,93.8231 208.833,110.156 208,126.5C 207.283,127.044 206.783,127.711 206.5,128.5 Z"/></g>
<g><path style="opacity:1" fill="#369831" d="M 221.5,75.5 C 238.17,75.3334 254.837,75.5001 271.5,76C 272,76.5 272.5,77 273,77.5C 273.667,93.8333 273.667,110.167 273,126.5C 272.167,127.333 271.333,128.167 270.5,129C 254.167,129.667 237.833,129.667 221.5,129C 221,128.5 220.5,128 220,127.5C 219.333,110.833 219.333,94.1667 220,77.5C 220.717,76.9558 221.217,76.2891 221.5,75.5 Z"/></g>
<g><path style="opacity:1" fill="#84c081" d="M 155.5,76.5 C 154.529,93.1193 154.195,109.786 154.5,126.5C 153.338,110.339 153.172,94.0052 154,77.5C 154.383,76.944 154.883,76.6107 155.5,76.5 Z"/></g>
<g><path style="opacity:1" fill="#c2e0c0" d="M 206.5,128.5 C 198.695,129.831 190.528,130.498 182,130.5C 173.66,130.5 165.493,130.166 157.5,129.5C 173.881,129.804 190.214,129.471 206.5,128.5 Z"/></g>
<g><path style="opacity:1" fill="#3a9a34" d="M 156.5,140.5 C 172.503,140.333 188.503,140.5 204.5,141C 205.931,141.465 207.097,142.299 208,143.5C 208.667,159.833 208.667,176.167 208,192.5C 207.5,193 207,193.5 206.5,194C 198.097,195.138 189.597,195.638 181,195.5C 155.993,201.844 146.827,192.51 153.5,167.5C 153.667,159.5 153.833,151.5 154,143.5C 155.045,142.627 155.878,141.627 156.5,140.5 Z"/></g>
<g><path style="opacity:1" fill="#379932" d="M 272.5,142.5 C 273.471,159.119 273.805,175.786 273.5,192.5C 272.373,193.122 271.373,193.955 270.5,195C 254.5,195.667 238.5,195.667 222.5,195C 221.667,194.167 220.833,193.333 220,192.5C 219.175,175.593 219.342,158.759 220.5,142C 229.07,140.861 237.736,140.361 246.5,140.5C 254.5,140.667 262.5,140.833 270.5,141C 271.044,141.717 271.711,142.217 272.5,142.5 Z"/></g>
<g><path style="opacity:1" fill="#379932" d="M 287.5,140.5 C 303.503,140.333 319.503,140.5 335.5,141C 336.416,141.374 337.25,141.874 338,142.5C 338.667,159.167 338.667,175.833 338,192.5C 337.167,193.333 336.333,194.167 335.5,195C 319.5,195.667 303.5,195.667 287.5,195C 286.667,194.167 285.833,193.333 285,192.5C 284.333,176.167 284.333,159.833 285,143.5C 286.045,142.627 286.878,141.627 287.5,140.5 Z"/></g>
<g><path style="opacity:1" fill="#c2e0c1" d="M 272.5,142.5 C 273.117,142.611 273.617,142.944 274,143.5C 274.828,160.005 274.662,176.339 273.5,192.5C 273.805,175.786 273.471,159.119 272.5,142.5 Z"/></g>
<g><path style="opacity:1" fill="#a6d1a4" d="M 205.5,206.5 C 188.786,206.195 172.119,206.529 155.5,207.5C 155.611,206.883 155.944,206.383 156.5,206C 173.005,205.172 189.339,205.338 205.5,206.5 Z"/></g>
<g><path style="opacity:1" fill="#379932" d="M 205.5,206.5 C 205.811,207.478 206.478,208.145 207.5,208.5C 208.666,224.823 208.833,241.156 208,257.5C 207.167,258.333 206.333,259.167 205.5,260C 189.167,260.667 172.833,260.667 156.5,260C 155.619,259.292 154.953,258.458 154.5,257.5C 154.195,240.786 154.529,224.119 155.5,207.5C 172.119,206.529 188.786,206.195 205.5,206.5 Z"/></g>
<g><path style="opacity:1" fill="#369831" d="M 221.5,206.5 C 237.837,206.333 254.17,206.5 270.5,207C 271.416,207.374 272.25,207.874 273,208.5C 273.667,224.833 273.667,241.167 273,257.5C 272.167,258.333 271.333,259.167 270.5,260C 254.156,260.833 237.823,260.666 221.5,259.5C 221.192,258.692 220.692,258.025 220,257.5C 219.333,241.167 219.333,224.833 220,208.5C 220.717,207.956 221.217,207.289 221.5,206.5 Z"/></g>
<g><path style="opacity:1" fill="#84c081" d="M 155.5,207.5 C 154.529,224.119 154.195,240.786 154.5,257.5C 153.338,241.339 153.172,225.005 154,208.5C 154.383,207.944 154.883,207.611 155.5,207.5 Z"/></g>
<g><path style="opacity:1" fill="#c2c0c0" d="M 344.5,298.5 C 357.99,297.504 371.656,297.171 385.5,297.5C 385.5,301.167 385.5,304.833 385.5,308.5C 380.833,308.5 376.167,308.5 371.5,308.5C 371.829,323.343 371.496,338.01 370.5,352.5C 370.5,337.5 370.5,322.5 370.5,307.5C 375.167,307.5 379.833,307.5 384.5,307.5C 384.5,304.5 384.5,301.5 384.5,298.5C 371.167,298.5 357.833,298.5 344.5,298.5 Z"/></g>
<g><path style="opacity:1" fill="#7e7b79" d="M 50.5,298.5 C 50.5,316.167 50.5,333.833 50.5,351.5C 53.8333,351.5 57.1667,351.5 60.5,351.5C 60.5,333.833 60.5,316.167 60.5,298.5C 61.4968,316.326 61.8301,334.326 61.5,352.5C 57.5,352.5 53.5,352.5 49.5,352.5C 49.1699,334.326 49.5032,316.326 50.5,298.5 Z"/></g>
<g><path style="opacity:1" fill="#292521" d="M 50.5,298.5 C 53.8333,298.5 57.1667,298.5 60.5,298.5C 60.5,316.167 60.5,333.833 60.5,351.5C 57.1667,351.5 53.8333,351.5 50.5,351.5C 50.5,333.833 50.5,316.167 50.5,298.5 Z"/></g>
<g><path style="opacity:1" fill="#2c2724" d="M 75.5,298.5 C 80.544,298.173 85.544,298.506 90.5,299.5C 97.765,311.698 104.765,324.032 111.5,336.5C 111.783,337.289 112.283,337.956 113,338.5C 113.5,325.171 113.667,311.837 113.5,298.5C 116.5,298.5 119.5,298.5 122.5,298.5C 122.5,316.167 122.5,333.833 122.5,351.5C 117.833,351.5 113.167,351.5 108.5,351.5C 101.167,338.833 93.8333,326.167 86.5,313.5C 86.44,312.957 86.1067,312.624 85.5,312.5C 84.5009,325.483 84.1675,338.483 84.5,351.5C 81.5,351.5 78.5,351.5 75.5,351.5C 75.5,333.833 75.5,316.167 75.5,298.5 Z"/></g>
<g><path style="opacity:1" fill="#605c59" d="M 113.5,298.5 C 113.667,311.837 113.5,325.171 113,338.5C 112.283,337.956 111.783,337.289 111.5,336.5C 112.167,323.833 112.833,311.167 113.5,298.5 Z"/></g>
<g><path style="opacity:1" fill="#5e5b58" d="M 122.5,298.5 C 123.497,316.326 123.83,334.326 123.5,352.5C 118.305,352.821 113.305,352.487 108.5,351.5C 113.167,351.5 117.833,351.5 122.5,351.5C 122.5,333.833 122.5,316.167 122.5,298.5 Z"/></g>
<g><path style="opacity:1" fill="#302b28" d="M 134.5,350.5 C 133.577,346.936 133.244,343.269 133.5,339.5C 138.123,341.54 142.957,342.874 148,343.5C 151.129,343.671 153.963,342.838 156.5,341C 157.576,339.274 157.743,337.441 157,335.5C 154.198,332.854 151.032,330.854 147.5,329.5C 147.027,328.094 146.027,327.427 144.5,327.5C 139.739,325.075 136.406,321.408 134.5,316.5C 134.425,312.019 135.092,307.686 136.5,303.5C 142.74,297.858 150.073,296.025 158.5,298C 161.312,299.549 164.312,300.382 167.5,300.5C 166.929,303.477 165.929,306.31 164.5,309C 159.391,307.139 154.058,306.473 148.5,307C 144.513,310.62 144.513,314.287 148.5,318C 155.099,320.275 160.933,323.775 166,328.5C 170.712,339.028 167.879,346.861 157.5,352C 150.833,352.667 144.167,352.667 137.5,352C 136.263,351.768 135.263,351.268 134.5,350.5 Z"/></g>
<g><path style="opacity:1" fill="#2a2522" d="M 174.5,298.5 C 187.833,298.5 201.167,298.5 214.5,298.5C 214.5,301.5 214.5,304.5 214.5,307.5C 209.5,307.5 204.5,307.5 199.5,307.5C 199.5,322.167 199.5,336.833 199.5,351.5C 196.167,351.5 192.833,351.5 189.5,351.5C 189.829,336.657 189.496,321.99 188.5,307.5C 183.833,307.5 179.167,307.5 174.5,307.5C 174.5,304.5 174.5,301.5 174.5,298.5 Z"/></g>
<g><path style="opacity:1" fill="#5a5553" d="M 223.5,298.5 C 223.5,316.167 223.5,333.833 223.5,351.5C 226.833,351.5 230.167,351.5 233.5,351.5C 230.038,352.482 226.371,352.815 222.5,352.5C 222.17,334.326 222.503,316.326 223.5,298.5 Z"/></g>
<g><path style="opacity:1" fill="#2a2522" d="M 223.5,298.5 C 226.833,298.5 230.167,298.5 233.5,298.5C 233.5,316.167 233.5,333.833 233.5,351.5C 230.167,351.5 226.833,351.5 223.5,351.5C 223.5,333.833 223.5,316.167 223.5,298.5 Z"/></g>
<g><path style="opacity:1" fill="#2c2724" d="M 283.5,307.5 C 278.5,307.5 273.5,307.5 268.5,307.5C 268.5,322.5 268.5,337.5 268.5,352.5C 264.833,352.5 261.167,352.5 257.5,352.5C 257.5,337.5 257.5,322.5 257.5,307.5C 252.5,307.5 247.5,307.5 242.5,307.5C 242.5,304.5 242.5,301.5 242.5,298.5C 256.167,298.5 269.833,298.5 283.5,298.5C 283.5,301.5 283.5,304.5 283.5,307.5 Z"/></g>
<g><path style="opacity:1" fill="#312c29" d="M 291.5,298.5 C 295.5,298.5 299.5,298.5 303.5,298.5C 303.333,311.504 303.5,324.504 304,337.5C 308.073,343.63 313.573,345.13 320.5,342C 322.487,340.681 323.654,338.848 324,336.5C 324.5,323.838 324.667,311.171 324.5,298.5C 328.5,298.5 332.5,298.5 336.5,298.5C 336.947,312.573 336.447,326.573 335,340.5C 330.636,349.18 323.636,353.18 314,352.5C 309.747,352.558 305.58,352.058 301.5,351C 297.908,348.079 295.075,344.579 293,340.5C 291.553,326.573 291.053,312.573 291.5,298.5 Z"/></g>
<g><path style="opacity:1" fill="#2a2522" d="M 344.5,298.5 C 357.833,298.5 371.167,298.5 384.5,298.5C 384.5,301.5 384.5,304.5 384.5,307.5C 379.833,307.5 375.167,307.5 370.5,307.5C 369.504,321.99 369.171,336.657 369.5,351.5C 366.167,351.5 362.833,351.5 359.5,351.5C 359.829,336.657 359.496,321.99 358.5,307.5C 353.833,307.5 349.167,307.5 344.5,307.5C 344.5,304.5 344.5,301.5 344.5,298.5 Z"/></g>
<g><path style="opacity:1" fill="#302b28" d="M 440.5,310.5 C 441.947,317.079 442.613,323.746 442.5,330.5C 441.491,341.343 435.824,348.51 425.5,352C 400.458,354.958 389.291,343.791 392,318.5C 393.076,309.171 397.91,302.671 406.5,299C 417.355,295.787 427.355,297.453 436.5,304C 438.232,305.972 439.565,308.139 440.5,310.5 Z"/></g>
<g><path style="opacity:1" fill="#a4a2a1" d="M 174.5,298.5 C 174.5,301.5 174.5,304.5 174.5,307.5C 179.167,307.5 183.833,307.5 188.5,307.5C 188.5,322.5 188.5,337.5 188.5,352.5C 187.504,338.01 187.171,323.343 187.5,308.5C 182.833,308.5 178.167,308.5 173.5,308.5C 173.187,304.958 173.521,301.625 174.5,298.5 Z"/></g>
<g><path style="opacity:1" fill="#4a4543" d="M 188.5,307.5 C 189.496,321.99 189.829,336.657 189.5,351.5C 192.833,351.5 196.167,351.5 199.5,351.5C 199.5,351.833 199.5,352.167 199.5,352.5C 195.833,352.5 192.167,352.5 188.5,352.5C 188.5,337.5 188.5,322.5 188.5,307.5 Z"/></g>
<g><path style="opacity:1" fill="#b7b6b4" d="M 214.5,307.5 C 210.03,308.486 205.363,308.819 200.5,308.5C 200.829,323.343 200.496,338.01 199.5,352.5C 199.5,352.167 199.5,351.833 199.5,351.5C 199.5,336.833 199.5,322.167 199.5,307.5C 204.5,307.5 209.5,307.5 214.5,307.5 Z"/></g>
<g><path style="opacity:1" fill="#9e9c9b" d="M 242.5,307.5 C 247.5,307.5 252.5,307.5 257.5,307.5C 257.5,322.5 257.5,337.5 257.5,352.5C 256.504,338.01 256.171,323.343 256.5,308.5C 251.637,308.819 246.97,308.486 242.5,307.5 Z"/></g>
<g><path style="opacity:1" fill="#c4c3c2" d="M 283.5,307.5 C 279.03,308.486 274.363,308.819 269.5,308.5C 269.829,323.343 269.496,338.01 268.5,352.5C 268.5,337.5 268.5,322.5 268.5,307.5C 273.5,307.5 278.5,307.5 283.5,307.5 Z"/></g>
<g><path style="opacity:1" fill="#5f5b59" d="M 358.5,307.5 C 359.496,321.99 359.829,336.657 359.5,351.5C 362.833,351.5 366.167,351.5 369.5,351.5C 369.171,336.657 369.504,321.99 370.5,307.5C 370.5,322.5 370.5,337.5 370.5,352.5C 366.5,352.5 362.5,352.5 358.5,352.5C 358.5,337.5 358.5,322.5 358.5,307.5 Z"/></g>
<g><path style="opacity:1" fill="#fafafa" d="M 404.5,330.5 C 404.1,324.346 404.767,318.346 406.5,312.5C 407.625,310.871 408.959,309.371 410.5,308C 415.618,307.112 420.618,307.445 425.5,309C 430.678,314.873 432.511,321.707 431,329.5C 429.554,340.473 423.387,344.973 412.5,343C 407.433,340.365 404.766,336.199 404.5,330.5 Z"/></g>
<g><path style="opacity:1" fill="#73706e" d="M 136.5,303.5 C 135.092,307.686 134.425,312.019 134.5,316.5C 132.954,311.881 133.62,307.548 136.5,303.5 Z"/></g>
<g><path style="opacity:1" fill="#9a9796" d="M 406.5,312.5 C 404.767,318.346 404.1,324.346 404.5,330.5C 403.35,325.684 403.184,320.684 404,315.5C 404.377,314.058 405.21,313.058 406.5,312.5 Z"/></g>
<g><path style="opacity:1" fill="#615e5b" d="M 440.5,310.5 C 441.6,312.277 442.434,314.277 443,316.5C 443.815,321.352 443.648,326.019 442.5,330.5C 442.613,323.746 441.947,317.079 440.5,310.5 Z"/></g>
<g><path style="opacity:1" fill="#7e7b79" d="M 75.5,298.5 C 75.5,316.167 75.5,333.833 75.5,351.5C 78.5,351.5 81.5,351.5 84.5,351.5C 84.1675,338.483 84.5009,325.483 85.5,312.5C 86.1067,312.624 86.44,312.957 86.5,313.5C 85.5045,326.323 85.1712,339.323 85.5,352.5C 81.8333,352.5 78.1667,352.5 74.5,352.5C 74.1699,334.326 74.5032,316.326 75.5,298.5 Z"/></g>
<g><path style="opacity:1" fill="#8e8c8a" d="M 144.5,327.5 C 146.027,327.427 147.027,328.094 147.5,329.5C 145.973,329.573 144.973,328.906 144.5,327.5 Z"/></g>
<g><path style="opacity:1" fill="#989694" d="M 133.5,339.5 C 133.244,343.269 133.577,346.936 134.5,350.5C 133.213,349.129 132.547,347.295 132.5,345C 132.506,342.967 132.839,341.134 133.5,339.5 Z"/></g>
<g><path style="opacity:1" fill="#858280" d="M 88.5,364.5 C 98.6532,363.506 108.986,363.172 119.5,363.5C 119.5,366.833 119.5,370.167 119.5,373.5C 112.833,373.5 106.167,373.5 99.5,373.5C 105.645,372.51 111.978,372.177 118.5,372.5C 118.5,369.833 118.5,367.167 118.5,364.5C 108.5,364.5 98.5,364.5 88.5,364.5 Z"/></g>
<g><path style="opacity:1" fill="#8a8785" d="M 228.5,364.5 C 238.653,363.506 248.986,363.172 259.5,363.5C 259.5,366.833 259.5,370.167 259.5,373.5C 252.833,373.5 246.167,373.5 239.5,373.5C 239.5,377.167 239.5,380.833 239.5,384.5C 245.69,384.177 251.69,384.51 257.5,385.5C 251.167,385.5 244.833,385.5 238.5,385.5C 238.5,381.167 238.5,376.833 238.5,372.5C 245.167,372.5 251.833,372.5 258.5,372.5C 258.5,369.833 258.5,367.167 258.5,364.5C 248.5,364.5 238.5,364.5 228.5,364.5 Z"/></g>
<g><path style="opacity:1" fill="#706d6b" d="M 347.5,364.5 C 342.405,364.221 337.405,364.555 332.5,365.5C 334.571,364.191 337.071,363.525 340,363.5C 342.69,363.503 345.19,363.836 347.5,364.5 Z"/></g>
<g><path style="opacity:1" fill="#2a2522" d="M 88.5,364.5 C 98.5,364.5 108.5,364.5 118.5,364.5C 118.5,367.167 118.5,369.833 118.5,372.5C 111.978,372.177 105.645,372.51 99.5,373.5C 98.5139,377.97 98.1805,382.637 98.5,387.5C 104.5,387.5 110.5,387.5 116.5,387.5C 116.5,390.167 116.5,392.833 116.5,395.5C 110.31,395.177 104.31,395.51 98.5,396.5C 98.5,403.5 98.5,410.5 98.5,417.5C 95.1667,417.5 91.8333,417.5 88.5,417.5C 88.5,399.833 88.5,382.167 88.5,364.5 Z"/></g>
<g><path style="opacity:1" fill="#9c9998" d="M 160.5,364.5 C 150.167,364.5 139.833,364.5 129.5,364.5C 129.5,382.167 129.5,399.833 129.5,417.5C 128.503,399.674 128.17,381.674 128.5,363.5C 139.346,363.172 150.013,363.506 160.5,364.5 Z"/></g>
<g><path style="opacity:1" fill="#2d2825" d="M 160.5,364.5 C 160.5,367.5 160.5,370.5 160.5,373.5C 153.833,373.5 147.167,373.5 140.5,373.5C 140.5,377.167 140.5,380.833 140.5,384.5C 146.31,385.49 152.31,385.823 158.5,385.5C 158.5,388.5 158.5,391.5 158.5,394.5C 152.5,394.5 146.5,394.5 140.5,394.5C 140.5,399.167 140.5,403.833 140.5,408.5C 147.167,408.5 153.833,408.5 160.5,408.5C 160.5,411.5 160.5,414.5 160.5,417.5C 150.167,417.5 139.833,417.5 129.5,417.5C 129.5,399.833 129.5,382.167 129.5,364.5C 139.833,364.5 150.167,364.5 160.5,364.5 Z"/></g>
<g><path style="opacity:1" fill="#767271" d="M 198.5,365.5 C 189.858,364.701 181.191,364.368 172.5,364.5C 172.5,382.167 172.5,399.833 172.5,417.5C 179.5,417.5 186.5,417.5 193.5,417.5C 186.352,418.492 179.019,418.825 171.5,418.5C 171.5,400.167 171.5,381.833 171.5,363.5C 179.174,363.334 186.841,363.5 194.5,364C 196.058,364.21 197.391,364.71 198.5,365.5 Z"/></g>
<g><path style="opacity:1" fill="#2c2724" d="M 198.5,365.5 C 212.775,370.362 218.608,380.362 216,395.5C 213.904,408.43 206.404,415.763 193.5,417.5C 186.5,417.5 179.5,417.5 172.5,417.5C 172.5,399.833 172.5,382.167 172.5,364.5C 181.191,364.368 189.858,364.701 198.5,365.5 Z"/></g>
<g><path style="opacity:1" fill="#2a2522" d="M 228.5,364.5 C 238.5,364.5 248.5,364.5 258.5,364.5C 258.5,367.167 258.5,369.833 258.5,372.5C 251.833,372.5 245.167,372.5 238.5,372.5C 238.5,376.833 238.5,381.167 238.5,385.5C 244.833,385.5 251.167,385.5 257.5,385.5C 257.5,388.5 257.5,391.5 257.5,394.5C 251.167,394.5 244.833,394.5 238.5,394.5C 238.5,399.167 238.5,403.833 238.5,408.5C 245.167,408.5 251.833,408.5 258.5,408.5C 258.5,411.5 258.5,414.5 258.5,417.5C 248.5,417.5 238.5,417.5 228.5,417.5C 228.5,399.833 228.5,382.167 228.5,364.5 Z"/></g>
<g><path style="opacity:1" fill="#2f2a27" d="M 301.5,367.5 C 308.071,373.387 309.238,380.387 305,388.5C 302.767,390.733 300.6,392.9 298.5,395C 302.798,402.434 307.464,409.601 312.5,416.5C 308.267,417.794 303.934,417.794 299.5,416.5C 296.358,410.222 292.691,404.222 288.5,398.5C 286.257,397.526 283.924,397.192 281.5,397.5C 281.5,404.167 281.5,410.833 281.5,417.5C 277.833,417.5 274.167,417.5 270.5,417.5C 270.5,399.833 270.5,382.167 270.5,364.5C 281.052,363.78 291.386,364.78 301.5,367.5 Z"/></g>
<g><path style="opacity:1" fill="#969492" d="M 301.5,367.5 C 291.386,364.78 281.052,363.78 270.5,364.5C 270.5,382.167 270.5,399.833 270.5,417.5C 269.503,399.674 269.17,381.674 269.5,363.5C 277.84,363.334 286.173,363.5 294.5,364C 297.281,364.522 299.615,365.689 301.5,367.5 Z"/></g>
<g><path style="opacity:1" fill="#302b28" d="M 347.5,364.5 C 347.5,364.833 347.5,365.167 347.5,365.5C 348.083,368.947 349.416,371.947 351.5,374.5C 355.696,386.421 359.696,398.421 363.5,410.5C 363.961,412.55 364.628,414.55 365.5,416.5C 361.555,417.491 357.555,417.824 353.5,417.5C 353.706,414.505 353.04,411.838 351.5,409.5C 351.5,408.167 351.5,406.833 351.5,405.5C 344.5,405.5 337.5,405.5 330.5,405.5C 328.528,408.084 327.528,411.084 327.5,414.5C 326.596,415.209 326.263,416.209 326.5,417.5C 322.298,417.817 318.298,417.483 314.5,416.5C 318.84,403.824 323.173,391.157 327.5,378.5C 329.919,374.936 331.586,370.936 332.5,366.5C 332.5,366.167 332.5,365.833 332.5,365.5C 337.405,364.555 342.405,364.221 347.5,364.5 Z"/></g>
<g><path style="opacity:1" fill="#888583" d="M 385.5,363.5 C 385.5,378.5 385.5,393.5 385.5,408.5C 384.504,394.01 384.171,379.343 384.5,364.5C 381.167,364.5 377.833,364.5 374.5,364.5C 374.5,382.167 374.5,399.833 374.5,417.5C 373.503,399.674 373.17,381.674 373.5,363.5C 377.5,363.5 381.5,363.5 385.5,363.5 Z"/></g>
<g><path style="opacity:1" fill="#2a2522" d="M 385.5,408.5 C 392.833,408.5 400.167,408.5 407.5,408.5C 407.5,411.5 407.5,414.5 407.5,417.5C 396.5,417.5 385.5,417.5 374.5,417.5C 374.5,399.833 374.5,382.167 374.5,364.5C 377.833,364.5 381.167,364.5 384.5,364.5C 384.171,379.343 384.504,394.01 385.5,408.5 Z"/></g>
<g><path style="opacity:1" fill="#dedddc" d="M 385.5,363.5 C 386.496,377.99 386.829,392.657 386.5,407.5C 393.687,407.175 400.687,407.509 407.5,408.5C 400.167,408.5 392.833,408.5 385.5,408.5C 385.5,393.5 385.5,378.5 385.5,363.5 Z"/></g>
<g><path style="opacity:1" fill="#8d8a88" d="M 347.5,365.5 C 349.584,368.053 350.917,371.053 351.5,374.5C 349.416,371.947 348.083,368.947 347.5,365.5 Z"/></g>
<g><path style="opacity:1" fill="#999695" d="M 332.5,366.5 C 331.586,370.936 329.919,374.936 327.5,378.5C 328.414,374.064 330.081,370.064 332.5,366.5 Z"/></g>
<g><path style="opacity:1" fill="#a3a1a0" d="M 190.5,373.5 C 188.167,373.5 185.833,373.5 183.5,373.5C 183.5,385.167 183.5,396.833 183.5,408.5C 182.505,396.678 182.172,384.678 182.5,372.5C 185.385,372.194 188.052,372.527 190.5,373.5 Z"/></g>
<g><path style="opacity:1" fill="#fafafa" d="M 190.5,373.5 C 196.082,373.286 200.082,375.619 202.5,380.5C 204.184,385.676 204.85,391.009 204.5,396.5C 201.092,406.381 194.092,410.381 183.5,408.5C 183.5,396.833 183.5,385.167 183.5,373.5C 185.833,373.5 188.167,373.5 190.5,373.5 Z"/></g>
<g><path style="opacity:1" fill="#f6f5f5" d="M 281.5,373.5 C 285.605,373.234 289.605,373.734 293.5,375C 296.167,378.667 296.167,382.333 293.5,386C 289.637,387.354 285.637,387.854 281.5,387.5C 281.5,382.833 281.5,378.167 281.5,373.5 Z"/></g>
<g><path style="opacity:1" fill="#f5f4f4" d="M 346.5,391.5 C 346.5,392.5 346.5,393.5 346.5,394.5C 342.5,394.5 338.5,394.5 334.5,394.5C 334.629,392.784 334.962,391.117 335.5,389.5C 336.688,384.38 338.188,379.38 340,374.5C 342.879,379.981 345.046,385.648 346.5,391.5 Z"/></g>
<g><path style="opacity:1" fill="#9e9c9b" d="M 140.5,384.5 C 146.833,384.5 153.167,384.5 159.5,384.5C 159.813,388.042 159.479,391.375 158.5,394.5C 158.5,391.5 158.5,388.5 158.5,385.5C 152.31,385.823 146.31,385.49 140.5,384.5 Z"/></g>
<g><path style="opacity:1" fill="#adabaa" d="M 99.5,373.5 C 99.5,377.833 99.5,382.167 99.5,386.5C 105.69,386.177 111.69,386.51 117.5,387.5C 117.167,387.5 116.833,387.5 116.5,387.5C 110.5,387.5 104.5,387.5 98.5,387.5C 98.1805,382.637 98.5139,377.97 99.5,373.5 Z"/></g>
<g><path style="opacity:1" fill="#5b5755" d="M 202.5,380.5 C 203.966,381.347 204.8,382.68 205,384.5C 205.812,388.689 205.645,392.689 204.5,396.5C 204.85,391.009 204.184,385.676 202.5,380.5 Z"/></g>
<g><path style="opacity:1" fill="#afaead" d="M 335.5,389.5 C 334.962,391.117 334.629,392.784 334.5,394.5C 338.5,394.5 342.5,394.5 346.5,394.5C 346.5,393.5 346.5,392.5 346.5,391.5C 347.434,392.568 347.768,393.901 347.5,395.5C 342.833,395.5 338.167,395.5 333.5,395.5C 333.054,392.99 333.72,390.99 335.5,389.5 Z"/></g>
<g><path style="opacity:1" fill="#5b5856" d="M 116.5,387.5 C 116.833,387.5 117.167,387.5 117.5,387.5C 117.5,390.5 117.5,393.5 117.5,396.5C 111.5,396.5 105.5,396.5 99.5,396.5C 99.1667,396.5 98.8333,396.5 98.5,396.5C 104.31,395.51 110.31,395.177 116.5,395.5C 116.5,392.833 116.5,390.167 116.5,387.5 Z"/></g>
<g><path style="opacity:1" fill="#8a8786" d="M 88.5,364.5 C 88.5,382.167 88.5,399.833 88.5,417.5C 91.8333,417.5 95.1667,417.5 98.5,417.5C 98.5,410.5 98.5,403.5 98.5,396.5C 98.8333,396.5 99.1667,396.5 99.5,396.5C 99.5,403.833 99.5,411.167 99.5,418.5C 95.5,418.5 91.5,418.5 87.5,418.5C 87.1699,400.326 87.5032,382.326 88.5,364.5 Z"/></g>
<g><path style="opacity:1" fill="#a7a5a3" d="M 330.5,405.5 C 330.31,408.855 329.31,411.855 327.5,414.5C 327.528,411.084 328.528,408.084 330.5,405.5 Z"/></g>
<g><path style="opacity:1" fill="#928f8e" d="M 228.5,364.5 C 228.5,382.167 228.5,399.833 228.5,417.5C 238.5,417.5 248.5,417.5 258.5,417.5C 248.347,418.494 238.014,418.828 227.5,418.5C 227.17,400.326 227.503,382.326 228.5,364.5 Z"/></g>
<g><path style="opacity:1" fill="#aba9a8" d="M 327.5,414.5 C 327.5,415.833 327.5,417.167 327.5,418.5C 317.773,419.139 308.44,418.472 299.5,416.5C 303.934,417.794 308.267,417.794 312.5,416.5C 313.167,416.5 313.833,416.5 314.5,416.5C 318.298,417.483 322.298,417.817 326.5,417.5C 326.263,416.209 326.596,415.209 327.5,414.5 Z"/></g>
<g><path style="opacity:1" fill="#adacab" d="M 351.5,409.5 C 353.04,411.838 353.706,414.505 353.5,417.5C 357.555,417.824 361.555,417.491 365.5,416.5C 364.628,414.55 363.961,412.55 363.5,410.5C 365.655,412.617 366.655,415.284 366.5,418.5C 361.833,418.5 357.167,418.5 352.5,418.5C 352.296,415.482 351.963,412.482 351.5,409.5 Z"/></g>
<g><path style="opacity:1" fill="#383331" d="M 170.5,442.5 C 171.517,444.472 170.85,445.805 168.5,446.5C 164.554,445.473 160.554,445.306 156.5,446C 151.231,449.819 151.231,453.819 156.5,458C 161.907,459.847 166.907,462.347 171.5,465.5C 171.963,468.482 172.296,471.482 172.5,474.5C 171.644,478.854 168.977,481.354 164.5,482C 159.167,482.667 153.833,482.667 148.5,482C 147.253,480.506 147.253,479.006 148.5,477.5C 153.78,478.618 159.113,478.784 164.5,478C 168.425,473.962 168.425,469.962 164.5,466C 159.045,464.631 154.211,462.131 150,458.5C 145.467,450.804 147.3,445.304 155.5,442C 160.528,441.412 165.528,441.578 170.5,442.5 Z"/></g>
<g><path style="opacity:1" fill="#4b4744" d="M 268.5,440.5 C 273.159,440.015 274.492,441.848 272.5,446C 267.728,446.81 266.395,444.977 268.5,440.5 Z"/></g>
<g><path style="opacity:1" fill="#9b9998" d="M 170.5,442.5 C 172.965,444.069 172.798,445.735 170,447.5C 169.235,447.43 168.735,447.097 168.5,446.5C 170.85,445.805 171.517,444.472 170.5,442.5 Z"/></g>
<g><path style="opacity:1" fill="#6e6a68" d="M 241.5,452.5 C 248.313,451.509 255.313,451.175 262.5,451.5C 262.5,452.833 262.5,454.167 262.5,455.5C 260.219,455.077 258.552,455.744 257.5,457.5C 256.596,456.791 256.263,455.791 256.5,454.5C 258.288,454.785 259.955,454.452 261.5,453.5C 254.866,452.503 248.2,452.17 241.5,452.5 Z"/></g>
<g><path style="opacity:1" fill="#383330" d="M 203.5,457.5 C 204.324,460.764 204.658,464.098 204.5,467.5C 197.646,467.176 190.979,467.509 184.5,468.5C 184.591,472.182 185.924,475.349 188.5,478C 193.419,478.802 198.252,478.635 203,477.5C 203.72,479.112 203.554,480.612 202.5,482C 183.544,485.042 176.378,477.209 181,458.5C 184.655,451.93 190.155,449.763 197.5,452C 199.996,453.331 201.996,455.164 203.5,457.5 Z"/></g>
<g><path style="opacity:1" fill="#a8a6a5" d="M 217.5,456.5 C 216.566,455.432 216.232,454.099 216.5,452.5C 215.5,452.5 214.5,452.5 213.5,452.5C 213.5,462.5 213.5,472.5 213.5,482.5C 212.506,472.347 212.172,462.014 212.5,451.5C 214.167,451.5 215.833,451.5 217.5,451.5C 217.5,453.167 217.5,454.833 217.5,456.5 Z"/></g>
<g><path style="opacity:1" fill="#2e2926" d="M 213.5,482.5 C 213.5,472.5 213.5,462.5 213.5,452.5C 214.5,452.5 215.5,452.5 216.5,452.5C 216.232,454.099 216.566,455.432 217.5,456.5C 219.296,455.207 220.963,453.707 222.5,452C 225.146,451.503 227.813,451.336 230.5,451.5C 230.5,452.833 230.5,454.167 230.5,455.5C 224.608,454.073 220.441,456.073 218,461.5C 217.5,468.492 217.334,475.492 217.5,482.5C 216.167,482.5 214.833,482.5 213.5,482.5 Z"/></g>
<g><path style="opacity:1" fill="#c5c4c3" d="M 272.5,482.5 C 272.5,472.5 272.5,462.5 272.5,452.5C 271.167,452.5 269.833,452.5 268.5,452.5C 268.5,462.5 268.5,472.5 268.5,482.5C 267.506,472.347 267.172,462.014 267.5,451.5C 269.5,451.5 271.5,451.5 273.5,451.5C 273.828,462.014 273.494,472.347 272.5,482.5 Z"/></g>
<g><path style="opacity:1" fill="#2a2522" d="M 272.5,482.5 C 271.167,482.5 269.833,482.5 268.5,482.5C 268.5,472.5 268.5,462.5 268.5,452.5C 269.833,452.5 271.167,452.5 272.5,452.5C 272.5,462.5 272.5,472.5 272.5,482.5 Z"/></g>
<g><path style="opacity:1" fill="#a4a2a0" d="M 286.5,452.5 C 285.5,452.5 284.5,452.5 283.5,452.5C 283.5,467.167 283.5,481.833 283.5,496.5C 282.504,481.676 282.171,466.676 282.5,451.5C 284.099,451.232 285.432,451.566 286.5,452.5 Z"/></g>
<g><path style="opacity:1" fill="#35302d" d="M 309.5,460.5 C 309.791,466.303 309.125,471.969 307.5,477.5C 306.327,479.504 304.66,481.004 302.5,482C 298.833,482.667 295.167,482.667 291.5,482C 290.069,481.535 288.903,480.701 288,479.5C 287.501,485.157 287.334,490.824 287.5,496.5C 286.167,496.5 284.833,496.5 283.5,496.5C 283.5,481.833 283.5,467.167 283.5,452.5C 284.5,452.5 285.5,452.5 286.5,452.5C 287.268,453.263 287.768,454.263 288,455.5C 292.221,451.365 297.221,450.365 303,452.5C 305.792,454.779 307.959,457.445 309.5,460.5 Z"/></g>
<g><path style="opacity:1" fill="#342f2c" d="M 341.5,467.5 C 334.5,467.5 327.5,467.5 320.5,467.5C 320.263,468.791 320.596,469.791 321.5,470.5C 322.293,476.292 325.626,479.292 331.5,479.5C 334.49,479.377 337.323,478.71 340,477.5C 340.49,478.793 340.657,480.127 340.5,481.5C 319.623,485.118 312.457,476.785 319,456.5C 323.491,451.741 328.991,450.241 335.5,452C 340.877,455.815 342.877,460.982 341.5,467.5 Z"/></g>
<g><path style="opacity:1" fill="#9a9896" d="M 331.5,455.5 C 329.194,455.993 326.861,456.326 324.5,456.5C 326.655,454.466 328.988,454.133 331.5,455.5 Z"/></g>
<g><path style="opacity:1" fill="#f7f7f7" d="M 199.5,460.5 C 199.5,461.5 199.5,462.5 199.5,463.5C 194.833,463.5 190.167,463.5 185.5,463.5C 185.704,461.315 186.37,459.315 187.5,457.5C 187.611,456.883 187.944,456.383 188.5,456C 191.167,455.333 193.833,455.333 196.5,456C 198.141,457.129 199.141,458.629 199.5,460.5 Z"/></g>
<g><path style="opacity:1" fill="#f4f4f3" d="M 293.5,455.5 C 303.442,455.624 307.275,460.624 305,470.5C 303.211,478.978 298.377,481.478 290.5,478C 287.664,472.507 286.831,466.673 288,460.5C 289.107,457.887 290.94,456.22 293.5,455.5 Z"/></g>
<g><path style="opacity:1" fill="#f5f5f5" d="M 331.5,455.5 C 334.167,456.167 335.833,457.833 336.5,460.5C 336.5,461.5 336.5,462.5 336.5,463.5C 331.5,463.5 326.5,463.5 321.5,463.5C 321.15,460.547 322.15,458.213 324.5,456.5C 326.861,456.326 329.194,455.993 331.5,455.5 Z"/></g>
<g><path style="opacity:1" fill="#c0bebd" d="M 187.5,457.5 C 186.37,459.315 185.704,461.315 185.5,463.5C 190.167,463.5 194.833,463.5 199.5,463.5C 199.5,462.5 199.5,461.5 199.5,460.5C 200.434,461.568 200.768,462.901 200.5,464.5C 195.167,464.5 189.833,464.5 184.5,464.5C 183.908,461.369 184.908,459.036 187.5,457.5 Z"/></g>
<g><path style="opacity:1" fill="#bfbebd" d="M 309.5,460.5 C 310.647,464.646 310.814,468.98 310,473.5C 309.878,475.437 309.045,476.77 307.5,477.5C 309.125,471.969 309.791,466.303 309.5,460.5 Z"/></g>
<g><path style="opacity:1" fill="#bdbcbb" d="M 336.5,460.5 C 337.434,461.568 337.768,462.901 337.5,464.5C 331.974,464.821 326.64,464.488 321.5,463.5C 326.5,463.5 331.5,463.5 336.5,463.5C 336.5,462.5 336.5,461.5 336.5,460.5 Z"/></g>
<g><path style="opacity:1" fill="#9a9796" d="M 203.5,457.5 C 204.117,457.611 204.617,457.944 205,458.5C 205.498,461.817 205.665,465.15 205.5,468.5C 198.5,468.5 191.5,468.5 184.5,468.5C 190.979,467.509 197.646,467.176 204.5,467.5C 204.658,464.098 204.324,460.764 203.5,457.5 Z"/></g>
<g><path style="opacity:1" fill="#9c9a99" d="M 341.5,467.5 C 334.605,467.85 327.938,468.85 321.5,470.5C 320.596,469.791 320.263,468.791 320.5,467.5C 327.5,467.5 334.5,467.5 341.5,467.5 Z"/></g>
<g><path style="opacity:1" fill="#827f7d" d="M 171.5,465.5 C 172.94,466.946 173.607,468.779 173.5,471C 173.486,472.385 173.152,473.551 172.5,474.5C 172.296,471.482 171.963,468.482 171.5,465.5 Z"/></g>
<g><path style="opacity:1" fill="#3c3734" d="M 241.5,452.5 C 248.2,452.17 254.866,452.503 261.5,453.5C 259.955,454.452 258.288,454.785 256.5,454.5C 256.263,455.791 256.596,456.791 257.5,457.5C 260.007,463.868 258.007,468.368 251.5,471C 248.833,471.333 246.167,471.667 243.5,472C 242.594,473.699 242.261,475.533 242.5,477.5C 246.846,477.334 251.179,477.501 255.5,478C 261.233,480.248 263.067,484.414 261,490.5C 254.861,496.064 247.694,497.897 239.5,496C 231.728,490.538 231.728,485.205 239.5,480C 236.744,476.587 237.077,473.42 240.5,470.5C 235.2,465.836 234.366,460.502 238,454.5C 238.816,453.177 239.983,452.511 241.5,452.5 Z"/></g>
<g><path style="opacity:1" fill="#f0f0ef" d="M 250.5,455.5 C 255.233,458.986 255.566,462.819 251.5,467C 242.735,469.908 239.235,466.741 241,457.5C 241.383,456.944 241.883,456.611 242.5,456.5C 245.096,455.735 247.763,455.401 250.5,455.5 Z"/></g>
<g><path style="opacity:1" fill="#a3a1a0" d="M 250.5,455.5 C 247.763,455.401 245.096,455.735 242.5,456.5C 243.492,454.974 244.992,454.307 247,454.5C 248.385,454.514 249.551,454.848 250.5,455.5 Z"/></g>
<g><path style="opacity:1" fill="#f0efef" d="M 241.5,481.5 C 245.846,481.334 250.179,481.501 254.5,482C 258.599,485.401 258.266,488.568 253.5,491.5C 249.205,492.661 244.871,492.828 240.5,492C 237.615,488.056 237.948,484.556 241.5,481.5 Z"/></g>
</svg>
