<?xml version="1.0" encoding="UTF-8"?>
<!DOCTYPE svg PUBLIC "-//W3C//DTD SVG 1.1//EN" "http://www.w3.org/Graphics/SVG/1.1/DTD/svg11.dtd">
<svg xmlns="http://www.w3.org/2000/svg" version="1.1" width="500px" height="500px" style="shape-rendering:geometricPrecision; text-rendering:geometricPrecision; image-rendering:optimizeQuality; fill-rule:evenodd; clip-rule:evenodd" xmlns:xlink="http://www.w3.org/1999/xlink">
<g><path style="opacity:1" fill="#fefefe" d="M -0.5,-0.5 C 166.167,-0.5 332.833,-0.5 499.5,-0.5C 499.5,166.167 499.5,332.833 499.5,499.5C 332.833,499.5 166.167,499.5 -0.5,499.5C -0.5,332.833 -0.5,166.167 -0.5,-0.5 Z"/></g>
<g><path style="opacity:1" fill="#083074" d="M 132.5,210.5 C 144.011,209.518 150.677,214.685 152.5,226C 148.738,245.578 156.738,256.912 176.5,260C 186.728,268.188 187.062,276.855 177.5,286C 165.722,291.854 157.555,288.688 153,276.5C 153.331,269.518 153.331,262.518 153,255.5C 149.212,247.041 142.712,242.541 133.5,242C 122.382,236.93 119.216,228.763 124,217.5C 126.441,214.546 129.275,212.213 132.5,210.5 Z"/></g>
<g><path style="opacity:1" fill="#0e3275" d="M 277.5,215.5 C 285.161,214.663 288.661,217.996 288,225.5C 284.455,231.209 280.121,231.875 275,227.5C 272.511,222.757 273.345,218.757 277.5,215.5 Z"/></g>
<g><path style="opacity:1" fill="#34548c" d="M 299.5,216.5 C 299.5,237.167 299.5,257.833 299.5,278.5C 308.5,278.5 317.5,278.5 326.5,278.5C 317.348,279.494 308.015,279.827 298.5,279.5C 298.169,258.327 298.503,237.327 299.5,216.5 Z"/></g>
<g><path style="opacity:1" fill="#072f73" d="M 299.5,216.5 C 303.5,216.5 307.5,216.5 311.5,216.5C 311.5,220.5 311.5,224.5 311.5,228.5C 323.502,226.56 334.002,229.56 343,237.5C 350.289,248.472 350.289,259.472 343,270.5C 338.662,275.557 333.162,278.224 326.5,278.5C 317.5,278.5 308.5,278.5 299.5,278.5C 299.5,257.833 299.5,237.167 299.5,216.5 Z"/></g>
<g><path style="opacity:1" fill="#0a3074" d="M 377.5,227.5 C 393.918,226.425 404.418,233.758 409,249.5C 409.339,270.828 398.839,280.994 377.5,280C 361.764,275.374 354.931,264.874 357,248.5C 360.043,237.626 366.876,230.626 377.5,227.5 Z"/></g>
<g><path style="opacity:1" fill="#032e72" d="M 263.5,278.5 C 259.5,278.5 255.5,278.5 251.5,278.5C 251.826,269.651 251.493,260.984 250.5,252.5C 249.053,247.386 245.72,244.386 240.5,243.5C 235.695,242.513 230.695,242.179 225.5,242.5C 225.5,254.833 225.5,267.167 225.5,279.5C 221.5,279.5 217.5,279.5 213.5,279.5C 213.5,263.167 213.5,246.833 213.5,230.5C 252.813,223.148 269.479,239.148 263.5,278.5 Z"/></g>
<g><path style="opacity:1" fill="#062f73" d="M 287.5,240.5 C 287.5,253.167 287.5,265.833 287.5,278.5C 283.5,278.5 279.5,278.5 275.5,278.5C 275.5,265.833 275.5,253.167 275.5,240.5C 279.5,240.5 283.5,240.5 287.5,240.5 Z"/></g>
<g><path style="opacity:1" fill="#56709f" d="M 287.5,240.5 C 283.5,240.5 279.5,240.5 275.5,240.5C 275.5,253.167 275.5,265.833 275.5,278.5C 279.5,278.5 283.5,278.5 287.5,278.5C 283.366,279.485 279.032,279.818 274.5,279.5C 274.5,266.167 274.5,252.833 274.5,239.5C 279.032,239.182 283.366,239.515 287.5,240.5 Z"/></g>
<g><path style="opacity:1" fill="#f8f9fb" d="M 377.5,240.5 C 392.441,239.433 398.274,246.099 395,260.5C 390.067,267.491 383.567,269.325 375.5,266C 365.758,256.69 366.425,248.19 377.5,240.5 Z"/></g>
<g><path style="opacity:1" fill="#fafbfc" d="M 311.5,241.5 C 317.593,241.139 323.593,241.639 329.5,243C 338.425,249.847 338.759,257.181 330.5,265C 324.258,266.37 317.925,266.87 311.5,266.5C 311.5,258.167 311.5,249.833 311.5,241.5 Z"/></g>
<g><path style="opacity:1" fill="#adbcd1" d="M 240.5,243.5 C 235.833,243.5 231.167,243.5 226.5,243.5C 226.828,255.678 226.495,267.678 225.5,279.5C 225.5,267.167 225.5,254.833 225.5,242.5C 230.695,242.179 235.695,242.513 240.5,243.5 Z"/></g>
<g><path style="opacity:1" fill="#627ca7" d="M 250.5,252.5 C 251.493,260.984 251.826,269.651 251.5,278.5C 255.5,278.5 259.5,278.5 263.5,278.5C 259.366,279.485 255.032,279.818 250.5,279.5C 250.5,270.5 250.5,261.5 250.5,252.5 Z"/></g>
<g><path style="opacity:1" fill="#082f73" d="M 102.5,257.5 C 115.869,257.697 122.036,264.364 121,277.5C 116.929,287.09 109.763,290.59 99.5,288C 90.6411,282.706 88.1411,275.206 92,265.5C 94.5866,261.475 98.0866,258.809 102.5,257.5 Z"/></g>
</svg>
