<?xml version="1.0" encoding="UTF-8"?>
<!DOCTYPE svg PUBLIC "-//W3C//DTD SVG 1.1//EN" "http://www.w3.org/Graphics/SVG/1.1/DTD/svg11.dtd">
<svg xmlns="http://www.w3.org/2000/svg" version="1.1" width="500px" height="500px" style="shape-rendering:geometricPrecision; text-rendering:geometricPrecision; image-rendering:optimizeQuality; fill-rule:evenodd; clip-rule:evenodd" xmlns:xlink="http://www.w3.org/1999/xlink">
<g><path style="opacity:1" fill="#fefefe" d="M -0.5,-0.5 C 166.167,-0.5 332.833,-0.5 499.5,-0.5C 499.5,166.167 499.5,332.833 499.5,499.5C 332.833,499.5 166.167,499.5 -0.5,499.5C -0.5,332.833 -0.5,166.167 -0.5,-0.5 Z"/></g>
<g><path style="opacity:1" fill="#502596" d="M 229.5,211.5 C 233.516,210.9 237.016,211.9 240,214.5C 239.937,227.832 239.937,241.165 240,254.5C 246.157,260.001 245.99,265.168 239.5,270C 233.5,270.667 227.5,270.667 221.5,270C 217.25,264.479 217.75,259.313 223,254.5C 223.667,245.167 223.667,235.833 223,226.5C 215.347,224.925 214.513,221.425 220.5,216C 223.724,214.641 226.724,213.141 229.5,211.5 Z"/></g>
<g><path style="opacity:1" fill="#7c5fb0" d="M 371.5,224.5 C 366.797,224.437 362.13,224.771 357.5,225.5C 359.807,223.953 362.473,223.287 365.5,223.5C 367.696,223.505 369.696,223.838 371.5,224.5 Z"/></g>
<g><path style="opacity:1" fill="#e9564d" d="M 394.5,211.5 C 399.854,212.094 404.354,214.428 408,218.5C 410.167,216.49 412.667,215.156 415.5,214.5C 420.301,215.134 422.135,217.8 421,222.5C 419.221,231.939 414.055,238.773 405.5,243C 402.364,244.041 399.864,243.207 398,240.5C 396.211,234.716 393.545,229.383 390,224.5C 388.379,218.923 389.879,214.589 394.5,211.5 Z"/></g>
<g><path style="opacity:1" fill="#502595" d="M 212.5,242.5 C 209.167,242.5 205.833,242.5 202.5,242.5C 202.185,246.371 202.518,250.038 203.5,253.5C 203.611,254.117 203.944,254.617 204.5,255C 208.152,255.499 211.818,255.665 215.5,255.5C 216.133,265.703 211.3,271.036 201,271.5C 193.459,271.235 188.459,267.569 186,260.5C 185.82,254.157 185.82,247.824 186,241.5C 184.301,240.594 182.467,240.261 180.5,240.5C 180.335,236.818 180.501,233.152 181,229.5C 186.921,225.566 193.255,222.566 200,220.5C 201.436,220.559 202.769,220.892 204,221.5C 204.346,223.218 204.846,224.885 205.5,226.5C 208.926,226.975 212.092,227.975 215,229.5C 215.667,233.167 215.667,236.833 215,240.5C 214.292,241.381 213.458,242.047 212.5,242.5 Z"/></g>
<g><path style="opacity:1" fill="#502496" d="M 296.5,225.5 C 303.175,225.334 309.842,225.5 316.5,226C 320.341,230.542 320.341,235.208 316.5,240C 317.468,245.379 318.968,250.546 321,255.5C 323.511,251.138 325.345,246.472 326.5,241.5C 324.485,238.642 323.152,235.475 322.5,232C 323.378,226.068 326.878,223.902 333,225.5C 342.166,224.34 344.833,228.007 341,236.5C 339.615,237.551 338.615,238.884 338,240.5C 334.842,250.667 331.008,260.5 326.5,270C 320.472,270.83 314.472,270.664 308.5,269.5C 303.776,259.825 299.942,249.825 297,239.5C 292.556,235.05 292.39,230.383 296.5,225.5 Z"/></g>
<g><path style="opacity:1" fill="#4f2495" d="M 247.5,258.5 C 246.6,253.228 246.267,247.895 246.5,242.5C 249.96,228.426 258.96,222.259 273.5,224C 281.627,225.454 287.461,229.954 291,237.5C 295.764,262.539 285.597,273.706 260.5,271C 254.286,268.616 249.953,264.45 247.5,258.5 Z"/></g>
<g><path style="opacity:1" fill="#4f2495" d="M 371.5,224.5 C 384.339,227.899 389.172,236.233 386,249.5C 385.25,250.126 384.416,250.626 383.5,251C 375.507,251.5 367.507,251.666 359.5,251.5C 359.452,254.292 360.785,256.125 363.5,257C 369.19,257.689 374.857,257.522 380.5,256.5C 383.255,256.09 384.588,257.256 384.5,260C 383.525,266.309 379.858,269.975 373.5,271C 350.213,273.314 340.38,262.814 344,239.5C 346.681,232.987 351.181,228.321 357.5,225.5C 362.13,224.771 366.797,224.437 371.5,224.5 Z"/></g>
<g><path style="opacity:1" fill="#f5f3f8" d="M 371.5,242.5 C 367.833,242.5 364.167,242.5 360.5,242.5C 360.5,240.167 360.5,237.833 360.5,235.5C 360.611,234.883 360.944,234.383 361.5,234C 367.685,231.961 372.018,233.795 374.5,239.5C 374.484,241.516 373.484,242.516 371.5,242.5 Z"/></g>
<g><path style="opacity:1" fill="#f2eff6" d="M 265.5,237.5 C 267.199,237.34 268.866,237.506 270.5,238C 274.906,242.705 276.739,248.205 276,254.5C 271.042,259.062 267.042,258.396 264,252.5C 261.56,247.103 262.06,242.103 265.5,237.5 Z"/></g>
<g><path style="opacity:1" fill="#cbc1db" d="M 360.5,235.5 C 360.5,237.833 360.5,240.167 360.5,242.5C 364.167,242.5 367.833,242.5 371.5,242.5C 367.702,243.483 363.702,243.817 359.5,243.5C 359.194,240.615 359.527,237.948 360.5,235.5 Z"/></g>
<g><path style="opacity:1" fill="#694c9f" d="M 134.5,242.5 C 134.635,248.181 134.968,253.848 135.5,259.5C 134.046,256.282 133.379,252.782 133.5,249C 133.504,246.639 133.837,244.473 134.5,242.5 Z"/></g>
<g><path style="opacity:1" fill="#9a84bf" d="M 212.5,242.5 C 209.713,243.477 206.713,243.81 203.5,243.5C 203.5,246.833 203.5,250.167 203.5,253.5C 202.518,250.038 202.185,246.371 202.5,242.5C 205.833,242.5 209.167,242.5 212.5,242.5 Z"/></g>
<g><path style="opacity:1" fill="#d2cae2" d="M 246.5,242.5 C 246.267,247.895 246.6,253.228 247.5,258.5C 246.883,258.389 246.383,258.056 246,257.5C 245.184,252.316 245.35,247.316 246.5,242.5 Z"/></g>
<g><path style="opacity:1" fill="#502495" d="M 107.5,223.5 C 123.266,223.433 130.599,231.266 129.5,247C 130.271,263.897 122.271,271.564 105.5,270C 101.43,266.242 99.5966,267.075 100,272.5C 102.185,273.928 104.185,275.595 106,277.5C 106.978,280.669 106.478,283.503 104.5,286C 97.8734,287.91 91.2067,287.91 84.5,286C 79.059,280.681 79.2257,275.514 85,270.5C 85.6667,260.833 85.6667,251.167 85,241.5C 78.8841,241.388 76.5508,238.388 78,232.5C 81.6986,226.068 87.1986,223.568 94.5,225C 96.9193,226.509 97.9193,228.675 97.5,231.5C 101.089,229.255 104.422,226.588 107.5,223.5 Z"/></g>
<g><path style="opacity:1" fill="#f3f1f7" d="M 102.5,239.5 C 112.102,240.022 115.269,245.022 112,254.5C 108.667,257.167 105.333,257.167 102,254.5C 100.119,249.33 100.286,244.33 102.5,239.5 Z"/></g>
<g><path style="opacity:1" fill="#b7a8d0" d="M 152.5,256.5 C 156.798,257.2 161.131,257.533 165.5,257.5C 165.5,257.833 165.5,258.167 165.5,258.5C 162.15,258.665 158.817,258.498 155.5,258C 154.263,257.768 153.263,257.268 152.5,256.5 Z"/></g>
<g><path style="opacity:1" fill="#775ca3" d="M 172.5,257.5 C 170.194,257.993 167.861,258.326 165.5,258.5C 165.5,258.167 165.5,257.833 165.5,257.5C 167.979,256.377 170.312,256.377 172.5,257.5 Z"/></g>
<g><path style="opacity:1" fill="#4f2495" d="M 152.5,256.5 C 153.263,257.268 154.263,257.768 155.5,258C 158.817,258.498 162.15,258.665 165.5,258.5C 167.861,258.326 170.194,257.993 172.5,257.5C 174.022,258.191 175.022,259.358 175.5,261C 169.811,272.139 160.811,275.806 148.5,272C 142.368,269.702 138.035,265.535 135.5,259.5C 134.968,253.848 134.635,248.181 134.5,242.5C 136.199,234.258 140.866,228.424 148.5,225C 159.838,222.553 169.004,225.719 176,234.5C 177.421,239.504 177.588,244.504 176.5,249.5C 175.5,250.333 174.5,251.167 173.5,252C 165.479,252.168 157.479,252.668 149.5,253.5C 150.188,254.855 151.188,255.855 152.5,256.5 Z"/></g>
<g><path style="opacity:1" fill="#f0edf4" d="M 153.5,233.5 C 157.803,232.796 161.303,234.13 164,237.5C 165.357,241.143 164.19,243.31 160.5,244C 157.167,244.667 153.833,244.667 150.5,244C 148.692,239.663 149.692,236.163 153.5,233.5 Z"/></g>
</svg>
