<?xml version="1.0" encoding="UTF-8"?>
<svg version="1.1" xmlns="http://www.w3.org/2000/svg" width="500" height="500">
<path d="M0 0 C165 0 330 0 500 0 C500 165 500 330 500 500 C335 500 170 500 0 500 C0 335 0 170 0 0 Z " fill="#000000" transform="translate(0,0)"/>
<path d="M0 0 C32.67 0 65.34 0 99 0 C99 74.58 99 149.16 99 226 C66.33 226 33.66 226 0 226 C0 151.42 0 76.84 0 0 Z " fill="#FDC70A" transform="translate(7,137)"/>
<path d="M0 0 C8.51627287 6.18950546 12.94288122 15.17027815 15.1875 25.3125 C16.49871256 39.26280574 15.53051576 53.01040036 7.375 64.875 C4.18169899 68.68528345 0.2996773 71.55713247 -3.8125 74.3125 C-3.01585937 75.158125 -2.21921875 76.00375 -1.3984375 76.875 C-0.32791986 78.02064168 0.74238096 79.16648599 1.8125 80.3125 C2.33457031 80.86550781 2.85664063 81.41851562 3.39453125 81.98828125 C7.32054291 86.20510859 10.81059474 90.64634109 14.1875 95.3125 C-4.1393432 97.53853141 -4.1393432 97.53853141 -10 93.98681641 C-14.07012107 90.32688722 -16.97695821 85.96084046 -19.8125 81.3125 C-20.4725 80.3225 -21.1325 79.3325 -21.8125 78.3125 C-24.36498452 77.87540377 -24.36498452 77.87540377 -27.3125 77.875 C-37.6479612 77.25536803 -46.28367605 73.21943303 -53.4375 65.6875 C-63.16652077 54.12890674 -62.63839803 38.62194807 -61.8125 24.3125 C-60.39546677 14.44130244 -54.74263994 6.03205474 -47.04296875 -0.1796875 C-33.80071137 -9.13154625 -13.4127394 -8.14979364 0 0 Z " fill="#FAFAFA" transform="translate(263.8125,262.6875)"/>
<path d="M0 0 C42.15789474 0 42.15789474 0 51 8 C55.61505615 14.56663574 57.38236526 21.05706516 56 29 C53.70016364 36.3109477 49.76573036 41.32589477 43 45 C42.34 45 41.68 45 41 45 C43.47039783 48.71805801 45.94238188 52.43505502 48.41577148 56.15112305 C49.25506385 57.41255901 50.09393986 58.6742721 50.93237305 59.9362793 C52.14519753 61.76165599 53.35933839 63.58614729 54.57421875 65.41015625 C54.96439178 65.99656891 55.35456482 66.58298157 55.75656128 67.18716431 C57.80499441 70.25399102 59.89788762 73.27457982 62.08203125 76.24609375 C64 79 64 79 64 81 C57.60960601 82.48581819 51.20293545 83.69893303 45 81 C38.9703081 75.09700891 35.16874336 67.24362313 31.41601562 59.77075195 C30.02830358 56.96540135 30.02830358 56.96540135 28.31835938 54.26635742 C27 52 27 52 27 50 C23.7 50 20.4 50 17 50 C17 60.23 17 70.46 17 81 C11.39 81 5.78 81 0 81 C0 54.27 0 27.54 0 0 Z " fill="#FFFEFC" transform="translate(29,169)"/>
<path d="M0 0 C5.94 0 11.88 0 18 0 C18.01981934 1.6900415 18.03963867 3.38008301 18.06005859 5.12133789 C18.1280194 10.72532909 18.20480858 16.32915353 18.28752708 21.93294621 C18.33732589 25.32822196 18.38365621 28.72346907 18.421875 32.11889648 C18.46603887 36.02865654 18.52562151 39.93811072 18.5859375 43.84765625 C18.59748871 45.05833267 18.60903992 46.26900909 18.62094116 47.51637268 C18.7222047 53.32958216 18.82213769 58.56469643 21 64 C24.87006704 66.55663231 29.03000722 66.26800394 33.5625 66.25 C35.51349609 66.25773437 35.51349609 66.25773437 37.50390625 66.265625 C40.6986608 66.02289505 42.42347965 65.82810254 45 64 C48.04776183 58.80751687 49.10797438 54.5409953 49.20532227 48.58886719 C49.22526749 47.50804871 49.24521271 46.42723022 49.26576233 45.31365967 C49.29083107 43.57285126 49.29083107 43.57285126 49.31640625 41.796875 C49.33718735 40.60394836 49.35796844 39.41102173 49.37937927 38.1819458 C49.44476239 34.37135577 49.50370776 30.56069686 49.5625 26.75 C49.60569589 24.16665954 49.64931052 21.58332605 49.69335938 19 C49.80043237 12.66673726 49.90173174 6.33340523 50 0 C55.61 0 61.22 0 67 0 C67.09087291 7.37223929 67.16404219 14.74416538 67.20724869 22.11684895 C67.22800031 25.54141087 67.25608503 28.96556517 67.30175781 32.38989258 C67.35409597 36.33930343 67.37304794 40.28855729 67.390625 44.23828125 C67.41127014 45.45018631 67.43191528 46.66209137 67.45318604 47.91072083 C67.45549921 56.79496163 65.83970962 64.08511797 61.375 71.8125 C53.49721662 79.06835312 44.8283766 82.39010285 34.25 82.3125 C33.45158691 82.30686035 32.65317383 82.3012207 31.83056641 82.29541016 C21.9286506 82.0920151 14.32262061 79.93185431 7 73 C-0.04113715 64.43645482 -0.42821212 55.10911154 -0.29296875 44.43359375 C-0.28872391 43.15895767 -0.28447906 41.88432159 -0.28010559 40.57106018 C-0.26623423 37.21224507 -0.23936858 33.85406301 -0.20599365 30.49542236 C-0.17508729 27.05624812 -0.16155672 23.617008 -0.14648438 20.17773438 C-0.1135248 13.45162826 -0.06179855 6.72590046 0 0 Z " fill="#F8F8F8" transform="translate(119,258)"/>
<path d="M0 0 C5.94 0 11.88 0 18 0 C18.01981934 1.6900415 18.03963867 3.38008301 18.06005859 5.12133789 C18.1280194 10.72532909 18.20480858 16.32915353 18.28752708 21.93294621 C18.33732589 25.32822196 18.38365621 28.72346907 18.421875 32.11889648 C18.46603887 36.02865654 18.52562151 39.93811072 18.5859375 43.84765625 C18.59748871 45.05833267 18.60903992 46.26900909 18.62094116 47.51637268 C18.7222047 53.32958216 18.82213769 58.56469643 21 64 C24.87006704 66.55663231 29.03000722 66.26800394 33.5625 66.25 C35.51349609 66.25773437 35.51349609 66.25773437 37.50390625 66.265625 C40.6986608 66.02289505 42.42347965 65.82810254 45 64 C48.04776183 58.80751687 49.10797438 54.5409953 49.20532227 48.58886719 C49.22526749 47.50804871 49.24521271 46.42723022 49.26576233 45.31365967 C49.29083107 43.57285126 49.29083107 43.57285126 49.31640625 41.796875 C49.33718735 40.60394836 49.35796844 39.41102173 49.37937927 38.1819458 C49.44476239 34.37135577 49.50370776 30.56069686 49.5625 26.75 C49.60569589 24.16665954 49.64931052 21.58332605 49.69335938 19 C49.80043237 12.66673726 49.90173174 6.33340523 50 0 C55.61 0 61.22 0 67 0 C67.09087291 7.37223929 67.16404219 14.74416538 67.20724869 22.11684895 C67.22800031 25.54141087 67.25608503 28.96556517 67.30175781 32.38989258 C67.35409597 36.33930343 67.37304794 40.28855729 67.390625 44.23828125 C67.41127014 45.45018631 67.43191528 46.66209137 67.45318604 47.91072083 C67.45549921 56.79496163 65.83970962 64.08511797 61.375 71.8125 C53.49721662 79.06835312 44.8283766 82.39010285 34.25 82.3125 C33.45158691 82.30686035 32.65317383 82.3012207 31.83056641 82.29541016 C21.9286506 82.0920151 14.32262061 79.93185431 7 73 C-0.04113715 64.43645482 -0.42821212 55.10911154 -0.29296875 44.43359375 C-0.28872391 43.15895767 -0.28447906 41.88432159 -0.28010559 40.57106018 C-0.26623423 37.21224507 -0.23936858 33.85406301 -0.20599365 30.49542236 C-0.17508729 27.05624812 -0.16155672 23.617008 -0.14648438 20.17773438 C-0.1135248 13.45162826 -0.06179855 6.72590046 0 0 Z " fill="#F8F8F8" transform="translate(119,169)"/>
<path d="M0 0 C5.61 0 11.22 0 17 0 C17.01458252 1.58868896 17.02916504 3.17737793 17.04418945 4.81420898 C17.10237053 10.73533089 17.17960276 16.6560804 17.26245117 22.5769043 C17.29560736 25.13445978 17.32366795 27.6920868 17.34643555 30.24975586 C17.38015215 33.93634386 17.43247855 37.62228179 17.48828125 41.30859375 C17.49467117 42.44332626 17.5010611 43.57805878 17.50764465 44.74717712 C17.62446603 51.12373434 17.96337489 57.25671563 21 63 C25.68804914 66.92265336 29.58427649 67.60111901 35.63671875 67.31640625 C40.2803117 66.69470207 42.96790534 65.11055661 46.12597656 61.71240234 C49.34103712 56.67193764 48.6036553 50.48850269 48.609375 44.7265625 C48.62591125 43.44768158 48.64244751 42.16880066 48.65948486 40.85116577 C48.6997459 37.46771399 48.7231238 34.08501304 48.73822021 30.70141602 C48.75784483 27.24219568 48.79980853 23.78325242 48.83984375 20.32421875 C48.91374043 13.54950988 48.96330652 6.7750084 49 0 C54.94 0 60.88 0 67 0 C67.11367495 7.35494398 67.20509852 14.70939532 67.25906086 22.06503677 C67.28498093 25.48184507 67.32004722 28.89801316 67.37719727 32.31445312 C67.44271385 36.25642815 67.46632587 40.19815833 67.48828125 44.140625 C67.51408768 45.34736877 67.5398941 46.55411255 67.56648254 47.79742432 C67.56968583 57.63912336 65.41071127 66.43648892 58.8125 74 C49.55634081 82.30421284 36.80326604 82.6990298 25.02636719 82.17480469 C18.00712194 81.56928907 11.87151855 78.1089173 6.88066101 73.23577881 C-0.04368295 65.0039383 -0.70470098 55.2253968 -0.48828125 44.921875 C-0.48120651 43.62928772 -0.47413177 42.33670044 -0.46684265 41.00494385 C-0.44798728 37.61140238 -0.39908254 34.21897553 -0.34332275 30.8258667 C-0.29165773 27.346304 -0.26922918 23.86655657 -0.24414062 20.38671875 C-0.19093395 13.590649 -0.1031833 6.79549318 0 0 Z " fill="#F9F9F9" transform="translate(295,258)"/>
<path d="M0 0 C15.51 0 31.02 0 47 0 C47 4.62 47 9.24 47 14 C37.43 14 27.86 14 18 14 C18 19.94 18 25.88 18 32 C26.91 32 35.82 32 45 32 C45 36.62 45 41.24 45 46 C36.09 46 27.18 46 18 46 C18 52.93 18 59.86 18 67 C27.57 67 37.14 67 47 67 C47 71.62 47 76.24 47 81 C31.49 81 15.98 81 0 81 C0 54.27 0 27.54 0 0 Z " fill="#FAFAFA" transform="translate(381,258)"/>
<path d="M0 0 C0.77520996 0.00064453 1.55041992 0.00128906 2.34912109 0.00195312 C10.32882758 0.20384735 17.15758946 2.46773606 24.5 5.5 C23.90099158 9.04991306 22.94788874 12.04811143 21.4375 15.3125 C21.07527344 16.10269531 20.71304688 16.89289063 20.33984375 17.70703125 C20.06269531 18.29871094 19.78554688 18.89039063 19.5 19.5 C18.75234375 19.29503906 18.0046875 19.09007812 17.234375 18.87890625 C15.75710938 18.47478516 15.75710938 18.47478516 14.25 18.0625 C13.27546875 17.79566406 12.3009375 17.52882813 11.296875 17.25390625 C10.37390625 17.00511719 9.4509375 16.75632812 8.5 16.5 C7.80390625 16.30664062 7.1078125 16.11328125 6.390625 15.9140625 C2.26504825 15.0105271 -1.95478957 14.94530908 -5.9375 16.375 C-8.46415486 18.1941915 -8.52871691 19.66591992 -9.0625 22.75 C-8.45995172 26.88062987 -8.45995172 26.88062987 -5.5625 29.375 C-1.93964863 31.81620451 1.90263198 33.74780916 5.79101562 35.72021484 C14.78742287 40.29383977 22.14372156 44.40079112 25.5 54.5 C26.41132189 61.58923659 25.83378126 67.69297866 21.5 73.5 C15.68081285 80.30502592 9.27099162 82.92196894 0.44091797 83.67578125 C-9.71957145 84.2998078 -17.96817546 83.41049212 -27.5 79.5 C-27.5 74.22 -27.5 68.94 -27.5 63.5 C-23.63036054 64.27392789 -20.57121182 65.18317266 -16.9375 66.5625 C-10.05812981 68.88959559 -2.51896979 70.40491254 4.27734375 67.18359375 C6.82568474 65.5828594 6.82568474 65.5828594 7.625 62.125 C7.8570923 58.46627386 7.8570923 58.46627386 5.609375 56.10546875 C1.15773638 51.96002749 -4.62672649 49.55757727 -10.01953125 46.86914062 C-17.02700043 43.20734282 -22.10166413 38.91240799 -25.9140625 31.8984375 C-27.39434747 25.8391377 -27.89211166 18.23078932 -24.9375 12.5625 C-18.18141434 4.07408469 -10.89183263 -0.08533318 0 0 Z " fill="#FAFAFA" transform="translate(467.5,256.5)"/>
<path d="M0 0 C5.94 0 11.88 0 18 0 C18.65226562 1.24394531 19.30453125 2.48789063 19.9765625 3.76953125 C20.85923471 5.4505945 21.74205706 7.13157893 22.625 8.8125 C23.0792334 9.6780249 23.5334668 10.5435498 24.00146484 11.43530273 C26.94009064 17.02266144 29.93456746 22.56922028 33.0390625 28.06640625 C34 30 34 30 34 32 C34.66 32 35.32 32 36 32 C36.400979 30.70908447 36.400979 30.70908447 36.81005859 29.39208984 C37.99803935 26.00558909 39.422212 22.92856054 41.0390625 19.7265625 C41.61914062 18.57285156 42.19921875 17.41914063 42.796875 16.23046875 C43.40616191 15.02860117 44.01553802 13.82677881 44.625 12.625 C45.24255878 11.39992668 45.85974982 10.1746679 46.4765625 8.94921875 C47.9807622 5.96432247 49.48990008 2.98191562 51 0 C57.27 0 63.54 0 70 0 C68.37751711 4.05620722 66.63497033 7.71726718 64.5859375 11.55859375 C64.25260406 12.18419693 63.91927063 12.80980011 63.57583618 13.45436096 C62.86936083 14.77875806 62.1616007 16.10247053 61.45263672 17.42553711 C60.39594367 19.39839786 59.34412823 21.37379594 58.29296875 23.34960938 C57.9495343 23.99210632 57.60609985 24.63460327 57.2522583 25.29656982 C56.55510247 26.60176028 55.8610736 27.90862555 55.17010498 29.21710205 C53.47175277 32.40184689 51.7182324 35.48904326 49.72753906 38.50097656 C43.71667987 47.75197305 42.84655642 55.16561257 43 65.875 C42.99188152 67.35288875 42.98018004 68.83076228 42.96484375 70.30859375 C42.92889641 73.87536914 42.96571921 77.43051317 43 81 C37.39 81 31.78 81 26 81 C26.07863281 78.98003906 26.15726563 76.96007812 26.23828125 74.87890625 C26.56379009 56.09601079 24.00173464 43.23972798 13.828125 26.97119141 C10.73884396 21.9502846 7.98770128 16.74812089 5.1875 11.5625 C4.66631592 10.62583496 4.14513184 9.68916992 3.6081543 8.72412109 C2.89526245 7.43948975 2.89526245 7.43948975 2.16796875 6.12890625 C1.74797607 5.37681885 1.3279834 4.62473145 0.89526367 3.84985352 C0 2 0 2 0 0 Z " fill="#FAFAFA" transform="translate(196,169)"/>
<path d="M0 0 C5.39578455 3.13303619 8.4014339 6.95951205 10.5 12.75 C13.07261126 22.55253601 12.98880046 33.70870177 9.03125 43.09375 C6.30503079 47.72198261 2.75894719 50.6845176 -2.3125 52.375 C-4.74612472 52.54741708 -7.18570596 52.64165768 -9.625 52.6875 C-10.92050781 52.72488281 -12.21601563 52.76226562 -13.55078125 52.80078125 C-17.94837767 52.30302631 -19.95855381 51.22342387 -23.3125 48.375 C-24.95703125 45.97265625 -24.95703125 45.97265625 -26.125 43.4375 C-26.52332031 42.60347656 -26.92164063 41.76945312 -27.33203125 40.91015625 C-30.97915513 31.4799435 -30.5672832 18.9007791 -27.3125 9.375 C-24.92547127 4.35934044 -21.64190504 1.24993891 -16.55078125 -0.96484375 C-10.85402028 -2.64504027 -5.42888981 -2.43328771 0 0 Z " fill="#020202" transform="translate(249.3125,272.625)"/>
<path d="M0 0 C5.61 0 11.22 0 17 0 C17 22.11 17 44.22 17 67 C27.89 67 38.78 67 50 67 C50 71.62 50 76.24 50 81 C33.5 81 17 81 0 81 C0 54.27 0 27.54 0 0 Z " fill="#FFFEFE" transform="translate(29,258)"/>
<path d="M0 0 C8.05156233 -0.36598011 13.16925234 -0.38198907 20 4 C21.87045153 7.74090307 21.67718474 11.93689156 21 16 C18.94174145 19.0666671 16.21699904 20.56052813 12.75 21.8125 C8.50938584 22.10163278 4.25045953 22 0 22 C0 14.74 0 7.48 0 0 Z " fill="#FFC90F" transform="translate(46,183)"/>
</svg>
