<?xml version="1.0" encoding="UTF-8"?>
<!DOCTYPE svg PUBLIC "-//W3C//DTD SVG 1.1//EN" "http://www.w3.org/Graphics/SVG/1.1/DTD/svg11.dtd">
<svg xmlns="http://www.w3.org/2000/svg" version="1.1" width="2560px" height="800px" style="shape-rendering:geometricPrecision; text-rendering:geometricPrecision; image-rendering:optimizeQuality; fill-rule:evenodd; clip-rule:evenodd" xmlns:xlink="http://www.w3.org/1999/xlink">
<g><path style="opacity:0.994" fill="#fb41dd" d="M 448.5,122.5 C 454.861,129.193 461.194,135.86 467.5,142.5C 468.803,144.142 470.136,145.809 471.5,147.5C 496.555,194.942 520.555,242.942 543.5,291.5C 529.682,279.436 515.349,268.102 500.5,257.5C 500.167,256.833 499.833,256.167 499.5,255.5C 488.918,233.003 477.752,210.67 466,188.5C 457,176.5 448,164.5 439,152.5C 433.979,142.446 428.479,132.779 422.5,123.5C 419.879,118.259 417.213,112.925 414.5,107.5C 414.833,107.167 415.167,106.833 415.5,106.5C 426.714,111.608 437.714,116.941 448.5,122.5 Z"/></g>
<g><path style="opacity:0.906" fill="#fd3cc3" d="M 275.5,132.5 C 270.5,128.167 265.833,123.5 261.5,118.5C 269.529,114.403 277.696,110.403 286,106.5C 283.381,115.421 279.881,124.088 275.5,132.5 Z"/></g>
<g><path style="opacity:0.964" fill="#fc3abe" d="M 261.5,118.5 C 265.833,123.5 270.5,128.167 275.5,132.5C 271.833,140.5 268.167,148.5 264.5,156.5C 254.533,148.2 245.199,139.2 236.5,129.5C 244.75,125.639 253.084,121.972 261.5,118.5 Z"/></g>
<g><path style="opacity:0.918" fill="#fc45df" d="M 448.5,122.5 C 452.667,123.778 456.667,125.444 460.5,127.5C 462.576,132.651 464.91,137.651 467.5,142.5C 461.194,135.86 454.861,129.193 448.5,122.5 Z"/></g>
<g><path style="opacity:0.949" fill="#fb40d9" d="M 422.5,123.5 C 428.479,132.779 433.979,142.446 439,152.5C 448,164.5 457,176.5 466,188.5C 477.752,210.67 488.918,233.003 499.5,255.5C 491.822,249.332 483.822,243.666 475.5,238.5C 457.562,200.291 439.895,161.958 422.5,123.5 Z"/></g>
<g><path style="opacity:0.976" fill="#fb45e4" d="M 460.5,127.5 C 482.749,138.027 505.082,148.36 527.5,158.5C 531.972,170.584 536.639,182.584 541.5,194.5C 522.069,182.919 502.736,171.086 483.5,159C 479.631,154.963 475.631,151.13 471.5,147.5C 470.136,145.809 468.803,144.142 467.5,142.5C 464.91,137.651 462.576,132.651 460.5,127.5 Z"/></g>
<g><path style="opacity:0.975" fill="#fc39ba" d="M 236.5,129.5 C 245.199,139.2 254.533,148.2 264.5,156.5C 263.404,159.032 262.071,161.365 260.5,163.5C 247.833,154.5 235.167,145.5 222.5,136.5C 227.167,134.167 231.833,131.833 236.5,129.5 Z"/></g>
<g><path style="opacity:0.981" fill="#fc37b7" d="M 222.5,136.5 C 235.167,145.5 247.833,154.5 260.5,163.5C 258.616,169.598 255.949,175.265 252.5,180.5C 238.735,167.061 224.402,154.394 209.5,142.5C 213.709,140.229 218.042,138.229 222.5,136.5 Z"/></g>
<g><path style="opacity:0.985" fill="#fc36b1" d="M 209.5,142.5 C 224.402,154.394 238.735,167.061 252.5,180.5C 249.112,188.944 245.445,197.278 241.5,205.5C 231.396,196.943 220.729,189.11 209.5,182C 198.977,173.636 188.644,165.136 178.5,156.5C 188.71,151.562 199.044,146.895 209.5,142.5 Z"/></g>
<g><path style="opacity:1" fill="#fa42e3" d="M 471.5,147.5 C 475.631,151.13 479.631,154.963 483.5,159C 502.736,171.086 522.069,182.919 541.5,194.5C 541.5,194.833 541.5,195.167 541.5,195.5C 550.597,216.295 556.763,237.961 560,260.5C 562.845,266.855 565.679,273.188 568.5,279.5C 564.564,287.053 559.898,294.053 554.5,300.5C 551.233,298.573 548.233,296.239 545.5,293.5C 544.833,292.833 544.167,292.167 543.5,291.5C 520.555,242.942 496.555,194.942 471.5,147.5 Z"/></g>
<g><path style="opacity:0.988" fill="#fc33ab" d="M 178.5,156.5 C 188.644,165.136 198.977,173.636 209.5,182C 220.729,189.11 231.396,196.943 241.5,205.5C 238.739,212.019 235.739,218.352 232.5,224.5C 223.377,217.883 214.377,211.049 205.5,204C 186.617,194.258 169.284,182.424 153.5,168.5C 161.647,164.261 169.98,160.261 178.5,156.5 Z"/></g>
<g><path style="opacity:0.985" fill="#fa45ea" d="M 527.5,158.5 C 544.833,166.5 562.167,174.5 579.5,182.5C 582.833,194.166 586.166,205.833 589.5,217.5C 589.833,218.167 590.167,218.833 590.5,219.5C 589.891,224.156 588.891,228.823 587.5,233.5C 575.072,223.244 563.072,212.41 551.5,201C 548.26,198.909 544.926,197.076 541.5,195.5C 541.5,195.167 541.5,194.833 541.5,194.5C 536.639,182.584 531.972,170.584 527.5,158.5 Z"/></g>
<g><path style="opacity:0.991" fill="#fc32a6" d="M 153.5,168.5 C 169.284,182.424 186.617,194.258 205.5,204C 214.377,211.049 223.377,217.883 232.5,224.5C 231.105,228.29 229.438,231.957 227.5,235.5C 213.86,228.68 200.193,221.847 186.5,215C 168.323,202.97 150.323,190.804 132.5,178.5C 139.25,174.797 146.25,171.464 153.5,168.5 Z"/></g>
<g><path style="opacity:0.987" fill="#fc30a3" d="M 132.5,178.5 C 150.323,190.804 168.323,202.97 186.5,215C 200.193,221.847 213.86,228.68 227.5,235.5C 226.441,238.618 225.108,241.618 223.5,244.5C 211.71,235.883 200.043,227.05 188.5,218C 174.167,209.667 159.833,201.333 145.5,193C 139.07,189.397 133.403,184.897 128.5,179.5C 129.833,179.167 131.167,178.833 132.5,178.5 Z"/></g>
<g><path style="opacity:0.991" fill="#fb309f" d="M 128.5,179.5 C 133.403,184.897 139.07,189.397 145.5,193C 159.833,201.333 174.167,209.667 188.5,218C 200.043,227.05 211.71,235.883 223.5,244.5C 220.677,251.48 217.343,258.146 213.5,264.5C 199.662,253.499 185.662,242.666 171.5,232C 148.437,218.474 125.437,204.974 102.5,191.5C 111.256,187.692 119.923,183.692 128.5,179.5 Z"/></g>
<g><path style="opacity:0.964" fill="#fa46ee" d="M 579.5,182.5 C 583.565,184.533 587.565,186.533 591.5,188.5C 590.833,198.167 590.167,207.833 589.5,217.5C 586.166,205.833 582.833,194.166 579.5,182.5 Z"/></g>
<g><path style="opacity:0.987" fill="#ef4dfe" d="M 920.5,184.5 C 926.719,186.545 933.052,188.211 939.5,189.5C 935.475,214.957 930.141,240.291 923.5,265.5C 918.188,280.43 912.855,295.43 907.5,310.5C 885.25,305.858 863.584,299.524 842.5,291.5C 854.428,256.051 866.761,220.718 879.5,185.5C 893.15,184.501 906.817,184.167 920.5,184.5 Z"/></g>
<g><path style="opacity:0.91" fill="#ec52ff" d="M 920.5,184.5 C 936.5,184.5 952.5,184.5 968.5,184.5C 969.101,187.968 970.101,191.301 971.5,194.5C 960.904,192.401 950.237,190.734 939.5,189.5C 933.052,188.211 926.719,186.545 920.5,184.5 Z"/></g>
<g><path style="opacity:0.983" fill="#aa46ff" d="M 2027.5,215.5 C 2016.43,234.63 2005.1,253.63 1993.5,272.5C 1993.5,273.167 1993.17,273.5 1992.5,273.5C 1988.45,274.013 1984.45,274.846 1980.5,276C 1972.8,278.854 1965.14,281.687 1957.5,284.5C 1957.5,251.167 1957.5,217.833 1957.5,184.5C 1980.83,184.5 2004.17,184.5 2027.5,184.5C 2027.5,194.833 2027.5,205.167 2027.5,215.5 Z"/></g>
<g><path style="opacity:0.975" fill="#f946ef" d="M 591.5,188.5 C 601.84,192.753 612.006,197.419 622,202.5C 621.5,222.501 620.667,242.501 619.5,262.5C 611.5,255.5 603.5,248.5 595.5,241.5C 595.5,241.167 595.5,240.833 595.5,240.5C 594.219,233.431 592.552,226.431 590.5,219.5C 590.167,218.833 589.833,218.167 589.5,217.5C 590.167,207.833 590.833,198.167 591.5,188.5 Z"/></g>
<g><path style="opacity:0.989" fill="#eb4dfe" d="M 939.5,189.5 C 950.237,190.734 960.904,192.401 971.5,194.5C 987.034,238.437 1002.37,282.437 1017.5,326.5C 1016.3,329.421 1015.3,332.421 1014.5,335.5C 990.932,329.691 967.265,324.358 943.5,319.5C 936.871,302.119 930.705,284.453 925,266.5C 924.617,265.944 924.117,265.611 923.5,265.5C 930.141,240.291 935.475,214.957 939.5,189.5 Z"/></g>
<g><path style="opacity:0.993" fill="#fb2e98" d="M 102.5,191.5 C 125.437,204.974 148.437,218.474 171.5,232C 185.662,242.666 199.662,253.499 213.5,264.5C 210.683,272.129 207.35,279.463 203.5,286.5C 186.683,273.863 169.683,261.363 152.5,249C 128.714,235.107 104.38,222.274 79.5,210.5C 79.2229,207.552 79.5562,204.719 80.5,202C 87.9811,198.759 95.3145,195.259 102.5,191.5 Z"/></g>
<g><path style="opacity:1" fill="#fa43e9" d="M 541.5,195.5 C 544.926,197.076 548.26,198.909 551.5,201C 563.072,212.41 575.072,223.244 587.5,233.5C 587.5,233.833 587.5,234.167 587.5,234.5C 582.713,246.69 578.213,259.023 574,271.5C 572.672,274.312 571.172,276.978 569.5,279.5C 569.167,279.5 568.833,279.5 568.5,279.5C 565.679,273.188 562.845,266.855 560,260.5C 556.763,237.961 550.597,216.295 541.5,195.5 Z"/></g>
<g><path style="opacity:0.994" fill="#fb2c92" d="M 79.5,210.5 C 104.38,222.274 128.714,235.107 152.5,249C 169.683,261.363 186.683,273.863 203.5,286.5C 202.164,289.838 200.831,293.171 199.5,296.5C 185.57,288.702 171.237,281.702 156.5,275.5C 137.182,266.178 118.515,255.845 100.5,244.5C 94.7518,239.345 88.0851,235.679 80.5,233.5C 80.4038,225.821 80.0705,218.154 79.5,210.5 Z"/></g>
<g><path style="opacity:0.985" fill="#a745ff" d="M 2027.5,215.5 C 2027.5,231.833 2027.5,248.167 2027.5,264.5C 2016.26,267.476 2004.93,270.142 1993.5,272.5C 2005.1,253.63 2016.43,234.63 2027.5,215.5 Z"/></g>
<g><path style="opacity:1" fill="#f845ed" d="M 590.5,219.5 C 592.552,226.431 594.219,233.431 595.5,240.5C 592.569,238.909 589.902,236.909 587.5,234.5C 587.5,234.167 587.5,233.833 587.5,233.5C 588.891,228.823 589.891,224.156 590.5,219.5 Z"/></g>
<g><path style="opacity:0.957" fill="#fa2b8f" d="M 80.5,233.5 C 88.0851,235.679 94.7518,239.345 100.5,244.5C 94.282,241.313 87.9487,238.313 81.5,235.5C 80.6618,235.158 80.3284,234.492 80.5,233.5 Z"/></g>
<g><path style="opacity:0.994" fill="#f841ea" d="M 587.5,234.5 C 589.902,236.909 592.569,238.909 595.5,240.5C 595.5,240.833 595.5,241.167 595.5,241.5C 599.01,262.216 602.843,282.882 607,303.5C 609.622,309.085 612.456,314.418 615.5,319.5C 614.656,331.155 613.99,342.822 613.5,354.5C 608.833,350.167 604.167,345.833 599.5,341.5C 598.5,341.167 597.833,340.5 597.5,339.5C 588.167,319.5 578.833,299.5 569.5,279.5C 571.172,276.978 572.672,274.312 574,271.5C 578.213,259.023 582.713,246.69 587.5,234.5 Z"/></g>
<g><path style="opacity:0.994" fill="#fa2a8c" d="M 81.5,235.5 C 87.9487,238.313 94.282,241.313 100.5,244.5C 118.515,255.845 137.182,266.178 156.5,275.5C 169.676,284.588 182.676,293.921 195.5,303.5C 193.616,309.598 190.949,315.265 187.5,320.5C 183.399,317.578 179.399,314.411 175.5,311C 144.153,294.663 113.153,277.829 82.5,260.5C 81.9452,252.178 81.6119,243.844 81.5,235.5 Z"/></g>
<g><path style="opacity:0.963" fill="#fa3cd8" d="M 475.5,238.5 C 483.822,243.666 491.822,249.332 499.5,255.5C 499.833,256.167 500.167,256.833 500.5,257.5C 512.709,281.251 524.375,305.251 535.5,329.5C 532.133,334.523 528.8,339.523 525.5,344.5C 508.321,309.473 491.655,274.14 475.5,238.5 Z"/></g>
<g><path style="opacity:0.977" fill="#f843ee" d="M 595.5,241.5 C 603.5,248.5 611.5,255.5 619.5,262.5C 617.879,281.427 616.546,300.427 615.5,319.5C 612.456,314.418 609.622,309.085 607,303.5C 602.843,282.882 599.01,262.216 595.5,241.5 Z"/></g>
<g><path style="opacity:1" fill="#fa3ddc" d="M 500.5,257.5 C 515.349,268.102 529.682,279.436 543.5,291.5C 544.167,292.167 544.833,292.833 545.5,293.5C 546.992,297.818 548.992,301.818 551.5,305.5C 551.5,305.833 551.5,306.167 551.5,306.5C 545.756,313.646 540.756,321.313 536.5,329.5C 536.167,329.5 535.833,329.5 535.5,329.5C 524.375,305.251 512.709,281.251 500.5,257.5 Z"/></g>
<g><path style="opacity:0.833" fill="#fa35b6" d="M 360.5,283.5 C 356.194,278.527 351.527,273.86 346.5,269.5C 347.728,266.044 349.228,262.71 351,259.5C 354.47,267.417 357.637,275.417 360.5,283.5 Z"/></g>
<g><path style="opacity:0.992" fill="#fa2886" d="M 82.5,260.5 C 113.153,277.829 144.153,294.663 175.5,311C 179.399,314.411 183.399,317.578 187.5,320.5C 185.35,326.794 182.684,332.794 179.5,338.5C 148,321.249 116.334,304.249 84.5,287.5C 83.792,278.505 83.1253,269.505 82.5,260.5 Z"/></g>
<g><path style="opacity:0.991" fill="#a541fe" d="M 2027.5,264.5 C 2027.5,304.5 2027.5,344.5 2027.5,384.5C 2021.67,392.148 2016.34,400.148 2011.5,408.5C 2010.51,408.328 2009.84,408.662 2009.5,409.5C 1992.24,413.816 1974.9,417.816 1957.5,421.5C 1957.5,391.5 1957.5,361.5 1957.5,331.5C 1969.95,312.697 1981.62,293.364 1992.5,273.5C 1993.17,273.5 1993.5,273.167 1993.5,272.5C 2004.93,270.142 2016.26,267.476 2027.5,264.5 Z"/></g>
<g><path style="opacity:0.96" fill="#fa33b1" d="M 346.5,269.5 C 351.527,273.86 356.194,278.527 360.5,283.5C 368.739,302.321 376.739,321.321 384.5,340.5C 383.222,340.218 382.222,339.551 381.5,338.5C 366.805,322.807 352.139,307.14 337.5,291.5C 340.5,284.167 343.5,276.833 346.5,269.5 Z"/></g>
<g><path style="opacity:0.974" fill="#a943ff" d="M 1992.5,273.5 C 1981.62,293.364 1969.95,312.697 1957.5,331.5C 1957.5,315.833 1957.5,300.167 1957.5,284.5C 1965.14,281.687 1972.8,278.854 1980.5,276C 1984.45,274.846 1988.45,274.013 1992.5,273.5 Z"/></g>
<g><path style="opacity:0.978" fill="#fb2a90" d="M 156.5,275.5 C 171.237,281.702 185.57,288.702 199.5,296.5C 198.404,299.032 197.071,301.365 195.5,303.5C 182.676,293.921 169.676,284.588 156.5,275.5 Z"/></g>
<g><path style="opacity:0.991" fill="#d74bfc" d="M 1324.5,294.5 C 1320.1,306.694 1316.1,319.028 1312.5,331.5C 1312.17,331.5 1311.83,331.5 1311.5,331.5C 1289.65,334.741 1267.65,336.741 1245.5,337.5C 1242.83,337.5 1240.17,337.5 1237.5,337.5C 1231.83,337.5 1226.17,337.5 1220.5,337.5C 1223.82,319.886 1226.82,302.22 1229.5,284.5C 1256.29,276.15 1282.96,276.65 1309.5,286C 1314.9,288.264 1319.9,291.098 1324.5,294.5 Z"/></g>
<g><path style="opacity:0.953" fill="#c94bfd" d="M 1513.5,279.5 C 1512.78,282.598 1511.78,285.598 1510.5,288.5C 1510.5,288.833 1510.5,289.167 1510.5,289.5C 1483.61,294.703 1456.61,299.37 1429.5,303.5C 1446.81,289.217 1466.81,281.05 1489.5,279C 1497.68,278.177 1505.68,278.344 1513.5,279.5 Z"/></g>
<g><path style="opacity:0.981" fill="#9f40ff" d="M 2217.5,284.5 C 2216.66,287.516 2215.16,290.183 2213,292.5C 2200.96,305.705 2189.13,319.038 2177.5,332.5C 2149.23,330.132 2128.23,341.132 2114.5,365.5C 2112.18,365.992 2110.18,366.992 2108.5,368.5C 2088.01,366.336 2067.68,363.336 2047.5,359.5C 2057.48,325.686 2078.81,302.186 2111.5,289C 2146.42,276.886 2181.75,275.386 2217.5,284.5 Z"/></g>
<g><path style="opacity:0.985" fill="#923bff" d="M 2382.5,438.5 C 2362.19,440.041 2341.85,441.541 2321.5,443C 2318.11,444.075 2314.77,445.242 2311.5,446.5C 2311.5,418.167 2311.5,389.833 2311.5,361.5C 2330.99,343.238 2350.33,324.738 2369.5,306C 2372.71,303.283 2376.04,300.783 2379.5,298.5C 2379.5,309.5 2379.5,320.5 2379.5,331.5C 2380.5,331.5 2381.5,331.5 2382.5,331.5C 2391.72,301.782 2411.72,284.282 2442.5,279C 2454.85,278.323 2467.18,278.49 2479.5,279.5C 2479.83,301.177 2479.5,322.844 2478.5,344.5C 2458.64,338.691 2438.98,339.191 2419.5,346C 2399.54,354.957 2387.37,370.124 2383,391.5C 2382.5,407.163 2382.33,422.83 2382.5,438.5 Z"/></g>
<g><path style="opacity:1" fill="#f83fe5" d="M 568.5,279.5 C 568.833,279.5 569.167,279.5 569.5,279.5C 578.833,299.5 588.167,319.5 597.5,339.5C 583.167,326.833 568.833,314.167 554.5,301.5C 554.5,301.167 554.5,300.833 554.5,300.5C 559.898,294.053 564.564,287.053 568.5,279.5 Z"/></g>
<g><path style="opacity:0.929" fill="#c64bfd" d="M 1513.5,279.5 C 1519.49,279.367 1525.16,280.367 1530.5,282.5C 1524.11,285.072 1517.44,287.072 1510.5,288.5C 1511.78,285.598 1512.78,282.598 1513.5,279.5 Z"/></g>
<g><path style="opacity:0.995" fill="#e14cfc" d="M 1140.5,282.5 C 1137.95,302.252 1133.62,321.585 1127.5,340.5C 1121.83,340.5 1116.17,340.5 1110.5,340.5C 1110.5,321.167 1110.5,301.833 1110.5,282.5C 1120.5,282.5 1130.5,282.5 1140.5,282.5 Z"/></g>
<g><path style="opacity:0.979" fill="#dd4bfc" d="M 1140.5,282.5 C 1152.83,282.5 1165.17,282.5 1177.5,282.5C 1177.17,299.18 1177.5,315.847 1178.5,332.5C 1189.08,309.581 1206.08,293.581 1229.5,284.5C 1226.82,302.22 1223.82,319.886 1220.5,337.5C 1189.5,338.566 1158.5,339.566 1127.5,340.5C 1133.62,321.585 1137.95,302.252 1140.5,282.5 Z"/></g>
<g><path style="opacity:0.98" fill="#c448fd" d="M 1530.5,282.5 C 1555.92,290.377 1574.25,306.377 1585.5,330.5C 1581.36,341.579 1577.03,352.579 1572.5,363.5C 1552.81,337.903 1527.48,330.236 1496.5,340.5C 1499.46,322.998 1504.12,305.998 1510.5,289.5C 1510.5,289.167 1510.5,288.833 1510.5,288.5C 1517.44,287.072 1524.11,285.072 1530.5,282.5 Z"/></g>
<g><path style="opacity:0.927" fill="#c249fd" d="M 1603.5,282.5 C 1599.27,295.547 1594.27,308.214 1588.5,320.5C 1588.5,307.833 1588.5,295.167 1588.5,282.5C 1593.5,282.5 1598.5,282.5 1603.5,282.5 Z"/></g>
<g><path style="opacity:0.992" fill="#be46fc" d="M 1603.5,282.5 C 1621.5,282.5 1639.5,282.5 1657.5,282.5C 1657.5,310.5 1657.5,338.5 1657.5,366.5C 1655.66,368.849 1654.33,371.515 1653.5,374.5C 1653.17,374.5 1652.83,374.5 1652.5,374.5C 1629.92,380.479 1607.25,386.146 1584.5,391.5C 1581.86,381.569 1577.86,372.236 1572.5,363.5C 1577.03,352.579 1581.36,341.579 1585.5,330.5C 1586.5,330.5 1587.5,330.5 1588.5,330.5C 1588.5,327.167 1588.5,323.833 1588.5,320.5C 1594.27,308.214 1599.27,295.547 1603.5,282.5 Z"/></g>
<g><path style="opacity:0.946" fill="#bc48fd" d="M 1691.5,282.5 C 1688.29,292.573 1684.29,302.24 1679.5,311.5C 1679.5,301.833 1679.5,292.167 1679.5,282.5C 1683.5,282.5 1687.5,282.5 1691.5,282.5 Z"/></g>
<g><path style="opacity:0.988" fill="#b846fd" d="M 1691.5,282.5 C 1710.83,282.5 1730.17,282.5 1749.5,282.5C 1749.5,305.5 1749.5,328.5 1749.5,351.5C 1748.83,351.5 1748.17,351.5 1747.5,351.5C 1724.62,355.943 1701.95,361.276 1679.5,367.5C 1679.5,348.833 1679.5,330.167 1679.5,311.5C 1684.29,302.24 1688.29,292.573 1691.5,282.5 Z"/></g>
<g><path style="opacity:0.885" fill="#af45fe" d="M 1881.5,282.5 C 1875.38,291.073 1870.05,300.073 1865.5,309.5C 1865.5,300.5 1865.5,291.5 1865.5,282.5C 1870.83,282.5 1876.17,282.5 1881.5,282.5 Z"/></g>
<g><path style="opacity:0.986" fill="#ad45fe" d="M 1881.5,282.5 C 1899.5,282.5 1917.5,282.5 1935.5,282.5C 1935.5,286.5 1935.5,290.5 1935.5,294.5C 1912.6,304.619 1889.26,313.619 1865.5,321.5C 1865.5,317.5 1865.5,313.5 1865.5,309.5C 1870.05,300.073 1875.38,291.073 1881.5,282.5 Z"/></g>
<g><path style="opacity:0.952" fill="#973fff" d="M 2361.5,282.5 C 2357.06,285.559 2352.4,288.392 2347.5,291C 2335.38,294.209 2323.38,297.709 2311.5,301.5C 2311.5,295.167 2311.5,288.833 2311.5,282.5C 2328.17,282.5 2344.83,282.5 2361.5,282.5 Z"/></g>
<g><path style="opacity:0.981" fill="#963dff" d="M 2361.5,282.5 C 2367.5,282.5 2373.5,282.5 2379.5,282.5C 2379.5,287.833 2379.5,293.167 2379.5,298.5C 2376.04,300.783 2372.71,303.283 2369.5,306C 2350.33,324.738 2330.99,343.238 2311.5,361.5C 2311.5,341.5 2311.5,321.5 2311.5,301.5C 2323.38,297.709 2335.38,294.209 2347.5,291C 2352.4,288.392 2357.06,285.559 2361.5,282.5 Z"/></g>
<g><path style="opacity:0.985" fill="#9b3fff" d="M 2217.5,284.5 C 2237.72,288.769 2254.72,298.436 2268.5,313.5C 2262.26,315.946 2255.92,318.446 2249.5,321C 2231.48,325.417 2213.81,330.584 2196.5,336.5C 2190.4,334.204 2184.07,332.871 2177.5,332.5C 2189.13,319.038 2200.96,305.705 2213,292.5C 2215.16,290.183 2216.66,287.516 2217.5,284.5 Z"/></g>
<g><path style="opacity:0.99" fill="#fa2680" d="M 84.5,287.5 C 116.334,304.249 148,321.249 179.5,338.5C 177.403,343.689 175.07,348.689 172.5,353.5C 149.156,344.16 125.823,334.827 102.5,325.5C 97.1667,322.833 91.8333,320.167 86.5,317.5C 85.5022,307.536 84.8355,297.536 84.5,287.5 Z"/></g>
<g><path style="opacity:0.989" fill="#cb47fb" d="M 1510.5,289.5 C 1504.12,305.998 1499.46,322.998 1496.5,340.5C 1481.36,346.474 1470.19,356.807 1463,371.5C 1455.86,387.048 1452.03,403.381 1451.5,420.5C 1439.9,422.094 1428.23,423.094 1416.5,423.5C 1415.5,423.5 1414.5,423.5 1413.5,423.5C 1409.87,421.562 1406.04,419.895 1402,418.5C 1394.6,418.783 1387.1,418.783 1379.5,418.5C 1379.92,380.407 1391.75,346.407 1415,316.5C 1419.41,311.589 1424.24,307.255 1429.5,303.5C 1456.61,299.37 1483.61,294.703 1510.5,289.5 Z"/></g>
<g><path style="opacity:0.986" fill="#fa32ad" d="M 337.5,291.5 C 352.139,307.14 366.805,322.807 381.5,338.5C 365.212,326.878 349.212,314.878 333.5,302.5C 334.551,298.731 335.884,295.065 337.5,291.5 Z"/></g>
<g><path style="opacity:0.987" fill="#ef47fc" d="M 842.5,291.5 C 863.584,299.524 885.25,305.858 907.5,310.5C 898.204,339.389 888.537,368.056 878.5,396.5C 856.086,390.565 833.419,385.231 810.5,380.5C 821.188,350.763 831.855,321.097 842.5,291.5 Z"/></g>
<g><path style="opacity:1" fill="#fa3ee1" d="M 545.5,293.5 C 548.233,296.239 551.233,298.573 554.5,300.5C 554.5,300.833 554.5,301.167 554.5,301.5C 553.488,302.872 552.488,304.205 551.5,305.5C 548.992,301.818 546.992,297.818 545.5,293.5 Z"/></g>
<g><path style="opacity:0.973" fill="#d34bfc" d="M 1324.5,294.5 C 1337.99,302.327 1347.99,313.327 1354.5,327.5C 1340.68,329.205 1326.68,330.538 1312.5,331.5C 1316.1,319.028 1320.1,306.694 1324.5,294.5 Z"/></g>
<g><path style="opacity:0.988" fill="#aa41fe" d="M 1935.5,294.5 C 1935.5,319.833 1935.5,345.167 1935.5,370.5C 1922.36,391.436 1909.19,412.436 1896,433.5C 1894.86,435.743 1894.03,438.076 1893.5,440.5C 1893.5,441.167 1893.17,441.5 1892.5,441.5C 1883.48,442.725 1874.48,444.058 1865.5,445.5C 1865.5,404.167 1865.5,362.833 1865.5,321.5C 1889.26,313.619 1912.6,304.619 1935.5,294.5 Z"/></g>
<g><path style="opacity:0.991" fill="#f83ce3" d="M 554.5,301.5 C 568.833,314.167 583.167,326.833 597.5,339.5C 597.833,340.5 598.5,341.167 599.5,341.5C 602.732,352.869 606.732,363.869 611.5,374.5C 610.863,395.695 609.53,416.695 607.5,437.5C 603.778,428.389 599.278,419.722 594,411.5C 582.039,375.583 567.873,340.583 551.5,306.5C 551.5,306.167 551.5,305.833 551.5,305.5C 552.488,304.205 553.488,302.872 554.5,301.5 Z"/></g>
<g><path style="opacity:0.994" fill="#fa30aa" d="M 333.5,302.5 C 349.212,314.878 365.212,326.878 381.5,338.5C 382.222,339.551 383.222,340.218 384.5,340.5C 384.5,340.833 384.5,341.167 384.5,341.5C 380.113,344.531 375.446,347.197 370.5,349.5C 370.167,349.5 369.833,349.5 369.5,349.5C 355.558,337.226 342.224,324.226 329.5,310.5C 330.655,307.672 331.989,305.005 333.5,302.5 Z"/></g>
<g><path style="opacity:1" fill="#f83add" d="M 551.5,306.5 C 567.873,340.583 582.039,375.583 594,411.5C 599.278,419.722 603.778,428.389 607.5,437.5C 607.5,438.167 607.5,438.833 607.5,439.5C 596.752,430.147 586.086,420.814 575.5,411.5C 574.167,409.833 572.833,408.167 571.5,406.5C 566.357,397.555 561.19,388.555 556,379.5C 550.376,362.455 543.876,345.788 536.5,329.5C 540.756,321.313 545.756,313.646 551.5,306.5 Z"/></g>
<g><path style="opacity:0.989" fill="#fa2fa5" d="M 329.5,310.5 C 342.224,324.226 355.558,337.226 369.5,349.5C 365.227,352.643 360.56,355.31 355.5,357.5C 355.167,357.5 354.833,357.5 354.5,357.5C 344.155,347.823 333.488,338.49 322.5,329.5C 324.548,323.068 326.882,316.735 329.5,310.5 Z"/></g>
<g><path style="opacity:0.988" fill="#993bfe" d="M 2268.5,313.5 C 2280.16,325.815 2287.32,340.482 2290,357.5C 2291.24,365.787 2291.74,374.12 2291.5,382.5C 2274.64,400.535 2258.48,419.201 2243,438.5C 2235.86,445.806 2228.7,452.806 2221.5,459.5C 2221.67,452.159 2221.5,444.826 2221,437.5C 2215.24,440.644 2209.07,442.81 2202.5,444C 2185.92,447.225 2169.26,449.892 2152.5,452C 2140.3,454.104 2128.96,458.437 2118.5,465C 2105.82,477.243 2102.48,491.743 2108.5,508.5C 2086.83,514.5 2065.17,520.5 2043.5,526.5C 2042.69,524.972 2042.02,523.306 2041.5,521.5C 2053.14,501.668 2064.64,481.668 2076,461.5C 2085.57,450.016 2094.91,438.349 2104,426.5C 2107.44,421.276 2110.61,415.943 2113.5,410.5C 2122.24,408.039 2131.24,406.206 2140.5,405C 2159.56,403.105 2178.56,400.772 2197.5,398C 2220.69,394.557 2227.86,381.724 2219,359.5C 2214.7,348.701 2207.2,341.035 2196.5,336.5C 2213.81,330.584 2231.48,325.417 2249.5,321C 2255.92,318.446 2262.26,315.946 2268.5,313.5 Z"/></g>
<g><path style="opacity:0.991" fill="#fa2479" d="M 86.5,317.5 C 91.8333,320.167 97.1667,322.833 102.5,325.5C 124.353,337.928 146.686,349.595 169.5,360.5C 168.203,364.083 166.537,367.416 164.5,370.5C 160.213,371.707 155.88,372.707 151.5,373.5C 130.167,362.833 108.833,352.167 87.5,341.5C 87.1667,333.5 86.8333,325.5 86.5,317.5 Z"/></g>
<g><path style="opacity:0.988" fill="#e948fc" d="M 943.5,319.5 C 967.265,324.358 990.932,329.691 1014.5,335.5C 1005.82,356.545 999.152,378.212 994.5,400.5C 986.521,401.224 978.521,401.558 970.5,401.5C 961.102,374.307 952.102,346.973 943.5,319.5 Z"/></g>
<g><path style="opacity:0.989" fill="#fa247d" d="M 102.5,325.5 C 125.823,334.827 149.156,344.16 172.5,353.5C 171.773,355.954 170.773,358.287 169.5,360.5C 146.686,349.595 124.353,337.928 102.5,325.5 Z"/></g>
<g><path style="opacity:0.873" fill="#e64bfd" d="M 1017.5,326.5 C 1019.2,329.939 1020.54,333.605 1021.5,337.5C 1019.11,336.985 1016.77,336.319 1014.5,335.5C 1015.3,332.421 1016.3,329.421 1017.5,326.5 Z"/></g>
<g><path style="opacity:0.99" fill="#d147fa" d="M 1354.5,327.5 C 1363.2,343.967 1367.7,361.633 1368,380.5C 1368.5,391.495 1368.67,402.495 1368.5,413.5C 1366.95,414.768 1365.95,416.435 1365.5,418.5C 1343.17,418.5 1320.83,418.5 1298.5,418.5C 1298.97,404.705 1297.97,391.038 1295.5,377.5C 1301.41,362.444 1306.74,347.111 1311.5,331.5C 1311.83,331.5 1312.17,331.5 1312.5,331.5C 1326.68,330.538 1340.68,329.205 1354.5,327.5 Z"/></g>
<g><path style="opacity:0.986" fill="#fa2d9f" d="M 322.5,329.5 C 333.488,338.49 344.155,347.823 354.5,357.5C 350.187,360.135 345.854,362.802 341.5,365.5C 341.167,365.5 340.833,365.5 340.5,365.5C 332.465,358.131 324.132,351.131 315.5,344.5C 317.594,339.315 319.928,334.315 322.5,329.5 Z"/></g>
<g><path style="opacity:0.98" fill="#f839d8" d="M 535.5,329.5 C 535.833,329.5 536.167,329.5 536.5,329.5C 543.876,345.788 550.376,362.455 556,379.5C 561.19,388.555 566.357,397.555 571.5,406.5C 560.865,397.2 550.532,387.533 540.5,377.5C 534.933,366.818 529.933,355.818 525.5,344.5C 528.8,339.523 532.133,334.523 535.5,329.5 Z"/></g>
<g><path style="opacity:0.967" fill="#d549fb" d="M 1311.5,331.5 C 1306.74,347.111 1301.41,362.444 1295.5,377.5C 1287.88,352.707 1271.21,339.373 1245.5,337.5C 1267.65,336.741 1289.65,334.741 1311.5,331.5 Z"/></g>
<g><path style="opacity:0.982" fill="#e647fb" d="M 1014.5,335.5 C 1016.77,336.319 1019.11,336.985 1021.5,337.5C 1028.81,357.763 1036.15,378.097 1043.5,398.5C 1027.16,399.067 1010.83,399.734 994.5,400.5C 999.152,378.212 1005.82,356.545 1014.5,335.5 Z"/></g>
<g><path style="opacity:0.992" fill="#de48fa" d="M 1220.5,337.5 C 1220.17,338.833 1219.83,340.167 1219.5,341.5C 1196.37,351.025 1183.37,368.359 1180.5,393.5C 1157.18,396.832 1133.85,400.165 1110.5,403.5C 1110.5,399.5 1110.5,395.5 1110.5,391.5C 1113.46,385.803 1115.96,379.803 1118,373.5C 1121.02,362.42 1124.19,351.42 1127.5,340.5C 1158.5,339.566 1189.5,338.566 1220.5,337.5 Z"/></g>
<g><path style="opacity:0.717" fill="#d94afc" d="M 1220.5,337.5 C 1226.17,337.5 1231.83,337.5 1237.5,337.5C 1231.51,338.433 1225.51,339.766 1219.5,341.5C 1219.83,340.167 1220.17,338.833 1220.5,337.5 Z"/></g>
<g><path style="opacity:1" fill="#e149fb" d="M 1110.5,340.5 C 1116.17,340.5 1121.83,340.5 1127.5,340.5C 1124.19,351.42 1121.02,362.42 1118,373.5C 1115.96,379.803 1113.46,385.803 1110.5,391.5C 1110.5,374.5 1110.5,357.5 1110.5,340.5 Z"/></g>
<g><path style="opacity:0.991" fill="#fa2273" d="M 87.5,341.5 C 108.833,352.167 130.167,362.833 151.5,373.5C 151.5,373.833 151.5,374.167 151.5,374.5C 142.834,376.833 134.167,379.166 125.5,381.5C 125.167,381.5 124.833,381.5 124.5,381.5C 112.987,375.577 101.32,369.91 89.5,364.5C 88.7921,356.842 88.1254,349.176 87.5,341.5 Z"/></g>
<g><path style="opacity:0.935" fill="#f930aa" d="M 384.5,341.5 C 390.736,355.651 396.736,369.984 402.5,384.5C 395.543,377.276 389.043,369.609 383,361.5C 378.938,357.269 374.771,353.269 370.5,349.5C 375.446,347.197 380.113,344.531 384.5,341.5 Z"/></g>
<g><path style="opacity:0.947" fill="#f83de8" d="M 599.5,341.5 C 604.167,345.833 608.833,350.167 613.5,354.5C 612.995,361.324 612.329,367.991 611.5,374.5C 606.732,363.869 602.732,352.869 599.5,341.5 Z"/></g>
<g><path style="opacity:0.983" fill="#fa2c9a" d="M 315.5,344.5 C 324.132,351.131 332.465,358.131 340.5,365.5C 337.797,367.181 335.131,368.847 332.5,370.5C 331.833,370.5 331.167,370.5 330.5,370.5C 323.985,365.741 317.652,360.741 311.5,355.5C 312.555,351.725 313.888,348.058 315.5,344.5 Z"/></g>
<g><path style="opacity:0.979" fill="#f82ea5" d="M 369.5,349.5 C 369.833,349.5 370.167,349.5 370.5,349.5C 374.771,353.269 378.938,357.269 383,361.5C 389.043,369.609 395.543,377.276 402.5,384.5C 408.694,399.081 414.694,413.748 420.5,428.5C 405.155,411.317 390.322,393.65 376,375.5C 369.27,369.262 362.436,363.262 355.5,357.5C 360.56,355.31 365.227,352.643 369.5,349.5 Z"/></g>
<g><path style="opacity:0.994" fill="#b642fc" d="M 1747.5,351.5 C 1732.61,385.939 1716.11,419.606 1698,452.5C 1694.54,460.409 1691.38,468.409 1688.5,476.5C 1687.83,476.5 1687.5,476.833 1687.5,477.5C 1684.79,477.575 1682.13,477.908 1679.5,478.5C 1679.5,441.5 1679.5,404.5 1679.5,367.5C 1701.95,361.276 1724.62,355.943 1747.5,351.5 Z"/></g>
<g><path style="opacity:0.984" fill="#b440fc" d="M 1747.5,351.5 C 1748.17,351.5 1748.83,351.5 1749.5,351.5C 1749.5,389.833 1749.5,428.167 1749.5,466.5C 1729.17,469.833 1708.83,473.167 1688.5,476.5C 1691.38,468.409 1694.54,460.409 1698,452.5C 1716.11,419.606 1732.61,385.939 1747.5,351.5 Z"/></g>
<g><path style="opacity:0.975" fill="#fa2a96" d="M 311.5,355.5 C 317.652,360.741 323.985,365.741 330.5,370.5C 328.5,371.833 326.5,373.167 324.5,374.5C 324.167,374.5 323.833,374.5 323.5,374.5C 319.087,369.79 314.087,365.79 308.5,362.5C 309.264,359.982 310.264,357.649 311.5,355.5 Z"/></g>
<g><path style="opacity:0.998" fill="#f82c9f" d="M 354.5,357.5 C 354.833,357.5 355.167,357.5 355.5,357.5C 362.436,363.262 369.27,369.262 376,375.5C 390.322,393.65 405.155,411.317 420.5,428.5C 421.167,429.833 421.833,431.167 422.5,432.5C 409.013,424.588 396.013,415.921 383.5,406.5C 381.833,405.167 380.167,403.833 378.5,402.5C 375.841,397.871 372.674,393.538 369,389.5C 359.64,381.635 350.474,373.635 341.5,365.5C 345.854,362.802 350.187,360.135 354.5,357.5 Z"/></g>
<g><path style="opacity:0.948" fill="#fa2a93" d="M 308.5,362.5 C 314.087,365.79 319.087,369.79 323.5,374.5C 316.984,374.635 310.317,374.635 303.5,374.5C 304.778,370.333 306.444,366.333 308.5,362.5 Z"/></g>
<g><path style="opacity:0.982" fill="#fa216e" d="M 89.5,364.5 C 101.32,369.91 112.987,375.577 124.5,381.5C 115.714,384.536 106.714,387.203 97.5,389.5C 95.0462,388.773 92.7128,387.773 90.5,386.5C 89.9625,379.178 89.6291,371.845 89.5,364.5 Z"/></g>
<g><path style="opacity:1" fill="#f92c9a" d="M 340.5,365.5 C 340.833,365.5 341.167,365.5 341.5,365.5C 350.474,373.635 359.64,381.635 369,389.5C 372.674,393.538 375.841,397.871 378.5,402.5C 362.46,392.816 347.127,382.15 332.5,370.5C 335.131,368.847 337.797,367.181 340.5,365.5 Z"/></g>
<g><path style="opacity:0.672" fill="#9d3eff" d="M 2114.5,365.5 C 2114.46,366.583 2114.13,367.583 2113.5,368.5C 2111.7,369.788 2110.03,369.788 2108.5,368.5C 2110.18,366.992 2112.18,365.992 2114.5,365.5 Z"/></g>
<g><path style="opacity:0.897" fill="#bb45fc" d="M 1657.5,366.5 C 1657.5,368.833 1657.5,371.167 1657.5,373.5C 1656.04,373.433 1654.71,373.766 1653.5,374.5C 1654.33,371.515 1655.66,368.849 1657.5,366.5 Z"/></g>
<g><path style="opacity:0.918" fill="#f92377" d="M 164.5,370.5 C 163.674,373.485 162.341,376.151 160.5,378.5C 157.912,376.375 154.912,375.042 151.5,374.5C 151.5,374.167 151.5,373.833 151.5,373.5C 155.88,372.707 160.213,371.707 164.5,370.5 Z"/></g>
<g><path style="opacity:0.992" fill="#f82a98" d="M 330.5,370.5 C 331.167,370.5 331.833,370.5 332.5,370.5C 347.127,382.15 362.46,392.816 378.5,402.5C 380.167,403.833 381.833,405.167 383.5,406.5C 390.143,414.653 396.643,422.986 403,431.5C 407.001,434.335 410.501,437.668 413.5,441.5C 406.5,441.5 399.5,441.5 392.5,441.5C 387.895,437.398 383.395,433.064 379,428.5C 372.286,420.241 365.452,412.074 358.5,404C 346.679,394.675 335.345,384.842 324.5,374.5C 326.5,373.167 328.5,371.833 330.5,370.5 Z"/></g>
<g><path style="opacity:1" fill="#a73ffd" d="M 1935.5,370.5 C 1935.5,390.167 1935.5,409.833 1935.5,429.5C 1924.76,432.352 1914.09,435.519 1903.5,439C 1900.24,440.043 1896.91,440.543 1893.5,440.5C 1894.03,438.076 1894.86,435.743 1896,433.5C 1909.19,412.436 1922.36,391.436 1935.5,370.5 Z"/></g>
<g><path style="opacity:0.993" fill="#ba40fb" d="M 1657.5,373.5 C 1657.5,409.833 1657.5,446.167 1657.5,482.5C 1638.14,485.001 1619.14,488.667 1600.5,493.5C 1599.83,493.5 1599.17,493.5 1598.5,493.5C 1598.16,492.662 1597.49,492.328 1596.5,492.5C 1602.65,477.526 1608.82,462.526 1615,447.5C 1627.53,423.113 1640.03,398.78 1652.5,374.5C 1652.83,374.5 1653.17,374.5 1653.5,374.5C 1654.71,373.766 1656.04,373.433 1657.5,373.5 Z"/></g>
<g><path style="opacity:0.977" fill="#f92272" d="M 151.5,374.5 C 154.912,375.042 157.912,376.375 160.5,378.5C 158.447,384.275 156.113,389.941 153.5,395.5C 143.854,391.343 134.52,386.677 125.5,381.5C 134.167,379.166 142.834,376.833 151.5,374.5 Z"/></g>
<g><path style="opacity:0.993" fill="#f82992" d="M 303.5,374.5 C 310.317,374.635 316.984,374.635 323.5,374.5C 323.833,374.5 324.167,374.5 324.5,374.5C 335.345,384.842 346.679,394.675 358.5,404C 365.452,412.074 372.286,420.241 379,428.5C 383.395,433.064 387.895,437.398 392.5,441.5C 386.5,441.5 380.5,441.5 374.5,441.5C 363.032,430.2 351.365,419.034 339.5,408C 326.958,397.952 314.291,388.118 301.5,378.5C 302.167,377.167 302.833,375.833 303.5,374.5 Z"/></g>
<g><path style="opacity:0.989" fill="#bc42fb" d="M 1652.5,374.5 C 1640.03,398.78 1627.53,423.113 1615,447.5C 1608.82,462.526 1602.65,477.526 1596.5,492.5C 1589.99,489.774 1583.32,487.44 1576.5,485.5C 1589.32,455.102 1591.99,423.769 1584.5,391.5C 1607.25,386.146 1629.92,380.479 1652.5,374.5 Z"/></g>
<g><path style="opacity:0.983" fill="#f736d7" d="M 540.5,377.5 C 550.532,387.533 560.865,397.2 571.5,406.5C 572.833,408.167 574.167,409.833 575.5,411.5C 585.836,427.508 596.17,443.508 606.5,459.5C 606.014,467.158 605.68,474.825 605.5,482.5C 587.748,455.328 569.748,428.328 551.5,401.5C 547.447,393.674 543.781,385.674 540.5,377.5 Z"/></g>
<g><path style="opacity:0.987" fill="#f8278c" d="M 301.5,378.5 C 314.291,388.118 326.958,397.952 339.5,408C 351.365,419.034 363.032,430.2 374.5,441.5C 367.833,441.5 361.167,441.5 354.5,441.5C 334.545,426.214 314.878,410.547 295.5,394.5C 297.303,389.089 299.303,383.756 301.5,378.5 Z"/></g>
<g><path style="opacity:0.985" fill="#f043fa" d="M 810.5,380.5 C 833.419,385.231 856.086,390.565 878.5,396.5C 878.072,399.785 877.072,402.785 875.5,405.5C 868.343,403.972 861.009,402.638 853.5,401.5C 835.877,404.541 818.21,407.208 800.5,409.5C 804.11,399.943 807.443,390.277 810.5,380.5 Z"/></g>
<g><path style="opacity:0.988" fill="#f9206d" d="M 124.5,381.5 C 124.833,381.5 125.167,381.5 125.5,381.5C 134.52,386.677 143.854,391.343 153.5,395.5C 150.56,401.046 147.894,406.713 145.5,412.5C 129.192,405.345 113.192,397.678 97.5,389.5C 106.714,387.203 115.714,384.536 124.5,381.5 Z"/></g>
<g><path style="opacity:0.99" fill="#9439ff" d="M 2291.5,382.5 C 2291.5,406.167 2291.5,429.833 2291.5,453.5C 2268.61,462.131 2245.28,469.131 2221.5,474.5C 2221.5,469.5 2221.5,464.5 2221.5,459.5C 2228.7,452.806 2235.86,445.806 2243,438.5C 2258.48,419.201 2274.64,400.535 2291.5,382.5 Z"/></g>
<g><path style="opacity:0.971" fill="#a13fff" d="M 2027.5,384.5 C 2027.5,390.833 2027.5,397.167 2027.5,403.5C 2022.03,404.768 2016.7,406.435 2011.5,408.5C 2016.34,400.148 2021.67,392.148 2027.5,384.5 Z"/></g>
<g><path style="opacity:0.989" fill="#f91f69" d="M 90.5,386.5 C 92.7128,387.773 95.0462,388.773 97.5,389.5C 113.192,397.678 129.192,405.345 145.5,412.5C 144.737,414.368 143.737,416.035 142.5,417.5C 125.669,411.262 108.669,405.262 91.5,399.5C 91.0728,395.176 90.7395,390.842 90.5,386.5 Z"/></g>
<g><path style="opacity:0.988" fill="#dd45f8" d="M 1180.5,393.5 C 1180.5,406.167 1180.5,418.833 1180.5,431.5C 1157.18,429.722 1133.84,429.389 1110.5,430.5C 1110.5,421.5 1110.5,412.5 1110.5,403.5C 1133.85,400.165 1157.18,396.832 1180.5,393.5 Z"/></g>
<g><path style="opacity:0.982" fill="#f82686" d="M 295.5,394.5 C 314.878,410.547 334.545,426.214 354.5,441.5C 348.167,441.5 341.833,441.5 335.5,441.5C 330.93,438.384 325.93,436.05 320.5,434.5C 316.517,432.194 312.517,429.861 308.5,427.5C 302.146,421.817 295.48,416.484 288.5,411.5C 290.597,405.651 292.931,399.985 295.5,394.5 Z"/></g>
<g><path style="opacity:0.99" fill="#e545f8" d="M 1043.5,398.5 C 1046.83,408.167 1050.17,417.833 1053.5,427.5C 1042.46,427.748 1031.46,427.248 1020.5,426C 1010.55,423.513 1000.55,421.346 990.5,419.5C 990.5,419.167 990.5,418.833 990.5,418.5C 991.706,412.471 993.039,406.471 994.5,400.5C 1010.83,399.734 1027.16,399.067 1043.5,398.5 Z"/></g>
<g><path style="opacity:0.981" fill="#f91e65" d="M 91.5,399.5 C 108.669,405.262 125.669,411.262 142.5,417.5C 140.95,422.93 138.616,427.93 135.5,432.5C 121.325,425.58 106.992,418.914 92.5,412.5C 91.8005,408.202 91.4672,403.869 91.5,399.5 Z"/></g>
<g><path style="opacity:0.971" fill="#e845f8" d="M 994.5,400.5 C 993.039,406.471 991.706,412.471 990.5,418.5C 985.4,417.975 980.4,416.975 975.5,415.5C 973.462,411.06 971.796,406.393 970.5,401.5C 978.521,401.558 986.521,401.224 994.5,400.5 Z"/></g>
<g><path style="opacity:0.937" fill="#f634d2" d="M 551.5,401.5 C 569.748,428.328 587.748,455.328 605.5,482.5C 604.833,489.5 604.167,496.5 603.5,503.5C 599.5,497.833 595.5,492.167 591.5,486.5C 577.797,458.415 564.463,430.082 551.5,401.5 Z"/></g>
<g><path style="opacity:0.994" fill="#ef41f7" d="M 875.5,405.5 C 874.242,410.942 872.575,416.276 870.5,421.5C 875.456,422.494 880.456,422.827 885.5,422.5C 883.829,430.185 881.996,437.852 880,445.5C 876.82,451.86 873.653,458.193 870.5,464.5C 870.167,464.5 869.833,464.5 869.5,464.5C 842.176,458.836 814.842,453.169 787.5,447.5C 791.833,434.833 796.167,422.167 800.5,409.5C 818.21,407.208 835.877,404.541 853.5,401.5C 861.009,402.638 868.343,403.972 875.5,405.5 Z"/></g>
<g><path style="opacity:0.992" fill="#a03bfd" d="M 2027.5,403.5 C 2027.5,446.167 2027.5,488.833 2027.5,531.5C 2004.36,536.521 1981.03,540.521 1957.5,543.5C 1957.5,527.833 1957.5,512.167 1957.5,496.5C 1975.07,467.701 1992.4,438.701 2009.5,409.5C 2009.84,408.662 2010.51,408.328 2011.5,408.5C 2016.7,406.435 2022.03,404.768 2027.5,403.5 Z"/></g>
<g><path style="opacity:0.971" fill="#f82a9e" d="M 383.5,406.5 C 396.013,415.921 409.013,424.588 422.5,432.5C 423.787,435.406 424.787,438.406 425.5,441.5C 421.5,441.5 417.5,441.5 413.5,441.5C 410.501,437.668 407.001,434.335 403,431.5C 396.643,422.986 390.143,414.653 383.5,406.5 Z"/></g>
<g><path style="opacity:0.981" fill="#a33dfe" d="M 2009.5,409.5 C 1992.4,438.701 1975.07,467.701 1957.5,496.5C 1957.5,471.5 1957.5,446.5 1957.5,421.5C 1974.9,417.816 1992.24,413.816 2009.5,409.5 Z"/></g>
<g><path style="opacity:0.976" fill="#9d3bfe" d="M 2113.5,410.5 C 2110.61,415.943 2107.44,421.276 2104,426.5C 2094.91,438.349 2085.57,450.016 2076,461.5C 2064.64,481.668 2053.14,501.668 2041.5,521.5C 2028.57,460.319 2052.57,423.319 2113.5,410.5 Z"/></g>
<g><path style="opacity:0.97" fill="#f82682" d="M 288.5,411.5 C 295.48,416.484 302.146,421.817 308.5,427.5C 300.931,423.93 293.597,419.93 286.5,415.5C 286.989,414.005 287.655,412.671 288.5,411.5 Z"/></g>
<g><path style="opacity:0.98" fill="#f737dc" d="M 575.5,411.5 C 586.086,420.814 596.752,430.147 607.5,439.5C 607.546,446.191 607.212,452.857 606.5,459.5C 596.17,443.508 585.836,427.508 575.5,411.5 Z"/></g>
<g><path style="opacity:0.979" fill="#f81d60" d="M 92.5,412.5 C 106.992,418.914 121.325,425.58 135.5,432.5C 133.344,438.804 130.678,444.804 127.5,450.5C 116.459,444.983 105.126,439.983 93.5,435.5C 93.1114,427.836 92.778,420.17 92.5,412.5 Z"/></g>
<g><path style="opacity:0.96" fill="#f82480" d="M 286.5,415.5 C 293.597,419.93 300.931,423.93 308.5,427.5C 312.517,429.861 316.517,432.194 320.5,434.5C 323.319,437.075 326.319,439.408 329.5,441.5C 318.833,441.5 308.167,441.5 297.5,441.5C 292.046,437.267 286.38,433.267 280.5,429.5C 282.5,424.833 284.5,420.167 286.5,415.5 Z"/></g>
<g><path style="opacity:0.999" fill="#ea41f5" d="M 975.5,415.5 C 980.4,416.975 985.4,417.975 990.5,418.5C 990.5,418.833 990.5,419.167 990.5,419.5C 986.327,436.029 982.66,452.696 979.5,469.5C 978.833,469.5 978.5,469.833 978.5,470.5C 968.792,471.458 959.126,472.792 949.5,474.5C 923.168,471.083 896.834,467.75 870.5,464.5C 873.653,458.193 876.82,451.86 880,445.5C 881.996,437.852 883.829,430.185 885.5,422.5C 916.168,422.667 946.835,422.5 977.5,422C 976.331,419.993 975.665,417.827 975.5,415.5 Z"/></g>
<g><path style="opacity:1" fill="#d145f9" d="M 1298.5,418.5 C 1320.83,418.5 1343.17,418.5 1365.5,418.5C 1364.7,421.574 1363.7,424.574 1362.5,427.5C 1341.26,430.219 1319.93,431.552 1298.5,431.5C 1298.5,427.167 1298.5,422.833 1298.5,418.5 Z"/></g>
<g><path style="opacity:0.831" fill="#ce45f9" d="M 1368.5,413.5 C 1368.5,418.167 1368.5,422.833 1368.5,427.5C 1366.5,427.5 1364.5,427.5 1362.5,427.5C 1363.7,424.574 1364.7,421.574 1365.5,418.5C 1365.95,416.435 1366.95,414.768 1368.5,413.5 Z"/></g>
<g><path style="opacity:0.965" fill="#cc45f9" d="M 1379.5,418.5 C 1387.1,418.783 1394.6,418.783 1402,418.5C 1406.04,419.895 1409.87,421.562 1413.5,423.5C 1402.06,423.844 1390.73,424.844 1379.5,426.5C 1379.5,423.833 1379.5,421.167 1379.5,418.5 Z"/></g>
<g><path style="opacity:0.993" fill="#e442f5" d="M 990.5,419.5 C 1000.55,421.346 1010.55,423.513 1020.5,426C 1031.46,427.248 1042.46,427.748 1053.5,427.5C 1059.83,445.495 1066.17,463.495 1072.5,481.5C 1049.68,480.046 1027.35,475.879 1005.5,469C 996.848,469.082 988.181,469.248 979.5,469.5C 982.66,452.696 986.327,436.029 990.5,419.5 Z"/></g>
<g><path style="opacity:0.963" fill="#c844fa" d="M 1451.5,420.5 C 1451.5,425.833 1451.5,431.167 1451.5,436.5C 1439.54,432.738 1427.87,428.404 1416.5,423.5C 1428.23,423.094 1439.9,422.094 1451.5,420.5 Z"/></g>
<g><path style="opacity:0.99" fill="#c941f7" d="M 1413.5,423.5 C 1414.5,423.5 1415.5,423.5 1416.5,423.5C 1427.87,428.404 1439.54,432.738 1451.5,436.5C 1451.5,438.167 1451.5,439.833 1451.5,441.5C 1446.4,453.28 1441.57,465.28 1437,477.5C 1433.65,493.241 1430.15,508.908 1426.5,524.5C 1419.97,524.697 1413.64,525.364 1407.5,526.5C 1393.25,507.275 1384.75,485.608 1382,461.5C 1380.66,449.868 1379.82,438.202 1379.5,426.5C 1390.73,424.844 1402.06,423.844 1413.5,423.5 Z"/></g>
<g><path style="opacity:1" fill="#d041f6" d="M 1362.5,427.5 C 1356.24,443.766 1350.08,460.099 1344,476.5C 1340.01,492.811 1336.17,509.145 1332.5,525.5C 1321.17,525.5 1309.83,525.5 1298.5,525.5C 1298.5,494.167 1298.5,462.833 1298.5,431.5C 1319.93,431.552 1341.26,430.219 1362.5,427.5 Z"/></g>
<g><path style="opacity:0.967" fill="#cd40f6" d="M 1362.5,427.5 C 1364.5,427.5 1366.5,427.5 1368.5,427.5C 1368.5,460.5 1368.5,493.5 1368.5,526.5C 1356.42,526.812 1344.42,526.479 1332.5,525.5C 1336.17,509.145 1340.01,492.811 1344,476.5C 1350.08,460.099 1356.24,443.766 1362.5,427.5 Z"/></g>
<g><path style="opacity:0.884" fill="#f8237a" d="M 280.5,429.5 C 286.38,433.267 292.046,437.267 297.5,441.5C 290.5,441.5 283.5,441.5 276.5,441.5C 277.632,437.438 278.965,433.438 280.5,429.5 Z"/></g>
<g><path style="opacity:0.994" fill="#dc42f6" d="M 1180.5,431.5 C 1180.5,443.167 1180.5,454.833 1180.5,466.5C 1175.28,475.833 1171.61,485.833 1169.5,496.5C 1169.17,496.5 1168.83,496.5 1168.5,496.5C 1149.24,492.981 1129.91,489.981 1110.5,487.5C 1110.5,468.5 1110.5,449.5 1110.5,430.5C 1133.84,429.389 1157.18,429.722 1180.5,431.5 Z"/></g>
<g><path style="opacity:0.997" fill="#a63bfc" d="M 1935.5,429.5 C 1935.5,465.167 1935.5,500.833 1935.5,536.5C 1933.17,540.5 1930.83,544.5 1928.5,548.5C 1908.41,552.524 1888.41,556.857 1868.5,561.5C 1868.5,549.167 1868.5,536.833 1868.5,524.5C 1867.32,524.281 1866.32,524.614 1865.5,525.5C 1859.49,540.167 1850.15,552.167 1837.5,561.5C 1855.29,521.257 1873.62,481.257 1892.5,441.5C 1893.17,441.5 1893.5,441.167 1893.5,440.5C 1896.91,440.543 1900.24,440.043 1903.5,439C 1914.09,435.519 1924.76,432.352 1935.5,429.5 Z"/></g>
<g><path style="opacity:0.907" fill="#f82584" d="M 320.5,434.5 C 325.93,436.05 330.93,438.384 335.5,441.5C 333.5,441.5 331.5,441.5 329.5,441.5C 326.319,439.408 323.319,437.075 320.5,434.5 Z"/></g>
<g><path style="opacity:0.968" fill="#f81b5a" d="M 93.5,435.5 C 105.126,439.983 116.459,444.983 127.5,450.5C 124.831,456.504 122.164,462.504 119.5,468.5C 111.5,465.167 103.5,461.833 95.5,458.5C 94.7097,450.864 94.0431,443.197 93.5,435.5 Z"/></g>
<g><path style="opacity:0.979" fill="#9037ff" d="M 2382.5,438.5 C 2382.5,440.167 2382.5,441.833 2382.5,443.5C 2357.93,464.061 2334.27,485.727 2311.5,508.5C 2311.5,487.833 2311.5,467.167 2311.5,446.5C 2314.77,445.242 2318.11,444.075 2321.5,443C 2341.85,441.541 2362.19,440.041 2382.5,438.5 Z"/></g>
<g><path style="opacity:0.982" fill="#c53ff7" d="M 1451.5,441.5 C 1452.93,461.961 1459.76,480.294 1472,496.5C 1479.31,504.57 1488.14,510.237 1498.5,513.5C 1474.8,518.226 1450.8,521.893 1426.5,524.5C 1430.15,508.908 1433.65,493.241 1437,477.5C 1441.57,465.28 1446.4,453.28 1451.5,441.5 Z"/></g>
<g><path style="opacity:0.986" fill="#ab3afb" d="M 1892.5,441.5 C 1873.62,481.257 1855.29,521.257 1837.5,561.5C 1832.09,565.874 1826.09,569.208 1819.5,571.5C 1801.59,573.439 1783.92,576.105 1766.5,579.5C 1759.33,578.916 1752.33,577.583 1745.5,575.5C 1755.11,553.954 1764.44,532.287 1773.5,510.5C 1804.67,525.233 1831.5,519.566 1854,493.5C 1863.48,478.9 1867.32,462.9 1865.5,445.5C 1874.48,444.058 1883.48,442.725 1892.5,441.5 Z"/></g>
<g><path style="opacity:0.972" fill="#8d35ff" d="M 2382.5,443.5 C 2382.5,487.833 2382.5,532.167 2382.5,576.5C 2358.83,576.5 2335.17,576.5 2311.5,576.5C 2311.5,553.833 2311.5,531.167 2311.5,508.5C 2334.27,485.727 2357.93,464.061 2382.5,443.5 Z"/></g>
<g><path style="opacity:0.995" fill="#ef3ef2" d="M 787.5,447.5 C 814.842,453.169 842.176,458.836 869.5,464.5C 868.092,467.758 866.426,470.924 864.5,474C 870.519,476.165 876.519,477.999 882.5,479.5C 875.5,479.5 868.5,479.5 861.5,479.5C 862.73,477.703 863.396,475.703 863.5,473.5C 837.49,466.496 811.49,459.496 785.5,452.5C 785.796,450.597 786.463,448.93 787.5,447.5 Z"/></g>
<g><path style="opacity:0.991" fill="#ef3def" d="M 785.5,452.5 C 811.49,459.496 837.49,466.496 863.5,473.5C 863.396,475.703 862.73,477.703 861.5,479.5C 857.833,479.5 854.167,479.5 850.5,479.5C 849.405,484.784 847.739,489.784 845.5,494.5C 822.009,490.469 798.676,485.802 775.5,480.5C 778.833,471.167 782.167,461.833 785.5,452.5 Z"/></g>
<g><path style="opacity:0.986" fill="#9236fe" d="M 2291.5,453.5 C 2291.5,479.167 2291.5,504.833 2291.5,530.5C 2282.5,539.328 2273.34,547.995 2264,556.5C 2258.9,563.049 2254.07,569.715 2249.5,576.5C 2241.17,576.5 2232.83,576.5 2224.5,576.5C 2224.67,562.829 2224.5,549.163 2224,535.5C 2208.7,561.75 2185.87,576.917 2155.5,581C 2145.5,582.475 2135.5,582.642 2125.5,581.5C 2133.46,571.706 2141.62,562.039 2150,552.5C 2154.36,544.669 2158.86,537.002 2163.5,529.5C 2188.97,527.175 2207.14,514.508 2218,491.5C 2220.13,486.025 2221.3,480.358 2221.5,474.5C 2245.28,469.131 2268.61,462.131 2291.5,453.5 Z"/></g>
<g><path style="opacity:0.96" fill="#f81a54" d="M 95.5,458.5 C 103.5,461.833 111.5,465.167 119.5,468.5C 116.486,474.574 113.486,480.574 110.5,486.5C 105.746,484.694 101.08,482.694 96.5,480.5C 95.9625,473.178 95.6291,465.845 95.5,458.5 Z"/></g>
<g><path style="opacity:1" fill="#ea3ff2" d="M 869.5,464.5 C 869.833,464.5 870.167,464.5 870.5,464.5C 896.834,467.75 923.168,471.083 949.5,474.5C 959.126,472.792 968.792,471.458 978.5,470.5C 978.3,473.63 977.634,476.63 976.5,479.5C 945.167,479.5 913.833,479.5 882.5,479.5C 876.519,477.999 870.519,476.165 864.5,474C 866.426,470.924 868.092,467.758 869.5,464.5 Z"/></g>
<g><path style="opacity:0.886" fill="#da40f4" d="M 1180.5,466.5 C 1180.5,477.167 1180.5,487.833 1180.5,498.5C 1176.61,498.354 1172.95,497.687 1169.5,496.5C 1171.61,485.833 1175.28,475.833 1180.5,466.5 Z"/></g>
<g><path style="opacity:0.987" fill="#b13cfa" d="M 1749.5,466.5 C 1751.12,484.753 1759.12,499.42 1773.5,510.5C 1764.44,532.287 1755.11,553.954 1745.5,575.5C 1718.13,566.297 1698.96,548.297 1688,521.5C 1684.4,512.098 1681.9,502.431 1680.5,492.5C 1683.6,487.961 1685.93,482.961 1687.5,477.5C 1687.5,476.833 1687.83,476.5 1688.5,476.5C 1708.83,473.167 1729.17,469.833 1749.5,466.5 Z"/></g>
<g><path style="opacity:0.992" fill="#e33ff2" d="M 1072.5,481.5 C 1074.3,486.911 1076.3,492.244 1078.5,497.5C 1076.41,502.191 1075.08,507.191 1074.5,512.5C 1074.17,512.5 1073.83,512.5 1073.5,512.5C 1051.15,511.07 1028.81,509.403 1006.5,507.5C 1003.09,498.453 999.76,489.287 996.5,480C 989.842,479.5 983.175,479.334 976.5,479.5C 977.634,476.63 978.3,473.63 978.5,470.5C 978.5,469.833 978.833,469.5 979.5,469.5C 988.181,469.248 996.848,469.082 1005.5,469C 1027.35,475.879 1049.68,480.046 1072.5,481.5 Z"/></g>
<g><path style="opacity:0.907" fill="#b53efb" d="M 1687.5,477.5 C 1685.93,482.961 1683.6,487.961 1680.5,492.5C 1680,487.848 1679.67,483.181 1679.5,478.5C 1682.13,477.908 1684.79,477.575 1687.5,477.5 Z"/></g>
<g><path style="opacity:0.924" fill="#f7194f" d="M 96.5,480.5 C 101.08,482.694 105.746,484.694 110.5,486.5C 109.397,490.497 107.731,494.164 105.5,497.5C 102.733,497.142 100.067,496.475 97.5,495.5C 97.2491,490.493 96.9157,485.493 96.5,480.5 Z"/></g>
<g><path style="opacity:0.989" fill="#ef3aea" d="M 775.5,480.5 C 798.676,485.802 822.009,490.469 845.5,494.5C 842.898,503.972 839.898,513.305 836.5,522.5C 835.059,524.37 833.393,526.037 831.5,527.5C 812.251,523.317 792.917,519.65 773.5,516.5C 770.557,515.633 767.557,514.633 764.5,513.5C 767.965,502.438 771.632,491.438 775.5,480.5 Z"/></g>
<g><path style="opacity:0.991" fill="#b83dfa" d="M 1657.5,482.5 C 1657.5,502.167 1657.5,521.833 1657.5,541.5C 1654.53,540.349 1651.53,539.183 1648.5,538C 1636.5,524.667 1624.5,511.333 1612.5,498C 1608.51,496.393 1604.51,494.893 1600.5,493.5C 1619.14,488.667 1638.14,485.001 1657.5,482.5 Z"/></g>
<g><path style="opacity:0.953" fill="#bc3ff9" d="M 1576.5,485.5 C 1583.32,487.44 1589.99,489.774 1596.5,492.5C 1597.49,492.328 1598.16,492.662 1598.5,493.5C 1597.39,493.557 1596.39,493.89 1595.5,494.5C 1585.2,496.659 1574.86,498.659 1564.5,500.5C 1568.75,495.643 1572.75,490.643 1576.5,485.5 Z"/></g>
<g><path style="opacity:0.82" fill="#f531cd" d="M 591.5,486.5 C 595.5,492.167 599.5,497.833 603.5,503.5C 603.664,506.187 603.497,508.854 603,511.5C 602.667,511.167 602.333,510.833 602,510.5C 598.207,502.585 594.707,494.585 591.5,486.5 Z"/></g>
<g><path style="opacity:1" fill="#dc3ff2" d="M 1110.5,487.5 C 1129.91,489.981 1149.24,492.981 1168.5,496.5C 1166.99,503.535 1165.32,510.535 1163.5,517.5C 1145.84,516.718 1128.17,516.051 1110.5,515.5C 1110.5,506.167 1110.5,496.833 1110.5,487.5 Z"/></g>
<g><path style="opacity:0.997" fill="#b83bf8" d="M 1598.5,493.5 C 1599.17,493.5 1599.83,493.5 1600.5,493.5C 1604.51,494.893 1608.51,496.393 1612.5,498C 1624.5,511.333 1636.5,524.667 1648.5,538C 1651.53,539.183 1654.53,540.349 1657.5,541.5C 1657.5,544.5 1657.5,547.5 1657.5,550.5C 1650.74,564.444 1644.74,578.777 1639.5,593.5C 1639.17,593.5 1638.83,593.5 1638.5,593.5C 1620.92,596.708 1603.25,599.375 1585.5,601.5C 1586.73,595.908 1587.57,590.241 1588,584.5C 1588.5,564.169 1588.67,543.836 1588.5,523.5C 1586.34,523.721 1584.67,524.721 1583.5,526.5C 1587.49,515.844 1591.49,505.177 1595.5,494.5C 1596.39,493.89 1597.39,493.557 1598.5,493.5 Z"/></g>
<g><path style="opacity:0.982" fill="#be3cf7" d="M 1595.5,494.5 C 1591.49,505.177 1587.49,515.844 1583.5,526.5C 1569.45,552.211 1547.78,567.044 1518.5,571C 1509.14,572.082 1499.81,572.248 1490.5,571.5C 1494.85,552.755 1499.52,534.089 1504.5,515.5C 1527,519.873 1547,514.873 1564.5,500.5C 1574.86,498.659 1585.2,496.659 1595.5,494.5 Z"/></g>
<g><path style="opacity:0.835" fill="#f7174c" d="M 97.5,495.5 C 100.067,496.475 102.733,497.142 105.5,497.5C 103.602,502.296 101.435,506.962 99,511.5C 98.1697,506.192 97.6697,500.859 97.5,495.5 Z"/></g>
<g><path style="opacity:0.949" fill="#d93ff2" d="M 1168.5,496.5 C 1168.83,496.5 1169.17,496.5 1169.5,496.5C 1172.95,497.687 1176.61,498.354 1180.5,498.5C 1180.5,505.167 1180.5,511.833 1180.5,518.5C 1174.85,517.968 1169.18,517.635 1163.5,517.5C 1165.32,510.535 1166.99,503.535 1168.5,496.5 Z"/></g>
<g><path style="opacity:0.9" fill="#e03ff1" d="M 1078.5,497.5 C 1080.17,502.845 1081.84,508.178 1083.5,513.5C 1080.48,513.296 1077.48,512.963 1074.5,512.5C 1075.08,507.191 1076.41,502.191 1078.5,497.5 Z"/></g>
<g><path style="opacity:0.992" fill="#e23def" d="M 1006.5,507.5 C 1028.81,509.403 1051.15,511.07 1073.5,512.5C 1071.32,522.208 1068.99,531.875 1066.5,541.5C 1061.46,541.412 1056.46,540.912 1051.5,540C 1038.7,535.123 1025.7,530.956 1012.5,527.5C 1010.3,520.892 1008.3,514.226 1006.5,507.5 Z"/></g>
<g><path style="opacity:0.985" fill="#9836fe" d="M 2108.5,508.5 C 2117.62,521.57 2130.29,528.736 2146.5,530C 2152.25,530.785 2157.92,530.618 2163.5,529.5C 2158.86,537.002 2154.36,544.669 2150,552.5C 2141.62,562.039 2133.46,571.706 2125.5,581.5C 2092.71,580.364 2067.21,566.364 2049,539.5C 2046.6,535.376 2044.77,531.043 2043.5,526.5C 2065.17,520.5 2086.83,514.5 2108.5,508.5 Z"/></g>
<g><path style="opacity:0.973" fill="#df3dee" d="M 1073.5,512.5 C 1073.83,512.5 1074.17,512.5 1074.5,512.5C 1077.48,512.963 1080.48,513.296 1083.5,513.5C 1087.94,523.805 1091.6,534.472 1094.5,545.5C 1085.2,544.171 1075.87,543.171 1066.5,542.5C 1066.5,542.167 1066.5,541.833 1066.5,541.5C 1068.99,531.875 1071.32,522.208 1073.5,512.5 Z"/></g>
<g><path style="opacity:0.994" fill="#ef37e4" d="M 764.5,513.5 C 767.557,514.633 770.557,515.633 773.5,516.5C 792.082,522.136 810.749,527.803 829.5,533.5C 824.766,540.91 820.433,548.577 816.5,556.5C 795.825,551.608 775.825,544.942 756.5,536.5C 758.398,528.47 761.064,520.803 764.5,513.5 Z"/></g>
<g><path style="opacity:0.987" fill="#c43df5" d="M 1498.5,513.5 C 1500.5,514.167 1502.5,514.833 1504.5,515.5C 1499.52,534.089 1494.85,552.755 1490.5,571.5C 1464.49,569.817 1441.83,560.483 1422.5,543.5C 1424.09,537.225 1425.42,530.892 1426.5,524.5C 1450.8,521.893 1474.8,518.226 1498.5,513.5 Z"/></g>
<g><path style="opacity:1" fill="#dc3def" d="M 1110.5,515.5 C 1128.17,516.051 1145.84,516.718 1163.5,517.5C 1159.7,529.693 1156.37,542.026 1153.5,554.5C 1153.17,554.5 1152.83,554.5 1152.5,554.5C 1138.5,552.167 1124.5,549.833 1110.5,547.5C 1110.5,536.833 1110.5,526.167 1110.5,515.5 Z"/></g>
<g><path style="opacity:1" fill="#ee39e7" d="M 773.5,516.5 C 792.917,519.65 812.251,523.317 831.5,527.5C 833.393,526.037 835.059,524.37 836.5,522.5C 835.363,526.579 834.029,530.579 832.5,534.5C 831.609,533.89 830.609,533.557 829.5,533.5C 810.749,527.803 792.082,522.136 773.5,516.5 Z"/></g>
<g><path style="opacity:0.965" fill="#d93cef" d="M 1163.5,517.5 C 1169.18,517.635 1174.85,517.968 1180.5,518.5C 1180.5,533.5 1180.5,548.5 1180.5,563.5C 1171.22,561.072 1162.22,558.072 1153.5,554.5C 1156.37,542.026 1159.7,529.693 1163.5,517.5 Z"/></g>
<g><path style="opacity:0.942" fill="#c83df5" d="M 1426.5,524.5 C 1425.42,530.892 1424.09,537.225 1422.5,543.5C 1416.41,538.749 1411.41,533.082 1407.5,526.5C 1413.64,525.364 1419.97,524.697 1426.5,524.5 Z"/></g>
<g><path style="opacity:1" fill="#cf3ef4" d="M 1298.5,525.5 C 1309.83,525.5 1321.17,525.5 1332.5,525.5C 1331.01,531.126 1329.68,536.793 1328.5,542.5C 1318.62,539.095 1308.62,536.095 1298.5,533.5C 1298.5,530.833 1298.5,528.167 1298.5,525.5 Z"/></g>
<g><path style="opacity:0.975" fill="#cc3df4" d="M 1332.5,525.5 C 1344.42,526.479 1356.42,526.812 1368.5,526.5C 1368.5,536.167 1368.5,545.833 1368.5,555.5C 1355.03,551.564 1341.69,547.231 1328.5,542.5C 1329.68,536.793 1331.01,531.126 1332.5,525.5 Z"/></g>
<g><path style="opacity:0.975" fill="#e23bea" d="M 1012.5,527.5 C 1025.7,530.956 1038.7,535.123 1051.5,540C 1056.46,540.912 1061.46,541.412 1066.5,541.5C 1066.5,541.833 1066.5,542.167 1066.5,542.5C 1062.46,553.614 1058.8,564.948 1055.5,576.5C 1046.58,576.817 1037.75,576.484 1029,575.5C 1023.79,559.36 1018.29,543.36 1012.5,527.5 Z"/></g>
<g><path style="opacity:0.982" fill="#f51955" d="M 251.5,530.5 C 265.445,539.145 279.779,547.312 294.5,555C 309.204,561.685 323.537,568.852 337.5,576.5C 321.091,571.308 304.757,565.808 288.5,560C 270.584,552.53 252.584,545.363 234.5,538.5C 235.298,536.114 236.298,533.78 237.5,531.5C 242.12,530.507 246.786,530.173 251.5,530.5 Z"/></g>
<g><path style="opacity:0.988" fill="#f5195a" d="M 251.5,530.5 C 263.167,530.5 274.833,530.5 286.5,530.5C 313.543,545.689 341.209,559.856 369.5,573C 381.898,580.858 394.231,588.691 406.5,596.5C 401.12,596.676 395.787,596.342 390.5,595.5C 390.167,595.5 389.833,595.5 389.5,595.5C 377.976,591.103 366.309,587.103 354.5,583.5C 348.868,580.959 343.201,578.626 337.5,576.5C 323.537,568.852 309.204,561.685 294.5,555C 279.779,547.312 265.445,539.145 251.5,530.5 Z"/></g>
<g><path style="opacity:0.986" fill="#f51a60" d="M 286.5,530.5 C 298.167,530.5 309.833,530.5 321.5,530.5C 359.499,552.162 396.832,574.829 433.5,598.5C 424.848,597.76 416.181,597.093 407.5,596.5C 407.167,596.5 406.833,596.5 406.5,596.5C 394.231,588.691 381.898,580.858 369.5,573C 341.209,559.856 313.543,545.689 286.5,530.5 Z"/></g>
<g><path style="opacity:0.987" fill="#f41c66" d="M 321.5,530.5 C 331.833,530.5 342.167,530.5 352.5,530.5C 369.101,541.476 386.101,551.976 403.5,562C 420.012,574.424 437.345,585.59 455.5,595.5C 455.5,595.833 455.5,596.167 455.5,596.5C 448.661,598.283 441.661,598.95 434.5,598.5C 434.167,598.5 433.833,598.5 433.5,598.5C 396.832,574.829 359.499,552.162 321.5,530.5 Z"/></g>
<g><path style="opacity:0.987" fill="#f41d6d" d="M 352.5,530.5 C 360.5,530.5 368.5,530.5 376.5,530.5C 401.939,546.727 427.272,563.227 452.5,580C 457.647,583.32 462.314,587.153 466.5,591.5C 462.979,593.229 459.313,594.562 455.5,595.5C 437.345,585.59 420.012,574.424 403.5,562C 386.101,551.976 369.101,541.476 352.5,530.5 Z"/></g>
<g><path style="opacity:0.989" fill="#f41e73" d="M 376.5,530.5 C 381.833,530.5 387.167,530.5 392.5,530.5C 407.825,539.497 423.159,548.497 438.5,557.5C 445.149,561.807 451.816,566.141 458.5,570.5C 465.167,575.833 471.833,581.167 478.5,586.5C 475.167,588.167 471.833,589.833 468.5,591.5C 467.833,591.5 467.167,591.5 466.5,591.5C 462.314,587.153 457.647,583.32 452.5,580C 427.272,563.227 401.939,546.727 376.5,530.5 Z"/></g>
<g><path style="opacity:0.957" fill="#f51f75" d="M 392.5,530.5 C 395.167,530.5 397.833,530.5 400.5,530.5C 413.518,539.009 426.185,548.009 438.5,557.5C 423.159,548.497 407.825,539.497 392.5,530.5 Z"/></g>
<g><path style="opacity:0.978" fill="#f42079" d="M 400.5,530.5 C 408.167,530.5 415.833,530.5 423.5,530.5C 443.161,545.826 462.828,561.16 482.5,576.5C 484.065,578.509 485.065,580.843 485.5,583.5C 476.653,578.91 467.653,574.577 458.5,570.5C 451.816,566.141 445.149,561.807 438.5,557.5C 426.185,548.009 413.518,539.009 400.5,530.5 Z"/></g>
<g><path style="opacity:0.961" fill="#f4217f" d="M 423.5,530.5 C 430.833,530.5 438.167,530.5 445.5,530.5C 454.514,538.845 463.847,546.845 473.5,554.5C 477.019,561.549 480.019,568.882 482.5,576.5C 462.828,561.16 443.161,545.826 423.5,530.5 Z"/></g>
<g><path style="opacity:0.906" fill="#f52285" d="M 445.5,530.5 C 450.833,530.5 456.167,530.5 461.5,530.5C 462.262,532.262 463.596,533.262 465.5,533.5C 468.444,540.39 471.111,547.39 473.5,554.5C 463.847,546.845 454.514,538.845 445.5,530.5 Z"/></g>
<g><path style="opacity:0.464" fill="#f42489" d="M 461.5,530.5 C 463.619,530.468 464.952,531.468 465.5,533.5C 463.596,533.262 462.262,532.262 461.5,530.5 Z"/></g>
<g><path style="opacity:0.96" fill="#8e34ff" d="M 2291.5,530.5 C 2291.5,545.833 2291.5,561.167 2291.5,576.5C 2277.5,576.5 2263.5,576.5 2249.5,576.5C 2254.07,569.715 2258.9,563.049 2264,556.5C 2273.34,547.995 2282.5,539.328 2291.5,530.5 Z"/></g>
<g><path style="opacity:0.976" fill="#9e37fd" d="M 2027.5,531.5 C 2027.5,535.833 2027.5,540.167 2027.5,544.5C 2019.84,554.486 2013.17,565.152 2007.5,576.5C 1990.83,576.5 1974.17,576.5 1957.5,576.5C 1957.5,565.5 1957.5,554.5 1957.5,543.5C 1981.03,540.521 2004.36,536.521 2027.5,531.5 Z"/></g>
<g><path style="opacity:0.926" fill="#ed37e3" d="M 829.5,533.5 C 830.609,533.557 831.609,533.89 832.5,534.5C 830.029,542.579 827.363,550.579 824.5,558.5C 821.779,558.037 819.112,557.371 816.5,556.5C 820.433,548.577 824.766,540.91 829.5,533.5 Z"/></g>
<g><path style="opacity:0.984" fill="#cf3cf1" d="M 1298.5,533.5 C 1308.62,536.095 1318.62,539.095 1328.5,542.5C 1324.88,553.64 1321.88,564.973 1319.5,576.5C 1312.5,576.5 1305.5,576.5 1298.5,576.5C 1298.5,562.167 1298.5,547.833 1298.5,533.5 Z"/></g>
<g><path style="opacity:0.993" fill="#ef35dd" d="M 756.5,536.5 C 775.825,544.942 795.825,551.608 816.5,556.5C 813.563,562.041 810.896,567.708 808.5,573.5C 808.167,573.5 807.833,573.5 807.5,573.5C 797.331,570.201 786.998,567.035 776.5,564C 767.882,559.738 759.215,555.571 750.5,551.5C 752.128,546.27 754.128,541.27 756.5,536.5 Z"/></g>
<g><path style="opacity:0.999" fill="#f41753" d="M 234.5,538.5 C 252.584,545.363 270.584,552.53 288.5,560C 304.757,565.808 321.091,571.308 337.5,576.5C 343.201,578.626 348.868,580.959 354.5,583.5C 364.669,589.085 375.002,594.418 385.5,599.5C 381.36,604.061 377.027,608.395 372.5,612.5C 372.167,612.5 371.833,612.5 371.5,612.5C 325.248,589.04 279.248,565.04 233.5,540.5C 233.833,539.833 234.167,539.167 234.5,538.5 Z"/></g>
<g><path style="opacity:0.997" fill="#f4164e" d="M 233.5,540.5 C 279.248,565.04 325.248,589.04 371.5,612.5C 367.129,617.873 362.129,622.539 356.5,626.5C 317.772,606.634 279.105,586.468 240.5,566C 235.515,564.061 230.515,562.228 225.5,560.5C 228.164,553.838 230.831,547.171 233.5,540.5 Z"/></g>
<g><path style="opacity:0.96" fill="#df3beb" d="M 1066.5,542.5 C 1075.87,543.171 1085.2,544.171 1094.5,545.5C 1098.74,555.543 1102.4,565.877 1105.5,576.5C 1088.83,576.5 1072.17,576.5 1055.5,576.5C 1058.8,564.948 1062.46,553.614 1066.5,542.5 Z"/></g>
<g><path style="opacity:0.959" fill="#cc3cf2" d="M 1328.5,542.5 C 1341.69,547.231 1355.03,551.564 1368.5,555.5C 1368.5,562.5 1368.5,569.5 1368.5,576.5C 1352.17,576.5 1335.83,576.5 1319.5,576.5C 1321.88,564.973 1324.88,553.64 1328.5,542.5 Z"/></g>
<g><path style="opacity:0.935" fill="#9b36fd" d="M 2027.5,544.5 C 2027.5,555.167 2027.5,565.833 2027.5,576.5C 2020.83,576.5 2014.17,576.5 2007.5,576.5C 2013.17,565.152 2019.84,554.486 2027.5,544.5 Z"/></g>
<g><path style="opacity:0.961" fill="#a137fc" d="M 1935.5,536.5 C 1935.5,549.833 1935.5,563.167 1935.5,576.5C 1928.83,576.5 1922.17,576.5 1915.5,576.5C 1919.79,567.239 1924.13,557.906 1928.5,548.5C 1930.83,544.5 1933.17,540.5 1935.5,536.5 Z"/></g>
<g><path style="opacity:0.973" fill="#db3bec" d="M 1110.5,547.5 C 1124.5,549.833 1138.5,552.167 1152.5,554.5C 1150.7,561.89 1148.7,569.223 1146.5,576.5C 1134.5,576.5 1122.5,576.5 1110.5,576.5C 1110.5,566.833 1110.5,557.167 1110.5,547.5 Z"/></g>
<g><path style="opacity:0.969" fill="#a437fc" d="M 1928.5,548.5 C 1924.13,557.906 1919.79,567.239 1915.5,576.5C 1899.83,576.5 1884.17,576.5 1868.5,576.5C 1868.5,571.5 1868.5,566.5 1868.5,561.5C 1888.41,556.857 1908.41,552.524 1928.5,548.5 Z"/></g>
<g><path style="opacity:0.97" fill="#b439f8" d="M 1657.5,550.5 C 1657.5,564.5 1657.5,578.5 1657.5,592.5C 1651.49,592.701 1645.49,593.034 1639.5,593.5C 1644.74,578.777 1650.74,564.444 1657.5,550.5 Z"/></g>
<g><path style="opacity:0.944" fill="#ef33d8" d="M 750.5,551.5 C 759.215,555.571 767.882,559.738 776.5,564C 786.998,567.035 797.331,570.201 807.5,573.5C 807.5,574.5 807.5,575.5 807.5,576.5C 792.5,576.5 777.5,576.5 762.5,576.5C 757.026,573.262 751.36,570.262 745.5,567.5C 746.766,562.035 748.433,556.701 750.5,551.5 Z"/></g>
<g><path style="opacity:0.936" fill="#d93bec" d="M 1152.5,554.5 C 1152.83,554.5 1153.17,554.5 1153.5,554.5C 1162.22,558.072 1171.22,561.072 1180.5,563.5C 1180.5,567.833 1180.5,572.167 1180.5,576.5C 1169.17,576.5 1157.83,576.5 1146.5,576.5C 1148.7,569.223 1150.7,561.89 1152.5,554.5 Z"/></g>
<g><path style="opacity:0.935" fill="#ed35dd" d="M 816.5,556.5 C 819.112,557.371 821.779,558.037 824.5,558.5C 822.774,564.18 820.94,569.846 819,575.5C 817.989,576.337 816.822,576.67 815.5,576.5C 813.491,574.935 811.157,573.935 808.5,573.5C 810.896,567.708 813.563,562.041 816.5,556.5 Z"/></g>
<g><path style="opacity:0.996" fill="#f41547" d="M 225.5,560.5 C 230.515,562.228 235.515,564.061 240.5,566C 279.105,586.468 317.772,606.634 356.5,626.5C 356.5,626.833 356.5,627.167 356.5,627.5C 352.141,631.528 347.807,635.528 343.5,639.5C 343.167,639.5 342.833,639.5 342.5,639.5C 314.194,624.346 285.86,609.179 257.5,594C 244.17,589.057 230.836,584.224 217.5,579.5C 220.167,573.167 222.833,566.833 225.5,560.5 Z"/></g>
<g><path style="opacity:0.808" fill="#ef32d3" d="M 745.5,567.5 C 751.36,570.262 757.026,573.262 762.5,576.5C 755.833,576.5 749.167,576.5 742.5,576.5C 742.69,573.145 743.69,570.145 745.5,567.5 Z"/></g>
<g><path style="opacity:0.991" fill="#f31e77" d="M 458.5,570.5 C 467.653,574.577 476.653,578.91 485.5,583.5C 487.406,586.983 489.072,590.65 490.5,594.5C 486.246,592.251 482.246,589.585 478.5,586.5C 471.833,581.167 465.167,575.833 458.5,570.5 Z"/></g>
<g><path style="opacity:0.874" fill="#ab37fa" d="M 1819.5,571.5 C 1806.27,577.488 1792.27,580.488 1777.5,580.5C 1773.87,579.754 1770.2,579.421 1766.5,579.5C 1783.92,576.105 1801.59,573.439 1819.5,571.5 Z"/></g>
<g><path style="opacity:0.648" fill="#ec34da" d="M 807.5,573.5 C 807.833,573.5 808.167,573.5 808.5,573.5C 811.157,573.935 813.491,574.935 815.5,576.5C 812.833,576.5 810.167,576.5 807.5,576.5C 807.5,575.5 807.5,574.5 807.5,573.5 Z"/></g>
<g><path style="opacity:0.996" fill="#f41341" d="M 217.5,579.5 C 230.836,584.224 244.17,589.057 257.5,594C 285.86,609.179 314.194,624.346 342.5,639.5C 339.833,642.5 337.167,645.5 334.5,648.5C 334.167,648.5 333.833,648.5 333.5,648.5C 324.155,645.496 314.822,642.496 305.5,639.5C 302.622,637.895 299.622,636.561 296.5,635.5C 282.586,625.714 267.253,618.881 250.5,615C 237.024,609.24 223.691,603.407 210.5,597.5C 212.835,591.495 215.168,585.495 217.5,579.5 Z"/></g>
<g><path style="opacity:1" fill="#f41858" d="M 354.5,583.5 C 366.309,587.103 377.976,591.103 389.5,595.5C 388.5,596.833 387.5,598.167 386.5,599.5C 386.167,599.5 385.833,599.5 385.5,599.5C 375.002,594.418 364.669,589.085 354.5,583.5 Z"/></g>
<g><path style="opacity:0.967" fill="#f31d73" d="M 478.5,586.5 C 482.246,589.585 486.246,592.251 490.5,594.5C 491.207,596.781 492.207,598.948 493.5,601C 490.941,602.777 488.274,604.277 485.5,605.5C 479.833,600.833 474.167,596.167 468.5,591.5C 471.833,589.833 475.167,588.167 478.5,586.5 Z"/></g>
<g><path style="opacity:0.978" fill="#f31c6d" d="M 466.5,591.5 C 467.167,591.5 467.833,591.5 468.5,591.5C 474.167,596.167 479.833,600.833 485.5,605.5C 482.322,608.258 478.655,610.258 474.5,611.5C 468.478,606.15 462.145,601.15 455.5,596.5C 455.5,596.167 455.5,595.833 455.5,595.5C 459.313,594.562 462.979,593.229 466.5,591.5 Z"/></g>
<g><path style="opacity:0.968" fill="#b436f5" d="M 1657.5,592.5 C 1654.55,627.73 1637.89,654.064 1607.5,671.5C 1607.5,671.167 1607.5,670.833 1607.5,670.5C 1617.64,644.758 1627.97,619.092 1638.5,593.5C 1638.83,593.5 1639.17,593.5 1639.5,593.5C 1645.49,593.034 1651.49,592.701 1657.5,592.5 Z"/></g>
<g><path style="opacity:0.993" fill="#b736f5" d="M 1638.5,593.5 C 1627.97,619.092 1617.64,644.758 1607.5,670.5C 1597.41,662.581 1587.74,654.081 1578.5,645C 1572.1,640.146 1565.76,635.313 1559.5,630.5C 1572.41,624.592 1581.08,614.925 1585.5,601.5C 1603.25,599.375 1620.92,596.708 1638.5,593.5 Z"/></g>
<g><path style="opacity:0.987" fill="#f31759" d="M 389.5,595.5 C 389.833,595.5 390.167,595.5 390.5,595.5C 410.435,605.467 430.435,615.467 450.5,625.5C 447.869,627.153 445.203,628.819 442.5,630.5C 424.123,619.645 405.457,609.312 386.5,599.5C 387.5,598.167 388.5,596.833 389.5,595.5 Z"/></g>
<g><path style="opacity:0.995" fill="#f3185b" d="M 390.5,595.5 C 395.787,596.342 401.12,596.676 406.5,596.5C 406.833,596.5 407.167,596.5 407.5,596.5C 421.104,604.306 434.771,612.14 448.5,620C 450.192,621.307 451.525,622.807 452.5,624.5C 452.158,625.338 451.492,625.672 450.5,625.5C 430.435,615.467 410.435,605.467 390.5,595.5 Z"/></g>
<g><path style="opacity:0.988" fill="#f31960" d="M 407.5,596.5 C 416.181,597.093 424.848,597.76 433.5,598.5C 433.833,598.5 434.167,598.5 434.5,598.5C 439.437,601.306 444.437,604.139 449.5,607C 454.065,611.075 458.732,614.909 463.5,618.5C 459.993,620.754 456.327,622.754 452.5,624.5C 451.525,622.807 450.192,621.307 448.5,620C 434.771,612.14 421.104,604.306 407.5,596.5 Z"/></g>
<g><path style="opacity:0.98" fill="#f31b66" d="M 455.5,596.5 C 462.145,601.15 468.478,606.15 474.5,611.5C 471.039,614.069 467.372,616.403 463.5,618.5C 458.732,614.909 454.065,611.075 449.5,607C 444.437,604.139 439.437,601.306 434.5,598.5C 441.661,598.95 448.661,598.283 455.5,596.5 Z"/></g>
<g><path style="opacity:0.953" fill="#f4133d" d="M 210.5,597.5 C 223.691,603.407 237.024,609.24 250.5,615C 267.253,618.881 282.586,625.714 296.5,635.5C 287.832,632.777 279.165,629.944 270.5,627C 262.524,625.305 254.524,623.805 246.5,622.5C 233.401,616.117 220.735,608.95 208.5,601C 209.085,599.698 209.751,598.531 210.5,597.5 Z"/></g>
<g><path style="opacity:0.99" fill="#f21754" d="M 385.5,599.5 C 385.833,599.5 386.167,599.5 386.5,599.5C 405.457,609.312 424.123,619.645 442.5,630.5C 437.632,633.434 432.632,636.1 427.5,638.5C 415.22,632.025 402.887,625.525 390.5,619C 384.515,616.728 378.515,614.561 372.5,612.5C 377.027,608.395 381.36,604.061 385.5,599.5 Z"/></g>
<g><path style="opacity:0.951" fill="#c538f1" d="M 1461.5,615.5 C 1440.26,618.365 1418.92,620.365 1397.5,621.5C 1398.57,619.299 1399.23,616.965 1399.5,614.5C 1416.67,610.583 1433.84,606.583 1451,602.5C 1452.11,602.585 1453.11,602.919 1454,603.5C 1456.26,607.696 1458.76,611.696 1461.5,615.5 Z"/></g>
<g><path style="opacity:0.992" fill="#f2154e" d="M 371.5,612.5 C 371.833,612.5 372.167,612.5 372.5,612.5C 378.515,614.561 384.515,616.728 390.5,619C 402.887,625.525 415.22,632.025 427.5,638.5C 421.83,642.337 415.83,645.67 409.5,648.5C 392.411,640.135 374.744,633.135 356.5,627.5C 356.5,627.167 356.5,626.833 356.5,626.5C 362.129,622.539 367.129,617.873 371.5,612.5 Z"/></g>
<g><path style="opacity:0.846" fill="#c838ef" d="M 1399.5,614.5 C 1399.23,616.965 1398.57,619.299 1397.5,621.5C 1396.74,624.018 1395.74,626.351 1394.5,628.5C 1392.37,625.3 1390.7,621.8 1389.5,618C 1392.71,616.529 1396.05,615.362 1399.5,614.5 Z"/></g>
<g><path style="opacity:0.99" fill="#c336ef" d="M 1461.5,615.5 C 1465.53,619.195 1469.53,622.862 1473.5,626.5C 1467.73,643.812 1461.73,661.145 1455.5,678.5C 1445.83,674.5 1436.17,670.5 1426.5,666.5C 1411.85,657.181 1401.18,644.514 1394.5,628.5C 1395.74,626.351 1396.74,624.018 1397.5,621.5C 1418.92,620.365 1440.26,618.365 1461.5,615.5 Z"/></g>
<g><path style="opacity:0.956" fill="#f4113b" d="M 246.5,622.5 C 254.524,623.805 262.524,625.305 270.5,627C 279.165,629.944 287.832,632.777 296.5,635.5C 299.622,636.561 302.622,637.895 305.5,639.5C 313.329,643.58 320.996,647.913 328.5,652.5C 325.167,656.167 321.833,659.833 318.5,663.5C 294.167,650.336 270.167,636.669 246.5,622.5 Z"/></g>
<g><path style="opacity:0.984" fill="#be35f0" d="M 1473.5,626.5 C 1492.37,637.426 1512.7,641.259 1534.5,638C 1538.3,637.591 1541.97,636.757 1545.5,635.5C 1539.23,654.651 1532.56,673.651 1525.5,692.5C 1504.29,692.932 1483.62,690.266 1463.5,684.5C 1461.59,681.539 1458.92,679.539 1455.5,678.5C 1461.73,661.145 1467.73,643.812 1473.5,626.5 Z"/></g>
<g><path style="opacity:0.989" fill="#f21447" d="M 356.5,627.5 C 374.744,633.135 392.411,640.135 409.5,648.5C 404.335,652.586 398.668,655.92 392.5,658.5C 376.245,651.971 359.912,645.637 343.5,639.5C 347.807,635.528 352.141,631.528 356.5,627.5 Z"/></g>
<g><path style="opacity:0.984" fill="#b934f2" d="M 1559.5,630.5 C 1565.76,635.313 1572.1,640.146 1578.5,645C 1587.74,654.081 1597.41,662.581 1607.5,670.5C 1607.5,670.833 1607.5,671.167 1607.5,671.5C 1590.23,681.534 1571.57,687.7 1551.5,690C 1542.83,690.944 1534.16,691.778 1525.5,692.5C 1532.56,673.651 1539.23,654.651 1545.5,635.5C 1550.38,634.395 1555.04,632.728 1559.5,630.5 Z"/></g>
<g><path style="opacity:1" fill="#f4123f" d="M 305.5,639.5 C 314.822,642.496 324.155,645.496 333.5,648.5C 332.167,649.833 330.833,651.167 329.5,652.5C 329.167,652.5 328.833,652.5 328.5,652.5C 320.996,647.913 313.329,643.58 305.5,639.5 Z"/></g>
<g><path style="opacity:0.989" fill="#f21242" d="M 342.5,639.5 C 342.833,639.5 343.167,639.5 343.5,639.5C 359.912,645.637 376.245,651.971 392.5,658.5C 389.322,661.258 385.655,663.258 381.5,664.5C 365.966,659.026 350.3,653.693 334.5,648.5C 337.167,645.5 339.833,642.5 342.5,639.5 Z"/></g>
<g><path style="opacity:0.985" fill="#f2113f" d="M 333.5,648.5 C 333.833,648.5 334.167,648.5 334.5,648.5C 350.3,653.693 365.966,659.026 381.5,664.5C 379.206,666.653 376.54,668.32 373.5,669.5C 359.123,663.32 344.456,657.654 329.5,652.5C 330.833,651.167 332.167,649.833 333.5,648.5 Z"/></g>
<g><path style="opacity:0.974" fill="#f2113b" d="M 328.5,652.5 C 328.833,652.5 329.167,652.5 329.5,652.5C 344.456,657.654 359.123,663.32 373.5,669.5C 367.83,673.337 361.83,676.67 355.5,679.5C 347.933,676.55 340.267,673.884 332.5,671.5C 327.5,669.336 322.833,666.669 318.5,663.5C 321.833,659.833 325.167,656.167 328.5,652.5 Z"/></g>
<g><path style="opacity:0.815" fill="#c234ed" d="M 1426.5,666.5 C 1436.17,670.5 1445.83,674.5 1455.5,678.5C 1458.92,679.539 1461.59,681.539 1463.5,684.5C 1449.91,680.872 1437.58,674.872 1426.5,666.5 Z"/></g>
<g><path style="opacity:0.789" fill="#f21037" d="M 332.5,671.5 C 340.267,673.884 347.933,676.55 355.5,679.5C 353.979,681.529 351.979,682.362 349.5,682C 343.434,678.976 337.768,675.476 332.5,671.5 Z"/></g>
</svg>
