<?xml version="1.0" encoding="UTF-8"?>
<!DOCTYPE svg PUBLIC "-//W3C//DTD SVG 1.1//EN" "http://www.w3.org/Graphics/SVG/1.1/DTD/svg11.dtd">
<svg xmlns="http://www.w3.org/2000/svg" version="1.1" width="750px" height="422px" style="shape-rendering:geometricPrecision; text-rendering:geometricPrecision; image-rendering:optimizeQuality; fill-rule:evenodd; clip-rule:evenodd" xmlns:xlink="http://www.w3.org/1999/xlink">
<g><path style="opacity:1" fill="#262f3e" d="M -0.5,-0.5 C 249.5,-0.5 499.5,-0.5 749.5,-0.5C 749.5,140.167 749.5,280.833 749.5,421.5C 499.5,421.5 249.5,421.5 -0.5,421.5C -0.5,280.833 -0.5,140.167 -0.5,-0.5 Z"/></g>
<g><path style="opacity:1" fill="#fbfbfb" d="M 268.5,122.5 C 279.388,121.506 289.721,123.339 299.5,128C 305.133,132.09 308.633,137.59 310,144.5C 310.333,160.167 310.667,175.833 311,191.5C 312.3,195.732 313.8,199.898 315.5,204C 312.997,207.84 309.497,210.34 305,211.5C 302.849,211.357 301.182,210.357 300,208.5C 298.5,206.167 297,203.833 295.5,201.5C 284.178,212.498 270.845,215.998 255.5,212C 247.836,209.002 243.003,203.502 241,195.5C 238.093,176.733 245.927,165.233 264.5,161C 274.552,160.42 284.552,160.92 294.5,162.5C 296.88,140.656 287.213,132.156 265.5,137C 259.763,138.118 254.263,139.952 249,142.5C 248.228,142.355 247.561,142.022 247,141.5C 246.207,137.577 246.374,133.744 247.5,130C 254.295,126.571 261.295,124.071 268.5,122.5 Z"/></g>
<g><path style="opacity:1" fill="#fafafb" d="M 471.5,122.5 C 481.941,122.054 491.941,123.887 501.5,128C 502,128.5 502.5,129 503,129.5C 503.499,133.152 503.665,136.818 503.5,140.5C 497.335,138.543 491.001,137.043 484.5,136C 476.407,134.548 469.241,136.381 463,141.5C 460.496,146.646 461.329,151.146 465.5,155C 474.212,159.095 483.212,162.429 492.5,165C 508.377,172.605 512.543,184.438 505,200.5C 499.01,208.749 490.843,213.249 480.5,214C 469.416,215.05 458.749,213.383 448.5,209C 444.795,205.349 443.461,200.849 444.5,195.5C 450.866,196.673 457.199,198.173 463.5,200C 471.691,201.102 479.691,200.435 487.5,198C 493.263,192.897 493.93,187.23 489.5,181C 478.534,176.676 467.534,172.343 456.5,168C 445.353,159.213 442.853,148.38 449,135.5C 454.884,128.148 462.384,123.815 471.5,122.5 Z"/></g>
<g><path style="opacity:1" fill="#fbfbfb" d="M 319.5,125.5 C 324.844,125.334 330.177,125.501 335.5,126C 336,126.5 336.5,127 337,127.5C 342.413,149.228 348.079,170.895 354,192.5C 359.29,171.053 364.457,149.553 369.5,128C 369.905,127.055 370.572,126.388 371.5,126C 376.5,125.333 381.5,125.333 386.5,126C 387,126.5 387.5,127 388,127.5C 393.079,149.564 398.413,171.564 404,193.5C 409.776,170.847 415.942,148.347 422.5,126C 427.489,125.501 432.489,125.334 437.5,125.5C 437.662,127.527 437.495,129.527 437,131.5C 428.877,158.17 420.377,184.67 411.5,211C 406.167,211.667 400.833,211.667 395.5,211C 394.874,210.25 394.374,209.416 394,208.5C 389.165,186.978 383.832,165.645 378,144.5C 372.986,166.558 367.652,188.558 362,210.5C 356.333,211.833 350.667,211.833 345,210.5C 335.71,182.327 327.21,153.994 319.5,125.5 Z"/></g>
<g><path style="opacity:1" fill="#262f3e" d="M 267.5,172.5 C 276.27,172.135 284.937,172.802 293.5,174.5C 295.926,191.582 288.426,200.249 271,200.5C 264.456,201.396 260.123,198.729 258,192.5C 255.596,182.98 258.762,176.314 267.5,172.5 Z"/></g>
<g><path style="opacity:1" fill="#f3971d" d="M 489.5,232.5 C 496.508,232.334 503.508,232.5 510.5,233C 514.039,233.187 517.205,234.354 520,236.5C 521.33,255.847 515.164,272.347 501.5,286C 500.207,286.49 498.873,286.657 497.5,286.5C 500.314,277.527 503.148,268.527 506,259.5C 506.667,255.5 506.667,251.5 506,247.5C 505.097,246.299 503.931,245.465 502.5,245C 498.389,244.059 494.222,243.559 490,243.5C 482.152,244.068 474.318,244.735 466.5,245.5C 466.393,243.097 467.393,241.264 469.5,240C 475.878,236.379 482.545,233.879 489.5,232.5 Z"/></g>
<g><path style="opacity:1" fill="#f5971c" d="M 228.5,238.5 C 235.939,240.55 242.939,243.717 249.5,248C 327.762,284.494 407.096,286.828 487.5,255C 494.434,253.585 496.434,255.918 493.5,262C 453.208,288.492 408.875,300.492 360.5,298C 310.497,294.653 266.83,276.487 229.5,243.5C 227.576,242.035 227.243,240.368 228.5,238.5 Z"/></g>
</svg>
