<?xml version="1.0" encoding="UTF-8"?>
<!DOCTYPE svg PUBLIC "-//W3C//DTD SVG 1.1//EN" "http://www.w3.org/Graphics/SVG/1.1/DTD/svg11.dtd">
<svg xmlns="http://www.w3.org/2000/svg" version="1.1" width="1820px" height="2048px" style="shape-rendering:geometricPrecision; text-rendering:geometricPrecision; image-rendering:optimizeQuality; fill-rule:evenodd; clip-rule:evenodd" xmlns:xlink="http://www.w3.org/1999/xlink">
<g><path style="opacity:0.999" fill="#a179dc" d="M 889.5,-0.5 C 901.833,-0.5 914.167,-0.5 926.5,-0.5C 949.911,2.91323 972.244,10.0799 993.5,21C 1237.67,161.919 1482,302.586 1726.5,443C 1755.3,458.968 1777.97,481.135 1794.5,509.5C 1694.7,566.569 1595.03,623.902 1495.5,681.5C 1495.24,678.984 1494.41,676.65 1493,674.5C 1399.49,522.602 1266.99,421.102 1095.5,370C 913.285,321.911 739.951,343.577 575.5,435C 416.369,529.977 311.202,666.81 260,845.5C 215.196,1024.22 237.03,1194.22 325.5,1355.5C 223.63,1413.6 121.964,1471.93 20.5,1530.5C 8.85545,1509.25 1.85545,1486.59 -0.5,1462.5C -0.5,1168.17 -0.5,873.833 -0.5,579.5C 5.32808,523.183 31.9948,479.683 79.5,449C 325.33,307.586 570.997,165.919 816.5,24C 839.51,11.4969 863.843,3.33021 889.5,-0.5 Z"/></g>
<g><path style="opacity:1" fill="#fefefe" d="M 1495.5,681.5 C 1397.97,737.765 1300.3,793.765 1202.5,849.5C 1140.98,751.03 1051.98,696.196 935.5,685C 812.627,680.197 714.127,726.364 640,823.5C 574.028,919.303 559.362,1022.64 596,1133.5C 602.574,1151.98 610.74,1169.64 620.5,1186.5C 666.208,1264.73 732.541,1317.23 819.5,1344C 923.002,1370.86 1019,1354.53 1107.5,1295C 1146.41,1267.1 1177.91,1232.6 1202,1191.5C 1202.76,1189.94 1203.93,1188.94 1205.5,1188.5C 1302.83,1244.83 1400.17,1301.17 1497.5,1357.5C 1419.24,1492.16 1307.91,1589 1163.5,1648C 1023.88,1701.78 881.55,1710.11 736.5,1673C 557.327,1621.28 420.327,1515.44 325.5,1355.5C 237.03,1194.22 215.196,1024.22 260,845.5C 311.202,666.81 416.369,529.977 575.5,435C 739.951,343.577 913.285,321.911 1095.5,370C 1266.99,421.102 1399.49,522.602 1493,674.5C 1494.41,676.65 1495.24,678.984 1495.5,681.5 Z"/></g>
<g><path style="opacity:1" fill="#390091" d="M 1794.5,509.5 C 1806.96,531.056 1814.13,554.389 1816,579.5C 1816.28,830.667 1816.78,1081.83 1817.5,1333C 1817.33,1369.83 1817.17,1406.67 1817,1443.5C 1817.15,1475.24 1809.65,1504.91 1794.5,1532.5C 1794.72,1531.32 1794.39,1530.32 1793.5,1529.5C 1694.56,1472.54 1595.89,1415.2 1497.5,1357.5C 1400.17,1301.17 1302.83,1244.83 1205.5,1188.5C 1107.37,1131.6 1009.04,1074.93 910.5,1018.5C 1007.83,962.167 1105.17,905.833 1202.5,849.5C 1300.3,793.765 1397.97,737.765 1495.5,681.5C 1595.03,623.902 1694.7,566.569 1794.5,509.5 Z"/></g>
<g><path style="opacity:1" fill="#a179db" d="M 1202.5,849.5 C 1105.17,905.833 1007.83,962.167 910.5,1018.5C 814.888,1073.31 719.221,1128.14 623.5,1183C 621.937,1183.76 620.937,1184.93 620.5,1186.5C 610.74,1169.64 602.574,1151.98 596,1133.5C 559.362,1022.64 574.028,919.303 640,823.5C 714.127,726.364 812.627,680.197 935.5,685C 1051.98,696.196 1140.98,751.03 1202.5,849.5 Z"/></g>
<g><path style="opacity:1" fill="#fefefe" d="M 1387.5,826.5 C 1403.17,826.5 1418.83,826.5 1434.5,826.5C 1434.5,858.5 1434.5,890.5 1434.5,922.5C 1466.67,922.832 1498.67,922.498 1530.5,921.5C 1530.5,889.833 1530.5,858.167 1530.5,826.5C 1546.5,826.5 1562.5,826.5 1578.5,826.5C 1578.5,858.167 1578.5,889.833 1578.5,921.5C 1610,922.498 1641.66,922.832 1673.5,922.5C 1673.5,938.167 1673.5,953.833 1673.5,969.5C 1641.66,969.168 1610,969.502 1578.5,970.5C 1578.5,1002.17 1578.5,1033.83 1578.5,1065.5C 1610,1066.5 1641.66,1066.83 1673.5,1066.5C 1673.5,1082.17 1673.5,1097.83 1673.5,1113.5C 1641.83,1113.5 1610.17,1113.5 1578.5,1113.5C 1578.5,1145.17 1578.5,1176.83 1578.5,1208.5C 1562.83,1208.5 1547.17,1208.5 1531.5,1208.5C 1531.83,1176.66 1531.5,1145 1530.5,1113.5C 1498.5,1113.5 1466.5,1113.5 1434.5,1113.5C 1434.5,1145.5 1434.5,1177.5 1434.5,1209.5C 1418.5,1209.5 1402.5,1209.5 1386.5,1209.5C 1386.5,1177.5 1386.5,1145.5 1386.5,1113.5C 1354.83,1113.5 1323.17,1113.5 1291.5,1113.5C 1291.5,1097.5 1291.5,1081.5 1291.5,1065.5C 1323.17,1065.5 1354.83,1065.5 1386.5,1065.5C 1387.5,1033.67 1387.83,1001.67 1387.5,969.5C 1355.5,969.5 1323.5,969.5 1291.5,969.5C 1291.5,953.833 1291.5,938.167 1291.5,922.5C 1323.5,922.5 1355.5,922.5 1387.5,922.5C 1387.5,890.5 1387.5,858.5 1387.5,826.5 Z"/></g>
<g><path style="opacity:1" fill="#987ac6" d="M 1387.5,826.5 C 1387.5,858.5 1387.5,890.5 1387.5,922.5C 1355.5,922.5 1323.5,922.5 1291.5,922.5C 1323,921.502 1354.66,921.168 1386.5,921.5C 1386.17,889.662 1386.5,857.996 1387.5,826.5 Z"/></g>
<g><path style="opacity:1" fill="#8866bd" d="M 1434.5,826.5 C 1435.5,857.996 1435.83,889.662 1435.5,921.5C 1467.17,921.5 1498.83,921.5 1530.5,921.5C 1498.67,922.498 1466.67,922.832 1434.5,922.5C 1434.5,890.5 1434.5,858.5 1434.5,826.5 Z"/></g>
<g><path style="opacity:1" fill="#b098d3" d="M 1578.5,921.5 C 1610.5,921.5 1642.5,921.5 1674.5,921.5C 1674.5,937.833 1674.5,954.167 1674.5,970.5C 1642.5,970.5 1610.5,970.5 1578.5,970.5C 1610,969.502 1641.66,969.168 1673.5,969.5C 1673.5,953.833 1673.5,938.167 1673.5,922.5C 1641.66,922.832 1610,922.498 1578.5,921.5 Z"/></g>
<g><path style="opacity:1" fill="#a388cc" d="M 1291.5,969.5 C 1323.5,969.5 1355.5,969.5 1387.5,969.5C 1387.83,1001.67 1387.5,1033.67 1386.5,1065.5C 1386.5,1033.83 1386.5,1002.17 1386.5,970.5C 1354.66,970.832 1323,970.498 1291.5,969.5 Z"/></g>
<g><path style="opacity:1" fill="#835fba" d="M 1530.5,970.5 C 1498.83,970.5 1467.17,970.5 1435.5,970.5C 1435.5,1002.17 1435.5,1033.83 1435.5,1065.5C 1434.5,1033.67 1434.17,1001.67 1434.5,969.5C 1466.67,969.168 1498.67,969.502 1530.5,970.5 Z"/></g>
<g><path style="opacity:1" fill="#390091" d="M 1530.5,970.5 C 1530.5,1002.17 1530.5,1033.83 1530.5,1065.5C 1498.83,1065.5 1467.17,1065.5 1435.5,1065.5C 1435.5,1033.83 1435.5,1002.17 1435.5,970.5C 1467.17,970.5 1498.83,970.5 1530.5,970.5 Z"/></g>
<g><path style="opacity:1" fill="#280068" d="M 910.5,1018.5 C 1009.04,1074.93 1107.37,1131.6 1205.5,1188.5C 1203.93,1188.94 1202.76,1189.94 1202,1191.5C 1177.91,1232.6 1146.41,1267.1 1107.5,1295C 1019,1354.53 923.002,1370.86 819.5,1344C 732.541,1317.23 666.208,1264.73 620.5,1186.5C 620.937,1184.93 621.937,1183.76 623.5,1183C 719.221,1128.14 814.888,1073.31 910.5,1018.5 Z"/></g>
<g><path style="opacity:1" fill="#d0c2e5" d="M 1578.5,1065.5 C 1610.5,1065.5 1642.5,1065.5 1674.5,1065.5C 1674.83,1081.68 1674.5,1097.68 1673.5,1113.5C 1673.5,1097.83 1673.5,1082.17 1673.5,1066.5C 1641.66,1066.83 1610,1066.5 1578.5,1065.5 Z"/></g>
<g><path style="opacity:1" fill="#eae5f3" d="M 1530.5,1113.5 C 1531.5,1145 1531.83,1176.66 1531.5,1208.5C 1547.17,1208.5 1562.83,1208.5 1578.5,1208.5C 1562.68,1209.5 1546.68,1209.83 1530.5,1209.5C 1530.5,1177.5 1530.5,1145.5 1530.5,1113.5 Z"/></g>
<g><path style="opacity:1" fill="#280068" d="M 325.5,1355.5 C 420.327,1515.44 557.327,1621.28 736.5,1673C 881.55,1710.11 1023.88,1701.78 1163.5,1648C 1307.91,1589 1419.24,1492.16 1497.5,1357.5C 1595.89,1415.2 1694.56,1472.54 1793.5,1529.5C 1794.39,1530.32 1794.72,1531.32 1794.5,1532.5C 1779.71,1558.45 1759.38,1578.95 1733.5,1594C 1483.83,1738.17 1233.83,1881.84 983.5,2025C 925.716,2050.3 869.383,2047.3 814.5,2016C 568.997,1874.08 323.33,1732.41 77.5,1591C 53.1169,1575.79 34.1169,1555.62 20.5,1530.5C 121.964,1471.93 223.63,1413.6 325.5,1355.5 Z"/></g>
</svg>
