<?xml version="1.0" encoding="UTF-8"?>
<!DOCTYPE svg PUBLIC "-//W3C//DTD SVG 1.1//EN" "http://www.w3.org/Graphics/SVG/1.1/DTD/svg11.dtd">
<svg xmlns="http://www.w3.org/2000/svg" version="1.1" width="1920px" height="1080px" style="shape-rendering:geometricPrecision; text-rendering:geometricPrecision; image-rendering:optimizeQuality; fill-rule:evenodd; clip-rule:evenodd" xmlns:xlink="http://www.w3.org/1999/xlink">
<g><path style="opacity:1" fill="#f1f1f1" d="M -0.5,-0.5 C 639.5,-0.5 1279.5,-0.5 1919.5,-0.5C 1919.5,359.5 1919.5,719.5 1919.5,1079.5C 1279.5,1079.5 639.5,1079.5 -0.5,1079.5C -0.5,719.5 -0.5,359.5 -0.5,-0.5 Z"/></g>
<g><path style="opacity:1" fill="#feddd5" d="M 588.5,373.5 C 635.332,372.335 682.332,372.168 729.5,373C 731,374.115 732.667,374.948 734.5,375.5C 735.386,376.325 735.719,377.325 735.5,378.5C 730.352,376.603 725.018,375.269 719.5,374.5C 698.177,373.5 676.844,373.167 655.5,373.5C 636.833,373.5 618.167,373.5 599.5,373.5C 595.833,373.5 592.167,373.5 588.5,373.5 Z"/></g>
<g><path style="opacity:1" fill="#ee8a6a" d="M 588.5,373.5 C 592.167,373.5 595.833,373.5 599.5,373.5C 591.312,375.005 583.312,377.339 575.5,380.5C 578.259,376.291 582.259,374.458 587.5,375C 588.056,374.617 588.389,374.117 588.5,373.5 Z"/></g>
<g><path style="opacity:1" fill="#fd3a00" d="M 655.5,374.5 C 655.5,410.5 655.5,446.5 655.5,482.5C 634.167,482.5 612.833,482.5 591.5,482.5C 588.31,481.328 584.977,480.328 581.5,479.5C 580.01,477.72 578.01,477.054 575.5,477.5C 573.192,476.207 570.858,474.874 568.5,473.5C 568.167,472.5 567.5,471.833 566.5,471.5C 565.167,469.5 563.5,467.833 561.5,466.5C 559.952,466.179 559.285,465.179 559.5,463.5C 558.833,461.5 557.5,460.167 555.5,459.5C 554.662,459.158 554.328,458.492 554.5,457.5C 551.582,452.482 549.582,447.148 548.5,441.5C 547.771,436.87 547.437,432.203 547.5,427.5C 549.327,421.514 550.994,415.514 552.5,409.5C 554.935,405.742 557.102,401.742 559,397.5C 560.754,399.25 562.921,399.917 565.5,399.5C 565.018,394.93 566.352,393.93 569.5,396.5C 572.085,395.927 573.085,394.261 572.5,391.5C 568.19,393.224 567.524,392.224 570.5,388.5C 571.192,389.025 571.692,389.692 572,390.5C 572.497,388.19 572.663,385.857 572.5,383.5C 576.93,383.017 581.097,381.684 585,379.5C 586.879,381.013 589.046,381.679 591.5,381.5C 591.5,380.5 591.5,379.5 591.5,378.5C 597.077,378.475 602.411,377.308 607.5,375C 623.497,374.5 639.497,374.333 655.5,374.5 Z"/></g>
<g><path style="opacity:1" fill="#fd6659" d="M 655.5,374.5 C 655.5,374.167 655.5,373.833 655.5,373.5C 676.844,373.167 698.177,373.5 719.5,374.5C 725.018,375.269 730.352,376.603 735.5,378.5C 735.5,378.833 735.5,379.167 735.5,379.5C 737.825,381.436 740.492,382.77 743.5,383.5C 745.169,386.51 747.502,388.843 750.5,390.5C 751.386,391.325 751.719,392.325 751.5,393.5C 752.5,393.5 753.5,393.5 754.5,393.5C 755.449,395.777 756.782,397.777 758.5,399.5C 758.517,401.565 758.85,403.565 759.5,405.5C 762.026,413.549 763.693,421.882 764.5,430.5C 763.962,437.186 763.295,443.853 762.5,450.5C 762.167,450.5 761.833,450.5 761.5,450.5C 758.351,451.16 756.851,453.16 757,456.5C 755.649,458.019 754.149,459.352 752.5,460.5C 751.652,462.409 751.318,464.409 751.5,466.5C 751.5,466.833 751.5,467.167 751.5,467.5C 750.448,467.351 749.448,467.517 748.5,468C 746.461,470.374 744.128,472.374 741.5,474C 739.231,474.758 737.064,474.591 735,473.5C 731.618,473.912 729.118,475.579 727.5,478.5C 721.862,479.33 716.196,479.83 710.5,480C 713.695,480.181 716.695,480.681 719.5,481.5C 713.355,482.49 707.022,482.823 700.5,482.5C 690.5,482.5 680.5,482.5 670.5,482.5C 670.705,449.491 670.371,416.491 669.5,383.5C 668.5,383.5 667.5,383.5 666.5,383.5C 665.274,416.522 665.274,449.522 666.5,482.5C 664.857,482.52 663.524,481.853 662.5,480.5C 661.667,448.172 661.167,415.838 661,383.5C 660.5,416.498 660.333,449.498 660.5,482.5C 659.167,482.5 657.833,482.5 656.5,482.5C 657.154,464.209 657.487,445.876 657.5,427.5C 657.5,409.487 656.833,391.82 655.5,374.5 Z"/></g>
<g><path style="opacity:1" fill="#f5b9b4" d="M 735.5,379.5 C 739.39,378.777 742.056,380.11 743.5,383.5C 740.492,382.77 737.825,381.436 735.5,379.5 Z"/></g>
<g><path style="opacity:1" fill="#f95f5f" d="M 700.5,482.5 C 700.5,482.833 700.5,483.167 700.5,483.5C 700.167,483.5 699.833,483.5 699.5,483.5C 684.99,483.171 670.657,483.504 656.5,484.5C 634.833,484.5 613.167,484.5 591.5,484.5C 591.5,484.167 591.5,483.833 591.5,483.5C 591.5,483.167 591.5,482.833 591.5,482.5C 612.833,482.5 634.167,482.5 655.5,482.5C 655.833,482.5 656.167,482.5 656.5,482.5C 657.833,482.5 659.167,482.5 660.5,482.5C 660.333,449.498 660.5,416.498 661,383.5C 661.167,415.838 661.667,448.172 662.5,480.5C 663.524,481.853 664.857,482.52 666.5,482.5C 665.274,449.522 665.274,416.522 666.5,383.5C 667.5,383.5 668.5,383.5 669.5,383.5C 670.371,416.491 670.705,449.491 670.5,482.5C 680.5,482.5 690.5,482.5 700.5,482.5 Z"/></g>
<g><path style="opacity:1" fill="#eb5d34" d="M 571.5,383.5 C 571.489,385.017 570.823,386.184 569.5,387C 566.55,389.639 563.217,391.473 559.5,392.5C 559.5,392.167 559.5,391.833 559.5,391.5C 562.37,390.567 564.704,388.9 566.5,386.5C 567.401,384.273 569.067,383.273 571.5,383.5 Z"/></g>
<g><path style="opacity:1" fill="#f6400d" d="M 599.5,373.5 C 618.167,373.5 636.833,373.5 655.5,373.5C 655.5,373.833 655.5,374.167 655.5,374.5C 639.497,374.333 623.497,374.5 607.5,375C 602.411,377.308 597.077,378.475 591.5,378.5C 591.5,379.5 591.5,380.5 591.5,381.5C 589.046,381.679 586.879,381.013 585,379.5C 581.097,381.684 576.93,383.017 572.5,383.5C 572.663,385.857 572.497,388.19 572,390.5C 571.692,389.692 571.192,389.025 570.5,388.5C 567.524,392.224 568.19,393.224 572.5,391.5C 573.085,394.261 572.085,395.927 569.5,396.5C 566.352,393.93 565.018,394.93 565.5,399.5C 562.921,399.917 560.754,399.25 559,397.5C 557.102,401.742 554.935,405.742 552.5,409.5C 552.92,405.993 553.92,402.659 555.5,399.5C 556.58,397.004 557.914,394.67 559.5,392.5C 563.217,391.473 566.55,389.639 569.5,387C 570.823,386.184 571.489,385.017 571.5,383.5C 572.262,381.738 573.596,380.738 575.5,380.5C 583.312,377.339 591.312,375.005 599.5,373.5 Z"/></g>
<g><path style="opacity:1" fill="#f29993" d="M 743.5,383.5 C 748.468,385.471 752.135,388.804 754.5,393.5C 753.5,393.5 752.5,393.5 751.5,393.5C 751.719,392.325 751.386,391.325 750.5,390.5C 747.502,388.843 745.169,386.51 743.5,383.5 Z"/></g>
<g><path style="opacity:1" fill="#f29978" d="M 566.5,386.5 C 564.704,388.9 562.37,390.567 559.5,391.5C 561.296,389.1 563.63,387.433 566.5,386.5 Z"/></g>
<g><path style="opacity:1" fill="#f5a490" d="M 559.5,391.5 C 559.5,391.833 559.5,392.167 559.5,392.5C 557.914,394.67 556.58,397.004 555.5,399.5C 555.167,399.5 554.833,399.5 554.5,399.5C 555.151,396.197 556.818,393.53 559.5,391.5 Z"/></g>
<g><path style="opacity:1" fill="#ef4920" d="M 655.5,374.5 C 656.833,391.82 657.5,409.487 657.5,427.5C 657.487,445.876 657.154,464.209 656.5,482.5C 656.167,482.5 655.833,482.5 655.5,482.5C 655.5,446.5 655.5,410.5 655.5,374.5 Z"/></g>
<g><path style="opacity:1" fill="#f4958f" d="M 758.5,399.5 C 758.833,399.5 759.167,399.5 759.5,399.5C 761.544,403.858 763.544,408.191 765.5,412.5C 766.776,415.336 767.442,418.336 767.5,421.5C 766.624,421.631 765.957,421.298 765.5,420.5C 764.76,416.065 763.593,411.731 762,407.5C 761.292,406.619 760.458,405.953 759.5,405.5C 758.85,403.565 758.517,401.565 758.5,399.5 Z"/></g>
<g><path style="opacity:1" fill="#fcc3a8" d="M 553.5,399.5 C 551.79,404.895 550.123,410.228 548.5,415.5C 548.167,415.5 547.833,415.5 547.5,415.5C 547.337,413.143 547.503,410.81 548,408.5C 549.373,405.061 551.207,402.061 553.5,399.5 Z"/></g>
<g><path style="opacity:1" fill="#fcc4c2" d="M 759.5,399.5 C 760.929,401.945 762.762,404.278 765,406.5C 765.495,408.473 765.662,410.473 765.5,412.5C 763.544,408.191 761.544,403.858 759.5,399.5 Z"/></g>
<g><path style="opacity:1" fill="#eb5427" d="M 553.5,399.5 C 553.833,399.5 554.167,399.5 554.5,399.5C 554.833,399.5 555.167,399.5 555.5,399.5C 553.92,402.659 552.92,405.993 552.5,409.5C 550.994,415.514 549.327,421.514 547.5,427.5C 547.505,423.466 547.838,419.466 548.5,415.5C 550.123,410.228 551.79,404.895 553.5,399.5 Z"/></g>
<g><path style="opacity:1" fill="#fec1ad" d="M 546.5,415.5 C 546.334,423.507 546.5,431.507 547,439.5C 547.278,440.416 547.778,441.082 548.5,441.5C 548.5,442.833 548.5,444.167 548.5,445.5C 547.207,444.158 546.374,442.491 546,440.5C 545.177,431.99 545.343,423.656 546.5,415.5 Z"/></g>
<g><path style="opacity:1" fill="#f5776f" d="M 759.5,405.5 C 760.458,405.953 761.292,406.619 762,407.5C 763.593,411.731 764.76,416.065 765.5,420.5C 765.957,421.298 766.624,421.631 767.5,421.5C 767.5,426.833 767.5,432.167 767.5,437.5C 766.414,437.62 765.747,438.287 765.5,439.5C 764.731,442.115 764.397,444.781 764.5,447.5C 763.833,448.5 763.167,449.5 762.5,450.5C 763.295,443.853 763.962,437.186 764.5,430.5C 763.693,421.882 762.026,413.549 759.5,405.5 Z"/></g>
<g><path style="opacity:1" fill="#e56e4c" d="M 546.5,415.5 C 546.833,415.5 547.167,415.5 547.5,415.5C 547.833,415.5 548.167,415.5 548.5,415.5C 547.838,419.466 547.505,423.466 547.5,427.5C 547.437,432.203 547.771,436.87 548.5,441.5C 547.778,441.082 547.278,440.416 547,439.5C 546.5,431.507 546.334,423.507 546.5,415.5 Z"/></g>
<g><path style="opacity:1" fill="#f9bbb6" d="M 767.5,437.5 C 767.396,441.207 766.396,444.54 764.5,447.5C 764.397,444.781 764.731,442.115 765.5,439.5C 765.747,438.287 766.414,437.62 767.5,437.5 Z"/></g>
<g><path style="opacity:1" fill="#404040" d="M 930.5,466.5 C 930.167,466.5 929.833,466.5 929.5,466.5C 929.5,460.833 929.5,455.167 929.5,449.5C 904.5,449.5 879.5,449.5 854.5,449.5C 854.5,497.167 854.5,544.833 854.5,592.5C 860.5,592.5 866.5,592.5 872.5,592.5C 866.355,593.49 860.022,593.823 853.5,593.5C 853.5,545.167 853.5,496.833 853.5,448.5C 879.167,448.5 904.833,448.5 930.5,448.5C 930.5,454.5 930.5,460.5 930.5,466.5 Z"/></g>
<g><path style="opacity:1" fill="#020202" d="M 929.5,466.5 C 910.167,466.5 890.833,466.5 871.5,466.5C 871.5,479.833 871.5,493.167 871.5,506.5C 886.5,506.5 901.5,506.5 916.5,506.5C 916.5,512.167 916.5,517.833 916.5,523.5C 901.657,523.171 886.99,523.504 872.5,524.5C 872.5,547.167 872.5,569.833 872.5,592.5C 866.5,592.5 860.5,592.5 854.5,592.5C 854.5,544.833 854.5,497.167 854.5,449.5C 879.5,449.5 904.5,449.5 929.5,449.5C 929.5,455.167 929.5,460.833 929.5,466.5 Z"/></g>
<g><path style="opacity:1" fill="#f49076" d="M 548.5,441.5 C 549.582,447.148 551.582,452.482 554.5,457.5C 551.25,454.216 549.25,450.216 548.5,445.5C 548.5,444.167 548.5,442.833 548.5,441.5 Z"/></g>
<g><path style="opacity:1" fill="#383838" d="M 967.5,454.5 C 963.243,454.748 959.243,455.748 955.5,457.5C 957.759,454.83 960.759,453.497 964.5,453.5C 965.726,453.52 966.726,453.853 967.5,454.5 Z"/></g>
<g><path style="opacity:1" fill="#070707" d="M 967.5,454.5 C 970.79,456.124 973.457,458.457 975.5,461.5C 975.658,464.902 975.324,468.236 974.5,471.5C 972.854,473.812 970.854,475.812 968.5,477.5C 965.098,477.658 961.764,477.324 958.5,476.5C 952.734,472.8 950.901,467.467 953,460.5C 953.377,459.058 954.21,458.058 955.5,457.5C 959.243,455.748 963.243,454.748 967.5,454.5 Z"/></g>
<g><path style="opacity:1" fill="#f17670" d="M 761.5,450.5 C 759.409,455.02 757.075,459.353 754.5,463.5C 754.5,465.5 753.5,466.5 751.5,466.5C 751.318,464.409 751.652,462.409 752.5,460.5C 754.149,459.352 755.649,458.019 757,456.5C 756.851,453.16 758.351,451.16 761.5,450.5 Z"/></g>
<g><path style="opacity:1" fill="#f9865f" d="M 555.5,459.5 C 557.5,460.167 558.833,461.5 559.5,463.5C 556.858,463.512 555.525,462.179 555.5,459.5 Z"/></g>
<g><path style="opacity:1" fill="#f9b0ac" d="M 764.5,447.5 C 764.487,450.69 763.487,453.524 761.5,456C 759.956,457.586 758.789,459.42 758,461.5C 757.184,462.823 756.017,463.489 754.5,463.5C 757.075,459.353 759.409,455.02 761.5,450.5C 761.833,450.5 762.167,450.5 762.5,450.5C 763.167,449.5 763.833,448.5 764.5,447.5 Z"/></g>
<g><path style="opacity:1" fill="#7a7a7a" d="M 975.5,461.5 C 976.638,464.304 976.805,467.304 976,470.5C 975.617,471.056 975.117,471.389 974.5,471.5C 975.324,468.236 975.658,464.902 975.5,461.5 Z"/></g>
<g><path style="opacity:1" fill="#e88f73" d="M 561.5,466.5 C 563.5,467.833 565.167,469.5 566.5,471.5C 563.833,470.833 562.167,469.167 561.5,466.5 Z"/></g>
<g><path style="opacity:1" fill="#717171" d="M 929.5,466.5 C 929.833,466.5 930.167,466.5 930.5,466.5C 911.341,467.497 892.007,467.83 872.5,467.5C 872.5,480.167 872.5,492.833 872.5,505.5C 887.676,505.171 902.676,505.504 917.5,506.5C 917.167,506.5 916.833,506.5 916.5,506.5C 901.5,506.5 886.5,506.5 871.5,506.5C 871.5,493.167 871.5,479.833 871.5,466.5C 890.833,466.5 910.167,466.5 929.5,466.5 Z"/></g>
<g><path style="opacity:1" fill="#f6aa92" d="M 568.5,473.5 C 570.858,474.874 573.192,476.207 575.5,477.5C 572.188,477.851 569.855,476.518 568.5,473.5 Z"/></g>
<g><path style="opacity:1" fill="#f8c9c2" d="M 751.5,468.5 C 747.722,474.64 742.389,478.306 735.5,479.5C 735.5,478.5 735.5,477.5 735.5,476.5C 737.854,476.162 740.187,475.662 742.5,475C 745.397,472.59 748.397,470.423 751.5,468.5 Z"/></g>
<g><path style="opacity:1" fill="#f57568" d="M 751.5,467.5 C 751.5,467.833 751.5,468.167 751.5,468.5C 748.397,470.423 745.397,472.59 742.5,475C 740.187,475.662 737.854,476.162 735.5,476.5C 735.5,477.5 735.5,478.5 735.5,479.5C 733.473,479.338 731.473,479.505 729.5,480C 728.944,480.383 728.611,480.883 728.5,481.5C 725.5,481.5 722.5,481.5 719.5,481.5C 716.695,480.681 713.695,480.181 710.5,480C 716.196,479.83 721.862,479.33 727.5,478.5C 729.118,475.579 731.618,473.912 735,473.5C 737.064,474.591 739.231,474.758 741.5,474C 744.128,472.374 746.461,470.374 748.5,468C 749.448,467.517 750.448,467.351 751.5,467.5 Z"/></g>
<g><path style="opacity:1" fill="#818181" d="M 958.5,476.5 C 961.764,477.324 965.098,477.658 968.5,477.5C 965.696,478.638 962.696,478.805 959.5,478C 958.944,477.617 958.611,477.117 958.5,476.5 Z"/></g>
<g><path style="opacity:1" fill="#f88864" d="M 575.5,477.5 C 578.01,477.054 580.01,477.72 581.5,479.5C 578.918,479.975 576.918,479.308 575.5,477.5 Z"/></g>
<g><path style="opacity:1" fill="#f59e7e" d="M 581.5,479.5 C 584.977,480.328 588.31,481.328 591.5,482.5C 591.5,482.833 591.5,483.167 591.5,483.5C 588.784,483.322 586.117,482.822 583.5,482C 582.244,481.583 581.577,480.75 581.5,479.5 Z"/></g>
<g><path style="opacity:1" fill="#e69590" d="M 719.5,481.5 C 722.5,481.5 725.5,481.5 728.5,481.5C 725.727,482.657 722.727,483.324 719.5,483.5C 713.167,483.5 706.833,483.5 700.5,483.5C 700.5,483.167 700.5,482.833 700.5,482.5C 707.022,482.823 713.355,482.49 719.5,481.5 Z"/></g>
<g><path style="opacity:1" fill="#b776e2" d="M 591.5,484.5 C 613.167,484.5 634.833,484.5 656.5,484.5C 657.496,497.99 657.829,511.656 657.5,525.5C 657.5,526.833 657.5,528.167 657.5,529.5C 657.5,536.833 657.5,544.167 657.5,551.5C 657.829,565.677 657.496,579.677 656.5,593.5C 656.672,592.508 656.338,591.842 655.5,591.5C 655.5,556.167 655.5,520.833 655.5,485.5C 636.83,485.333 618.164,485.5 599.5,486C 596.139,486.337 592.806,486.837 589.5,487.5C 585.378,490.651 580.711,491.984 575.5,491.5C 580.862,489.113 586.195,486.78 591.5,484.5 Z"/></g>
<g><path style="opacity:1" fill="#f7e2e7" d="M 656.5,484.5 C 670.657,483.504 684.99,483.171 699.5,483.5C 697.401,484.612 695.067,485.279 692.5,485.5C 685.468,485.17 678.468,485.503 671.5,486.5C 675.122,487.325 678.789,487.825 682.5,488C 680.909,490.133 678.909,491.799 676.5,493C 671.481,493.411 666.481,493.911 661.5,494.5C 661.5,493.167 661.5,491.833 661.5,490.5C 663.5,490.5 665.5,490.5 667.5,490.5C 667.579,489.07 667.246,487.736 666.5,486.5C 664.257,485.526 661.924,485.192 659.5,485.5C 659.414,489.857 659.08,494.19 658.5,498.5C 660.921,500.623 661.088,502.956 659,505.5C 658.501,510.823 658.334,516.156 658.5,521.5C 658.768,523.099 658.434,524.432 657.5,525.5C 657.829,511.656 657.496,497.99 656.5,484.5 Z"/></g>
<g><path style="opacity:1" fill="#9ecfe1" d="M 699.5,483.5 C 699.833,483.5 700.167,483.5 700.5,483.5C 706.833,483.5 713.167,483.5 719.5,483.5C 719.5,483.833 719.5,484.167 719.5,484.5C 708.634,484.555 697.967,485.888 687.5,488.5C 689.261,487.687 690.928,486.687 692.5,485.5C 695.067,485.279 697.401,484.612 699.5,483.5 Z"/></g>
<g><path style="opacity:1" fill="#05befd" d="M 719.5,484.5 C 721.635,486.369 724.302,487.036 727.5,486.5C 727.5,487.5 727.5,488.5 727.5,489.5C 729.924,489.192 732.257,489.526 734.5,490.5C 737.564,492.699 740.898,494.365 744.5,495.5C 744.419,498.716 743.919,501.716 743,504.5C 744.726,505.576 746.559,505.743 748.5,505C 745.96,502.914 746.127,501.414 749,500.5C 749.945,500.905 750.612,501.572 751,502.5C 751.192,504.577 751.692,506.577 752.5,508.5C 754.003,507.948 755.669,507.948 757.5,508.5C 757.5,509.5 757.5,510.5 757.5,511.5C 756.5,511.5 755.5,511.5 754.5,511.5C 754.5,512.833 754.5,514.167 754.5,515.5C 756.199,515.34 757.866,515.506 759.5,516C 760.607,518.928 762.274,521.428 764.5,523.5C 763.666,526.681 762.666,529.848 761.5,533C 763.935,535.408 765.268,538.408 765.5,542C 764.856,548.321 763.523,554.487 761.5,560.5C 760.372,561.262 759.205,561.929 758,562.5C 757.487,566.214 756.32,569.547 754.5,572.5C 754.5,573.5 754.5,574.5 754.5,575.5C 753.5,575.5 752.5,575.5 751.5,575.5C 751.5,576.5 751.5,577.5 751.5,578.5C 747.888,580.432 743.888,581.432 739.5,581.5C 739.5,580.167 739.5,578.833 739.5,577.5C 740.978,577.762 742.311,577.429 743.5,576.5C 742.667,576.167 741.833,575.833 741,575.5C 736.125,576.821 731.291,577.988 726.5,579C 729.687,581.602 733.354,582.768 737.5,582.5C 737.5,583.833 737.5,585.167 737.5,586.5C 734.393,586.351 731.393,586.851 728.5,588C 727.663,589.011 727.33,590.178 727.5,591.5C 722.404,591.429 717.404,592.095 712.5,593.5C 707.12,592.715 701.787,591.715 696.5,590.5C 695.96,589.252 695.293,588.085 694.5,587C 691.5,586.667 688.5,586.333 685.5,586C 684.003,584.129 682.003,583.129 679.5,583C 674.637,579.629 670.304,575.796 666.5,571.5C 665.076,568.279 663.243,565.279 661,562.5C 660.406,558.414 659.239,554.748 657.5,551.5C 657.5,544.167 657.5,536.833 657.5,529.5C 659.574,527.325 660.907,524.658 661.5,521.5C 662.466,523.396 662.799,525.396 662.5,527.5C 664.924,527.808 667.257,527.474 669.5,526.5C 668.349,525.269 667.183,525.269 666,526.5C 665.362,525.391 664.862,524.225 664.5,523C 665.058,519.486 665.724,515.986 666.5,512.5C 670.426,521.72 671.426,521.553 669.5,512C 670.416,508.568 671.083,505.068 671.5,501.5C 676.011,496.559 681.344,492.559 687.5,489.5C 687.5,489.167 687.5,488.833 687.5,488.5C 697.967,485.888 708.634,484.555 719.5,484.5 Z"/></g>
<g><path style="opacity:1" fill="#64cff0" d="M 719.5,484.5 C 723.247,484.392 726.914,484.892 730.5,486C 735.276,489.08 739.943,492.247 744.5,495.5C 740.898,494.365 737.564,492.699 734.5,490.5C 732.257,489.526 729.924,489.192 727.5,489.5C 727.5,488.5 727.5,487.5 727.5,486.5C 724.302,487.036 721.635,486.369 719.5,484.5 Z"/></g>
<g><path style="opacity:1" fill="#e0c3f8" d="M 591.5,484.5 C 586.195,486.78 580.862,489.113 575.5,491.5C 572.633,491.369 570.967,492.703 570.5,495.5C 570.167,495.5 569.833,495.5 569.5,495.5C 568.833,495.5 568.167,495.5 567.5,495.5C 569.252,493.754 570.585,491.754 571.5,489.5C 577.869,486.83 584.536,485.163 591.5,484.5 Z"/></g>
<g><path style="opacity:1" fill="#c28df2" d="M 575.5,491.5 C 573.858,492.803 572.191,494.136 570.5,495.5C 570.967,492.703 572.633,491.369 575.5,491.5 Z"/></g>
<g><path style="opacity:1" fill="#ad54fd" d="M 655.5,591.5 C 655.5,591.833 655.5,592.167 655.5,592.5C 634.153,592.71 612.82,592.376 591.5,591.5C 590.5,591.5 589.5,591.5 588.5,591.5C 588.64,589.876 587.973,588.71 586.5,588C 581.189,586.307 575.855,584.807 570.5,583.5C 570.5,582.167 570.5,580.833 570.5,579.5C 568.5,579.5 566.5,579.5 564.5,579.5C 564.5,578.167 564.5,576.833 564.5,575.5C 562.833,575.5 561.167,575.5 559.5,575.5C 559.5,574.833 559.5,574.167 559.5,573.5C 557.484,570.122 555.984,566.455 555,562.5C 553.989,561.663 552.822,561.33 551.5,561.5C 551.265,556.124 551.598,550.791 552.5,545.5C 551.831,542.972 550.998,542.972 550,545.5C 549.526,535.959 550.693,526.626 553.5,517.5C 554.15,515.565 554.483,513.565 554.5,511.5C 556.482,509.498 558.148,507.165 559.5,504.5C 559.5,504.167 559.5,503.833 559.5,503.5C 562.269,502.563 564.936,501.396 567.5,500C 568.582,498.67 569.249,497.17 569.5,495.5C 569.833,495.5 570.167,495.5 570.5,495.5C 572.191,494.136 573.858,492.803 575.5,491.5C 580.711,491.984 585.378,490.651 589.5,487.5C 592.806,486.837 596.139,486.337 599.5,486C 618.164,485.5 636.83,485.333 655.5,485.5C 655.5,520.833 655.5,556.167 655.5,591.5 Z"/></g>
<g><path style="opacity:1" fill="#050505" d="M 1064.5,500.5 C 1065.17,501.833 1066.17,502.833 1067.5,503.5C 1068.21,504.404 1069.21,504.737 1070.5,504.5C 1070.5,502.167 1070.5,499.833 1070.5,497.5C 1076.17,497.5 1081.83,497.5 1087.5,497.5C 1087.5,529.5 1087.5,561.5 1087.5,593.5C 1085.04,604.75 1079.71,614.417 1071.5,622.5C 1066.34,625.879 1061.01,628.879 1055.5,631.5C 1041.38,635.456 1028.05,633.789 1015.5,626.5C 1014.41,625.609 1014.41,624.609 1015.5,623.5C 1018.81,619.676 1021.48,615.509 1023.5,611C 1027.45,613.029 1031.78,614.195 1036.5,614.5C 1038.3,615.162 1040.3,615.495 1042.5,615.5C 1045.81,615.657 1048.81,614.991 1051.5,613.5C 1058.5,609.833 1063.83,604.5 1067.5,597.5C 1068.74,595.786 1069.41,593.786 1069.5,591.5C 1070.49,585.69 1070.82,579.69 1070.5,573.5C 1069.21,573.263 1068.21,573.596 1067.5,574.5C 1067.5,574.833 1067.5,575.167 1067.5,575.5C 1050.04,587.658 1032.7,587.491 1015.5,575C 1011.53,570.843 1008.19,566.343 1005.5,561.5C 1004.87,558.603 1003.87,555.936 1002.5,553.5C 1001.55,552.081 1001.22,550.415 1001.5,548.5C 1001.3,540.466 1001.64,532.466 1002.5,524.5C 1005.31,512.891 1011.98,504.224 1022.5,498.5C 1026.39,497.538 1030.06,496.204 1033.5,494.5C 1044.6,492.231 1054.93,494.231 1064.5,500.5 Z"/></g>
<g><path style="opacity:1" fill="#040404" d="M 1199.5,498.5 C 1202.4,497.871 1205.06,496.871 1207.5,495.5C 1207.92,494.778 1208.58,494.278 1209.5,494C 1233.13,491.806 1247.13,502.306 1251.5,525.5C 1251.5,547.833 1251.5,570.167 1251.5,592.5C 1245.5,592.5 1239.5,592.5 1233.5,592.5C 1233.67,569.831 1233.5,547.164 1233,524.5C 1232.62,523.944 1232.12,523.611 1231.5,523.5C 1228.16,515.398 1221.99,511.398 1213,511.5C 1205.48,511.67 1199.98,515.003 1196.5,521.5C 1195.21,522.058 1194.38,523.058 1194,524.5C 1193.5,547.164 1193.33,569.831 1193.5,592.5C 1187.5,592.5 1181.5,592.5 1175.5,592.5C 1175.67,570.497 1175.5,548.497 1175,526.5C 1168.35,512.173 1157.85,508.339 1143.5,515C 1140.88,517.106 1138.88,519.606 1137.5,522.5C 1135.93,523.681 1135.1,525.347 1135,527.5C 1134.5,549.164 1134.33,570.831 1134.5,592.5C 1128.83,592.5 1123.17,592.5 1117.5,592.5C 1117.5,560.5 1117.5,528.5 1117.5,496.5C 1123.17,496.5 1128.83,496.5 1134.5,496.5C 1135.31,498.631 1135.81,500.964 1136,503.5C 1136.38,502.944 1136.88,502.611 1137.5,502.5C 1140.09,501.581 1142.09,499.914 1143.5,497.5C 1156.51,491.251 1168.84,492.418 1180.5,501C 1183.02,503.522 1185.52,506.022 1188,508.5C 1191.39,504.608 1195.22,501.274 1199.5,498.5 Z"/></g>
<g><path style="opacity:1" fill="#060606" d="M 1324.5,493.5 C 1328.49,495.606 1332.82,496.939 1337.5,497.5C 1342.09,500.077 1346.42,503.077 1350.5,506.5C 1351.48,503.375 1351.81,500.042 1351.5,496.5C 1357.5,496.5 1363.5,496.5 1369.5,496.5C 1369.5,528.833 1369.5,561.167 1369.5,593.5C 1363.31,593.823 1357.31,593.49 1351.5,592.5C 1351.82,589.102 1351.49,585.768 1350.5,582.5C 1349.89,582.624 1349.56,582.957 1349.5,583.5C 1345.17,586.999 1340.51,589.999 1335.5,592.5C 1327.71,594.921 1319.71,595.921 1311.5,595.5C 1293.4,592.067 1281.07,581.733 1274.5,564.5C 1274.28,560.838 1273.28,557.505 1271.5,554.5C 1271.2,546.747 1271.53,539.08 1272.5,531.5C 1274.07,529.898 1274.74,527.898 1274.5,525.5C 1278.22,513.113 1285.89,504.113 1297.5,498.5C 1299.15,498.34 1300.49,497.674 1301.5,496.5C 1308.84,494.031 1316.5,493.031 1324.5,493.5 Z"/></g>
<g><path style="opacity:1" fill="#535353" d="M 1324.5,493.5 C 1329.18,494.08 1333.51,495.413 1337.5,497.5C 1332.82,496.939 1328.49,495.606 1324.5,493.5 Z"/></g>
<g><path style="opacity:1" fill="#4f4f4f" d="M 1033.5,494.5 C 1030.06,496.204 1026.39,497.538 1022.5,498.5C 1025.63,496.01 1029.29,494.677 1033.5,494.5 Z"/></g>
<g><path style="opacity:1" fill="#848484" d="M 1087.5,593.5 C 1087.5,561.5 1087.5,529.5 1087.5,497.5C 1081.69,496.51 1075.69,496.177 1069.5,496.5C 1070.01,499.388 1069.34,501.721 1067.5,503.5C 1066.17,502.833 1065.17,501.833 1064.5,500.5C 1066.02,500.511 1067.18,501.177 1068,502.5C 1068.5,500.19 1068.66,497.857 1068.5,495.5C 1075.17,495.5 1081.83,495.5 1088.5,495.5C 1088.83,528.338 1088.5,561.004 1087.5,593.5 Z"/></g>
<g><path style="opacity:1" fill="#767676" d="M 1369.5,496.5 C 1363.5,496.5 1357.5,496.5 1351.5,496.5C 1351.81,500.042 1351.48,503.375 1350.5,506.5C 1350.5,502.833 1350.5,499.167 1350.5,495.5C 1357.02,495.177 1363.36,495.51 1369.5,496.5 Z"/></g>
<g><path style="opacity:1" fill="#363636" d="M 1087.5,497.5 C 1081.83,497.5 1076.17,497.5 1070.5,497.5C 1070.5,499.833 1070.5,502.167 1070.5,504.5C 1069.21,504.737 1068.21,504.404 1067.5,503.5C 1069.34,501.721 1070.01,499.388 1069.5,496.5C 1075.69,496.177 1081.69,496.51 1087.5,497.5 Z"/></g>
<g><path style="opacity:1" fill="#f0f4ed" d="M 692.5,485.5 C 690.928,486.687 689.261,487.687 687.5,488.5C 687.5,488.833 687.5,489.167 687.5,489.5C 683.357,490.238 679.69,492.071 676.5,495C 673.881,495.151 671.547,495.985 669.5,497.5C 668.065,495.599 666.398,495.266 664.5,496.5C 667.295,499.682 667.129,502.682 664,505.5C 662.798,503.323 662.298,500.989 662.5,498.5C 661.167,498.5 659.833,498.5 658.5,498.5C 659.08,494.19 659.414,489.857 659.5,485.5C 661.924,485.192 664.257,485.526 666.5,486.5C 667.246,487.736 667.579,489.07 667.5,490.5C 665.5,490.5 663.5,490.5 661.5,490.5C 661.5,491.833 661.5,493.167 661.5,494.5C 666.481,493.911 671.481,493.411 676.5,493C 678.909,491.799 680.909,490.133 682.5,488C 678.789,487.825 675.122,487.325 671.5,486.5C 678.468,485.503 685.468,485.17 692.5,485.5 Z"/></g>
<g><path style="opacity:1" fill="#5e5e5e" d="M 1207.5,495.5 C 1205.06,496.871 1202.4,497.871 1199.5,498.5C 1201.62,496.345 1204.28,495.345 1207.5,495.5 Z"/></g>
<g><path style="opacity:1" fill="#676767" d="M 1301.5,496.5 C 1300.49,497.674 1299.15,498.34 1297.5,498.5C 1298.29,496.896 1299.62,496.229 1301.5,496.5 Z"/></g>
<g><path style="opacity:1" fill="#b677ee" d="M 567.5,495.5 C 568.167,495.5 568.833,495.5 569.5,495.5C 569.249,497.17 568.582,498.67 567.5,500C 564.936,501.396 562.269,502.563 559.5,503.5C 559.539,502.417 559.873,501.417 560.5,500.5C 562.642,498.523 564.976,496.856 567.5,495.5 Z"/></g>
<g><path style="opacity:1" fill="#33c3f5" d="M 744.5,495.5 C 749.251,498.081 753.251,501.581 756.5,506C 757.448,506.483 758.448,506.649 759.5,506.5C 759.98,509.443 760.98,512.11 762.5,514.5C 763.578,517.402 764.244,520.402 764.5,523.5C 762.274,521.428 760.607,518.928 759.5,516C 757.866,515.506 756.199,515.34 754.5,515.5C 754.5,514.167 754.5,512.833 754.5,511.5C 755.5,511.5 756.5,511.5 757.5,511.5C 757.5,510.5 757.5,509.5 757.5,508.5C 755.669,507.948 754.003,507.948 752.5,508.5C 751.692,506.577 751.192,504.577 751,502.5C 750.612,501.572 749.945,500.905 749,500.5C 746.127,501.414 745.96,502.914 748.5,505C 746.559,505.743 744.726,505.576 743,504.5C 743.919,501.716 744.419,498.716 744.5,495.5 Z"/></g>
<g><path style="opacity:1" fill="#585858" d="M 954.5,495.5 C 960.833,495.5 967.167,495.5 973.5,495.5C 973.5,528.167 973.5,560.833 973.5,593.5C 967.167,593.5 960.833,593.5 954.5,593.5C 954.5,560.833 954.5,528.167 954.5,495.5 Z"/></g>
<g><path style="opacity:1" fill="#010101" d="M 955.5,496.5 C 961.167,496.5 966.833,496.5 972.5,496.5C 972.5,528.5 972.5,560.5 972.5,592.5C 966.833,592.5 961.167,592.5 955.5,592.5C 955.5,560.5 955.5,528.5 955.5,496.5 Z"/></g>
<g><path style="opacity:1" fill="#474747" d="M 1143.5,497.5 C 1142.09,499.914 1140.09,501.581 1137.5,502.5C 1138.91,500.086 1140.91,498.419 1143.5,497.5 Z"/></g>
<g><path style="opacity:1" fill="#f3e0fb" d="M 571.5,489.5 C 570.585,491.754 569.252,493.754 567.5,495.5C 564.976,496.856 562.642,498.523 560.5,500.5C 559.873,501.417 559.539,502.417 559.5,503.5C 559.5,503.833 559.5,504.167 559.5,504.5C 556.695,505.979 555.028,508.312 554.5,511.5C 552.567,512.642 551.067,514.308 550,516.5C 546.843,527.258 545.676,538.258 546.5,549.5C 547.576,552.734 548.243,556.068 548.5,559.5C 546.871,557.142 545.705,554.476 545,551.5C 543.922,540.347 544.589,529.347 547,518.5C 549.962,513.333 552.629,507.999 555,502.5C 556.413,500.586 558.247,499.253 560.5,498.5C 561.167,497.167 561.833,495.833 562.5,494.5C 565.653,493.014 568.653,491.347 571.5,489.5 Z"/></g>
<g><path style="opacity:1" fill="#e6f1f8" d="M 687.5,489.5 C 681.344,492.559 676.011,496.559 671.5,501.5C 669.25,503.244 667.083,505.244 665,507.5C 663.066,512.364 660.899,517.03 658.5,521.5C 658.334,516.156 658.501,510.823 659,505.5C 661.088,502.956 660.921,500.623 658.5,498.5C 659.833,498.5 661.167,498.5 662.5,498.5C 662.298,500.989 662.798,503.323 664,505.5C 667.129,502.682 667.295,499.682 664.5,496.5C 666.398,495.266 668.065,495.599 669.5,497.5C 671.547,495.985 673.881,495.151 676.5,495C 679.69,492.071 683.357,490.238 687.5,489.5 Z"/></g>
<g><path style="opacity:1" fill="#bb83ea" d="M 559.5,504.5 C 558.148,507.165 556.482,509.498 554.5,511.5C 555.028,508.312 556.695,505.979 559.5,504.5 Z"/></g>
<g><path style="opacity:1" fill="#41c5f4" d="M 671.5,501.5 C 671.083,505.068 670.416,508.568 669.5,512C 671.426,521.553 670.426,521.72 666.5,512.5C 665.724,515.986 665.058,519.486 664.5,523C 664.862,524.225 665.362,525.391 666,526.5C 667.183,525.269 668.349,525.269 669.5,526.5C 667.257,527.474 664.924,527.808 662.5,527.5C 662.799,525.396 662.466,523.396 661.5,521.5C 660.907,524.658 659.574,527.325 657.5,529.5C 657.5,528.167 657.5,526.833 657.5,525.5C 658.434,524.432 658.768,523.099 658.5,521.5C 660.899,517.03 663.066,512.364 665,507.5C 667.083,505.244 669.25,503.244 671.5,501.5 Z"/></g>
<g><path style="opacity:1" fill="#ededed" d="M 1065.5,524.5 C 1065.43,526.027 1066.09,527.027 1067.5,527.5C 1067.5,527.833 1067.5,528.167 1067.5,528.5C 1068.83,535.5 1068.83,542.5 1067.5,549.5C 1062.28,561.869 1052.95,567.369 1039.5,566C 1032.63,564.74 1027.3,561.24 1023.5,555.5C 1023.03,553.421 1022.36,551.421 1021.5,549.5C 1020.03,544.28 1019.36,538.946 1019.5,533.5C 1023.5,516.494 1034.16,509.494 1051.5,512.5C 1057.75,514.755 1062.42,518.755 1065.5,524.5 Z"/></g>
<g><path style="opacity:1" fill="#eeeeee" d="M 1313.5,511.5 C 1331.95,510.132 1344.12,518.132 1350,535.5C 1353.37,555.256 1345.87,569.09 1327.5,577C 1307.74,579.358 1295.24,570.858 1290,551.5C 1287.35,531.767 1295.19,518.434 1313.5,511.5 Z"/></g>
<g><path style="opacity:1" fill="#525252" d="M 916.5,506.5 C 916.833,506.5 917.167,506.5 917.5,506.5C 917.5,512.5 917.5,518.5 917.5,524.5C 902.5,524.5 887.5,524.5 872.5,524.5C 886.99,523.504 901.657,523.171 916.5,523.5C 916.5,517.833 916.5,512.167 916.5,506.5 Z"/></g>
<g><path style="opacity:1" fill="#b1edfc" d="M 762.5,514.5 C 763.458,514.953 764.292,515.619 765,516.5C 765.409,520.297 766.242,523.964 767.5,527.5C 766.022,526.552 765.022,525.219 764.5,523.5C 764.244,520.402 763.578,517.402 762.5,514.5 Z"/></g>
<g><path style="opacity:1" fill="#6f6f6f" d="M 1065.5,524.5 C 1066.91,524.973 1067.57,525.973 1067.5,527.5C 1066.09,527.027 1065.43,526.027 1065.5,524.5 Z"/></g>
<g><path style="opacity:1" fill="#bd85ed" d="M 554.5,511.5 C 554.483,513.565 554.15,515.565 553.5,517.5C 550.953,520.259 549.453,523.592 549,527.5C 547.753,534.779 547.253,542.112 547.5,549.5C 547.167,549.5 546.833,549.5 546.5,549.5C 545.676,538.258 546.843,527.258 550,516.5C 551.067,514.308 552.567,512.642 554.5,511.5 Z"/></g>
<g><path style="opacity:1" fill="#555555" d="M 1274.5,525.5 C 1274.74,527.898 1274.07,529.898 1272.5,531.5C 1272.26,529.102 1272.93,527.102 1274.5,525.5 Z"/></g>
<g><path style="opacity:1" fill="#5f5f5f" d="M 1134.5,496.5 C 1128.83,496.5 1123.17,496.5 1117.5,496.5C 1117.5,528.5 1117.5,560.5 1117.5,592.5C 1123.17,592.5 1128.83,592.5 1134.5,592.5C 1134.33,570.831 1134.5,549.164 1135,527.5C 1135.1,525.347 1135.93,523.681 1137.5,522.5C 1136.94,524.801 1136.44,527.134 1136,529.5C 1135.5,550.831 1135.33,572.164 1135.5,593.5C 1129.17,593.5 1122.83,593.5 1116.5,593.5C 1116.5,560.833 1116.5,528.167 1116.5,495.5C 1122.69,495.177 1128.69,495.51 1134.5,496.5 Z"/></g>
<g><path style="opacity:1" fill="#9d9d9d" d="M 1196.5,521.5 C 1195.9,524.127 1195.4,526.793 1195,529.5C 1194.83,550.671 1194.33,571.671 1193.5,592.5C 1193.33,569.831 1193.5,547.164 1194,524.5C 1194.38,523.058 1195.21,522.058 1196.5,521.5 Z"/></g>
<g><path style="opacity:1" fill="#959595" d="M 1231.5,523.5 C 1232.12,523.611 1232.62,523.944 1233,524.5C 1233.5,547.164 1233.67,569.831 1233.5,592.5C 1239.5,592.5 1245.5,592.5 1251.5,592.5C 1251.5,570.167 1251.5,547.833 1251.5,525.5C 1252.5,547.994 1252.83,570.661 1252.5,593.5C 1245.83,593.5 1239.17,593.5 1232.5,593.5C 1232.81,570.122 1232.48,546.788 1231.5,523.5 Z"/></g>
<g><path style="opacity:1" fill="#8f8f8f" d="M 1067.5,528.5 C 1068.22,528.918 1068.72,529.584 1069,530.5C 1069.17,533.167 1069.33,535.833 1069.5,538.5C 1069.71,542.469 1069.04,546.135 1067.5,549.5C 1068.83,542.5 1068.83,535.5 1067.5,528.5 Z"/></g>
<g><path style="opacity:1" fill="#494949" d="M 1002.5,524.5 C 1001.64,532.466 1001.3,540.466 1001.5,548.5C 1000.34,541.345 1000.18,534.012 1001,526.5C 1001.28,525.584 1001.78,524.918 1002.5,524.5 Z"/></g>
<g><path style="opacity:1" fill="#acacac" d="M 1019.5,533.5 C 1019.36,538.946 1020.03,544.28 1021.5,549.5C 1021.17,549.5 1020.83,549.5 1020.5,549.5C 1018.56,544.118 1018.22,538.784 1019.5,533.5 Z"/></g>
<g><path style="opacity:1" fill="#ad5df4" d="M 553.5,517.5 C 550.693,526.626 549.526,535.959 550,545.5C 550.998,542.972 551.831,542.972 552.5,545.5C 551.598,550.791 551.265,556.124 551.5,561.5C 552.822,561.33 553.989,561.663 555,562.5C 555.984,566.455 557.484,570.122 559.5,573.5C 557.833,572.167 556.167,570.833 554.5,569.5C 551.623,563.019 549.289,556.352 547.5,549.5C 547.253,542.112 547.753,534.779 549,527.5C 549.453,523.592 550.953,520.259 553.5,517.5 Z"/></g>
<g><path style="opacity:1" fill="#3ec5f3" d="M 764.5,523.5 C 765.022,525.219 766.022,526.552 767.5,527.5C 767.5,535.5 767.5,543.5 767.5,551.5C 766.504,551.414 765.671,551.748 765,552.5C 764.41,560.821 760.91,567.488 754.5,572.5C 756.32,569.547 757.487,566.214 758,562.5C 759.205,561.929 760.372,561.262 761.5,560.5C 763.523,554.487 764.856,548.321 765.5,542C 765.268,538.408 763.935,535.408 761.5,533C 762.666,529.848 763.666,526.681 764.5,523.5 Z"/></g>
<g><path style="opacity:1" fill="#4c4c4c" d="M 1020.5,549.5 C 1020.83,549.5 1021.17,549.5 1021.5,549.5C 1022.36,551.421 1023.03,553.421 1023.5,555.5C 1021.75,553.967 1020.75,551.967 1020.5,549.5 Z"/></g>
<g><path style="opacity:1" fill="#878787" d="M 1271.5,554.5 C 1273.28,557.505 1274.28,560.838 1274.5,564.5C 1272.59,561.548 1271.59,558.214 1271.5,554.5 Z"/></g>
<g><path style="opacity:1" fill="#d4a7f7" d="M 546.5,549.5 C 546.833,549.5 547.167,549.5 547.5,549.5C 549.289,556.352 551.623,563.019 554.5,569.5C 552.06,566.402 550.06,563.068 548.5,559.5C 548.243,556.068 547.576,552.734 546.5,549.5 Z"/></g>
<g><path style="opacity:1" fill="#9b9b9b" d="M 1002.5,553.5 C 1003.87,555.936 1004.87,558.603 1005.5,561.5C 1003.35,559.383 1002.35,556.716 1002.5,553.5 Z"/></g>
<g><path style="opacity:1" fill="#caeef7" d="M 767.5,551.5 C 767.692,561.141 764.025,568.974 756.5,575C 757.517,576.049 757.684,577.216 757,578.5C 754.97,580.737 752.47,582.237 749.5,583C 748.164,586.832 745.497,588.332 741.5,587.5C 742.167,586.833 742.833,586.167 743.5,585.5C 746.378,583.411 749.045,581.077 751.5,578.5C 751.5,577.5 751.5,576.5 751.5,575.5C 752.5,575.5 753.5,575.5 754.5,575.5C 754.5,574.5 754.5,573.5 754.5,572.5C 760.91,567.488 764.41,560.821 765,552.5C 765.671,551.748 766.504,551.414 767.5,551.5 Z"/></g>
<g><path style="opacity:1" fill="#dbaefc" d="M 554.5,569.5 C 556.167,570.833 557.833,572.167 559.5,573.5C 559.5,574.167 559.5,574.833 559.5,575.5C 557.14,574.135 555.473,572.135 554.5,569.5 Z"/></g>
<g><path style="opacity:1" fill="#1cc2f5" d="M 751.5,578.5 C 749.045,581.077 746.378,583.411 743.5,585.5C 737.711,586.601 732.378,588.601 727.5,591.5C 727.33,590.178 727.663,589.011 728.5,588C 731.393,586.851 734.393,586.351 737.5,586.5C 737.5,585.167 737.5,583.833 737.5,582.5C 733.354,582.768 729.687,581.602 726.5,579C 731.291,577.988 736.125,576.821 741,575.5C 741.833,575.833 742.667,576.167 743.5,576.5C 742.311,577.429 740.978,577.762 739.5,577.5C 739.5,578.833 739.5,580.167 739.5,581.5C 743.888,581.432 747.888,580.432 751.5,578.5 Z"/></g>
<g><path style="opacity:1" fill="#9f9f9f" d="M 1067.5,575.5 C 1067.5,575.167 1067.5,574.833 1067.5,574.5C 1069.45,579.735 1070.12,585.402 1069.5,591.5C 1069.41,593.786 1068.74,595.786 1067.5,597.5C 1068.7,590.018 1068.7,582.684 1067.5,575.5 Z"/></g>
<g><path style="opacity:1" fill="#3c3c3c" d="M 1067.5,574.5 C 1068.21,573.596 1069.21,573.263 1070.5,573.5C 1070.82,579.69 1070.49,585.69 1069.5,591.5C 1070.12,585.402 1069.45,579.735 1067.5,574.5 Z"/></g>
<g><path style="opacity:1" fill="#5ecbee" d="M 666.5,571.5 C 670.304,575.796 674.637,579.629 679.5,583C 682.003,583.129 684.003,584.129 685.5,586C 688.5,586.333 691.5,586.667 694.5,587C 695.293,588.085 695.96,589.252 696.5,590.5C 701.787,591.715 707.12,592.715 712.5,593.5C 717.404,592.095 722.404,591.429 727.5,591.5C 732.378,588.601 737.711,586.601 743.5,585.5C 742.833,586.167 742.167,586.833 741.5,587.5C 739.565,588.15 737.565,588.483 735.5,588.5C 735.5,589.5 735.5,590.5 735.5,591.5C 731.515,592.488 727.515,593.488 723.5,594.5C 715.05,594.902 706.717,594.235 698.5,592.5C 692.56,590.51 686.56,588.51 680.5,586.5C 678.419,583.252 675.586,580.919 672,579.5C 669.91,576.978 668.076,574.312 666.5,571.5 Z"/></g>
<g><path style="opacity:1" fill="#ae63f2" d="M 559.5,575.5 C 561.167,575.5 562.833,575.5 564.5,575.5C 564.5,576.833 564.5,578.167 564.5,579.5C 566.5,579.5 568.5,579.5 570.5,579.5C 570.5,580.833 570.5,582.167 570.5,583.5C 575.855,584.807 581.189,586.307 586.5,588C 587.973,588.71 588.64,589.876 588.5,591.5C 587.5,591.5 586.5,591.5 585.5,591.5C 584.833,591.5 584.167,591.5 583.5,591.5C 583.047,590.542 582.381,589.708 581.5,589C 578.454,588.261 575.454,587.428 572.5,586.5C 571.391,585.71 570.058,585.21 568.5,585C 565.466,581.827 562.466,578.66 559.5,575.5 Z"/></g>
<g><path style="opacity:1" fill="#767676" d="M 1349.5,583.5 C 1349.56,582.957 1349.89,582.624 1350.5,582.5C 1351.49,585.768 1351.82,589.102 1351.5,592.5C 1350.83,589.5 1350.17,586.5 1349.5,583.5 Z"/></g>
<g><path style="opacity:1" fill="#d0a5f3" d="M 572.5,586.5 C 575.454,587.428 578.454,588.261 581.5,589C 582.381,589.708 583.047,590.542 583.5,591.5C 578.978,591.47 575.311,589.803 572.5,586.5 Z"/></g>
<g><path style="opacity:1" fill="#9d79e4" d="M 585.5,591.5 C 586.5,591.5 587.5,591.5 588.5,591.5C 589.5,591.5 590.5,591.5 591.5,591.5C 593.969,592.317 596.635,592.817 599.5,593C 618.164,593.5 636.83,593.667 655.5,593.5C 634.34,594.497 613.007,594.831 591.5,594.5C 589.5,593.5 587.5,592.5 585.5,591.5 Z"/></g>
<g><path style="opacity:1" fill="#9f5df3" d="M 591.5,591.5 C 612.82,592.376 634.153,592.71 655.5,592.5C 655.5,592.833 655.5,593.167 655.5,593.5C 636.83,593.667 618.164,593.5 599.5,593C 596.635,592.817 593.969,592.317 591.5,591.5 Z"/></g>
<g><path style="opacity:1" fill="#acacac" d="M 1335.5,592.5 C 1335.38,593.586 1334.71,594.253 1333.5,594.5C 1326.1,596.59 1318.76,596.924 1311.5,595.5C 1319.71,595.921 1327.71,594.921 1335.5,592.5 Z"/></g>
<g><path style="opacity:1" fill="#569db7" d="M 655.5,591.5 C 656.338,591.842 656.672,592.508 656.5,593.5C 656.5,594.167 656.5,594.833 656.5,595.5C 633.5,595.5 610.5,595.5 587.5,595.5C 588.568,594.566 589.901,594.232 591.5,594.5C 613.007,594.831 634.34,594.497 655.5,593.5C 655.5,593.167 655.5,592.833 655.5,592.5C 655.5,592.167 655.5,591.833 655.5,591.5 Z"/></g>
<g><path style="opacity:1" fill="#a3e8fb" d="M 698.5,592.5 C 706.717,594.235 715.05,594.902 723.5,594.5C 716.011,595.656 708.345,595.822 700.5,595C 699.244,594.583 698.577,593.75 698.5,592.5 Z"/></g>
<g><path style="opacity:1" fill="#48cd9c" d="M 587.5,595.5 C 610.5,595.5 633.5,595.5 656.5,595.5C 657.143,605.789 657.477,616.122 657.5,626.5C 657.499,636.524 656.832,646.191 655.5,655.5C 655.5,635.833 655.5,616.167 655.5,596.5C 639.5,596.5 623.5,596.5 607.5,596.5C 600.132,596.317 592.799,596.65 585.5,597.5C 585.833,596.5 586.5,595.833 587.5,595.5 Z"/></g>
<g><path style="opacity:1" fill="#02d27c" d="M 607.5,596.5 C 623.5,596.5 639.5,596.5 655.5,596.5C 655.5,616.167 655.5,635.833 655.5,655.5C 654.5,655.5 653.5,655.5 652.5,655.5C 651.765,661.911 650.598,668.244 649,674.5C 647.414,677.919 645.248,680.919 642.5,683.5C 641.571,684.689 641.238,686.022 641.5,687.5C 637.495,691.501 633.161,695.168 628.5,698.5C 627.833,698.5 627.167,698.5 626.5,698.5C 622.074,698.927 617.74,699.761 613.5,701C 614.167,701.333 614.833,701.667 615.5,702C 607.651,704.158 599.651,704.991 591.5,704.5C 591.5,704.167 591.5,703.833 591.5,703.5C 592.808,702.768 594.142,701.934 595.5,701C 590.068,701.227 585.235,699.727 581,696.5C 580.383,695.551 580.549,694.718 581.5,694C 578.93,693.277 576.597,692.11 574.5,690.5C 571.175,694.571 568.509,694.071 566.5,689C 564.975,687.991 563.308,687.491 561.5,687.5C 561.36,685.876 562.027,684.71 563.5,684C 561.559,682.097 559.226,681.264 556.5,681.5C 556.5,680.833 556.5,680.167 556.5,679.5C 549.557,664.907 547.724,649.574 551,633.5C 553.708,629.985 555.374,625.985 556,621.5C 560.57,616.923 565.404,612.756 570.5,609C 571.87,607.559 572.87,605.892 573.5,604C 575.5,603.667 577.5,603.333 579.5,603C 583.636,598.955 588.47,597.788 594,599.5C 598.555,598.132 603.055,597.132 607.5,596.5 Z"/></g>
<g><path style="opacity:1" fill="#d1f5e5" d="M 577.5,599.5 C 575.852,600.927 573.852,601.76 571.5,602C 567.584,605.761 563.584,609.261 559.5,612.5C 561.734,610.379 563.234,607.712 564,604.5C 565.356,603.62 566.856,603.286 568.5,603.5C 568.5,602.167 568.5,600.833 568.5,599.5C 571.5,599.5 574.5,599.5 577.5,599.5 Z"/></g>
<g><path style="opacity:1" fill="#3ad08f" d="M 607.5,596.5 C 603.055,597.132 598.555,598.132 594,599.5C 588.47,597.788 583.636,598.955 579.5,603C 577.5,603.333 575.5,603.667 573.5,604C 572.87,605.892 571.87,607.559 570.5,609C 565.404,612.756 560.57,616.923 556,621.5C 555.374,625.985 553.708,629.985 551,633.5C 547.724,649.574 549.557,664.907 556.5,679.5C 554.323,676.975 552.323,674.308 550.5,671.5C 549.524,667.798 548.357,664.132 547,660.5C 546.5,652.507 546.334,644.507 546.5,636.5C 548.351,632.098 550.351,627.765 552.5,623.5C 554.359,619.619 556.692,615.952 559.5,612.5C 563.584,609.261 567.584,605.761 571.5,602C 573.852,601.76 575.852,600.927 577.5,599.5C 580.004,598.361 582.67,597.694 585.5,597.5C 592.799,596.65 600.132,596.317 607.5,596.5 Z"/></g>
<g><path style="opacity:1" fill="#878787" d="M 1051.5,613.5 C 1048.81,614.991 1045.81,615.657 1042.5,615.5C 1040.3,615.495 1038.3,615.162 1036.5,614.5C 1041.54,614.587 1046.54,614.254 1051.5,613.5 Z"/></g>
<g><path style="opacity:1" fill="#baf3da" d="M 559.5,612.5 C 556.692,615.952 554.359,619.619 552.5,623.5C 552.789,618.542 555.122,614.876 559.5,612.5 Z"/></g>
<g><path style="opacity:1" fill="#afafaf" d="M 1071.5,622.5 C 1067.45,627.53 1062.12,630.53 1055.5,631.5C 1061.01,628.879 1066.34,625.879 1071.5,622.5 Z"/></g>
<g><path style="opacity:1" fill="#a4f4d2" d="M 546.5,636.5 C 546.334,644.507 546.5,652.507 547,660.5C 548.357,664.132 549.524,667.798 550.5,671.5C 549.503,671.53 548.836,671.03 548.5,670C 545.397,658.875 544.73,647.708 546.5,636.5 Z"/></g>
<g><path style="opacity:1" fill="#41d194" d="M 655.5,655.5 C 655.476,660.923 654.81,666.257 653.5,671.5C 649.656,676.522 646.323,681.855 643.5,687.5C 642.833,687.5 642.167,687.5 641.5,687.5C 641.238,686.022 641.571,684.689 642.5,683.5C 645.248,680.919 647.414,677.919 649,674.5C 650.598,668.244 651.765,661.911 652.5,655.5C 653.5,655.5 654.5,655.5 655.5,655.5 Z"/></g>
<g><path style="opacity:1" fill="#8ae6be" d="M 550.5,671.5 C 552.323,674.308 554.323,676.975 556.5,679.5C 556.5,680.167 556.5,680.833 556.5,681.5C 557.11,682.391 557.443,683.391 557.5,684.5C 555.406,682.441 553.572,680.107 552,677.5C 550.872,675.655 550.372,673.655 550.5,671.5 Z"/></g>
<g><path style="opacity:1" fill="#acedd0" d="M 653.5,671.5 C 651.628,675.927 649.462,680.261 647,684.5C 645.961,685.71 644.794,686.71 643.5,687.5C 646.323,681.855 649.656,676.522 653.5,671.5 Z"/></g>
<g><path style="opacity:1" fill="#a8eed1" d="M 641.5,687.5 C 642.167,687.5 642.833,687.5 643.5,687.5C 643.649,688.552 643.483,689.552 643,690.5C 641.184,691.329 639.351,692.163 637.5,693C 635.866,697.144 632.866,698.977 628.5,698.5C 633.161,695.168 637.495,691.501 641.5,687.5 Z"/></g>
<g><path style="opacity:1" fill="#dcf7eb" d="M 656.5,595.5 C 657.117,595.611 657.617,595.944 658,596.5C 658.19,616.858 658.69,637.191 659.5,657.5C 658.256,661.644 656.756,665.644 655,669.5C 654.289,671.899 654.456,674.232 655.5,676.5C 654.738,676.911 653.738,677.077 652.5,677C 651.978,677.561 651.645,678.228 651.5,679C 652.148,680.44 652.481,681.94 652.5,683.5C 648.737,684.257 646.237,686.59 645,690.5C 641.714,692.451 638.714,694.785 636,697.5C 635.517,698.448 635.351,699.448 635.5,700.5C 630.995,701.327 626.495,702.327 622,703.5C 621.5,703.833 621,704.167 620.5,704.5C 621.325,705.386 622.325,705.719 623.5,705.5C 623.41,710.389 622.244,710.723 620,706.5C 608.999,709.272 598.166,708.939 587.5,705.5C 587.137,704.817 586.804,704.15 586.5,703.5C 588.167,703.5 589.833,703.5 591.5,703.5C 591.5,703.833 591.5,704.167 591.5,704.5C 598.655,705.655 605.988,705.822 613.5,705C 618.168,703.333 622.501,701.166 626.5,698.5C 627.167,698.5 627.833,698.5 628.5,698.5C 632.866,698.977 635.866,697.144 637.5,693C 639.351,692.163 641.184,691.329 643,690.5C 643.483,689.552 643.649,688.552 643.5,687.5C 644.794,686.71 645.961,685.71 647,684.5C 649.462,680.261 651.628,675.927 653.5,671.5C 654.81,666.257 655.476,660.923 655.5,655.5C 656.832,646.191 657.499,636.524 657.5,626.5C 657.477,616.122 657.143,605.789 656.5,595.5 Z"/></g>
<g><path style="opacity:1" fill="#30d189" d="M 556.5,681.5 C 559.226,681.264 561.559,682.097 563.5,684C 562.027,684.71 561.36,685.876 561.5,687.5C 563.308,687.491 564.975,687.991 566.5,689C 568.509,694.071 571.175,694.571 574.5,690.5C 576.597,692.11 578.93,693.277 581.5,694C 580.549,694.718 580.383,695.551 581,696.5C 585.235,699.727 590.068,701.227 595.5,701C 594.142,701.934 592.808,702.768 591.5,703.5C 589.833,703.5 588.167,703.5 586.5,703.5C 580.753,702.631 575.753,700.131 571.5,696C 570.167,695.667 568.833,695.333 567.5,695C 563.289,692.12 559.956,688.62 557.5,684.5C 557.443,683.391 557.11,682.391 556.5,681.5 Z"/></g>
<g><path style="opacity:1" fill="#54d49c" d="M 626.5,698.5 C 622.501,701.166 618.168,703.333 613.5,705C 605.988,705.822 598.655,705.655 591.5,704.5C 599.651,704.991 607.651,704.158 615.5,702C 614.833,701.667 614.167,701.333 613.5,701C 617.74,699.761 622.074,698.927 626.5,698.5 Z"/></g>
</svg>
