<?xml version="1.0" encoding="UTF-8"?>
<!DOCTYPE svg PUBLIC "-//W3C//DTD SVG 1.1//EN" "http://www.w3.org/Graphics/SVG/1.1/DTD/svg11.dtd">
<svg xmlns="http://www.w3.org/2000/svg" version="1.1" width="600px" height="600px" style="shape-rendering:geometricPrecision; text-rendering:geometricPrecision; image-rendering:optimizeQuality; fill-rule:evenodd; clip-rule:evenodd" xmlns:xlink="http://www.w3.org/1999/xlink">
<g><path style="opacity:1" fill="#fefefe" d="M -0.5,-0.5 C 199.5,-0.5 399.5,-0.5 599.5,-0.5C 599.5,199.5 599.5,399.5 599.5,599.5C 399.5,599.5 199.5,599.5 -0.5,599.5C -0.5,399.5 -0.5,199.5 -0.5,-0.5 Z"/></g>
<g><path style="opacity:1" fill="#3381ed" d="M 76.5,285.5 C 68.9006,290.976 60.9006,295.976 52.5,300.5C 50.625,297.249 48.625,294.082 46.5,291C 44.5,290.333 42.5,290.333 40.5,291C 37.0901,293.372 33.4234,295.205 29.5,296.5C 29.3336,287.494 29.5002,278.494 30,269.5C 31.9473,265.443 35.114,263.943 39.5,265C 51.8605,271.846 64.1938,278.679 76.5,285.5 Z"/></g>
<g><path style="opacity:1" fill="#676b70" d="M 134.5,279.5 C 139.371,279.192 144.037,280.025 148.5,282C 153.408,283.963 153.742,286.463 149.5,289.5C 142.701,284.194 135.868,284.194 129,289.5C 124.395,296.471 124.395,303.471 129,310.5C 133.439,314.342 138.605,315.509 144.5,314C 149.652,312.353 152.319,308.853 152.5,303.5C 148.167,303.5 143.833,303.5 139.5,303.5C 139.5,301.833 139.5,300.167 139.5,298.5C 145.833,298.5 152.167,298.5 158.5,298.5C 158.381,315.114 150.048,322.281 133.5,320C 121.988,314.81 117.488,305.977 120,293.5C 123.257,287.136 128.091,282.469 134.5,279.5 Z"/></g>
<g><path style="opacity:1" fill="#686c71" d="M 246.5,281.5 C 248.5,281.5 250.5,281.5 252.5,281.5C 252.5,294.167 252.5,306.833 252.5,319.5C 250.5,319.5 248.5,319.5 246.5,319.5C 246.5,306.833 246.5,294.167 246.5,281.5 Z"/></g>
<g><path style="opacity:1" fill="#676b6f" d="M 294.5,281.5 C 300.176,281.334 305.843,281.501 311.5,282C 319.398,284.29 322.231,289.457 320,297.5C 318.737,301.219 316.237,303.719 312.5,305C 308.514,305.499 304.514,305.666 300.5,305.5C 300.5,310.167 300.5,314.833 300.5,319.5C 298.5,319.5 296.5,319.5 294.5,319.5C 294.5,306.833 294.5,294.167 294.5,281.5 Z"/></g>
<g><path style="opacity:1" fill="#5f6368" d="M 324.5,281.5 C 326.167,281.5 327.833,281.5 329.5,281.5C 329.5,294.167 329.5,306.833 329.5,319.5C 327.833,319.5 326.167,319.5 324.5,319.5C 324.5,306.833 324.5,294.167 324.5,281.5 Z"/></g>
<g><path style="opacity:1" fill="#4489ee" d="M 405.5,282.5 C 409.514,282.334 413.514,282.501 417.5,283C 420.576,283.911 422.909,285.744 424.5,288.5C 423.833,289.833 422.833,290.833 421.5,291.5C 411.695,283.688 403.862,285.355 398,296.5C 396.53,312.029 403.363,317.862 418.5,314C 419.981,313.02 421.315,311.853 422.5,310.5C 426.412,312.553 426.412,314.72 422.5,317C 408.575,323.62 398.741,319.786 393,305.5C 391.449,294.595 395.616,286.928 405.5,282.5 Z"/></g>
<g><path style="opacity:1" fill="#3281ed" d="M 536.5,283.5 C 537.833,283.5 539.167,283.5 540.5,283.5C 540.5,295.5 540.5,307.5 540.5,319.5C 539.167,319.5 537.833,319.5 536.5,319.5C 536.5,307.5 536.5,295.5 536.5,283.5 Z"/></g>
<g><path style="opacity:1" fill="#95bef5" d="M 536.5,283.5 C 537.919,282.549 539.585,282.216 541.5,282.5C 541.829,295.011 541.495,307.345 540.5,319.5C 540.5,307.5 540.5,295.5 540.5,283.5C 539.167,283.5 537.833,283.5 536.5,283.5 Z"/></g>
<g><path style="opacity:1" fill="#c6f1fe" d="M 76.5,285.5 C 79.4058,287.45 82.4058,289.117 85.5,290.5C 74.7273,296.055 64.0606,301.888 53.5,308C 51.8333,308.667 50.1667,308.667 48.5,308C 46.375,304.918 44.375,301.751 42.5,298.5C 38.299,301.1 33.9656,303.434 29.5,305.5C 29.5,302.5 29.5,299.5 29.5,296.5C 33.4234,295.205 37.0901,293.372 40.5,291C 42.5,290.333 44.5,290.333 46.5,291C 48.625,294.082 50.625,297.249 52.5,300.5C 60.9006,295.976 68.9006,290.976 76.5,285.5 Z"/></g>
<g><path style="opacity:1" fill="#fafafa" d="M 310.5,287.5 C 315.577,289.334 316.744,292.667 314,297.5C 313.184,298.823 312.017,299.489 310.5,299.5C 307.5,299.5 304.5,299.5 301.5,299.5C 301.5,295.5 301.5,291.5 301.5,287.5C 304.5,287.5 307.5,287.5 310.5,287.5 Z"/></g>
<g><path style="opacity:1" fill="#cdced0" d="M 310.5,287.5 C 307.5,287.5 304.5,287.5 301.5,287.5C 301.5,291.5 301.5,295.5 301.5,299.5C 304.5,299.5 307.5,299.5 310.5,299.5C 307.375,300.479 304.042,300.813 300.5,300.5C 300.5,295.833 300.5,291.167 300.5,286.5C 304.042,286.187 307.375,286.521 310.5,287.5 Z"/></g>
<g><path style="opacity:1" fill="#3382ed" d="M 85.5,290.5 C 93.1193,293.968 94.4527,299.135 89.5,306C 72.8333,315.333 56.1667,324.667 39.5,334C 35.114,335.057 31.9473,333.557 30,329.5C 29.5003,321.507 29.3336,313.507 29.5,305.5C 33.9656,303.434 38.299,301.1 42.5,298.5C 44.375,301.751 46.375,304.918 48.5,308C 50.1667,308.667 51.8333,308.667 53.5,308C 64.0606,301.888 74.7273,296.055 85.5,290.5 Z"/></g>
<g><path style="opacity:1" fill="#468aee" d="M 437.5,293.5 C 451.545,294.055 456.379,301.055 452,314.5C 445.299,322.061 438.299,322.395 431,315.5C 425.958,305.821 428.124,298.487 437.5,293.5 Z"/></g>
<g><path style="opacity:1" fill="#4488ee" d="M 462.5,303.5 C 461.513,308.305 461.179,313.305 461.5,318.5C 460.5,318.5 459.5,318.5 458.5,318.5C 458.5,310.833 458.5,303.167 458.5,295.5C 460.143,295.48 461.476,296.147 462.5,297.5C 463.107,297.376 463.44,297.043 463.5,296.5C 469.174,292.142 474.34,292.809 479,298.5C 479.5,305.492 479.666,312.492 479.5,319.5C 477.833,319.5 476.167,319.5 474.5,319.5C 474.666,313.158 474.5,306.825 474,300.5C 471.503,298.522 468.669,298.022 465.5,299C 463.859,300.129 462.859,301.629 462.5,303.5 Z"/></g>
<g><path style="opacity:1" fill="#478aee" d="M 489.5,293.5 C 495.16,292.831 499.827,294.664 503.5,299C 502.391,299.638 501.225,300.138 500,300.5C 496.506,298.355 492.84,298.022 489,299.5C 488.316,300.784 488.483,301.951 489.5,303C 494.388,303.86 498.888,305.693 503,308.5C 503.857,318.195 499.357,322.028 489.5,320C 486.637,318.636 484.637,316.47 483.5,313.5C 486.294,310.865 488.627,311.365 490.5,315C 493.099,315.769 495.599,315.602 498,314.5C 498.781,313.056 498.614,311.723 497.5,310.5C 495.018,309.103 492.352,308.269 489.5,308C 484.857,305.928 483.357,302.428 485,297.5C 486.397,295.93 487.897,294.596 489.5,293.5 Z"/></g>
<g><path style="opacity:1" fill="#488bee" d="M 515.5,293.5 C 531.34,294.513 535.84,302.18 529,316.5C 519.759,323.039 512.425,321.372 507,311.5C 505.3,303.237 508.133,297.237 515.5,293.5 Z"/></g>
<g><path style="opacity:1" fill="#4288ee" d="M 569.5,307.5 C 562.833,307.5 556.167,307.5 549.5,307.5C 549.263,308.791 549.596,309.791 550.5,310.5C 550.859,312.371 551.859,313.871 553.5,315C 558.324,316.406 562.324,315.24 565.5,311.5C 566.833,312.167 567.833,313.167 568.5,314.5C 561.308,322.363 554.141,322.363 547,314.5C 542.512,301.367 547.012,294.534 560.5,294C 566.94,296.263 569.94,300.763 569.5,307.5 Z"/></g>
<g><path style="opacity:1" fill="#676b6f" d="M 168.5,294.5 C 181.208,293.377 187.042,299.043 186,311.5C 181.314,320.284 174.481,322.45 165.5,318C 158.023,308.977 159.023,301.144 168.5,294.5 Z"/></g>
<g><path style="opacity:1" fill="#666a6e" d="M 197.5,294.5 C 212.466,293.939 217.633,300.606 213,314.5C 208.316,320.4 202.483,321.9 195.5,319C 189.945,314.422 188.112,308.588 190,301.5C 192.069,298.594 194.569,296.261 197.5,294.5 Z"/></g>
<g><path style="opacity:1" fill="#676a6f" d="M 225.5,294.5 C 229.383,294.109 233.05,294.776 236.5,296.5C 238.409,295.652 240.409,295.318 242.5,295.5C 242.666,304.839 242.5,314.173 242,323.5C 238.519,331.673 232.686,334.173 224.5,331C 222.124,329.576 220.457,327.576 219.5,325C 222.205,321.542 224.539,321.876 226.5,326C 234.271,328.219 237.771,325.386 237,317.5C 228.098,322.56 221.764,320.227 218,310.5C 217.005,303.492 219.505,298.158 225.5,294.5 Z"/></g>
<g><path style="opacity:1" fill="#666a6f" d="M 262.5,294.5 C 269.387,293.286 274.553,295.619 278,301.5C 278.749,302.635 278.583,303.635 277.5,304.5C 272.162,306.502 267.162,309.002 262.5,312C 263.54,314.277 265.374,315.444 268,315.5C 270.909,314.435 273.743,313.601 276.5,313C 277.167,313.667 277.833,314.333 278.5,315C 271.107,322.491 263.94,322.325 257,314.5C 253.572,306.169 255.406,299.502 262.5,294.5 Z"/></g>
<g><path style="opacity:1" fill="#676b6f" d="M 339.5,294.5 C 345.901,293.465 351.068,295.465 355,300.5C 355.5,306.825 355.666,313.158 355.5,319.5C 353.08,319.708 350.747,319.374 348.5,318.5C 337.285,322.907 332.618,319.24 334.5,307.5C 338.509,303.58 343.175,302.58 348.5,304.5C 349.731,303.349 349.731,302.183 348.5,301C 344.73,298.721 341.396,299.221 338.5,302.5C 336.003,302.065 334.837,300.731 335,298.5C 336.397,296.93 337.897,295.596 339.5,294.5 Z"/></g>
<g><path style="opacity:1" fill="#619ef0" d="M 463.5,296.5 C 463.44,297.043 463.107,297.376 462.5,297.5C 461.476,296.147 460.143,295.48 458.5,295.5C 458.5,303.167 458.5,310.833 458.5,318.5C 459.5,318.5 460.5,318.5 461.5,318.5C 461.179,313.305 461.513,308.305 462.5,303.5C 462.5,308.833 462.5,314.167 462.5,319.5C 460.833,319.5 459.167,319.5 457.5,319.5C 457.5,311.167 457.5,302.833 457.5,294.5C 459.886,294.259 461.886,294.925 463.5,296.5 Z"/></g>
<g><path style="opacity:1" fill="#676b6f" d="M 356.5,296.5 C 358.56,295.189 360.726,295.189 363,296.5C 365,301.167 367,305.833 369,310.5C 371.533,306.096 373.533,301.429 375,296.5C 377.139,295.231 379.305,295.231 381.5,296.5C 376.5,307.833 371.5,319.167 366.5,330.5C 364.5,331.833 362.5,331.833 360.5,330.5C 362.5,326.5 364.5,322.5 366.5,318.5C 363.338,310.981 360.004,303.647 356.5,296.5 Z"/></g>
<g><path style="opacity:1" fill="#f8fafe" d="M 437.5,298.5 C 449.136,298.604 452.136,303.77 446.5,314C 436.065,317.236 431.898,313.403 434,302.5C 434.69,300.65 435.856,299.316 437.5,298.5 Z"/></g>
<g><path style="opacity:1" fill="#f8fbfe" d="M 515.5,298.5 C 524.657,297.489 528.49,301.489 527,310.5C 524.565,315.224 520.731,316.724 515.5,315C 510.193,309.428 510.193,303.928 515.5,298.5 Z"/></g>
<g><path style="opacity:1" fill="#f7fafe" d="M 563.5,301.5 C 559.627,303.43 555.294,304.097 550.5,303.5C 550.859,301.629 551.859,300.129 553.5,299C 556.167,298.333 558.833,298.333 561.5,299C 562.381,299.708 563.047,300.542 563.5,301.5 Z"/></g>
<g><path style="opacity:1" fill="#f8f9f9" d="M 170.5,299.5 C 178.986,299.161 182.152,303.161 180,311.5C 175.069,317.172 170.735,316.839 167,310.5C 165.662,305.96 166.829,302.293 170.5,299.5 Z"/></g>
<g><path style="opacity:1" fill="#f5f6f6" d="M 199.5,299.5 C 207.201,299.362 210.367,303.029 209,310.5C 203.854,317.406 199.187,317.073 195,309.5C 194.077,305.017 195.577,301.683 199.5,299.5 Z"/></g>
<g><path style="opacity:1" fill="#f7f7f7" d="M 227.5,299.5 C 235.147,299.313 238.314,302.98 237,310.5C 232.578,317.059 228.245,317.059 224,310.5C 222.662,305.96 223.829,302.293 227.5,299.5 Z"/></g>
<g><path style="opacity:1" fill="#f3f3f4" d="M 264.5,299.5 C 266.527,299.338 268.527,299.505 270.5,300C 270.957,300.414 271.291,300.914 271.5,301.5C 268.605,303.532 265.438,305.199 262,306.5C 261.333,305.167 261.333,303.833 262,302.5C 263.045,301.627 263.878,300.627 264.5,299.5 Z"/></g>
<g><path style="opacity:1" fill="#9ec3f6" d="M 563.5,301.5 C 564.404,302.209 564.737,303.209 564.5,304.5C 559.637,304.819 554.97,304.486 550.5,303.5C 555.294,304.097 559.627,303.43 563.5,301.5 Z"/></g>
<g><path style="opacity:1" fill="#aacbf7" d="M 569.5,307.5 C 562.935,307.851 556.601,308.851 550.5,310.5C 549.596,309.791 549.263,308.791 549.5,307.5C 556.167,307.5 562.833,307.5 569.5,307.5 Z"/></g>
<g><path style="opacity:1" fill="#f2f2f2" d="M 340.5,308.5 C 343.5,308.5 346.5,308.5 349.5,308.5C 349.628,312.874 347.462,315.208 343,315.5C 338.274,314.488 337.441,312.155 340.5,308.5 Z"/></g>
</svg>
