<?xml version="1.0" encoding="UTF-8"?>
<!DOCTYPE svg PUBLIC "-//W3C//DTD SVG 1.1//EN" "http://www.w3.org/Graphics/SVG/1.1/DTD/svg11.dtd">
<svg xmlns="http://www.w3.org/2000/svg" version="1.1" width="3840px" height="2160px" style="shape-rendering:geometricPrecision; text-rendering:geometricPrecision; image-rendering:optimizeQuality; fill-rule:evenodd; clip-rule:evenodd" xmlns:xlink="http://www.w3.org/1999/xlink">
<g><path style="opacity:1" fill="#fefefe" d="M -0.5,-0.5 C 1279.5,-0.5 2559.5,-0.5 3839.5,-0.5C 3839.5,719.5 3839.5,1439.5 3839.5,2159.5C 2559.5,2159.5 1279.5,2159.5 -0.5,2159.5C -0.5,1439.5 -0.5,719.5 -0.5,-0.5 Z"/></g>
<g><path style="opacity:1" fill="#d83734" d="M 2086.5,63.5 C 2085.03,60.4688 2083.37,57.4688 2081.5,54.5C 2077.83,52.6563 2076,49.6563 2076,45.5C 2074.49,43.7923 2072.99,42.1256 2071.5,40.5C 2070.46,44.0953 2069.8,47.7619 2069.5,51.5C 2072.23,68.3796 2073.07,85.3796 2072,102.5C 2071.16,105.628 2070.33,108.628 2069.5,111.5C 2072.04,83.778 2070.04,56.4447 2063.5,29.5C 2063.73,28.0683 2064.4,27.5683 2065.5,28C 2073.39,36.957 2079.89,46.7903 2085,57.5C 2085.81,59.4357 2086.31,61.4357 2086.5,63.5 Z"/></g>
<g><path style="opacity:1" fill="#e01f22" d="M 2086.5,63.5 C 2091.02,71.5328 2094.02,80.1994 2095.5,89.5C 2095.03,92.0821 2095.69,94.0821 2097.5,95.5C 2097.5,96.1667 2097.5,96.8333 2097.5,97.5C 2099.11,115.459 2099.77,133.459 2099.5,151.5C 2099.5,152.5 2099.5,153.5 2099.5,154.5C 2098.09,160.721 2096.76,167.054 2095.5,173.5C 2095.2,176.522 2094.7,179.522 2094,182.5C 2086.03,209.434 2074.53,234.767 2059.5,258.5C 2058.19,259.476 2056.85,260.476 2055.5,261.5C 2053.27,264.619 2051.61,267.952 2050.5,271.5C 2036.25,292.637 2020.08,312.304 2002,330.5C 2000.56,331.9 1999.73,333.567 1999.5,335.5C 1993.17,339.833 1987.83,345.167 1983.5,351.5C 1980.23,353.1 1977.56,355.433 1975.5,358.5C 1972.19,360.146 1969.52,362.48 1967.5,365.5C 1962.47,368.729 1958.14,372.896 1954.5,378C 1945.41,384.898 1936.41,392.065 1927.5,399.5C 1924.24,401.094 1921.57,403.427 1919.5,406.5C 1911.96,412.54 1904.3,418.374 1896.5,424C 1893.41,427.184 1890.41,430.351 1887.5,433.5C 1883.9,435.43 1880.9,438.097 1878.5,441.5C 1874.14,445.86 1869.81,450.194 1865.5,454.5C 1862.1,456.9 1859.43,459.9 1857.5,463.5C 1855.82,464.782 1854.49,466.449 1853.5,468.5C 1850.09,469.578 1848.09,471.911 1847.5,475.5C 1821.73,503.719 1806.73,537.053 1802.5,575.5C 1801.83,579.653 1801.5,583.987 1801.5,588.5C 1801.32,595.072 1801.99,601.405 1803.5,607.5C 1806.14,618.066 1808.81,628.732 1811.5,639.5C 1812.69,645.412 1815.02,650.745 1818.5,655.5C 1819.17,655.5 1819.5,655.833 1819.5,656.5C 1820.16,660.466 1820.5,664.466 1820.5,668.5C 1825.46,668.102 1826.46,669.769 1823.5,673.5C 1824.33,675.828 1825.16,678.162 1826,680.5C 1827.05,678.893 1828.55,678.227 1830.5,678.5C 1831.36,682.131 1832.69,685.631 1834.5,689C 1834.23,690.607 1833.4,691.774 1832,692.5C 1831.02,695.259 1831.86,697.259 1834.5,698.5C 1835.17,696.833 1835.83,695.167 1836.5,693.5C 1837.42,694.127 1838.42,694.461 1839.5,694.5C 1843.01,699.061 1846.35,703.727 1849.5,708.5C 1849.76,712.691 1851.76,715.691 1855.5,717.5C 1855.5,718.833 1856.17,719.5 1857.5,719.5C 1857.24,721.989 1858.24,723.656 1860.5,724.5C 1870.71,738.539 1880.71,752.872 1890.5,767.5C 1890.24,769.989 1891.24,771.656 1893.5,772.5C 1893.43,774.401 1893.77,776.234 1894.5,778C 1894.09,778.945 1893.43,779.612 1892.5,780C 1893.85,780.772 1894.68,781.939 1895,783.5C 1895.61,781.519 1896.61,781.185 1898,782.5C 1899.29,784.962 1900.79,787.295 1902.5,789.5C 1901.97,790.192 1901.31,790.692 1900.5,791C 1902.2,793.473 1904.53,794.973 1907.5,795.5C 1912.21,801.57 1915.21,808.237 1916.5,815.5C 1915.15,814.812 1914.15,813.812 1913.5,812.5C 1910.02,808.01 1906.02,804.344 1901.5,801.5C 1901.5,800.167 1901.5,798.833 1901.5,797.5C 1900.13,797.657 1898.79,797.49 1897.5,797C 1896.21,795.198 1894.54,794.031 1892.5,793.5C 1870.25,773.924 1848.92,753.257 1828.5,731.5C 1827.83,728.833 1826.17,727.167 1823.5,726.5C 1812.56,715.325 1802.06,703.658 1792,691.5C 1791.51,690.207 1791.34,688.873 1791.5,687.5C 1787.15,685.48 1784.15,682.147 1782.5,677.5C 1782.61,675.097 1781.61,673.264 1779.5,672C 1779.83,671.667 1780.17,671.333 1780.5,671C 1779.81,669.933 1779.31,668.766 1779,667.5C 1778.28,668.451 1777.45,668.617 1776.5,668C 1774.78,664.418 1772.44,661.252 1769.5,658.5C 1768.67,656.865 1768.5,655.198 1769,653.5C 1766.15,652.172 1763.65,650.505 1761.5,648.5C 1759.9,647.713 1759.23,646.38 1759.5,644.5C 1759.08,640.921 1758.91,637.254 1759,633.5C 1759.14,637.831 1757.81,638.498 1755,635.5C 1751.83,629.167 1748.67,622.833 1745.5,616.5C 1746.26,613.397 1744.93,611.397 1741.5,610.5C 1740.45,608.849 1739.29,607.183 1738,605.5C 1736.55,600.701 1735.05,596.034 1733.5,591.5C 1733.49,586.83 1732.49,582.497 1730.5,578.5C 1726.13,558.533 1726.8,538.866 1732.5,519.5C 1733.92,517.485 1734.59,515.152 1734.5,512.5C 1736.37,507.089 1738.54,501.756 1741,496.5C 1746.91,487.014 1753.08,477.681 1759.5,468.5C 1762.17,467.833 1763.83,466.167 1764.5,463.5C 1768.21,460.789 1771.21,457.456 1773.5,453.5C 1776.08,448.917 1779.41,444.917 1783.5,441.5C 1787.21,438.463 1791.21,435.796 1795.5,433.5C 1796.45,430.577 1797.78,427.911 1799.5,425.5C 1803.31,423.515 1806.97,421.348 1810.5,419C 1811.19,417.933 1811.69,416.766 1812,415.5C 1816.34,412.331 1820.17,408.664 1823.5,404.5C 1829.25,398.92 1835.25,393.42 1841.5,388C 1880.02,357.643 1918.35,327.143 1956.5,296.5C 1960.5,294.5 1963.5,291.5 1965.5,287.5C 1966.49,287.672 1967.16,287.338 1967.5,286.5C 1974.17,283.167 1979.17,278.167 1982.5,271.5C 1982.83,271.5 1983.17,271.5 1983.5,271.5C 1987.89,268.945 1991.56,265.445 1994.5,261C 1997.71,260.428 1999.37,258.595 1999.5,255.5C 2000.42,252.911 2002.09,250.911 2004.5,249.5C 2008.3,247.037 2010.97,243.704 2012.5,239.5C 2021.57,228.36 2029.9,216.694 2037.5,204.5C 2041.98,201.197 2044.65,196.864 2045.5,191.5C 2053,175.997 2059.34,159.997 2064.5,143.5C 2066.4,140.663 2067.07,137.329 2066.5,133.5C 2067.5,126.161 2068.5,118.827 2069.5,111.5C 2070.33,108.628 2071.16,105.628 2072,102.5C 2073.07,85.3796 2072.23,68.3796 2069.5,51.5C 2069.8,47.7619 2070.46,44.0953 2071.5,40.5C 2072.99,42.1256 2074.49,43.7923 2076,45.5C 2076,49.6563 2077.83,52.6563 2081.5,54.5C 2083.37,57.4688 2085.03,60.4688 2086.5,63.5 Z"/></g>
<g><path style="opacity:1" fill="#e59197" d="M 2095.5,89.5 C 2097.07,91.1016 2097.74,93.1016 2097.5,95.5C 2095.69,94.0821 2095.03,92.0821 2095.5,89.5 Z"/></g>
<g><path style="opacity:1" fill="#c94b4a" d="M 2097.5,97.5 C 2098.81,101.944 2099.65,106.611 2100,111.5C 2100.83,125.006 2100.66,138.34 2099.5,151.5C 2099.77,133.459 2099.11,115.459 2097.5,97.5 Z"/></g>
<g><path style="opacity:1" fill="#cf4948" d="M 2066.5,133.5 C 2067.07,137.329 2066.4,140.663 2064.5,143.5C 2064.32,139.878 2064.99,136.544 2066.5,133.5 Z"/></g>
<g><path style="opacity:1" fill="#f4bbba" d="M 2099.5,154.5 C 2099.93,161.335 2098.6,167.668 2095.5,173.5C 2096.76,167.054 2098.09,160.721 2099.5,154.5 Z"/></g>
<g><path style="opacity:1" fill="#da5955" d="M 2045.5,191.5 C 2044.65,196.864 2041.98,201.197 2037.5,204.5C 2039.43,199.703 2042.1,195.369 2045.5,191.5 Z"/></g>
<g><path style="opacity:1" fill="#da5c5d" d="M 2012.5,239.5 C 2010.97,243.704 2008.3,247.037 2004.5,249.5C 2006.79,245.873 2009.46,242.539 2012.5,239.5 Z"/></g>
<g><path style="opacity:1" fill="#d24b49" d="M 1999.5,255.5 C 1999.37,258.595 1997.71,260.428 1994.5,261C 1991.56,265.445 1987.89,268.945 1983.5,271.5C 1988.43,265.532 1993.76,260.199 1999.5,255.5 Z"/></g>
<g><path style="opacity:1" fill="#d04749" d="M 2059.5,258.5 C 2056.76,262.979 2053.76,267.312 2050.5,271.5C 2051.61,267.952 2053.27,264.619 2055.5,261.5C 2056.85,260.476 2058.19,259.476 2059.5,258.5 Z"/></g>
<g><path style="opacity:1" fill="#cd4a47" d="M 1982.5,271.5 C 1979.17,278.167 1974.17,283.167 1967.5,286.5C 1972.83,281.833 1977.83,276.833 1982.5,271.5 Z"/></g>
<g><path style="opacity:1" fill="#d55556" d="M 1965.5,287.5 C 1963.5,291.5 1960.5,294.5 1956.5,296.5C 1959.17,293.167 1962.17,290.167 1965.5,287.5 Z"/></g>
<g><path style="opacity:1" fill="#dc2e2d" d="M 2202.5,343.5 C 2202.5,342.167 2202.5,340.833 2202.5,339.5C 2205.38,339.967 2207.71,339.134 2209.5,337C 2208.67,335.5 2207.5,334.333 2206,333.5C 2203.77,333.978 2201.61,334.645 2199.5,335.5C 2199.71,336.086 2200.04,336.586 2200.5,337C 2197.66,337.903 2195,339.736 2192.5,342.5C 2189.35,341.86 2189.02,340.86 2191.5,339.5C 2190.83,339.167 2190.17,338.833 2189.5,338.5C 2184.98,340.143 2180.31,341.143 2175.5,341.5C 2195.42,333.388 2215.92,326.721 2237,321.5C 2237.83,321.667 2238.67,321.833 2239.5,322C 2227.04,329.021 2214.7,336.188 2202.5,343.5 Z"/></g>
<g><path style="opacity:1" fill="#f3aba8" d="M 1975.5,358.5 C 1973.43,361.573 1970.76,363.906 1967.5,365.5C 1969.52,362.48 1972.19,360.146 1975.5,358.5 Z"/></g>
<g><path style="opacity:1" fill="#d24943" d="M 2138.5,356.5 C 2135.96,357.361 2133.96,359.028 2132.5,361.5C 2128.02,362.259 2123.69,363.259 2119.5,364.5C 2123.08,361.685 2127.08,359.518 2131.5,358C 2133.74,357.023 2136.07,356.523 2138.5,356.5 Z"/></g>
<g><path style="opacity:1" fill="#d85e5c" d="M 2111.5,367.5 C 2110.16,369.035 2108.49,370.368 2106.5,371.5C 2104.93,372.309 2103.26,372.643 2101.5,372.5C 2104.36,369.999 2107.69,368.332 2111.5,367.5 Z"/></g>
<g><path style="opacity:1" fill="#de6a68" d="M 2101.5,372.5 C 2099.97,374.245 2097.97,375.245 2095.5,375.5C 2097.03,373.755 2099.03,372.755 2101.5,372.5 Z"/></g>
<g><path style="opacity:1" fill="#fabbba" d="M 2154.5,374.5 C 2152.57,378.092 2149.57,380.092 2145.5,380.5C 2147.98,377.759 2150.98,375.759 2154.5,374.5 Z"/></g>
<g><path style="opacity:1" fill="#e01f22" d="M 2202.5,343.5 C 2186.66,354.207 2170.66,364.54 2154.5,374.5C 2150.98,375.759 2147.98,377.759 2145.5,380.5C 2143.08,380.192 2140.74,380.526 2138.5,381.5C 2136.23,384.408 2133.9,387.075 2131.5,389.5C 2116.02,400.478 2100.69,411.644 2085.5,423C 2077.33,429.008 2069.99,435.841 2063.5,443.5C 2061.07,444.75 2058.73,446.25 2056.5,448C 2051,453.5 2045.5,459 2040,464.5C 2038.25,466.734 2036.75,469.068 2035.5,471.5C 2019.61,487.28 2008.95,505.947 2003.5,527.5C 1999.73,539.988 1999.73,552.655 2003.5,565.5C 2003.75,566.713 2004.41,567.38 2005.5,567.5C 2007.18,572.859 2008.85,578.192 2010.5,583.5C 2010.61,586.899 2011.94,589.566 2014.5,591.5C 2020.8,602.094 2027.14,612.761 2033.5,623.5C 2034.88,629.549 2038.21,634.216 2043.5,637.5C 2045.61,638.95 2046.94,640.95 2047.5,643.5C 2048.17,646.5 2048.83,649.5 2049.5,652.5C 2050.93,652.421 2052.26,652.754 2053.5,653.5C 2054.23,656.212 2055.06,658.879 2056,661.5C 2056.67,662.833 2057.33,662.833 2058,661.5C 2062.55,665.865 2065.21,671.199 2066,677.5C 2066.42,676.044 2067.26,675.544 2068.5,676C 2069.49,678.167 2070.82,680 2072.5,681.5C 2077.31,688.661 2080.31,696.661 2081.5,705.5C 2082.6,717.158 2082.6,728.825 2081.5,740.5C 2080.5,749.346 2078.16,757.846 2074.5,766C 2070.99,771.188 2068.16,776.688 2066,782.5C 2060.65,788.854 2055.65,795.52 2051,802.5C 2034.17,820.168 2016.01,836.168 1996.5,850.5C 1995.08,850.709 1993.74,851.209 1992.5,852C 1990.02,854.199 1987.69,856.366 1985.5,858.5C 1984.83,858.5 1984.17,858.5 1983.5,858.5C 1981.86,859.218 1980.2,859.384 1978.5,859C 1980.81,856.872 1982.47,854.372 1983.5,851.5C 1991.9,840.022 1999.23,828.022 2005.5,815.5C 2007.07,812.093 2008.07,808.427 2008.5,804.5C 2010.07,803.319 2010.9,801.653 2011,799.5C 2011.5,796.854 2011.66,794.187 2011.5,791.5C 2011.5,790.5 2011.5,789.5 2011.5,788.5C 2012.79,779.3 2012.62,769.967 2011,760.5C 2009.69,757.223 2008.19,754.223 2006.5,751.5C 2005.34,747.531 2004.17,743.531 2003,739.5C 2002.29,738.027 2001.12,737.36 1999.5,737.5C 1997.43,732.544 1994.59,727.877 1991,723.5C 1975.03,706.706 1961.19,688.373 1949.5,668.5C 1947.58,663.657 1944.92,659.323 1941.5,655.5C 1939.66,649.838 1937.32,644.505 1934.5,639.5C 1933.84,631.825 1931.51,624.825 1927.5,618.5C 1926,614.81 1924.67,611.143 1923.5,607.5C 1922.72,599.336 1921.72,591.336 1920.5,583.5C 1919.25,562.874 1922.59,543.207 1930.5,524.5C 1932.73,521.151 1934.4,517.485 1935.5,513.5C 1935.5,512.833 1935.5,512.167 1935.5,511.5C 1939.43,508.483 1942.09,504.483 1943.5,499.5C 1946.06,496.72 1948.4,493.72 1950.5,490.5C 1950.29,489.914 1949.96,489.414 1949.5,489C 1950.82,488.184 1951.49,487.017 1951.5,485.5C 1956.3,484.635 1958.8,481.635 1959,476.5C 1961.73,474.209 1963.56,471.876 1964.5,469.5C 1970.27,461.089 1977.27,453.756 1985.5,447.5C 1987.18,447.108 1988.85,446.608 1990.5,446C 1993.3,443.501 1996.13,441.001 1999,438.5C 1999.33,439.5 1999.67,440.5 2000,441.5C 2000.63,437.956 2002.13,434.622 2004.5,431.5C 2011.27,425.4 2018.6,420.067 2026.5,415.5C 2028.79,415.276 2030.95,414.609 2033,413.5C 2033.95,413.905 2034.61,414.572 2035,415.5C 2036.07,414.809 2037.23,414.309 2038.5,414C 2036.28,412.609 2036.28,410.943 2038.5,409C 2041.12,407.405 2043.79,405.905 2046.5,404.5C 2047.17,405.833 2047.83,407.167 2048.5,408.5C 2048.63,405.576 2049.96,402.909 2052.5,400.5C 2054.96,399.206 2057.3,397.706 2059.5,396C 2060.79,395.51 2062.13,395.343 2063.5,395.5C 2063.5,394.5 2063.5,393.5 2063.5,392.5C 2064.66,390.75 2066.33,389.75 2068.5,389.5C 2073.01,388.751 2076.68,386.751 2079.5,383.5C 2084.49,380.272 2089.82,377.606 2095.5,375.5C 2097.97,375.245 2099.97,374.245 2101.5,372.5C 2103.26,372.643 2104.93,372.309 2106.5,371.5C 2108.49,370.368 2110.16,369.035 2111.5,367.5C 2114.19,366.448 2116.86,365.448 2119.5,364.5C 2123.69,363.259 2128.02,362.259 2132.5,361.5C 2133.96,359.028 2135.96,357.361 2138.5,356.5C 2150.13,350.169 2162.46,345.169 2175.5,341.5C 2180.31,341.143 2184.98,340.143 2189.5,338.5C 2190.17,338.833 2190.83,339.167 2191.5,339.5C 2189.02,340.86 2189.35,341.86 2192.5,342.5C 2195,339.736 2197.66,337.903 2200.5,337C 2200.04,336.586 2199.71,336.086 2199.5,335.5C 2201.61,334.645 2203.77,333.978 2206,333.5C 2207.5,334.333 2208.67,335.5 2209.5,337C 2207.71,339.134 2205.38,339.967 2202.5,339.5C 2202.5,340.833 2202.5,342.167 2202.5,343.5 Z"/></g>
<g><path style="opacity:1" fill="#d43e39" d="M 2145.5,380.5 C 2141.21,383.985 2136.54,386.985 2131.5,389.5C 2133.9,387.075 2136.23,384.408 2138.5,381.5C 2140.74,380.526 2143.08,380.192 2145.5,380.5 Z"/></g>
<g><path style="opacity:1" fill="#d45351" d="M 2079.5,383.5 C 2076.68,386.751 2073.01,388.751 2068.5,389.5C 2071.68,386.742 2075.34,384.742 2079.5,383.5 Z"/></g>
<g><path style="opacity:1" fill="#f7b5b0" d="M 1927.5,399.5 C 1927.5,400.5 1927.5,401.5 1927.5,402.5C 1924.61,403.382 1921.95,404.716 1919.5,406.5C 1921.57,403.427 1924.24,401.094 1927.5,399.5 Z"/></g>
<g><path style="opacity:1" fill="#d83b3a" d="M 2063.5,392.5 C 2063.5,393.5 2063.5,394.5 2063.5,395.5C 2062.13,395.343 2060.79,395.51 2059.5,396C 2057.3,397.706 2054.96,399.206 2052.5,400.5C 2049.96,402.909 2048.63,405.576 2048.5,408.5C 2047.83,407.167 2047.17,405.833 2046.5,404.5C 2043.79,405.905 2041.12,407.405 2038.5,409C 2036.28,410.943 2036.28,412.609 2038.5,414C 2037.23,414.309 2036.07,414.809 2035,415.5C 2034.61,414.572 2033.95,413.905 2033,413.5C 2030.95,414.609 2028.79,415.276 2026.5,415.5C 2026.94,413.926 2027.94,412.759 2029.5,412C 2037.76,407.405 2045.76,402.405 2053.5,397C 2056.78,395.191 2060.11,393.691 2063.5,392.5 Z"/></g>
<g><path style="opacity:1" fill="#d34847" d="M 1823.5,404.5 C 1820.17,408.664 1816.34,412.331 1812,415.5C 1811.69,416.766 1811.19,417.933 1810.5,419C 1806.97,421.348 1803.31,423.515 1799.5,425.5C 1806.88,417.79 1814.88,410.79 1823.5,404.5 Z"/></g>
<g><path style="opacity:1" fill="#d7463e" d="M 1799.5,425.5 C 1797.78,427.911 1796.45,430.577 1795.5,433.5C 1791.21,435.796 1787.21,438.463 1783.5,441.5C 1788.83,436.167 1794.17,430.833 1799.5,425.5 Z"/></g>
<g><path style="opacity:1" fill="#f3a1a2" d="M 1887.5,433.5 C 1885.1,436.903 1882.1,439.57 1878.5,441.5C 1880.9,438.097 1883.9,435.43 1887.5,433.5 Z"/></g>
<g><path style="opacity:1" fill="#d53d38" d="M 2004.5,431.5 C 2002.13,434.622 2000.63,437.956 2000,441.5C 1999.67,440.5 1999.33,439.5 1999,438.5C 1996.13,441.001 1993.3,443.501 1990.5,446C 1988.85,446.608 1987.18,447.108 1985.5,447.5C 1991.24,441.422 1997.58,436.088 2004.5,431.5 Z"/></g>
<g><path style="opacity:1" fill="#d55e5f" d="M 1773.5,453.5 C 1771.21,457.456 1768.21,460.789 1764.5,463.5C 1766.82,459.518 1769.82,456.185 1773.5,453.5 Z"/></g>
<g><path style="opacity:1" fill="#ed9b9c" d="M 1865.5,454.5 C 1863.57,458.1 1860.9,461.1 1857.5,463.5C 1859.43,459.9 1862.1,456.9 1865.5,454.5 Z"/></g>
<g><path style="opacity:1" fill="#fde3e3" d="M 2063.5,443.5 C 2062.75,445.754 2061.41,447.587 2059.5,449C 2060.95,450.713 2060.79,452.213 2059,453.5C 2058.58,452.044 2057.74,451.544 2056.5,452C 2051.52,456.835 2046.85,461.835 2042.5,467C 2040.01,468.329 2037.68,469.829 2035.5,471.5C 2036.75,469.068 2038.25,466.734 2040,464.5C 2045.5,459 2051,453.5 2056.5,448C 2058.73,446.25 2061.07,444.75 2063.5,443.5 Z"/></g>
<g><path style="opacity:1" fill="#e67d7e" d="M 1764.5,463.5 C 1763.83,466.167 1762.17,467.833 1759.5,468.5C 1760.83,466.5 1762.5,464.833 1764.5,463.5 Z"/></g>
<g><path style="opacity:1" fill="#ea8787" d="M 1853.5,468.5 C 1851.47,470.858 1849.47,473.192 1847.5,475.5C 1848.09,471.911 1850.09,469.578 1853.5,468.5 Z"/></g>
<g><path style="opacity:1" fill="#d53f3b" d="M 1964.5,469.5 C 1963.56,471.876 1961.73,474.209 1959,476.5C 1958.8,481.635 1956.3,484.635 1951.5,485.5C 1953.42,482.067 1955.58,478.734 1958,475.5C 1959.73,472.932 1961.9,470.932 1964.5,469.5 Z"/></g>
<g><path style="opacity:1" fill="#d3423d" d="M 1951.5,485.5 C 1951.49,487.017 1950.82,488.184 1949.5,489C 1949.96,489.414 1950.29,489.914 1950.5,490.5C 1948.4,493.72 1946.06,496.72 1943.5,499.5C 1942.09,504.483 1939.43,508.483 1935.5,511.5C 1937.49,507.032 1939.65,502.699 1942,498.5C 1945.03,494.057 1948.19,489.724 1951.5,485.5 Z"/></g>
<g><path style="opacity:1" fill="#de6f70" d="M 1734.5,512.5 C 1734.59,515.152 1733.92,517.485 1732.5,519.5C 1732.41,516.848 1733.08,514.515 1734.5,512.5 Z"/></g>
<g><path style="opacity:1" fill="#cb4a48" d="M 1935.5,513.5 C 1934.4,517.485 1932.73,521.151 1930.5,524.5C 1931.21,520.365 1932.88,516.698 1935.5,513.5 Z"/></g>
<g><path style="opacity:1" fill="#d85451" d="M 2003.5,527.5 C 2001.68,540.977 2002.35,554.311 2005.5,567.5C 2004.41,567.38 2003.75,566.713 2003.5,565.5C 1999.73,552.655 1999.73,539.988 2003.5,527.5 Z"/></g>
<g><path style="opacity:1" fill="#e67a7b" d="M 1730.5,578.5 C 1732.49,582.497 1733.49,586.83 1733.5,591.5C 1731.74,587.453 1730.74,583.12 1730.5,578.5 Z"/></g>
<g><path style="opacity:1" fill="#d65c5a" d="M 2010.5,583.5 C 2012.87,585.579 2014.21,588.246 2014.5,591.5C 2011.94,589.566 2010.61,586.899 2010.5,583.5 Z"/></g>
<g><path style="opacity:1" fill="#fdd4d4" d="M 1920.5,583.5 C 1921.72,591.336 1922.72,599.336 1923.5,607.5C 1920.79,599.944 1919.79,591.944 1920.5,583.5 Z"/></g>
<g><path style="opacity:1" fill="#d15554" d="M 1802.5,575.5 C 1802.39,586.185 1802.72,596.852 1803.5,607.5C 1801.99,601.405 1801.32,595.072 1801.5,588.5C 1801.5,583.987 1801.83,579.653 1802.5,575.5 Z"/></g>
<g><path style="opacity:1" fill="#d73b38" d="M 1741.5,610.5 C 1744.93,611.397 1746.26,613.397 1745.5,616.5C 1748.67,622.833 1751.83,629.167 1755,635.5C 1757.81,638.498 1759.14,637.831 1759,633.5C 1758.91,637.254 1759.08,640.921 1759.5,644.5C 1758.36,644.092 1757.36,643.425 1756.5,642.5C 1754.17,637.163 1751.33,632.163 1748,627.5C 1745.13,622.059 1742.97,616.393 1741.5,610.5 Z"/></g>
<g><path style="opacity:1" fill="#cf4240" d="M 1927.5,618.5 C 1931.51,624.825 1933.84,631.825 1934.5,639.5C 1932.3,632.509 1929.96,625.509 1927.5,618.5 Z"/></g>
<g><path style="opacity:1" fill="#d04c48" d="M 2033.5,623.5 C 2037.81,627.454 2041.15,632.12 2043.5,637.5C 2038.21,634.216 2034.88,629.549 2033.5,623.5 Z"/></g>
<g><path style="opacity:1" fill="#d34947" d="M 1811.5,639.5 C 1813.56,643.475 1815.73,647.475 1818,651.5C 1818.49,652.793 1818.66,654.127 1818.5,655.5C 1815.02,650.745 1812.69,645.412 1811.5,639.5 Z"/></g>
<g><path style="opacity:1" fill="#d53133" d="M 1761.5,648.5 C 1763.65,650.505 1766.15,652.172 1769,653.5C 1768.5,655.198 1768.67,656.865 1769.5,658.5C 1772.44,661.252 1774.78,664.418 1776.5,668C 1777.45,668.617 1778.28,668.451 1779,667.5C 1779.31,668.766 1779.81,669.933 1780.5,671C 1780.17,671.333 1779.83,671.667 1779.5,672C 1781.61,673.264 1782.61,675.097 1782.5,677.5C 1774.4,668.72 1767.4,659.053 1761.5,648.5 Z"/></g>
<g><path style="opacity:1" fill="#da3635" d="M 2047.5,643.5 C 2053.89,651.251 2060.06,659.251 2066,667.5C 2068.98,671.798 2071.15,676.464 2072.5,681.5C 2070.82,680 2069.49,678.167 2068.5,676C 2067.26,675.544 2066.42,676.044 2066,677.5C 2065.21,671.199 2062.55,665.865 2058,661.5C 2057.33,662.833 2056.67,662.833 2056,661.5C 2055.06,658.879 2054.23,656.212 2053.5,653.5C 2052.26,652.754 2050.93,652.421 2049.5,652.5C 2048.83,649.5 2048.17,646.5 2047.5,643.5 Z"/></g>
<g><path style="opacity:1" fill="#fcd6d3" d="M 1941.5,655.5 C 1944.92,659.323 1947.58,663.657 1949.5,668.5C 1947.97,667.933 1946.47,667.267 1945,666.5C 1944.87,663.997 1943.87,661.997 1942,660.5C 1941.51,658.866 1941.34,657.199 1941.5,655.5 Z"/></g>
<g><path style="opacity:1" fill="#dd3532" d="M 1819.5,656.5 C 1824.93,667.341 1830.93,678.008 1837.5,688.5C 1838.75,690.323 1839.41,692.323 1839.5,694.5C 1838.42,694.461 1837.42,694.127 1836.5,693.5C 1835.83,695.167 1835.17,696.833 1834.5,698.5C 1831.86,697.259 1831.02,695.259 1832,692.5C 1833.4,691.774 1834.23,690.607 1834.5,689C 1832.69,685.631 1831.36,682.131 1830.5,678.5C 1828.55,678.227 1827.05,678.893 1826,680.5C 1825.16,678.162 1824.33,675.828 1823.5,673.5C 1826.46,669.769 1825.46,668.102 1820.5,668.5C 1820.5,664.466 1820.16,660.466 1819.5,656.5 Z"/></g>
<g><path style="opacity:1" fill="#d64f4b" d="M 1849.5,708.5 C 1852.28,710.951 1854.28,713.951 1855.5,717.5C 1851.76,715.691 1849.76,712.691 1849.5,708.5 Z"/></g>
<g><path style="opacity:1" fill="#de6b6a" d="M 1857.5,719.5 C 1858.89,720.899 1859.89,722.566 1860.5,724.5C 1858.24,723.656 1857.24,721.989 1857.5,719.5 Z"/></g>
<g><path style="opacity:1" fill="#d94d52" d="M 2081.5,705.5 C 2083,711.26 2083.67,717.26 2083.5,723.5C 2083.7,729.417 2083.03,735.084 2081.5,740.5C 2082.6,728.825 2082.6,717.158 2081.5,705.5 Z"/></g>
<g><path style="opacity:1" fill="#e16a6b" d="M 1823.5,726.5 C 1826.17,727.167 1827.83,728.833 1828.5,731.5C 1826.5,730.167 1824.83,728.5 1823.5,726.5 Z"/></g>
<g><path style="opacity:1" fill="#d24e4a" d="M 1999.5,737.5 C 2001.12,737.36 2002.29,738.027 2003,739.5C 2004.17,743.531 2005.34,747.531 2006.5,751.5C 2004.47,746.745 2002.13,742.079 1999.5,737.5 Z"/></g>
<g><path style="opacity:1" fill="#d04441" d="M 2006.5,751.5 C 2008.19,754.223 2009.69,757.223 2011,760.5C 2012.62,769.967 2012.79,779.3 2011.5,788.5C 2011.55,775.917 2009.89,763.583 2006.5,751.5 Z"/></g>
<g><path style="opacity:1" fill="#de6668" d="M 1890.5,767.5 C 1891.89,768.899 1892.89,770.566 1893.5,772.5C 1891.24,771.656 1890.24,769.989 1890.5,767.5 Z"/></g>
<g><path style="opacity:1" fill="#da3c38" d="M 1893.5,772.5 C 1898.98,779.655 1903.65,787.322 1907.5,795.5C 1904.53,794.973 1902.2,793.473 1900.5,791C 1901.31,790.692 1901.97,790.192 1902.5,789.5C 1900.79,787.295 1899.29,784.962 1898,782.5C 1896.61,781.185 1895.61,781.519 1895,783.5C 1894.68,781.939 1893.85,780.772 1892.5,780C 1893.43,779.612 1894.09,778.945 1894.5,778C 1893.77,776.234 1893.43,774.401 1893.5,772.5 Z"/></g>
<g><path style="opacity:1" fill="#c94846" d="M 2011.5,791.5 C 2011.66,794.187 2011.5,796.854 2011,799.5C 2010.9,801.653 2010.07,803.319 2008.5,804.5C 2008.88,799.908 2009.88,795.575 2011.5,791.5 Z"/></g>
<g><path style="opacity:1" fill="#d5514f" d="M 1892.5,793.5 C 1894.54,794.031 1896.21,795.198 1897.5,797C 1898.79,797.49 1900.13,797.657 1901.5,797.5C 1901.5,798.833 1901.5,800.167 1901.5,801.5C 1906.02,804.344 1910.02,808.01 1913.5,812.5C 1905.88,806.857 1898.88,800.523 1892.5,793.5 Z"/></g>
<g><path style="opacity:1" fill="#dd6b6a" d="M 2008.5,804.5 C 2008.07,808.427 2007.07,812.093 2005.5,815.5C 2005.52,811.466 2006.52,807.799 2008.5,804.5 Z"/></g>
<g><path style="opacity:1" fill="#136fb5" d="M 2449.5,897.5 C 2449.57,908.892 2448.9,920.225 2447.5,931.5C 2444.08,947.124 2437.75,961.458 2428.5,974.5C 2407.24,1002.45 2381.24,1024.78 2350.5,1041.5C 2310.77,1063.36 2268.77,1079.69 2224.5,1090.5C 2223.6,1087.44 2224.6,1084.94 2227.5,1083C 2272.64,1061.33 2313.14,1032.83 2349,997.5C 2362.48,983.205 2373.48,967.205 2382,949.5C 2400.14,905.546 2390.64,869.379 2353.5,841C 2327.83,825.053 2300.49,821.053 2271.5,829C 2265.85,830.46 2260.35,832.293 2255,834.5C 2255.82,830.634 2257.99,827.467 2261.5,825C 2270.05,818.365 2279.71,814.032 2290.5,812C 2338.69,799.887 2382.02,809.22 2420.5,840C 2429.68,850.17 2437.51,861.336 2444,873.5C 2446.78,881.284 2448.61,889.284 2449.5,897.5 Z"/></g>
<g><path style="opacity:1" fill="#4e86b1" d="M 1736.5,825.5 C 1739.55,822.701 1738.89,821.368 1734.5,821.5C 1721.5,822.567 1708.5,823.567 1695.5,824.5C 1713.91,821.184 1732.57,820.184 1751.5,821.5C 1746.6,823.246 1741.6,824.58 1736.5,825.5 Z"/></g>
<g><path style="opacity:1" fill="#136fb5" d="M 1736.5,825.5 C 1696.84,834.997 1658.51,848.163 1621.5,865C 1614.55,868.894 1608.72,874.06 1604,880.5C 1603.19,882.902 1603.35,885.235 1604.5,887.5C 1607.71,890.876 1611.38,893.71 1615.5,896C 1633.7,901.946 1652.37,905.946 1671.5,908C 1708.76,911.164 1746.1,912.664 1783.5,912.5C 1904.07,911.965 2024.07,903.465 2143.5,887C 2170.23,882.983 2196.9,878.983 2223.5,875C 2201.82,885.006 2180.82,896.34 2160.5,909C 2128.5,917.334 2096.16,924 2063.5,929C 1952.03,944.589 1840.03,950.756 1727.5,947.5C 1723.22,946.173 1718.55,945.507 1713.5,945.5C 1696.84,944.523 1680.18,943.856 1663.5,943.5C 1618.32,941.256 1573.99,934.423 1530.5,923C 1522.11,919.761 1514.11,915.761 1506.5,911C 1498.28,904.283 1497.44,896.783 1504,888.5C 1507.45,886.381 1510.62,883.881 1513.5,881C 1533.11,871.69 1552.78,862.69 1572.5,854C 1597.18,845.662 1622.18,838.329 1647.5,832C 1663.27,828.247 1679.27,825.747 1695.5,824.5C 1708.5,823.567 1721.5,822.567 1734.5,821.5C 1738.89,821.368 1739.55,822.701 1736.5,825.5 Z"/></g>
<g><path style="opacity:1" fill="#f5b5af" d="M 1996.5,850.5 C 1993.63,854.228 1989.96,856.894 1985.5,858.5C 1987.69,856.366 1990.02,854.199 1992.5,852C 1993.74,851.209 1995.08,850.709 1996.5,850.5 Z"/></g>
<g><path style="opacity:1" fill="#d44043" d="M 1983.5,851.5 C 1982.47,854.372 1980.81,856.872 1978.5,859C 1980.2,859.384 1981.86,859.218 1983.5,858.5C 1980.14,861.163 1976.48,863.496 1972.5,865.5C 1971.83,865.5 1971.5,865.167 1971.5,864.5C 1975.53,860.141 1979.53,855.807 1983.5,851.5 Z"/></g>
<g><path style="opacity:1" fill="#ce8d92" d="M 1971.5,864.5 C 1971.5,865.167 1971.83,865.5 1972.5,865.5C 1971.59,866.965 1970.26,867.965 1968.5,868.5C 1967.48,867.998 1967.31,867.332 1968,866.5C 1969.11,865.695 1970.28,865.028 1971.5,864.5 Z"/></g>
<g><path style="opacity:1" fill="#437daa" d="M 2449.5,897.5 C 2450.66,904.655 2450.82,911.988 2450,919.5C 2449.81,923.767 2448.98,927.767 2447.5,931.5C 2448.9,920.225 2449.57,908.892 2449.5,897.5 Z"/></g>
<g><path style="opacity:1" fill="#538ab7" d="M 1663.5,943.5 C 1680.18,943.856 1696.84,944.523 1713.5,945.5C 1718.55,945.507 1723.22,946.173 1727.5,947.5C 1705.97,946.826 1684.64,945.493 1663.5,943.5 Z"/></g>
<g><path style="opacity:1" fill="#116fb5" d="M 1722.5,1040.5 C 1761.2,1045.4 1800.2,1048.07 1839.5,1048.5C 1855.32,1049.5 1871.32,1049.83 1887.5,1049.5C 1913.55,1049.41 1939.55,1048.25 1965.5,1046C 1966.42,1045.72 1967.08,1045.22 1967.5,1044.5C 1994.05,1041.18 2020.72,1037.68 2047.5,1034C 2067.89,1029.8 2088.39,1026.3 2109,1023.5C 2110.83,1023.67 2112.67,1023.83 2114.5,1024C 2130.01,1038.93 2148.01,1050.1 2168.5,1057.5C 2169.6,1058.63 2169.27,1059.46 2167.5,1060C 2031.88,1098.05 1893.88,1110.38 1753.5,1097C 1720.69,1093.57 1688.69,1086.57 1657.5,1076C 1643.35,1071.68 1631.18,1064.18 1621,1053.5C 1615.29,1045.98 1613.95,1037.64 1617,1028.5C 1622.87,1020.96 1629.71,1014.46 1637.5,1009C 1654.13,999.124 1671.8,991.791 1690.5,987C 1683.54,992.628 1678.04,999.461 1674,1007.5C 1671.57,1013.24 1672.24,1018.58 1676,1023.5C 1679.87,1028.85 1685.03,1032.35 1691.5,1034C 1701.54,1037.59 1711.87,1039.76 1722.5,1040.5 Z"/></g>
<g><path style="opacity:1" fill="#e2f4fa" d="M 1722.5,1040.5 C 1761.75,1042.17 1800.75,1044.84 1839.5,1048.5C 1800.2,1048.07 1761.2,1045.4 1722.5,1040.5 Z"/></g>
<g><path style="opacity:1" fill="#3776aa" d="M 1967.5,1044.5 C 1967.08,1045.22 1966.42,1045.72 1965.5,1046C 1939.55,1048.25 1913.55,1049.41 1887.5,1049.5C 1914.01,1047.85 1940.68,1046.18 1967.5,1044.5 Z"/></g>
<g><path style="opacity:1" fill="#106fb5" d="M 1775.5,1188.5 C 1791.19,1191.65 1807.19,1192.98 1823.5,1192.5C 1826.17,1192.5 1828.83,1192.5 1831.5,1192.5C 1848.64,1194.02 1865.97,1194.69 1883.5,1194.5C 1901.03,1194.69 1918.36,1194.02 1935.5,1192.5C 1978.47,1188.8 2021.13,1182.8 2063.5,1174.5C 2064.83,1174.67 2066.17,1174.83 2067.5,1175C 2092.51,1189.01 2118.18,1201.68 2144.5,1213C 2085.39,1237.93 2023.72,1253.43 1959.5,1259.5C 1953.95,1259.53 1948.62,1260.19 1943.5,1261.5C 1900.76,1264.69 1858.1,1264.02 1815.5,1259.5C 1812.92,1258.78 1810.25,1257.94 1807.5,1257C 1796.11,1255.6 1784.78,1254.1 1773.5,1252.5C 1740.04,1247.85 1708.71,1237.35 1679.5,1221C 1671.57,1214.74 1664.74,1207.58 1659,1199.5C 1656.52,1192.18 1657.18,1185.18 1661,1178.5C 1664.69,1173.31 1669.19,1168.98 1674.5,1165.5C 1689.72,1155.91 1706.05,1148.91 1723.5,1144.5C 1724.17,1144.67 1724.83,1144.83 1725.5,1145C 1720.67,1148.83 1716.17,1152.99 1712,1157.5C 1711.33,1160.83 1711.33,1164.17 1712,1167.5C 1717.33,1174.1 1724.17,1178.6 1732.5,1181C 1746.84,1184.24 1761.17,1186.74 1775.5,1188.5 Z"/></g>
<g><path style="opacity:1" fill="#3378aa" d="M 1775.5,1188.5 C 1791.64,1189.85 1807.64,1191.18 1823.5,1192.5C 1807.19,1192.98 1791.19,1191.65 1775.5,1188.5 Z"/></g>
<g><path style="opacity:1" fill="#dbf6fc" d="M 1831.5,1192.5 C 1866.17,1193.67 1900.84,1193.67 1935.5,1192.5C 1918.36,1194.02 1901.03,1194.69 1883.5,1194.5C 1865.97,1194.69 1848.64,1194.02 1831.5,1192.5 Z"/></g>
<g><path style="opacity:1" fill="#4480ae" d="M 1773.5,1252.5 C 1784.78,1254.1 1796.11,1255.6 1807.5,1257C 1810.25,1257.94 1812.92,1258.78 1815.5,1259.5C 1801.13,1258.63 1787.13,1256.29 1773.5,1252.5 Z"/></g>
<g><path style="opacity:1" fill="#90c0de" d="M 1543.5,1251.5 C 1538.42,1253.14 1533.08,1254.14 1527.5,1254.5C 1532.53,1252.59 1537.86,1251.59 1543.5,1251.5 Z"/></g>
<g><path style="opacity:1" fill="#7baed2" d="M 1613.5,1255.5 C 1614.04,1255.56 1614.38,1255.89 1614.5,1256.5C 1609.54,1257.49 1604.54,1257.83 1599.5,1257.5C 1604.17,1256.83 1608.83,1256.17 1613.5,1255.5 Z"/></g>
<g><path style="opacity:1" fill="#9ecae7" d="M 1959.5,1259.5 C 1954.43,1261.18 1949.1,1261.84 1943.5,1261.5C 1948.62,1260.19 1953.95,1259.53 1959.5,1259.5 Z"/></g>
<g><path style="opacity:1" fill="#126fb5" d="M 1613.5,1255.5 C 1608.83,1256.17 1604.17,1256.83 1599.5,1257.5C 1562.22,1261.48 1526.89,1271.65 1493.5,1288C 1486.72,1292.11 1480.89,1297.28 1476,1303.5C 1474.55,1310.76 1477.05,1316.26 1483.5,1320C 1511.44,1331.9 1540.44,1340.24 1570.5,1345C 1627.99,1354 1685.65,1359.83 1743.5,1362.5C 1748.65,1363.33 1753.98,1363.83 1759.5,1364C 1807.67,1364.83 1855.67,1364.66 1903.5,1363.5C 1946.18,1362.5 1988.85,1361.17 2031.5,1359.5C 2045.83,1359.06 2060.17,1358.56 2074.5,1358C 2076.38,1357.8 2078.05,1357.3 2079.5,1356.5C 2095.52,1355.67 2111.52,1354.5 2127.5,1353C 2131.74,1352.67 2135.74,1351.83 2139.5,1350.5C 2179.7,1346.42 2219.7,1340.92 2259.5,1334C 2279.09,1330.27 2298.42,1325.6 2317.5,1320C 2327.79,1316.43 2337.79,1312.27 2347.5,1307.5C 2352.49,1306.52 2356.16,1303.85 2358.5,1299.5C 2359.94,1297.94 2361.61,1296.6 2363.5,1295.5C 2365.02,1294.1 2366.68,1292.77 2368.5,1291.5C 2369.15,1286.15 2370.48,1280.98 2372.5,1276C 2370.94,1272.98 2369.27,1270.14 2367.5,1267.5C 2368.5,1267.5 2369.5,1267.5 2370.5,1267.5C 2376.76,1269.77 2381.43,1273.77 2384.5,1279.5C 2385.76,1283.37 2386.43,1287.37 2386.5,1291.5C 2385.93,1295.32 2384.76,1298.99 2383,1302.5C 2373.37,1312.24 2362.54,1320.4 2350.5,1327C 2321.61,1339.85 2291.94,1350.52 2261.5,1359C 2154.35,1384.48 2045.69,1398.31 1935.5,1400.5C 1855.47,1402 1775.47,1401 1695.5,1397.5C 1652.51,1395.46 1609.84,1391.46 1567.5,1385.5C 1560.67,1384.16 1553.67,1382.99 1546.5,1382C 1546.17,1381.67 1545.83,1381.33 1545.5,1381C 1547.5,1380.67 1549.5,1380.33 1551.5,1380C 1539.53,1380.2 1527.53,1379.87 1515.5,1379C 1513.96,1378.71 1512.62,1378.04 1511.5,1377C 1503.5,1376.36 1495.5,1375.86 1487.5,1375.5C 1469.78,1373.24 1452.11,1370.41 1434.5,1367C 1423.9,1364.24 1413.57,1360.91 1403.5,1357C 1394.33,1353.17 1387.83,1346.67 1384,1337.5C 1382.59,1330.86 1383.93,1324.86 1388,1319.5C 1397.75,1308.55 1408.91,1299.38 1421.5,1292C 1454.94,1274.11 1490.28,1261.61 1527.5,1254.5C 1533.08,1254.14 1538.42,1253.14 1543.5,1251.5C 1560.76,1248.53 1578.09,1248.03 1595.5,1250C 1601.71,1251.4 1607.71,1253.23 1613.5,1255.5 Z"/></g>
<g><path style="opacity:1" fill="#6a99bf" d="M 2384.5,1279.5 C 2387.46,1283.17 2388.12,1287.17 2386.5,1291.5C 2386.43,1287.37 2385.76,1283.37 2384.5,1279.5 Z"/></g>
<g><path style="opacity:1" fill="#3b7caf" d="M 2370.5,1267.5 C 2369.5,1267.5 2368.5,1267.5 2367.5,1267.5C 2369.27,1270.14 2370.94,1272.98 2372.5,1276C 2370.48,1280.98 2369.15,1286.15 2368.5,1291.5C 2366.68,1292.77 2365.02,1294.1 2363.5,1295.5C 2364.73,1292.04 2366.23,1288.71 2368,1285.5C 2369.92,1277.43 2368.09,1270.43 2362.5,1264.5C 2365.71,1263.76 2368.37,1264.76 2370.5,1267.5 Z"/></g>
<g><path style="opacity:1" fill="#4b86b1" d="M 2358.5,1299.5 C 2356.16,1303.85 2352.49,1306.52 2347.5,1307.5C 2351.27,1305.1 2354.94,1302.43 2358.5,1299.5 Z"/></g>
<g><path style="opacity:1" fill="#3d7aae" d="M 2139.5,1350.5 C 2135.74,1351.83 2131.74,1352.67 2127.5,1353C 2111.52,1354.5 2095.52,1355.67 2079.5,1356.5C 2099.31,1354.03 2119.31,1352.03 2139.5,1350.5 Z"/></g>
<g><path style="opacity:1" fill="#3473a6" d="M 2079.5,1356.5 C 2078.05,1357.3 2076.38,1357.8 2074.5,1358C 2060.17,1358.56 2045.83,1359.06 2031.5,1359.5C 2047.3,1357.68 2063.3,1356.68 2079.5,1356.5 Z"/></g>
<g><path style="opacity:1" fill="#4882b3" d="M 1743.5,1362.5 C 1796.83,1363.38 1850.16,1363.72 1903.5,1363.5C 1855.67,1364.66 1807.67,1364.83 1759.5,1364C 1753.98,1363.83 1748.65,1363.33 1743.5,1362.5 Z"/></g>
<g><path style="opacity:1" fill="#3074ad" d="M 1487.5,1375.5 C 1495.5,1375.86 1503.5,1376.36 1511.5,1377C 1512.62,1378.04 1513.96,1378.71 1515.5,1379C 1527.53,1379.87 1539.53,1380.2 1551.5,1380C 1549.5,1380.33 1547.5,1380.67 1545.5,1381C 1545.83,1381.33 1546.17,1381.67 1546.5,1382C 1553.67,1382.99 1560.67,1384.16 1567.5,1385.5C 1540.53,1383.54 1513.86,1380.21 1487.5,1375.5 Z"/></g>
<g><path style="opacity:1" fill="#3e7aac" d="M 1695.5,1397.5 C 1775.47,1401 1855.47,1402 1935.5,1400.5C 1930.35,1401.33 1925.02,1401.83 1919.5,1402C 1871.5,1402.67 1823.5,1402.67 1775.5,1402C 1748.66,1400.83 1721.99,1399.33 1695.5,1397.5 Z"/></g>
<g><path style="opacity:1" fill="#146fb5" d="M 1727.5,1462.5 C 1718.56,1461.28 1709.56,1459.78 1700.5,1458C 1694.84,1457.5 1689.18,1457.33 1683.5,1457.5C 1649.68,1454.04 1617.01,1446.2 1585.5,1434C 1583,1432.92 1580.67,1431.59 1578.5,1430C 1689.92,1445.39 1801.92,1451.72 1914.5,1449C 1948.18,1448.08 1981.84,1446.92 2015.5,1445.5C 2024.5,1445.06 2033.5,1444.56 2042.5,1444C 2044.38,1443.8 2046.05,1443.3 2047.5,1442.5C 2139.49,1435.84 2230.16,1421.67 2319.5,1400C 2346.63,1391.76 2373.29,1382.43 2399.5,1372C 2411.75,1365.54 2423.75,1358.54 2435.5,1351C 2440.68,1346.99 2445.34,1342.49 2449.5,1337.5C 2450.64,1339.42 2450.81,1341.42 2450,1343.5C 2443.11,1362.73 2431.28,1378.23 2414.5,1390C 2407.37,1394.07 2400.37,1398.4 2393.5,1403C 2385.06,1407.55 2376.4,1411.55 2367.5,1415C 2327.6,1429.79 2286.6,1440.79 2244.5,1448C 2163.37,1460.95 2081.71,1468.62 1999.5,1471C 1927.46,1472.36 1855.46,1471.36 1783.5,1468C 1764.64,1466.66 1745.97,1464.83 1727.5,1462.5 Z"/></g>
<g><path style="opacity:1" fill="#5c93bc" d="M 2047.5,1442.5 C 2046.05,1443.3 2044.38,1443.8 2042.5,1444C 2033.5,1444.56 2024.5,1445.06 2015.5,1445.5C 2025.96,1443.84 2036.62,1442.84 2047.5,1442.5 Z"/></g>
<g><path style="opacity:1" fill="#3879a9" d="M 1683.5,1457.5 C 1689.18,1457.33 1694.84,1457.5 1700.5,1458C 1709.56,1459.78 1718.56,1461.28 1727.5,1462.5C 1712.55,1462.13 1697.88,1460.46 1683.5,1457.5 Z"/></g>
<g><path style="opacity:1" fill="#e01e22" d="M 1423.5,1566.5 C 1447.01,1566.17 1470.34,1566.5 1493.5,1567.5C 1492.65,1703.35 1492.15,1839.35 1492,1975.5C 1492.78,1972.69 1493.62,1970.02 1494.5,1967.5C 1494.5,1972.83 1494.5,1978.17 1494.5,1983.5C 1494.81,1986.39 1494.47,1989.05 1493.5,1991.5C 1491.66,1999.26 1490.66,2007.26 1490.5,2015.5C 1489.48,2027.28 1486.81,2038.61 1482.5,2049.5C 1480.75,2051.03 1479.75,2053.03 1479.5,2055.5C 1476.16,2061.5 1472.83,2067.5 1469.5,2073.5C 1467.14,2074.87 1465.47,2076.87 1464.5,2079.5C 1464.17,2079.5 1463.83,2079.5 1463.5,2079.5C 1462.22,2081.45 1460.55,2083.12 1458.5,2084.5C 1457.87,2085.42 1457.54,2086.42 1457.5,2087.5C 1437.55,2108.34 1413.89,2124.01 1386.5,2134.5C 1383.82,2132.86 1381.82,2130.53 1380.5,2127.5C 1380.62,2125.52 1379.95,2123.85 1378.5,2122.5C 1375.83,2121.17 1373.83,2119.17 1372.5,2116.5C 1371.58,2115.87 1370.58,2115.54 1369.5,2115.5C 1365.8,2111.8 1362.46,2107.8 1359.5,2103.5C 1359.11,2101.06 1357.95,2099.06 1356,2097.5C 1355.51,2096.21 1355.34,2094.87 1355.5,2093.5C 1358.24,2091.44 1361.24,2089.77 1364.5,2088.5C 1365.98,2088.76 1367.31,2088.43 1368.5,2087.5C 1371.06,2085.39 1373.39,2083.05 1375.5,2080.5C 1378.17,2078.17 1380.83,2075.83 1383.5,2073.5C 1387.45,2071.39 1391.28,2069.05 1395,2066.5C 1397.15,2061.34 1400.48,2057.01 1405,2053.5C 1405.49,2052.21 1405.66,2050.87 1405.5,2049.5C 1406.84,2047.13 1408.17,2044.8 1409.5,2042.5C 1411.25,2040.97 1412.25,2038.97 1412.5,2036.5C 1415.06,2029.47 1417.4,2022.47 1419.5,2015.5C 1420.96,2010.4 1421.62,2005.07 1421.5,1999.5C 1421.67,1994.14 1422.17,1988.81 1423,1983.5C 1423.5,1844.5 1423.67,1705.5 1423.5,1566.5 Z"/></g>
<g><path style="opacity:1" fill="#ee171f" d="M 1493.5,1567.5 C 1494.5,1700.67 1494.83,1834 1494.5,1967.5C 1493.62,1970.02 1492.78,1972.69 1492,1975.5C 1492.15,1839.35 1492.65,1703.35 1493.5,1567.5 Z"/></g>
<g><path style="opacity:1" fill="#cb373b" d="M 1423.5,1566.5 C 1447.33,1565.5 1471.33,1565.17 1495.5,1565.5C 1495.83,1705 1495.5,1844.33 1494.5,1983.5C 1494.5,1978.17 1494.5,1972.83 1494.5,1967.5C 1494.83,1834 1494.5,1700.67 1493.5,1567.5C 1470.34,1566.5 1447.01,1566.17 1423.5,1566.5 Z"/></g>
<g><path style="opacity:1" fill="#da6260" d="M 1711.5,1679.5 C 1694.17,1678.34 1676.84,1678.34 1659.5,1679.5C 1668.63,1678.08 1677.96,1677.42 1687.5,1677.5C 1695.72,1677.33 1703.72,1678 1711.5,1679.5 Z"/></g>
<g><path style="opacity:1" fill="#e16766" d="M 2319.5,1678.5 C 2305.5,1678.67 2291.5,1679 2277.5,1679.5C 2285.95,1678.04 2294.62,1677.37 2303.5,1677.5C 2309.01,1677.5 2314.34,1677.83 2319.5,1678.5 Z"/></g>
<g><path style="opacity:1" fill="#e01f22" d="M 1711.5,1679.5 C 1713.5,1679.5 1715.5,1679.5 1717.5,1679.5C 1718.35,1680.97 1719.68,1681.8 1721.5,1682C 1732.93,1684.17 1743.93,1687.51 1754.5,1692C 1756.13,1692.49 1757.8,1692.66 1759.5,1692.5C 1766.79,1696.16 1773.46,1700.82 1779.5,1706.5C 1780.08,1708.75 1781.41,1710.42 1783.5,1711.5C 1787.46,1715.31 1790.96,1719.65 1794,1724.5C 1796.05,1727.94 1797.55,1731.61 1798.5,1735.5C 1798.57,1738.43 1799.23,1741.09 1800.5,1743.5C 1801.34,1743.84 1801.67,1744.51 1801.5,1745.5C 1801.26,1747.9 1801.93,1749.9 1803.5,1751.5C 1803.5,1752.17 1803.5,1752.83 1803.5,1753.5C 1804.47,1840.49 1804.8,1927.49 1804.5,2014.5C 1787.5,2014.5 1770.5,2014.5 1753.5,2014.5C 1753.33,2009.08 1752.33,2004.08 1750.5,1999.5C 1750.75,1993.92 1750.08,1988.58 1748.5,1983.5C 1747.6,1982.79 1747.26,1981.79 1747.5,1980.5C 1741.56,1983.23 1736.23,1987.07 1731.5,1992C 1727.61,1994.77 1723.61,1997.27 1719.5,1999.5C 1716.81,2001.21 1714.14,2002.87 1711.5,2004.5C 1708.13,2005.99 1704.79,2007.82 1701.5,2010C 1697.58,2011.46 1693.58,2012.63 1689.5,2013.5C 1683.12,2014.23 1677.12,2015.9 1671.5,2018.5C 1669.04,2019.53 1666.37,2020.2 1663.5,2020.5C 1646.43,2020.89 1629.43,2020.22 1612.5,2018.5C 1608.02,2018.12 1603.69,2017.12 1599.5,2015.5C 1596.34,2014.09 1593.34,2012.42 1590.5,2010.5C 1587.87,2007.89 1584.87,2005.72 1581.5,2004C 1579.65,2002.87 1577.65,2002.37 1575.5,2002.5C 1573.15,2000.42 1570.65,1998.42 1568,1996.5C 1565.24,1992.65 1562.24,1988.98 1559,1985.5C 1555.86,1979.56 1553.03,1973.56 1550.5,1967.5C 1550.27,1962.78 1549.6,1958.11 1548.5,1953.5C 1549.89,1949.29 1549.39,1945.29 1547,1941.5C 1546.36,1929.49 1546.52,1917.49 1547.5,1905.5C 1551.35,1885.35 1561.02,1868.68 1576.5,1855.5C 1578.75,1854.92 1580.42,1853.59 1581.5,1851.5C 1582.17,1850.83 1582.83,1850.17 1583.5,1849.5C 1586.72,1848.49 1590.05,1847.66 1593.5,1847C 1595.17,1844.1 1597.17,1841.6 1599.5,1839.5C 1605.29,1838.27 1610.63,1835.94 1615.5,1832.5C 1624.08,1829.83 1632.75,1827.66 1641.5,1826C 1643.07,1825.39 1644.4,1824.56 1645.5,1823.5C 1651.31,1821.47 1657.31,1820.47 1663.5,1820.5C 1688.49,1819.55 1713.16,1818.22 1737.5,1816.5C 1738.91,1798.64 1738.74,1780.64 1737,1762.5C 1736.37,1757.69 1734.2,1753.69 1730.5,1750.5C 1729.58,1749.87 1728.58,1749.54 1727.5,1749.5C 1726.8,1747.28 1725.46,1745.45 1723.5,1744C 1715.22,1737.3 1705.88,1732.8 1695.5,1730.5C 1679.56,1727.02 1663.56,1726.68 1647.5,1729.5C 1622.69,1731.54 1598.69,1737.04 1575.5,1746C 1573.93,1746.76 1572.6,1746.6 1571.5,1745.5C 1570.87,1740.64 1569.87,1735.97 1568.5,1731.5C 1567.85,1729.56 1567.52,1727.56 1567.5,1725.5C 1567.74,1723.1 1567.07,1721.1 1565.5,1719.5C 1565.5,1719.17 1565.5,1718.83 1565.5,1718.5C 1565.59,1715.85 1564.92,1713.51 1563.5,1711.5C 1561.58,1706.91 1562.91,1703.91 1567.5,1702.5C 1569.53,1702.66 1571.53,1702.5 1573.5,1702C 1576.95,1700.25 1580.28,1698.42 1583.5,1696.5C 1593.77,1692.3 1604.43,1689.3 1615.5,1687.5C 1626.4,1685.58 1637.07,1683.25 1647.5,1680.5C 1651.45,1679.73 1655.45,1679.39 1659.5,1679.5C 1676.84,1678.34 1694.17,1678.34 1711.5,1679.5 Z"/></g>
<g><path style="opacity:1" fill="#e01f22" d="M 2319.5,1678.5 C 2330.43,1678.82 2341.1,1680.16 2351.5,1682.5C 2355.3,1683.87 2359.3,1684.87 2363.5,1685.5C 2364.83,1686.17 2366.17,1686.83 2367.5,1687.5C 2367.5,1688.5 2367.5,1689.5 2367.5,1690.5C 2372.85,1692.18 2378.18,1693.84 2383.5,1695.5C 2401.07,1705.41 2412.74,1720.08 2418.5,1739.5C 2420.1,1748.11 2421.6,1756.78 2423,1765.5C 2423.5,1848.5 2423.67,1931.5 2423.5,2014.5C 2406.5,2014.5 2389.5,2014.5 2372.5,2014.5C 2372.93,2011.12 2372.27,2008.12 2370.5,2005.5C 2369.01,1999.62 2368.01,1993.62 2367.5,1987.5C 2367.5,1985.17 2367.5,1982.83 2367.5,1980.5C 2365.3,1980.12 2363.64,1980.79 2362.5,1982.5C 2344.54,1997.94 2324.21,2009.28 2301.5,2016.5C 2299.1,2016.26 2297.1,2016.93 2295.5,2018.5C 2289.28,2020.01 2282.94,2020.67 2276.5,2020.5C 2267.16,2020.67 2257.83,2020.5 2248.5,2020C 2240.05,2018.92 2231.72,2017.75 2223.5,2016.5C 2220.69,2015.92 2218.02,2014.92 2215.5,2013.5C 2212.66,2011.08 2209.33,2009.75 2205.5,2009.5C 2203.87,2006.2 2201.2,2004.54 2197.5,2004.5C 2196.42,2002.41 2194.75,2001.08 2192.5,2000.5C 2190.27,1999.77 2188.43,1998.44 2187,1996.5C 2183.71,1991.55 2180.05,1986.88 2176,1982.5C 2175.52,1981.55 2175.35,1980.55 2175.5,1979.5C 2174.2,1975.91 2172.54,1972.58 2170.5,1969.5C 2159.89,1939.04 2161.56,1909.37 2175.5,1880.5C 2176.5,1880.59 2177.33,1880.25 2178,1879.5C 2179.45,1876.93 2180.62,1874.26 2181.5,1871.5C 2181.43,1869.97 2182.09,1868.97 2183.5,1868.5C 2186.88,1866.12 2189.55,1863.12 2191.5,1859.5C 2200.81,1849.86 2211.47,1842.19 2223.5,1836.5C 2226.49,1836.83 2228.82,1835.83 2230.5,1833.5C 2243.41,1827.31 2257.08,1823.64 2271.5,1822.5C 2278.69,1822.16 2285.86,1821.5 2293,1820.5C 2295.38,1820.65 2297.55,1821.32 2299.5,1822.5C 2303.41,1821.18 2307.41,1820.18 2311.5,1819.5C 2326.82,1818.5 2342.15,1818.17 2357.5,1818.5C 2357.83,1803.99 2357.5,1789.66 2356.5,1775.5C 2356.71,1772.5 2356.04,1769.84 2354.5,1767.5C 2354.5,1767.17 2354.5,1766.83 2354.5,1766.5C 2354.59,1763.85 2353.92,1761.51 2352.5,1759.5C 2347.91,1748.98 2340.57,1740.98 2330.5,1735.5C 2328.02,1733.48 2325.35,1731.65 2322.5,1730C 2317.21,1729.02 2311.87,1728.52 2306.5,1728.5C 2305.5,1728.5 2304.5,1728.5 2303.5,1728.5C 2298.34,1727.83 2293.01,1727.5 2287.5,1727.5C 2279.28,1727.33 2271.28,1728 2263.5,1729.5C 2241.72,1732.22 2220.39,1736.89 2199.5,1743.5C 2197.21,1743.72 2195.05,1744.39 2193,1745.5C 2191.99,1744.94 2191.16,1744.28 2190.5,1743.5C 2189.57,1742.43 2189.23,1741.1 2189.5,1739.5C 2188.87,1735.3 2187.87,1731.3 2186.5,1727.5C 2186.5,1726.5 2186.5,1725.5 2186.5,1724.5C 2185.41,1718.86 2184.41,1713.2 2183.5,1707.5C 2183.75,1705.93 2184.42,1704.59 2185.5,1703.5C 2187.97,1703.25 2189.97,1702.25 2191.5,1700.5C 2206.97,1694.35 2222.97,1689.35 2239.5,1685.5C 2243.9,1685.58 2248.23,1685.08 2252.5,1684C 2253.06,1683.62 2253.39,1683.12 2253.5,1682.5C 2261.42,1680.98 2269.42,1679.98 2277.5,1679.5C 2291.5,1679 2305.5,1678.67 2319.5,1678.5 Z"/></g>
<g><path style="opacity:1" fill="#ce3838" d="M 1717.5,1679.5 C 1732.22,1681.85 1746.22,1686.19 1759.5,1692.5C 1757.8,1692.66 1756.13,1692.49 1754.5,1692C 1743.93,1687.51 1732.93,1684.17 1721.5,1682C 1719.68,1681.8 1718.35,1680.97 1717.5,1679.5 Z"/></g>
<g><path style="opacity:1" fill="#d05454" d="M 1919.5,1684.5 C 1895.5,1684.5 1871.5,1684.5 1847.5,1684.5C 1847.5,1685.5 1847.5,1686.5 1847.5,1687.5C 1846.57,1686.43 1846.23,1685.1 1846.5,1683.5C 1871.01,1683.17 1895.34,1683.5 1919.5,1684.5 Z"/></g>
<g><path style="opacity:1" fill="#d05757" d="M 2131.5,1697.5 C 2131.93,1693.18 2132.26,1688.84 2132.5,1684.5C 2109.33,1684.17 2086.33,1684.5 2063.5,1685.5C 2063.5,1686.17 2063.5,1686.83 2063.5,1687.5C 2063.17,1687.5 2062.83,1687.5 2062.5,1687.5C 2062.5,1686.17 2062.5,1684.83 2062.5,1683.5C 2086.5,1683.5 2110.5,1683.5 2134.5,1683.5C 2134,1687.49 2133.5,1691.49 2133,1695.5C 2132.72,1696.42 2132.22,1697.08 2131.5,1697.5 Z"/></g>
<g><path style="opacity:1" fill="#fac9c3" d="M 2351.5,1682.5 C 2356.07,1681.89 2360.07,1682.89 2363.5,1685.5C 2359.3,1684.87 2355.3,1683.87 2351.5,1682.5 Z"/></g>
<g><path style="opacity:1" fill="#d64f4f" d="M 2253.5,1682.5 C 2253.39,1683.12 2253.06,1683.62 2252.5,1684C 2248.23,1685.08 2243.9,1685.58 2239.5,1685.5C 2243.91,1683.87 2248.58,1682.87 2253.5,1682.5 Z"/></g>
<g><path style="opacity:1" fill="#d2504d" d="M 1647.5,1680.5 C 1637.07,1683.25 1626.4,1685.58 1615.5,1687.5C 1615.61,1686.88 1615.94,1686.38 1616.5,1686C 1626.73,1683.65 1637.07,1681.81 1647.5,1680.5 Z"/></g>
<g><path style="opacity:1" fill="#da2123" d="M 2444.5,1688.5 C 2443.67,1694.99 2443.17,1701.65 2443,1708.5C 2442.59,1708.96 2442.09,1709.29 2441.5,1709.5C 2440.83,1702.34 2440.17,1695.34 2439.5,1688.5C 2439.17,1688.5 2438.83,1688.5 2438.5,1688.5C 2436.17,1688.5 2433.83,1688.5 2431.5,1688.5C 2431.5,1687.17 2431.5,1685.83 2431.5,1684.5C 2438.5,1684.5 2445.5,1684.5 2452.5,1684.5C 2452.5,1685.83 2452.5,1687.17 2452.5,1688.5C 2449.83,1688.5 2447.17,1688.5 2444.5,1688.5 Z"/></g>
<g><path style="opacity:1" fill="#d63736" d="M 2474.5,1707.5 C 2474.5,1706.17 2474.5,1704.83 2474.5,1703.5C 2470.5,1704.17 2468.83,1702.5 2469.5,1698.5C 2470.79,1699.06 2471.62,1700.06 2472,1701.5C 2474.59,1695.91 2477.09,1690.24 2479.5,1684.5C 2481.74,1683.53 2484.08,1683.19 2486.5,1683.5C 2486.5,1692.83 2486.5,1702.17 2486.5,1711.5C 2484.83,1711.5 2483.17,1711.5 2481.5,1711.5C 2481.67,1704.83 2481.5,1698.16 2481,1691.5C 2478.82,1696.94 2476.65,1702.28 2474.5,1707.5 Z"/></g>
<g><path style="opacity:1" fill="#d64945" d="M 2367.5,1687.5 C 2373.68,1688.87 2379.01,1691.53 2383.5,1695.5C 2378.18,1693.84 2372.85,1692.18 2367.5,1690.5C 2367.5,1689.5 2367.5,1688.5 2367.5,1687.5 Z"/></g>
<g><path style="opacity:1" fill="#e01f22" d="M 1919.5,1684.5 C 1920.48,1689.86 1921.64,1695.2 1923,1700.5C 1923.24,1702.12 1924.07,1703.12 1925.5,1703.5C 1930.49,1719.43 1935.49,1735.43 1940.5,1751.5C 1940.26,1753.9 1940.93,1755.9 1942.5,1757.5C 1944.44,1761.99 1945.77,1766.65 1946.5,1771.5C 1945.98,1776.82 1946.98,1781.82 1949.5,1786.5C 1949.96,1787.3 1950.62,1787.63 1951.5,1787.5C 1951.61,1789.72 1952.28,1791.72 1953.5,1793.5C 1953.26,1795.9 1953.93,1797.9 1955.5,1799.5C 1957.04,1801.84 1957.71,1804.5 1957.5,1807.5C 1958.79,1813.03 1960.46,1818.37 1962.5,1823.5C 1963.56,1824.6 1964.39,1825.93 1965,1827.5C 1967.81,1836.77 1970.31,1846.11 1972.5,1855.5C 1973.34,1860.08 1974.67,1864.42 1976.5,1868.5C 1977.5,1874.16 1978.84,1879.83 1980.5,1885.5C 1980.08,1886.67 1979.41,1887.67 1978.5,1888.5C 1980.13,1891.63 1981.97,1894.63 1984,1897.5C 1983.89,1905.5 1985.73,1912.84 1989.5,1919.5C 1990.34,1919.84 1990.67,1920.51 1990.5,1921.5C 1989.91,1926.69 1990.91,1931.36 1993.5,1935.5C 1993.79,1940.34 1994.63,1945.01 1996,1949.5C 1996.46,1948.91 1996.63,1948.24 1996.5,1947.5C 1998.01,1945.82 1999.01,1943.82 1999.5,1941.5C 2000.75,1941.42 2001.58,1940.76 2002,1939.5C 2002.5,1937.53 2002.66,1935.53 2002.5,1933.5C 2003.5,1933.5 2004.5,1933.5 2005.5,1933.5C 2005.56,1930.25 2006.4,1927.25 2008,1924.5C 2008.67,1926.83 2008.67,1929.17 2008,1931.5C 2006.8,1934.16 2005.97,1937 2005.5,1940C 2006.59,1941.82 2007.59,1941.65 2008.5,1939.5C 2008.07,1938.71 2007.74,1937.87 2007.5,1937C 2012.11,1931.38 2012.45,1925.71 2008.5,1920C 2008.67,1918.83 2008.83,1917.67 2009,1916.5C 2011.19,1913.45 2012.86,1910.12 2014,1906.5C 2014.33,1907.83 2014.67,1909.17 2015,1910.5C 2014.28,1905.49 2014.45,1900.49 2015.5,1895.5C 2018.36,1881.93 2022.03,1868.59 2026.5,1855.5C 2028.07,1853.9 2028.74,1851.9 2028.5,1849.5C 2030.28,1846.5 2031.28,1843.16 2031.5,1839.5C 2032.65,1839.21 2033.32,1838.38 2033.5,1837C 2034.45,1831.47 2035.45,1825.97 2036.5,1820.5C 2036.5,1820.17 2036.5,1819.83 2036.5,1819.5C 2037.8,1817.33 2038.97,1814.99 2040,1812.5C 2042.78,1803 2044.61,1793.33 2045.5,1783.5C 2045.96,1779.46 2046.62,1775.46 2047.5,1771.5C 2048.97,1770.65 2049.8,1769.32 2050,1767.5C 2050.5,1764.85 2050.66,1762.19 2050.5,1759.5C 2050.53,1755.36 2051.2,1751.36 2052.5,1747.5C 2055.06,1741.21 2056.4,1734.55 2056.5,1727.5C 2058.51,1714.06 2060.51,1700.72 2062.5,1687.5C 2062.83,1687.5 2063.17,1687.5 2063.5,1687.5C 2148.83,1686.83 2148.83,1686.17 2063.5,1685.5C 2086.33,1684.5 2109.33,1684.17 2132.5,1684.5C 2132.26,1688.84 2131.93,1693.18 2131.5,1697.5C 2130.26,1707.61 2128.59,1717.61 2126.5,1727.5C 2121.64,1748.42 2116.64,1769.42 2111.5,1790.5C 2111.5,1790.83 2111.5,1791.17 2111.5,1791.5C 2110.08,1793.51 2109.41,1795.85 2109.5,1798.5C 2107.03,1806.88 2104.7,1815.21 2102.5,1823.5C 2101.13,1827.3 2100.13,1831.3 2099.5,1835.5C 2082.43,1893.73 2061.43,1950.39 2036.5,2005.5C 2033.55,2007.73 2031.88,2010.73 2031.5,2014.5C 2004.33,2014.17 1977.33,2014.5 1950.5,2015.5C 1949.5,2015.5 1948.5,2015.5 1947.5,2015.5C 1941.18,1994.21 1934.85,1972.88 1928.5,1951.5C 1928.54,1948.09 1928.04,1944.76 1927,1941.5C 1926.65,1938.85 1925.48,1936.85 1923.5,1935.5C 1915.97,1911.23 1908.3,1886.89 1900.5,1862.5C 1898.34,1854.69 1896.01,1847.02 1893.5,1839.5C 1891.87,1833.3 1889.87,1827.3 1887.5,1821.5C 1878.36,1790.07 1869.02,1758.74 1859.5,1727.5C 1859.91,1722.72 1858.57,1718.72 1855.5,1715.5C 1852.62,1706.19 1849.95,1696.86 1847.5,1687.5C 1847.5,1686.5 1847.5,1685.5 1847.5,1684.5C 1871.5,1684.5 1895.5,1684.5 1919.5,1684.5 Z"/></g>
<g><path style="opacity:1" fill="#e81a20" d="M 2063.5,1685.5 C 2148.83,1686.17 2148.83,1686.83 2063.5,1687.5C 2063.5,1686.83 2063.5,1686.17 2063.5,1685.5 Z"/></g>
<g><path style="opacity:1" fill="#ef9696" d="M 2438.5,1688.5 C 2438.83,1688.5 2439.17,1688.5 2439.5,1688.5C 2439.5,1695.83 2439.5,1703.17 2439.5,1710.5C 2441.17,1710.5 2442.83,1710.5 2444.5,1710.5C 2442.74,1711.46 2440.74,1711.79 2438.5,1711.5C 2438.5,1703.83 2438.5,1696.17 2438.5,1688.5 Z"/></g>
<g><path style="opacity:1" fill="#e21f21" d="M 2481.5,1685.5 C 2482.83,1685.5 2484.17,1685.5 2485.5,1685.5C 2485.5,1693.17 2485.5,1700.83 2485.5,1708.5C 2484.5,1708.5 2483.5,1708.5 2482.5,1708.5C 2482.65,1700.8 2482.31,1693.14 2481.5,1685.5 Z"/></g>
<g><path style="opacity:1" fill="#d34b45" d="M 1919.5,1684.5 C 1922.68,1690.37 1924.68,1696.7 1925.5,1703.5C 1924.07,1703.12 1923.24,1702.12 1923,1700.5C 1921.64,1695.2 1920.48,1689.86 1919.5,1684.5 Z"/></g>
<g><path style="opacity:1" fill="#e18786" d="M 2464.5,1684.5 C 2462.17,1684.5 2459.83,1684.5 2457.5,1684.5C 2457.5,1693.17 2457.5,1701.83 2457.5,1710.5C 2458.83,1710.5 2460.17,1710.5 2461.5,1710.5C 2461.17,1704.13 2461.5,1697.8 2462.5,1691.5C 2463.11,1691.62 2463.44,1691.96 2463.5,1692.5C 2462.51,1698.64 2462.18,1704.98 2462.5,1711.5C 2460.5,1711.5 2458.5,1711.5 2456.5,1711.5C 2456.5,1702.17 2456.5,1692.83 2456.5,1683.5C 2459.39,1683.19 2462.05,1683.53 2464.5,1684.5 Z"/></g>
<g><path style="opacity:1" fill="#da2828" d="M 2464.5,1684.5 C 2467.04,1688.76 2468.71,1693.43 2469.5,1698.5C 2468.83,1702.5 2470.5,1704.17 2474.5,1703.5C 2474.5,1704.83 2474.5,1706.17 2474.5,1707.5C 2474.5,1708.5 2474.5,1709.5 2474.5,1710.5C 2472.53,1710.74 2470.7,1710.41 2469,1709.5C 2467.86,1703.57 2466.02,1697.9 2463.5,1692.5C 2463.44,1691.96 2463.11,1691.62 2462.5,1691.5C 2461.5,1697.8 2461.17,1704.13 2461.5,1710.5C 2460.17,1710.5 2458.83,1710.5 2457.5,1710.5C 2457.5,1701.83 2457.5,1693.17 2457.5,1684.5C 2459.83,1684.5 2462.17,1684.5 2464.5,1684.5 Z"/></g>
<g><path style="opacity:1" fill="#d65550" d="M 1583.5,1696.5 C 1580.28,1698.42 1576.95,1700.25 1573.5,1702C 1571.53,1702.5 1569.53,1702.66 1567.5,1702.5C 1572.54,1699.93 1577.87,1697.93 1583.5,1696.5 Z"/></g>
<g><path style="opacity:1" fill="#e1726e" d="M 2191.5,1700.5 C 2189.97,1702.25 2187.97,1703.25 2185.5,1703.5C 2187.03,1701.75 2189.03,1700.75 2191.5,1700.5 Z"/></g>
<g><path style="opacity:1" fill="#c13132" d="M 2439.5,1688.5 C 2440.17,1695.34 2440.83,1702.34 2441.5,1709.5C 2442.09,1709.29 2442.59,1708.96 2443,1708.5C 2443.17,1701.65 2443.67,1694.99 2444.5,1688.5C 2444.5,1695.83 2444.5,1703.17 2444.5,1710.5C 2442.83,1710.5 2441.17,1710.5 2439.5,1710.5C 2439.5,1703.17 2439.5,1695.83 2439.5,1688.5 Z"/></g>
<g><path style="opacity:1" fill="#cd3f3f" d="M 2185.5,1703.5 C 2184.42,1704.59 2183.75,1705.93 2183.5,1707.5C 2184.41,1713.2 2185.41,1718.86 2186.5,1724.5C 2184.47,1718.88 2182.8,1713.04 2181.5,1707C 2181.82,1704.67 2183.16,1703.51 2185.5,1703.5 Z"/></g>
<g><path style="opacity:1" fill="#da6c68" d="M 1779.5,1706.5 C 1781.59,1707.58 1782.92,1709.25 1783.5,1711.5C 1781.41,1710.42 1780.08,1708.75 1779.5,1706.5 Z"/></g>
<g><path style="opacity:1" fill="#cb4041" d="M 1855.5,1715.5 C 1858.57,1718.72 1859.91,1722.72 1859.5,1727.5C 1858.18,1723.59 1856.85,1719.59 1855.5,1715.5 Z"/></g>
<g><path style="opacity:1" fill="#f89fa3" d="M 1563.5,1711.5 C 1564.92,1713.51 1565.59,1715.85 1565.5,1718.5C 1563.84,1716.56 1563.17,1714.23 1563.5,1711.5 Z"/></g>
<g><path style="opacity:1" fill="#d57b7d" d="M 1565.5,1719.5 C 1567.07,1721.1 1567.74,1723.1 1567.5,1725.5C 1565.93,1723.9 1565.26,1721.9 1565.5,1719.5 Z"/></g>
<g><path style="opacity:1" fill="#e1b5b7" d="M 2303.5,1728.5 C 2290.15,1728.42 2276.82,1728.75 2263.5,1729.5C 2271.28,1728 2279.28,1727.33 2287.5,1727.5C 2293.01,1727.5 2298.34,1727.83 2303.5,1728.5 Z"/></g>
<g><path style="opacity:1" fill="#f8e0dd" d="M 1695.5,1730.5 C 1679.51,1729.7 1663.51,1729.37 1647.5,1729.5C 1663.56,1726.68 1679.56,1727.02 1695.5,1730.5 Z"/></g>
<g><path style="opacity:1" fill="#d34947" d="M 2306.5,1728.5 C 2311.87,1728.52 2317.21,1729.02 2322.5,1730C 2325.35,1731.65 2328.02,1733.48 2330.5,1735.5C 2322.55,1732.85 2314.55,1730.51 2306.5,1728.5 Z"/></g>
<g><path style="opacity:1" fill="#d44d4d" d="M 2056.5,1727.5 C 2056.4,1734.55 2055.06,1741.21 2052.5,1747.5C 2053.2,1740.58 2054.54,1733.92 2056.5,1727.5 Z"/></g>
<g><path style="opacity:1" fill="#f6bbb9" d="M 2186.5,1727.5 C 2187.87,1731.3 2188.87,1735.3 2189.5,1739.5C 2186.89,1736.03 2185.89,1732.03 2186.5,1727.5 Z"/></g>
<g><path style="opacity:1" fill="#d05e59" d="M 1798.5,1735.5 C 1800.04,1737.84 1800.71,1740.5 1800.5,1743.5C 1799.23,1741.09 1798.57,1738.43 1798.5,1735.5 Z"/></g>
<g><path style="opacity:1" fill="#f7bfbb" d="M 1568.5,1731.5 C 1569.87,1735.97 1570.87,1740.64 1571.5,1745.5C 1568.91,1741.36 1567.91,1736.69 1568.5,1731.5 Z"/></g>
<g><path style="opacity:1" fill="#e1888b" d="M 2190.5,1743.5 C 2191.16,1744.28 2191.99,1744.94 2193,1745.5C 2195.05,1744.39 2197.21,1743.72 2199.5,1743.5C 2197.08,1745.49 2194.24,1746.82 2191,1747.5C 2190.51,1746.21 2190.34,1744.87 2190.5,1743.5 Z"/></g>
<g><path style="opacity:1" fill="#f08e8f" d="M 1801.5,1745.5 C 1803.07,1747.1 1803.74,1749.1 1803.5,1751.5C 1801.93,1749.9 1801.26,1747.9 1801.5,1745.5 Z"/></g>
<g><path style="opacity:1" fill="#e37575" d="M 1940.5,1751.5 C 1942.07,1753.1 1942.74,1755.1 1942.5,1757.5C 1940.93,1755.9 1940.26,1753.9 1940.5,1751.5 Z"/></g>
<g><path style="opacity:1" fill="#dc4848" d="M 1727.5,1749.5 C 1728.58,1749.54 1729.58,1749.87 1730.5,1750.5C 1734.2,1753.69 1736.37,1757.69 1737,1762.5C 1738.74,1780.64 1738.91,1798.64 1737.5,1816.5C 1737.67,1801.5 1737.5,1786.5 1737,1771.5C 1735.09,1763.58 1731.92,1756.25 1727.5,1749.5 Z"/></g>
<g><path style="opacity:1" fill="#fde0dd" d="M 2126.5,1727.5 C 2126.67,1731.18 2126.5,1734.85 2126,1738.5C 2123.38,1748.75 2121.04,1759.09 2119,1769.5C 2115.48,1776.41 2113.81,1783.74 2114,1791.5C 2113.66,1789.38 2112.82,1789.05 2111.5,1790.5C 2116.64,1769.42 2121.64,1748.42 2126.5,1727.5 Z"/></g>
<g><path style="opacity:1" fill="#eca5a3" d="M 2352.5,1759.5 C 2353.92,1761.51 2354.59,1763.85 2354.5,1766.5C 2353.08,1764.49 2352.41,1762.15 2352.5,1759.5 Z"/></g>
<g><path style="opacity:1" fill="#d54f4c" d="M 2050.5,1759.5 C 2050.66,1762.19 2050.5,1764.85 2050,1767.5C 2049.8,1769.32 2048.97,1770.65 2047.5,1771.5C 2047.95,1767.25 2048.95,1763.25 2050.5,1759.5 Z"/></g>
<g><path style="opacity:1" fill="#f48b83" d="M 2354.5,1767.5 C 2356.04,1769.84 2356.71,1772.5 2356.5,1775.5C 2355.23,1773.09 2354.57,1770.43 2354.5,1767.5 Z"/></g>
<g><path style="opacity:1" fill="#d1333a" d="M 1803.5,1753.5 C 1804.31,1755.29 1804.81,1757.29 1805,1759.5C 1805.5,1844.83 1805.67,1930.17 1805.5,2015.5C 1787.83,2015.67 1770.16,2015.5 1752.5,2015C 1751.14,2009.96 1750.47,2004.79 1750.5,1999.5C 1752.33,2004.08 1753.33,2009.08 1753.5,2014.5C 1770.5,2014.5 1787.5,2014.5 1804.5,2014.5C 1804.8,1927.49 1804.47,1840.49 1803.5,1753.5 Z"/></g>
<g><path style="opacity:1" fill="#c33136" d="M 2418.5,1739.5 C 2420.86,1745.88 2422.69,1752.55 2424,1759.5C 2424.83,1845 2424.67,1930.33 2423.5,2015.5C 2423.5,2015.17 2423.5,2014.83 2423.5,2014.5C 2423.67,1931.5 2423.5,1848.5 2423,1765.5C 2421.6,1756.78 2420.1,1748.11 2418.5,1739.5 Z"/></g>
<g><path style="opacity:1" fill="#d53d3c" d="M 1946.5,1771.5 C 1949.26,1776.39 1950.92,1781.72 1951.5,1787.5C 1950.62,1787.63 1949.96,1787.3 1949.5,1786.5C 1946.98,1781.82 1945.98,1776.82 1946.5,1771.5 Z"/></g>
<g><path style="opacity:1" fill="#f4a7a2" d="M 2111.5,1791.5 C 2111.59,1794.15 2110.92,1796.49 2109.5,1798.5C 2109.41,1795.85 2110.08,1793.51 2111.5,1791.5 Z"/></g>
<g><path style="opacity:1" fill="#e37277" d="M 1953.5,1793.5 C 1955.07,1795.1 1955.74,1797.1 1955.5,1799.5C 1953.93,1797.9 1953.26,1795.9 1953.5,1793.5 Z"/></g>
<g><path style="opacity:1" fill="#d34d4a" d="M 2045.5,1783.5 C 2044.61,1793.33 2042.78,1803 2040,1812.5C 2038.97,1814.99 2037.8,1817.33 2036.5,1819.5C 2038.9,1807.24 2041.9,1795.24 2045.5,1783.5 Z"/></g>
<g><path style="opacity:1" fill="#d55f64" d="M 1957.5,1807.5 C 1960.35,1812.38 1962.01,1817.71 1962.5,1823.5C 1960.46,1818.37 1958.79,1813.03 1957.5,1807.5 Z"/></g>
<g><path style="opacity:1" fill="#d4443f" d="M 1737.5,1816.5 C 1713.16,1818.22 1688.49,1819.55 1663.5,1820.5C 1673.92,1818.37 1684.58,1817.2 1695.5,1817C 1709.5,1816.5 1723.5,1816.33 1737.5,1816.5 Z"/></g>
<g><path style="opacity:1" fill="#d94944" d="M 2356.5,1775.5 C 2357.5,1789.66 2357.83,1803.99 2357.5,1818.5C 2342.15,1818.17 2326.82,1818.5 2311.5,1819.5C 2307.41,1820.18 2303.41,1821.18 2299.5,1822.5C 2297.55,1821.32 2295.38,1820.65 2293,1820.5C 2285.86,1821.5 2278.69,1822.16 2271.5,1822.5C 2274.53,1820.98 2277.87,1820.15 2281.5,1820C 2306.41,1817 2331.41,1815.83 2356.5,1816.5C 2356.5,1802.83 2356.5,1789.17 2356.5,1775.5 Z"/></g>
<g><path style="opacity:1" fill="#d04343" d="M 1645.5,1823.5 C 1644.4,1824.56 1643.07,1825.39 1641.5,1826C 1632.75,1827.66 1624.08,1829.83 1615.5,1832.5C 1618.62,1830.78 1621.96,1829.28 1625.5,1828C 1632.16,1826.39 1638.82,1824.89 1645.5,1823.5 Z"/></g>
<g><path style="opacity:1" fill="#fdd2d2" d="M 1887.5,1821.5 C 1889.87,1827.3 1891.87,1833.3 1893.5,1839.5C 1889.4,1834.34 1887.4,1828.34 1887.5,1821.5 Z"/></g>
<g><path style="opacity:1" fill="#f8bbb8" d="M 2102.5,1823.5 C 2102.95,1827.99 2101.95,1831.99 2099.5,1835.5C 2100.13,1831.3 2101.13,1827.3 2102.5,1823.5 Z"/></g>
<g><path style="opacity:1" fill="#d25351" d="M 1615.5,1832.5 C 1610.63,1835.94 1605.29,1838.27 1599.5,1839.5C 1604.31,1836.1 1609.64,1833.77 1615.5,1832.5 Z"/></g>
<g><path style="opacity:1" fill="#e17679" d="M 2230.5,1833.5 C 2228.82,1835.83 2226.49,1836.83 2223.5,1836.5C 2225.51,1834.93 2227.84,1833.93 2230.5,1833.5 Z"/></g>
<g><path style="opacity:1" fill="#d5524a" d="M 2036.5,1820.5 C 2035.45,1825.97 2034.45,1831.47 2033.5,1837C 2033.32,1838.38 2032.65,1839.21 2031.5,1839.5C 2032.53,1832.91 2034.19,1826.57 2036.5,1820.5 Z"/></g>
<g><path style="opacity:1" fill="#d96e6f" d="M 2031.5,1839.5 C 2031.28,1843.16 2030.28,1846.5 2028.5,1849.5C 2028.72,1845.84 2029.72,1842.5 2031.5,1839.5 Z"/></g>
<g><path style="opacity:1" fill="#d74243" d="M 1599.5,1839.5 C 1597.17,1841.6 1595.17,1844.1 1593.5,1847C 1590.05,1847.66 1586.72,1848.49 1583.5,1849.5C 1588.49,1845.67 1593.82,1842.34 1599.5,1839.5 Z"/></g>
<g><path style="opacity:1" fill="#fbccc8" d="M 1893.5,1839.5 C 1896.01,1847.02 1898.34,1854.69 1900.5,1862.5C 1896.76,1855.27 1894.42,1847.6 1893.5,1839.5 Z"/></g>
<g><path style="opacity:1" fill="#db6768" d="M 1581.5,1851.5 C 1580.42,1853.59 1578.75,1854.92 1576.5,1855.5C 1577.58,1853.41 1579.25,1852.08 1581.5,1851.5 Z"/></g>
<g><path style="opacity:1" fill="#f69ea2" d="M 2028.5,1849.5 C 2028.74,1851.9 2028.07,1853.9 2026.5,1855.5C 2026.26,1853.1 2026.93,1851.1 2028.5,1849.5 Z"/></g>
<g><path style="opacity:1" fill="#fefdfd" d="M 1721.5,1951.5 C 1718.8,1951.84 1716.8,1953.18 1715.5,1955.5C 1712.01,1956.41 1709.01,1958.08 1706.5,1960.5C 1702.41,1961.38 1698.74,1963.05 1695.5,1965.5C 1690.12,1967.17 1684.79,1968.84 1679.5,1970.5C 1668.83,1971.8 1658.16,1971.8 1647.5,1970.5C 1635.23,1967.28 1625.73,1960.28 1619,1949.5C 1612.62,1934.73 1610.95,1919.4 1614,1903.5C 1616.16,1896.52 1619.32,1890.19 1623.5,1884.5C 1625.75,1883.92 1627.42,1882.59 1628.5,1880.5C 1631.46,1876.88 1635.13,1874.04 1639.5,1872C 1654.68,1865.16 1670.68,1861.49 1687.5,1861C 1704.16,1860.5 1720.83,1860.33 1737.5,1860.5C 1737.83,1886.84 1737.5,1913.18 1736.5,1939.5C 1731.48,1943.52 1726.48,1947.52 1721.5,1951.5 Z"/></g>
<g><path style="opacity:1" fill="#d65b5b" d="M 2191.5,1859.5 C 2189.55,1863.12 2186.88,1866.12 2183.5,1868.5C 2185.48,1864.85 2188.15,1861.85 2191.5,1859.5 Z"/></g>
<g><path style="opacity:1" fill="#fefefd" d="M 2355.5,1938.5 C 2354.17,1940.17 2352.83,1941.83 2351.5,1943.5C 2347.36,1945.23 2344.02,1947.89 2341.5,1951.5C 2333.88,1954.98 2326.55,1958.98 2319.5,1963.5C 2311.77,1966.63 2303.77,1968.97 2295.5,1970.5C 2287.53,1971.4 2279.53,1971.74 2271.5,1971.5C 2264.64,1969.71 2257.97,1967.21 2251.5,1964C 2248.33,1960.83 2245.17,1957.67 2242,1954.5C 2239.91,1950.68 2237.75,1947.01 2235.5,1943.5C 2235.5,1942.17 2235.5,1940.83 2235.5,1939.5C 2233.19,1926.61 2232.86,1913.61 2234.5,1900.5C 2235.8,1895.23 2238.14,1890.56 2241.5,1886.5C 2243.83,1884.83 2245.83,1882.83 2247.5,1880.5C 2258.71,1870.33 2272.05,1864.67 2287.5,1863.5C 2310.12,1861.76 2332.79,1861.09 2355.5,1861.5C 2355.5,1887.17 2355.5,1912.83 2355.5,1938.5 Z"/></g>
<g><path style="opacity:1" fill="#d5504f" d="M 1972.5,1855.5 C 1974.9,1859.4 1976.23,1863.74 1976.5,1868.5C 1974.67,1864.42 1973.34,1860.08 1972.5,1855.5 Z"/></g>
<g><path style="opacity:1" fill="#ffe8e5" d="M 2319.5,1860.5 C 2331.83,1860.5 2344.17,1860.5 2356.5,1860.5C 2356.5,1886.5 2356.5,1912.5 2356.5,1938.5C 2356.17,1938.5 2355.83,1938.5 2355.5,1938.5C 2355.5,1912.83 2355.5,1887.17 2355.5,1861.5C 2332.79,1861.09 2310.12,1861.76 2287.5,1863.5C 2297.9,1861.2 2308.57,1860.2 2319.5,1860.5 Z"/></g>
<g><path style="opacity:1" fill="#e17877" d="M 2319.5,1860.5 C 2331.99,1859.5 2344.66,1859.17 2357.5,1859.5C 2357.83,1886.01 2357.5,1912.34 2356.5,1938.5C 2356.5,1912.5 2356.5,1886.5 2356.5,1860.5C 2344.17,1860.5 2331.83,1860.5 2319.5,1860.5 Z"/></g>
<g><path style="opacity:1" fill="#d2524f" d="M 2181.5,1871.5 C 2180.62,1874.26 2179.45,1876.93 2178,1879.5C 2177.33,1880.25 2176.5,1880.59 2175.5,1880.5C 2176.78,1876.91 2178.78,1873.91 2181.5,1871.5 Z"/></g>
<g><path style="opacity:1" fill="#f0a39d" d="M 1628.5,1880.5 C 1627.42,1882.59 1625.75,1883.92 1623.5,1884.5C 1624.58,1882.41 1626.25,1881.08 1628.5,1880.5 Z"/></g>
<g><path style="opacity:1" fill="#f29b9b" d="M 2247.5,1880.5 C 2245.83,1882.83 2243.83,1884.83 2241.5,1886.5C 2242.5,1883.5 2244.5,1881.5 2247.5,1880.5 Z"/></g>
<g><path style="opacity:1" fill="#d73e39" d="M 1976.5,1868.5 C 1980.27,1878.21 1983.43,1888.21 1986,1898.5C 1987.82,1905.4 1988.98,1912.4 1989.5,1919.5C 1985.73,1912.84 1983.89,1905.5 1984,1897.5C 1981.97,1894.63 1980.13,1891.63 1978.5,1888.5C 1979.41,1887.67 1980.08,1886.67 1980.5,1885.5C 1978.84,1879.83 1977.5,1874.16 1976.5,1868.5 Z"/></g>
<g><path style="opacity:1" fill="#fed7d7" d="M 2234.5,1900.5 C 2232.86,1913.61 2233.19,1926.61 2235.5,1939.5C 2234.83,1938.5 2234.17,1937.5 2233.5,1936.5C 2230.6,1924.3 2230.93,1912.3 2234.5,1900.5 Z"/></g>
<g><path style="opacity:1" fill="#d9302d" d="M 2015.5,1895.5 C 2014.45,1900.49 2014.28,1905.49 2015,1910.5C 2014.67,1909.17 2014.33,1907.83 2014,1906.5C 2012.86,1910.12 2011.19,1913.45 2009,1916.5C 2008.83,1917.67 2008.67,1918.83 2008.5,1920C 2012.45,1925.71 2012.11,1931.38 2007.5,1937C 2007.74,1937.87 2008.07,1938.71 2008.5,1939.5C 2007.59,1941.65 2006.59,1941.82 2005.5,1940C 2005.97,1937 2006.8,1934.16 2008,1931.5C 2008.67,1929.17 2008.67,1926.83 2008,1924.5C 2006.4,1927.25 2005.56,1930.25 2005.5,1933.5C 2004.5,1933.5 2003.5,1933.5 2002.5,1933.5C 2002.66,1935.53 2002.5,1937.53 2002,1939.5C 2001.58,1940.76 2000.75,1941.42 1999.5,1941.5C 2004.54,1925.98 2009.87,1910.65 2015.5,1895.5 Z"/></g>
<g><path style="opacity:1" fill="#d34649" d="M 1990.5,1921.5 C 1991.87,1925.97 1992.87,1930.64 1993.5,1935.5C 1990.91,1931.36 1989.91,1926.69 1990.5,1921.5 Z"/></g>
<g><path style="opacity:1" fill="#e97b7d" d="M 2233.5,1936.5 C 2234.17,1937.5 2234.83,1938.5 2235.5,1939.5C 2235.5,1940.83 2235.5,1942.17 2235.5,1943.5C 2234.08,1941.49 2233.41,1939.15 2233.5,1936.5 Z"/></g>
<g><path style="opacity:1" fill="#d54846" d="M 1923.5,1935.5 C 1925.48,1936.85 1926.65,1938.85 1927,1941.5C 1928.04,1944.76 1928.54,1948.09 1928.5,1951.5C 1925.74,1946.61 1924.08,1941.28 1923.5,1935.5 Z"/></g>
<g><path style="opacity:1" fill="#d94841" d="M 1547.5,1905.5 C 1546.52,1917.49 1546.36,1929.49 1547,1941.5C 1549.39,1945.29 1549.89,1949.29 1548.5,1953.5C 1549.6,1958.11 1550.27,1962.78 1550.5,1967.5C 1543.92,1947.09 1542.92,1926.42 1547.5,1905.5 Z"/></g>
<g><path style="opacity:1" fill="#d55b58" d="M 2351.5,1943.5 C 2349.16,1946 2346.82,1948.5 2344.5,1951C 2343.55,1951.48 2342.55,1951.65 2341.5,1951.5C 2344.02,1947.89 2347.36,1945.23 2351.5,1943.5 Z"/></g>
<g><path style="opacity:1" fill="#cb4341" d="M 1993.5,1935.5 C 1995.05,1939.25 1996.05,1943.25 1996.5,1947.5C 1996.63,1948.24 1996.46,1948.91 1996,1949.5C 1994.63,1945.01 1993.79,1940.34 1993.5,1935.5 Z"/></g>
<g><path style="opacity:1" fill="#ea8480" d="M 1721.5,1951.5 C 1719.85,1953.33 1717.85,1954.66 1715.5,1955.5C 1716.8,1953.18 1718.8,1951.84 1721.5,1951.5 Z"/></g>
<g><path style="opacity:1" fill="#d14543" d="M 2341.5,1951.5 C 2341.49,1953.02 2340.82,1954.18 2339.5,1955C 2333.79,1956.9 2328.45,1959.57 2323.5,1963C 2322.21,1963.49 2320.87,1963.66 2319.5,1963.5C 2326.55,1958.98 2333.88,1954.98 2341.5,1951.5 Z"/></g>
<g><path style="opacity:1" fill="#d95b5a" d="M 1706.5,1960.5 C 1703.5,1963.5 1699.84,1965.16 1695.5,1965.5C 1698.74,1963.05 1702.41,1961.38 1706.5,1960.5 Z"/></g>
<g><path style="opacity:1" fill="#dd4344" d="M 2319.5,1963.5 C 2315.4,1965.72 2311.4,1968.22 2307.5,1971C 2305.76,1971.65 2304.1,1971.48 2302.5,1970.5C 2301.45,1971.88 2300.12,1972.88 2298.5,1973.5C 2289.37,1972.86 2280.37,1972.19 2271.5,1971.5C 2279.53,1971.74 2287.53,1971.4 2295.5,1970.5C 2303.77,1968.97 2311.77,1966.63 2319.5,1963.5 Z"/></g>
<g><path style="opacity:1" fill="#da5a5e" d="M 1647.5,1970.5 C 1658.16,1971.8 1668.83,1971.8 1679.5,1970.5C 1674.54,1971.83 1669.21,1972.49 1663.5,1972.5C 1657.79,1972.49 1652.46,1971.83 1647.5,1970.5 Z"/></g>
<g><path style="opacity:1" fill="#db6c6a" d="M 2170.5,1969.5 C 2172.54,1972.58 2174.2,1975.91 2175.5,1979.5C 2172.71,1976.84 2171.04,1973.51 2170.5,1969.5 Z"/></g>
<g><path style="opacity:1" fill="#edbfc8" d="M 2367.5,1987.5 C 2365.84,1986.05 2365,1984.05 2365,1981.5C 2364.33,1982.25 2363.5,1982.59 2362.5,1982.5C 2363.64,1980.79 2365.3,1980.12 2367.5,1980.5C 2367.5,1982.83 2367.5,1985.17 2367.5,1987.5 Z"/></g>
<g><path style="opacity:1" fill="#d34b4a" d="M 1748.5,1983.5 C 1750.08,1988.58 1750.75,1993.92 1750.5,1999.5C 1749.19,1994.38 1748.53,1989.05 1748.5,1983.5 Z"/></g>
<g><path style="opacity:1" fill="#df6f6d" d="M 2192.5,2000.5 C 2194.75,2001.08 2196.42,2002.41 2197.5,2004.5C 2195.25,2003.92 2193.58,2002.59 2192.5,2000.5 Z"/></g>
<g><path style="opacity:1" fill="#cf4a43" d="M 1575.5,2002.5 C 1577.65,2002.37 1579.65,2002.87 1581.5,2004C 1584.87,2005.72 1587.87,2007.89 1590.5,2010.5C 1584.79,2009.14 1579.79,2006.48 1575.5,2002.5 Z"/></g>
<g><path style="opacity:1" fill="#f3adac" d="M 1719.5,1999.5 C 1717.84,2002.83 1715.17,2004.5 1711.5,2004.5C 1714.14,2002.87 1716.81,2001.21 1719.5,1999.5 Z"/></g>
<g><path style="opacity:1" fill="#db5150" d="M 2197.5,2004.5 C 2201.2,2004.54 2203.87,2006.2 2205.5,2009.5C 2202.49,2008.33 2199.82,2006.66 2197.5,2004.5 Z"/></g>
<g><path style="opacity:1" fill="#d65d60" d="M 1421.5,1999.5 C 1421.62,2005.07 1420.96,2010.4 1419.5,2015.5C 1419.53,2009.95 1420.19,2004.62 1421.5,1999.5 Z"/></g>
<g><path style="opacity:1" fill="#c83031" d="M 1493.5,1991.5 C 1493.92,1999.82 1492.92,2007.82 1490.5,2015.5C 1490.66,2007.26 1491.66,1999.26 1493.5,1991.5 Z"/></g>
<g><path style="opacity:1" fill="#d95f58" d="M 2205.5,2009.5 C 2209.33,2009.75 2212.66,2011.08 2215.5,2013.5C 2211.67,2013.25 2208.34,2011.92 2205.5,2009.5 Z"/></g>
<g><path style="opacity:1" fill="#d63e3c" d="M 1689.5,2013.5 C 1684.05,2016.88 1678.05,2018.54 1671.5,2018.5C 1677.12,2015.9 1683.12,2014.23 1689.5,2013.5 Z"/></g>
<g><path style="opacity:1" fill="#ef4e4f" d="M 2036.5,2005.5 C 2034.71,2008.63 2033.37,2011.97 2032.5,2015.5C 2005.17,2015.5 1977.83,2015.5 1950.5,2015.5C 1977.33,2014.5 2004.33,2014.17 2031.5,2014.5C 2031.88,2010.73 2033.55,2007.73 2036.5,2005.5 Z"/></g>
<g><path style="opacity:1" fill="#ef4e4b" d="M 2370.5,2005.5 C 2372.27,2008.12 2372.93,2011.12 2372.5,2014.5C 2389.5,2014.5 2406.5,2014.5 2423.5,2014.5C 2423.5,2014.83 2423.5,2015.17 2423.5,2015.5C 2406.17,2015.5 2388.83,2015.5 2371.5,2015.5C 2370.79,2012.21 2370.46,2008.88 2370.5,2005.5 Z"/></g>
<g><path style="opacity:1" fill="#f3a29e" d="M 2301.5,2016.5 C 2299.9,2018.07 2297.9,2018.74 2295.5,2018.5C 2297.1,2016.93 2299.1,2016.26 2301.5,2016.5 Z"/></g>
<g><path style="opacity:1" fill="#cf3b3e" d="M 1612.5,2018.5 C 1629.43,2020.22 1646.43,2020.89 1663.5,2020.5C 1661.05,2021.47 1658.39,2021.81 1655.5,2021.5C 1644.83,2021.67 1634.16,2021.5 1623.5,2021C 1619.69,2020.2 1616.02,2019.37 1612.5,2018.5 Z"/></g>
<g><path style="opacity:1" fill="#d54f4b" d="M 2223.5,2016.5 C 2231.72,2017.75 2240.05,2018.92 2248.5,2020C 2257.83,2020.5 2267.16,2020.67 2276.5,2020.5C 2269.75,2022.44 2262.75,2022.94 2255.5,2022C 2251.17,2021.67 2246.83,2021.33 2242.5,2021C 2235.91,2020.06 2229.58,2018.56 2223.5,2016.5 Z"/></g>
<g><path style="opacity:1" fill="#fde0dd" d="M 1599.5,2015.5 C 1603.69,2017.12 1608.02,2018.12 1612.5,2018.5C 1616.02,2019.37 1619.69,2020.2 1623.5,2021C 1634.16,2021.5 1644.83,2021.67 1655.5,2021.5C 1638.41,2023.39 1621.41,2022.55 1604.5,2019C 1602.03,2018.78 1600.36,2017.61 1599.5,2015.5 Z"/></g>
<g><path style="opacity:1" fill="#f19998" d="M 1412.5,2036.5 C 1412.25,2038.97 1411.25,2040.97 1409.5,2042.5C 1409.75,2040.03 1410.75,2038.03 1412.5,2036.5 Z"/></g>
<g><path style="opacity:1" fill="#e88b8a" d="M 1482.5,2049.5 C 1482.25,2051.97 1481.25,2053.97 1479.5,2055.5C 1479.75,2053.03 1480.75,2051.03 1482.5,2049.5 Z"/></g>
<g><path style="opacity:1" fill="#d64e4f" d="M 1405.5,2049.5 C 1405.66,2050.87 1405.49,2052.21 1405,2053.5C 1400.48,2057.01 1397.15,2061.34 1395,2066.5C 1391.28,2069.05 1387.45,2071.39 1383.5,2073.5C 1391.28,2065.96 1398.61,2057.96 1405.5,2049.5 Z"/></g>
<g><path style="opacity:1" fill="#f39b9b" d="M 1469.5,2073.5 C 1468.56,2076.11 1466.89,2078.11 1464.5,2079.5C 1465.47,2076.87 1467.14,2074.87 1469.5,2073.5 Z"/></g>
<g><path style="opacity:1" fill="#d3645f" d="M 1463.5,2079.5 C 1462.6,2082.96 1460.6,2085.63 1457.5,2087.5C 1457.54,2086.42 1457.87,2085.42 1458.5,2084.5C 1460.55,2083.12 1462.22,2081.45 1463.5,2079.5 Z"/></g>
<g><path style="opacity:1" fill="#d65452" d="M 1375.5,2080.5 C 1373.39,2083.05 1371.06,2085.39 1368.5,2087.5C 1367.31,2088.43 1365.98,2088.76 1364.5,2088.5C 1367.63,2085.1 1371.29,2082.44 1375.5,2080.5 Z"/></g>
<g><path style="opacity:1" fill="#cf4547" d="M 1355.5,2093.5 C 1355.34,2094.87 1355.51,2096.21 1356,2097.5C 1357.95,2099.06 1359.11,2101.06 1359.5,2103.5C 1357.29,2100.95 1354.96,2098.45 1352.5,2096C 1352.75,2094.25 1353.75,2093.42 1355.5,2093.5 Z"/></g>
<g><path style="opacity:1" fill="#d6413f" d="M 1369.5,2115.5 C 1370.58,2115.54 1371.58,2115.87 1372.5,2116.5C 1373.83,2119.17 1375.83,2121.17 1378.5,2122.5C 1379.95,2123.85 1380.62,2125.52 1380.5,2127.5C 1378.63,2127.14 1377.13,2126.14 1376,2124.5C 1373.61,2121.62 1371.45,2118.62 1369.5,2115.5 Z"/></g>
</svg>
