<?xml version="1.0" encoding="UTF-8"?>
<!DOCTYPE svg PUBLIC "-//W3C//DTD SVG 1.1//EN" "http://www.w3.org/Graphics/SVG/1.1/DTD/svg11.dtd">
<svg xmlns="http://www.w3.org/2000/svg" version="1.1" width="225px" height="225px" style="shape-rendering:geometricPrecision; text-rendering:geometricPrecision; image-rendering:optimizeQuality; fill-rule:evenodd; clip-rule:evenodd" xmlns:xlink="http://www.w3.org/1999/xlink">
<g><path style="opacity:1" fill="#fefefe" d="M -0.5,-0.5 C 74.5,-0.5 149.5,-0.5 224.5,-0.5C 224.5,74.5 224.5,149.5 224.5,224.5C 149.5,224.5 74.5,224.5 -0.5,224.5C -0.5,149.5 -0.5,74.5 -0.5,-0.5 Z"/></g>
<g><path style="opacity:1" fill="#58b664" d="M 109.5,22.5 C 121.631,21.4574 126.464,26.7908 124,38.5C 122.049,42.7146 118.716,44.7146 114,44.5C 108.206,44.4274 107.372,42.594 111.5,39C 118.796,37.7643 120.129,34.431 115.5,29C 110.544,28.7814 107.878,31.2814 107.5,36.5C 106.5,37.1667 105.5,37.8333 104.5,38.5C 100.971,31.5547 102.638,26.2214 109.5,22.5 Z"/></g>
<g><path style="opacity:1" fill="#e6563d" d="M 87.5,37.5 C 90.5184,37.3354 93.5184,37.502 96.5,38C 102.55,39.7287 102.884,42.062 97.5,45C 86.061,44.4503 81.561,49.617 84,60.5C 86.4689,62.6515 89.3022,64.1515 92.5,65C 93.3995,67.1917 94.3995,69.3584 95.5,71.5C 85.1615,73.5784 78.3282,69.5784 75,59.5C 73.2592,48.6338 77.4259,41.3005 87.5,37.5 Z"/></g>
<g><path style="opacity:1" fill="#f7c81e" d="M 104.5,44.5 C 108.827,50.1859 109.66,56.5192 107,63.5C 105.316,65.3513 103.483,67.018 101.5,68.5C 100.308,66.2585 99.3076,63.9252 98.5,61.5C 102.106,57.8397 102.439,53.8397 99.5,49.5C 101.521,48.1455 103.188,46.4788 104.5,44.5 Z"/></g>
<g><path style="opacity:1" fill="#5a91f9" d="M 104.5,71.5 C 133.3,68.8186 149.967,81.6519 154.5,110C 151.023,139.147 134.69,152.481 105.5,150C 88.9243,145.757 78.7576,135.257 75,118.5C 72.1775,100.982 78.0109,87.1487 92.5,77C 94.0249,75.9914 95.6916,75.4914 97.5,75.5C 98.4289,79.2843 99.7622,82.951 101.5,86.5C 87.3188,97.2246 84.1521,110.558 92,126.5C 102.751,138.535 115.251,140.702 129.5,133C 140.342,124.439 143.509,113.606 139,100.5C 132.442,87.8014 121.942,82.3014 107.5,84C 105.833,80.3333 104.167,76.6667 102.5,73C 103.416,72.7216 104.082,72.2216 104.5,71.5 Z"/></g>
<g><path style="opacity:1" fill="#6c7075" d="M 120.5,158.5 C 121.5,158.5 122.5,158.5 123.5,158.5C 123.334,165.175 123.5,171.842 124,178.5C 127.5,175 131,171.5 134.5,168C 136.167,167.333 137.833,167.333 139.5,168C 136.317,171.015 133.317,174.182 130.5,177.5C 133.623,181.578 136.623,185.745 139.5,190C 137.741,190.798 136.074,190.631 134.5,189.5C 132.167,186.167 129.833,182.833 127.5,179.5C 123.848,182.176 122.514,185.842 123.5,190.5C 122.5,190.5 121.5,190.5 120.5,190.5C 120.5,179.833 120.5,169.167 120.5,158.5 Z"/></g>
<g><path style="opacity:1" fill="#6d7076" d="M 163.5,167.5 C 164.5,167.5 165.5,167.5 166.5,167.5C 166.367,172.272 167.7,172.438 170.5,168C 172.473,167.505 174.473,167.338 176.5,167.5C 176.5,168.833 176.5,170.167 176.5,171.5C 172.361,170.704 169.195,172.037 167,175.5C 166.501,180.489 166.334,185.489 166.5,190.5C 165.5,190.5 164.5,190.5 163.5,190.5C 163.5,182.833 163.5,175.167 163.5,167.5 Z"/></g>
<g><path style="opacity:1" fill="#6d7176" d="M 146.5,167.5 C 155.613,166.382 160.279,170.382 160.5,179.5C 154.833,179.5 149.167,179.5 143.5,179.5C 145.64,188.13 150.474,189.797 158,184.5C 158.5,184.833 159,185.167 159.5,185.5C 153.417,192.142 147.251,192.142 141,185.5C 137.709,177.818 139.542,171.818 146.5,167.5 Z"/></g>
<g><path style="opacity:1" fill="#6e7277" d="M 77.5,167.5 C 90.1773,167.346 94.6773,173.346 91,185.5C 85.9145,191.116 80.0811,191.949 73.5,188C 68.4351,179.732 69.7684,172.899 77.5,167.5 Z"/></g>
<g><path style="opacity:1" fill="#fafafa" d="M 78.5,170.5 C 87.1923,170.701 90.3589,175.035 88,183.5C 82.8374,189.062 78.1708,188.729 74,182.5C 72.4742,177.239 73.9742,173.239 78.5,170.5 Z"/></g>
<g><path style="opacity:1" fill="#f9f9f9" d="M 147.5,170.5 C 152.494,169.813 155.494,171.813 156.5,176.5C 152.116,176.826 147.783,176.492 143.5,175.5C 144.508,173.501 145.841,171.834 147.5,170.5 Z"/></g>
<g><path style="opacity:1" fill="#6f7278" d="M 101.5,167.5 C 114.186,166.677 119.019,172.343 116,184.5C 109.297,192.399 102.63,192.399 96,184.5C 93.2691,177.307 95.1025,171.64 101.5,167.5 Z"/></g>
<g><path style="opacity:1" fill="#fbfbfb" d="M 103.5,170.5 C 111.642,170.481 114.808,174.481 113,182.5C 108.333,189.167 103.667,189.167 99,182.5C 97.4742,177.239 98.9742,173.239 103.5,170.5 Z"/></g>
<g><path style="opacity:1" fill="#686d72" d="M 55.5,158.5 C 55.5,168.167 55.5,177.833 55.5,187.5C 60.1667,187.5 64.8333,187.5 69.5,187.5C 69.5,188.5 69.5,189.5 69.5,190.5C 63.8333,190.5 58.1667,190.5 52.5,190.5C 52.5,179.833 52.5,169.167 52.5,158.5C 53.5,158.5 54.5,158.5 55.5,158.5 Z"/></g>
<g><path style="opacity:1" fill="#cbccce" d="M 55.5,158.5 C 56.4936,167.652 56.8269,176.985 56.5,186.5C 61.1667,186.5 65.8333,186.5 70.5,186.5C 70.5,188.167 70.5,189.833 70.5,191.5C 64.31,191.823 58.31,191.49 52.5,190.5C 58.1667,190.5 63.8333,190.5 69.5,190.5C 69.5,189.5 69.5,188.5 69.5,187.5C 64.8333,187.5 60.1667,187.5 55.5,187.5C 55.5,177.833 55.5,168.167 55.5,158.5 Z"/></g>
</svg>
