<?xml version="1.0" encoding="UTF-8"?>
<!DOCTYPE svg PUBLIC "-//W3C//DTD SVG 1.1//EN" "http://www.w3.org/Graphics/SVG/1.1/DTD/svg11.dtd">
<svg xmlns="http://www.w3.org/2000/svg" version="1.1" width="197px" height="255px" style="shape-rendering:geometricPrecision; text-rendering:geometricPrecision; image-rendering:optimizeQuality; fill-rule:evenodd; clip-rule:evenodd" xmlns:xlink="http://www.w3.org/1999/xlink">
<g><path style="opacity:1" fill="#fdfdfd" d="M -0.5,-0.5 C 65.1667,-0.5 130.833,-0.5 196.5,-0.5C 196.5,55.1667 196.5,110.833 196.5,166.5C 169.674,153.506 160.174,132.506 168,103.5C 173.307,92.8549 180.807,84.0216 190.5,77C 175.09,59.527 155.757,52.527 132.5,56C 124.363,58.2678 116.363,60.9344 108.5,64C 104.5,64.6667 100.5,64.6667 96.5,64C 79.1769,54.8677 61.1769,53.201 42.5,59C 16.0879,71.4593 3.42125,92.4593 4.5,122C 5.19444,159.101 18.1944,191.101 43.5,218C 51.828,225.329 61.4947,227.996 72.5,226C 79.1568,223.673 85.8235,221.34 92.5,219C 100.176,217.046 107.842,217.046 115.5,219C 122.363,221.732 129.363,224.066 136.5,226C 146.904,227.976 155.904,225.309 163.5,218C 178.358,203.651 189.358,186.817 196.5,167.5C 196.5,196.5 196.5,225.5 196.5,254.5C 130.833,254.5 65.1667,254.5 -0.5,254.5C -0.5,169.5 -0.5,84.5 -0.5,-0.5 Z"/></g>
<g><path style="opacity:1" fill="#010101" d="M 141.5,4.5 C 142.5,4.5 143.5,4.5 144.5,4.5C 144.5,8.5 144.5,12.5 144.5,16.5C 140.948,35.8852 129.948,49.0519 111.5,56C 107.249,57.1946 102.915,57.6946 98.5,57.5C 99.3178,28.8628 113.651,11.1962 141.5,4.5 Z"/></g>
<g><path style="opacity:1" fill="#808080" d="M 141.5,4.5 C 142.568,3.56552 143.901,3.23219 145.5,3.5C 145.818,8.03225 145.485,12.3656 144.5,16.5C 144.5,12.5 144.5,8.5 144.5,4.5C 143.5,4.5 142.5,4.5 141.5,4.5 Z"/></g>
<g><path style="opacity:1" fill="#000000" d="M 196.5,166.5 C 196.5,166.833 196.5,167.167 196.5,167.5C 189.358,186.817 178.358,203.651 163.5,218C 155.904,225.309 146.904,227.976 136.5,226C 129.363,224.066 122.363,221.732 115.5,219C 107.842,217.046 100.176,217.046 92.5,219C 85.8235,221.34 79.1568,223.673 72.5,226C 61.4947,227.996 51.828,225.329 43.5,218C 18.1944,191.101 5.19444,159.101 4.5,122C 3.42125,92.4593 16.0879,71.4593 42.5,59C 61.1769,53.201 79.1769,54.8677 96.5,64C 100.5,64.6667 104.5,64.6667 108.5,64C 116.363,60.9344 124.363,58.2678 132.5,56C 155.757,52.527 175.09,59.527 190.5,77C 180.807,84.0216 173.307,92.8549 168,103.5C 160.174,132.506 169.674,153.506 196.5,166.5 Z"/></g>
</svg>
