<?xml version="1.0" encoding="UTF-8"?>
<!DOCTYPE svg PUBLIC "-//W3C//DTD SVG 1.1//EN" "http://www.w3.org/Graphics/SVG/1.1/DTD/svg11.dtd">
<svg xmlns="http://www.w3.org/2000/svg" version="1.1" width="170px" height="115px" style="shape-rendering:geometricPrecision; text-rendering:geometricPrecision; image-rendering:optimizeQuality; fill-rule:evenodd; clip-rule:evenodd" xmlns:xlink="http://www.w3.org/1999/xlink">
<g><path style="opacity:1" fill="#fdfdfd" d="M -0.5,-0.5 C 56.1667,-0.5 112.833,-0.5 169.5,-0.5C 169.5,37.8333 169.5,76.1667 169.5,114.5C 112.833,114.5 56.1667,114.5 -0.5,114.5C -0.5,76.1667 -0.5,37.8333 -0.5,-0.5 Z"/></g>
<g><path style="opacity:1" fill="#5c859f" d="M 100.5,1.5 C 107.083,2.81037 113.416,4.64371 119.5,7C 127.517,10.6815 134.017,16.1815 139,23.5C 141.86,29.0813 144.526,34.7479 147,40.5C 152.09,43.2936 156.923,46.4603 161.5,50C 162.293,51.0852 162.96,52.2519 163.5,53.5C 160.286,54.0439 157.286,55.0439 154.5,56.5C 168.051,67.229 167.384,68.0623 152.5,59C 150.755,57.308 150.422,55.4747 151.5,53.5C 154.443,52.7565 157.443,52.2565 160.5,52C 155.703,48.5175 150.536,45.6841 145,43.5C 141.525,36.0791 137.859,28.7458 134,21.5C 125.246,11.7561 114.413,6.08939 101.5,4.5C 105.425,11.2543 108.925,18.2543 112,25.5C 111.555,29.1053 111.055,32.772 110.5,36.5C 110.343,40.1846 111.343,43.5179 113.5,46.5C 113.861,42.6139 115.361,39.2806 118,36.5C 119.722,41.6122 122.222,46.2789 125.5,50.5C 125.333,50.8333 125.167,51.1667 125,51.5C 122.205,49.2486 119.872,46.5819 118,43.5C 117.187,45.4357 116.687,47.4357 116.5,49.5C 115.127,49.6567 113.793,49.49 112.5,49C 111.333,47.1667 110.167,45.3333 109,43.5C 108.594,37.472 108.594,31.472 109,25.5C 106.434,21.9409 104.768,17.9409 104,13.5C 99.7562,10.3405 98.5895,6.34054 100.5,1.5 Z"/></g>
<g><path style="opacity:1" fill="#5c859f" d="M 112.5,12.5 C 115.076,12.7218 115.91,14.0551 115,16.5C 113.519,15.5291 112.685,14.1958 112.5,12.5 Z"/></g>
<g><path style="opacity:1" fill="#5e88a1" d="M 31.5,64.5 C 34.1194,64.2317 36.6194,64.565 39,65.5C 40.6469,77.7814 41.4802,90.1147 41.5,102.5C 39.5,102.5 37.5,102.5 35.5,102.5C 35.3753,93.0817 34.5419,83.7484 33,74.5C 30.0098,83.8193 27.0098,93.1526 24,102.5C 22.3005,103.406 20.4672,103.739 18.5,103.5C 16.5166,93.548 13.5166,83.8813 9.5,74.5C 8.50158,84.1437 8.16825,93.8104 8.5,103.5C 6.5,103.5 4.5,103.5 2.5,103.5C 2.12501,91.0812 2.95835,78.7479 5,66.5C 7.79475,65.2175 10.6281,65.2175 13.5,66.5C 16.1782,74.8762 19.0115,83.2096 22,91.5C 24.8798,82.3585 28.0465,73.3585 31.5,64.5 Z"/></g>
<g><path style="opacity:1" fill="#f89823" d="M 80.5,64.5 C 83.5184,64.3354 86.5184,64.502 89.5,65C 91.6515,65.2649 93.3181,66.2649 94.5,68C 94.3865,69.2798 93.7199,70.1131 92.5,70.5C 89.227,69.4149 85.8936,69.2483 82.5,70C 78.9594,72.2825 78.6261,74.9491 81.5,78C 85.5,80.3333 89.5,82.6667 93.5,85C 99.5728,93.4508 97.5728,99.4508 87.5,103C 82.9283,103.887 78.595,103.22 74.5,101C 73.0705,99.1197 73.4038,97.6197 75.5,96.5C 79.9671,99.1364 84.4671,99.1364 89,96.5C 91.2413,92.881 90.408,90.0477 86.5,88C 81.4325,85.9217 77.2658,82.755 74,78.5C 72.3984,71.9717 74.5651,67.305 80.5,64.5 Z"/></g>
<g><path style="opacity:1" fill="#f89822" d="M 109.5,64.5 C 118.866,62.6545 125.366,65.9879 129,74.5C 129.667,80.5 129.667,86.5 129,92.5C 127.877,95.2487 126.377,97.7487 124.5,100C 126.717,101.268 128.717,102.768 130.5,104.5C 129.469,105.7 128.635,107.034 128,108.5C 122.374,104.043 115.874,102.21 108.5,103C 105.789,101.739 103.622,99.906 102,97.5C 98.2342,87.4615 98.9008,77.7948 104,68.5C 106.015,67.3034 107.849,65.9701 109.5,64.5 Z"/></g>
<g><path style="opacity:1" fill="#f79315" d="M 135.5,65.5 C 137.167,65.5 138.833,65.5 140.5,65.5C 140.172,76.6794 140.505,87.6794 141.5,98.5C 145.5,98.5 149.5,98.5 153.5,98.5C 153.5,99.8333 153.5,101.167 153.5,102.5C 147.5,102.5 141.5,102.5 135.5,102.5C 135.5,90.1667 135.5,77.8333 135.5,65.5 Z"/></g>
<g><path style="opacity:1" fill="#f9ae4e" d="M 135.5,65.5 C 137.265,64.5386 139.265,64.2053 141.5,64.5C 141.5,75.8333 141.5,87.1667 141.5,98.5C 140.505,87.6794 140.172,76.6794 140.5,65.5C 138.833,65.5 137.167,65.5 135.5,65.5 Z"/></g>
<g><path style="opacity:1" fill="#fffcf8" d="M 111.5,69.5 C 117.912,68.4067 121.745,71.0733 123,77.5C 123.984,83.6928 123.318,89.6928 121,95.5C 115.471,100.044 110.804,99.3771 107,93.5C 106.333,87.1667 106.333,80.8333 107,74.5C 108.025,72.313 109.525,70.6464 111.5,69.5 Z"/></g>
<g><path style="opacity:1" fill="#5d87a1" d="M 44.5,74.5 C 46.8333,74.5 49.1667,74.5 51.5,74.5C 53.5586,81.8446 55.7253,89.178 58,96.5C 60.2854,89.3412 61.7854,82.0079 62.5,74.5C 64.5,74.5 66.5,74.5 68.5,74.5C 67.3116,86.2319 63.8116,97.2319 58,107.5C 54.5698,111.917 50.0698,113.584 44.5,112.5C 44.5,111.167 44.5,109.833 44.5,108.5C 49.4202,109.216 52.4202,107.216 53.5,102.5C 50.8934,93.0144 47.8934,83.6811 44.5,74.5 Z"/></g>
<g><path style="opacity:1" fill="#f8941d" d="M 157.5,98.5 C 158.239,98.369 158.906,98.5357 159.5,99C 158.118,103.705 157.451,103.539 157.5,98.5 Z"/></g>
<g><path style="opacity:1" fill="#f89d2c" d="M 160.5,98.5 C 161.75,98.5774 162.583,99.244 163,100.5C 165.711,97.835 166.711,98.5016 166,102.5C 165.374,100.009 164.541,100.009 163.5,102.5C 162.575,101.359 161.741,101.359 161,102.5C 160.51,101.207 160.343,99.8734 160.5,98.5 Z"/></g>
</svg>
