<?xml version="1.0" encoding="UTF-8"?>
<!DOCTYPE svg PUBLIC "-//W3C//DTD SVG 1.1//EN" "http://www.w3.org/Graphics/SVG/1.1/DTD/svg11.dtd">
<svg xmlns="http://www.w3.org/2000/svg" version="1.1" width="237px" height="213px" style="shape-rendering:geometricPrecision; text-rendering:geometricPrecision; image-rendering:optimizeQuality; fill-rule:evenodd; clip-rule:evenodd" xmlns:xlink="http://www.w3.org/1999/xlink">
<g><path style="opacity:1" fill="#fffefd" d="M -0.5,-0.5 C 36.8333,-0.5 74.1667,-0.5 111.5,-0.5C 70.0265,6.47728 47.3598,30.9773 43.5,73C 46.7401,119.741 71.7401,145.241 118.5,149.5C 164.029,144.971 188.696,119.971 192.5,74.5C 189.228,31.2322 166.228,6.23221 123.5,-0.5C 161.167,-0.5 198.833,-0.5 236.5,-0.5C 236.5,58.8333 236.5,118.167 236.5,177.5C 235.167,177.5 233.833,177.5 232.5,177.5C 232.666,185.84 232.5,194.173 232,202.5C 228,194.5 224,186.5 220,178.5C 218.644,177.62 217.144,177.286 215.5,177.5C 215.5,188.833 215.5,200.167 215.5,211.5C 216.833,211.5 218.167,211.5 219.5,211.5C 219.334,203.493 219.5,195.493 220,187.5C 224.255,195.009 228.255,202.676 232,210.5C 233.356,211.38 234.856,211.714 236.5,211.5C 236.5,211.833 236.5,212.167 236.5,212.5C 185.5,212.5 134.5,212.5 83.5,212.5C 90.6119,207.099 91.2786,200.933 85.5,194C 82.4167,192.861 79.4167,191.528 76.5,190C 73.582,186.528 73.9154,183.528 77.5,181C 80.8708,180.256 84.0375,180.756 87,182.5C 88.5778,181.289 88.7445,179.955 87.5,178.5C 83.5575,177.4 79.5575,177.233 75.5,178C 71.7623,179.399 70.0956,182.066 70.5,186C 70.0815,188.981 71.0815,191.314 73.5,193C 77.7925,194.424 81.6259,196.591 85,199.5C 87.0965,205.471 85.0965,208.471 79,208.5C 75.5614,208.197 72.3947,207.197 69.5,205.5C 69.3505,206.552 69.5172,207.552 70,208.5C 71.8121,209.977 73.6455,211.31 75.5,212.5C 65.8333,212.5 56.1667,212.5 46.5,212.5C 49.9583,211.892 52.4583,209.892 54,206.5C 54.6667,198.5 54.6667,190.5 54,182.5C 49.8386,177.408 44.672,176.242 38.5,179C 37.3333,180.167 36.1667,181.333 35,182.5C 34.0905,191.244 34.4238,199.911 36,208.5C 37.8121,209.977 39.6455,211.31 41.5,212.5C 27.5,212.5 13.5,212.5 -0.5,212.5C -0.5,212.167 -0.5,211.833 -0.5,211.5C 0.833333,211.5 2.16667,211.5 3.5,211.5C 3.5,207.167 3.5,202.833 3.5,198.5C 15.8229,200.63 21.3229,195.63 20,183.5C 18.8333,181 17,179.167 14.5,178C 9.51108,177.501 4.51108,177.334 -0.5,177.5C -0.5,118.167 -0.5,58.8333 -0.5,-0.5 Z"/></g>
<g><path style="opacity:1" fill="#ff6c37" d="M 111.5,-0.5 C 115.5,-0.5 119.5,-0.5 123.5,-0.5C 166.228,6.23221 189.228,31.2322 192.5,74.5C 188.696,119.971 164.029,144.971 118.5,149.5C 71.7401,145.241 46.7401,119.741 43.5,73C 47.3598,30.9773 70.0265,6.47728 111.5,-0.5 Z"/></g>
<g><path style="opacity:1" fill="#fffaf8" d="M 149.5,27.5 C 153.544,26.9579 157.211,27.7912 160.5,30C 156.984,33.3486 153.651,36.8486 150.5,40.5C 152.984,43.4843 155.65,46.3176 158.5,49C 146.158,51.326 140.992,46.1594 143,33.5C 145.063,31.2659 147.229,29.2659 149.5,27.5 Z"/></g>
<g><path style="opacity:1" fill="#fff5f2" d="M 160.5,31.5 C 163.736,32.7944 165.069,35.2944 164.5,39C 164.398,42.7855 162.898,45.9522 160,48.5C 157.317,45.9841 154.817,43.3174 152.5,40.5C 155.189,37.4802 157.856,34.4802 160.5,31.5 Z"/></g>
<g><path style="opacity:1" fill="#ff7949" d="M 160.5,37.5 C 162.972,38.7487 163.139,40.4153 161,42.5C 160.506,40.8659 160.34,39.1992 160.5,37.5 Z"/></g>
<g><path style="opacity:1" fill="#fffaf9" d="M 135.5,44.5 C 138.157,44.162 140.49,44.8287 142.5,46.5C 132.053,55.4449 122.053,64.9449 112.5,75C 109.735,74.2797 107.401,72.6131 105.5,70C 114.81,60.5099 124.81,52.0099 135.5,44.5 Z"/></g>
<g><path style="opacity:1" fill="#fff7f4" d="M 139.5,61.5 C 133.261,65.7965 127.594,70.7965 122.5,76.5C 120.264,77.3891 118.264,78.7224 116.5,80.5C 115.019,79.5197 113.685,78.353 112.5,77C 121.833,67.6667 131.167,58.3333 140.5,49C 143.868,47.7948 146.202,48.7948 147.5,52C 145.012,55.3212 142.345,58.4879 139.5,61.5 Z"/></g>
<g><path style="opacity:1" fill="#fff8f6" d="M 122.5,76.5 C 128.739,72.2035 134.406,67.2035 139.5,61.5C 142.394,60.1177 144.894,58.1177 147,55.5C 146.975,57.9199 146.309,60.2533 145,62.5C 139.207,69.9614 133.041,77.1281 126.5,84C 125.034,84.6355 123.7,85.4688 122.5,86.5C 120.684,85.1851 119.017,83.6851 117.5,82C 119.373,80.2962 121.04,78.4628 122.5,76.5 Z"/></g>
<g><path style="opacity:1" fill="#ff7642" d="M 139.5,61.5 C 134.406,67.2035 128.739,72.2035 122.5,76.5C 127.594,70.7965 133.261,65.7965 139.5,61.5 Z"/></g>
<g><path style="opacity:1" fill="#fff2ee" d="M 103.5,71.5 C 106.069,72.3956 108.069,74.0623 109.5,76.5C 105.197,77.8295 100.863,78.6628 96.5,79C 99.0386,76.6303 101.372,74.1303 103.5,71.5 Z"/></g>
<g><path style="opacity:1" fill="#ffede7" d="M 110.5,78.5 C 112.196,78.6854 113.529,79.5187 114.5,81C 112.305,82.373 109.971,82.7063 107.5,82C 108.71,80.9609 109.71,79.7942 110.5,78.5 Z"/></g>
<g><path style="opacity:1" fill="#fff9f7" d="M 114.5,82.5 C 117.225,83.713 119.559,85.5464 121.5,88C 112.017,95.9128 101.684,102.58 90.5,108C 89.2117,110.466 89.2117,112.966 90.5,115.5C 89.9984,116.521 89.3317,116.688 88.5,116C 85.4032,113.609 83.2365,110.776 82,107.5C 89.5,100 97,92.5 104.5,85C 108.09,84.6894 111.423,83.856 114.5,82.5 Z"/></g>
<g><path style="opacity:1" fill="#fff2ee" d="M 79.5,109.5 C 90.2692,117.846 88.6025,119.846 74.5,115.5C 76.1897,113.481 77.8564,111.481 79.5,109.5 Z"/></g>
<g><path style="opacity:1" fill="#ff6c36" d="M -0.5,177.5 C 4.51108,177.334 9.51108,177.501 14.5,178C 17,179.167 18.8333,181 20,183.5C 21.3229,195.63 15.8229,200.63 3.5,198.5C 3.5,202.833 3.5,207.167 3.5,211.5C 2.16667,211.5 0.833333,211.5 -0.5,211.5C -0.5,200.167 -0.5,188.833 -0.5,177.5 Z"/></g>
<g><path style="opacity:1" fill="#ff6b35" d="M 236.5,177.5 C 236.5,188.833 236.5,200.167 236.5,211.5C 234.856,211.714 233.356,211.38 232,210.5C 228.255,202.676 224.255,195.009 220,187.5C 219.5,195.493 219.334,203.493 219.5,211.5C 218.167,211.5 216.833,211.5 215.5,211.5C 215.5,200.167 215.5,188.833 215.5,177.5C 217.144,177.286 218.644,177.62 220,178.5C 224,186.5 228,194.5 232,202.5C 232.5,194.173 232.666,185.84 232.5,177.5C 233.833,177.5 235.167,177.5 236.5,177.5 Z"/></g>
<g><path style="opacity:1" fill="#ff6c36" d="M 46.5,212.5 C 44.8333,212.5 43.1667,212.5 41.5,212.5C 39.6455,211.31 37.8121,209.977 36,208.5C 34.4238,199.911 34.0905,191.244 35,182.5C 36.1667,181.333 37.3333,180.167 38.5,179C 44.672,176.242 49.8386,177.408 54,182.5C 54.6667,190.5 54.6667,198.5 54,206.5C 52.4583,209.892 49.9583,211.892 46.5,212.5 Z"/></g>
<g><path style="opacity:1" fill="#ff6d38" d="M 83.5,212.5 C 80.8333,212.5 78.1667,212.5 75.5,212.5C 73.6455,211.31 71.8121,209.977 70,208.5C 69.5172,207.552 69.3505,206.552 69.5,205.5C 72.3947,207.197 75.5614,208.197 79,208.5C 85.0965,208.471 87.0965,205.471 85,199.5C 81.6259,196.591 77.7925,194.424 73.5,193C 71.0815,191.314 70.0815,188.981 70.5,186C 70.0956,182.066 71.7623,179.399 75.5,178C 79.5575,177.233 83.5575,177.4 87.5,178.5C 88.7445,179.955 88.5778,181.289 87,182.5C 84.0375,180.756 80.8708,180.256 77.5,181C 73.9154,183.528 73.582,186.528 76.5,190C 79.4167,191.528 82.4167,192.861 85.5,194C 91.2786,200.933 90.6119,207.099 83.5,212.5 Z"/></g>
<g><path style="opacity:1" fill="#fff7f5" d="M 3.5,180.5 C 13.1504,178.367 17.3171,182.034 16,191.5C 12.7022,195.165 8.5355,196.498 3.5,195.5C 3.5,190.5 3.5,185.5 3.5,180.5 Z"/></g>
<g><path style="opacity:1" fill="#fff9f7" d="M 42.5,180.5 C 46.6826,179.846 49.516,181.512 51,185.5C 51.6667,191.833 51.6667,198.167 51,204.5C 48.9473,208.292 45.7806,209.458 41.5,208C 40.3333,207.5 39.5,206.667 39,205.5C 38.3333,198.167 38.3333,190.833 39,183.5C 40.1451,182.364 41.3117,181.364 42.5,180.5 Z"/></g>
<g><path style="opacity:1" fill="#ffc7b7" d="M 103.5,180.5 C 106.167,180.5 108.833,180.5 111.5,180.5C 111.5,190.833 111.5,201.167 111.5,211.5C 110.506,201.681 110.173,191.681 110.5,181.5C 107.941,181.802 105.607,181.468 103.5,180.5 Z"/></g>
<g><path style="opacity:1" fill="#ff652b" d="M 111.5,211.5 C 111.5,201.167 111.5,190.833 111.5,180.5C 108.833,180.5 106.167,180.5 103.5,180.5C 102.596,179.791 102.263,178.791 102.5,177.5C 109.5,177.5 116.5,177.5 123.5,177.5C 123.5,178.5 123.5,179.5 123.5,180.5C 120.5,180.5 117.5,180.5 114.5,180.5C 114.5,190.833 114.5,201.167 114.5,211.5C 113.5,211.5 112.5,211.5 111.5,211.5 Z"/></g>
<g><path style="opacity:1" fill="#ff713e" d="M 137.5,177.5 C 139.722,177.178 141.556,177.845 143,179.5C 145.246,184.326 147.746,188.992 150.5,193.5C 153.333,188.5 156.167,183.5 159,178.5C 160.356,177.62 161.856,177.286 163.5,177.5C 163.5,188.833 163.5,200.167 163.5,211.5C 162.167,211.5 160.833,211.5 159.5,211.5C 159.666,203.16 159.5,194.827 159,186.5C 156.418,191.333 153.585,196 150.5,200.5C 147.16,195.825 144.327,190.825 142,185.5C 141.5,194.16 141.334,202.827 141.5,211.5C 140.167,211.5 138.833,211.5 137.5,211.5C 137.5,200.167 137.5,188.833 137.5,177.5 Z"/></g>
<g><path style="opacity:1" fill="#ff6d38" d="M 187.5,177.5 C 189.144,177.286 190.644,177.62 192,178.5C 195.275,189.489 198.442,200.489 201.5,211.5C 200.167,211.5 198.833,211.5 197.5,211.5C 197.007,209.194 196.674,206.861 196.5,204.5C 191.786,204.173 187.12,204.507 182.5,205.5C 181.846,207.115 181.346,208.782 181,210.5C 179.989,211.337 178.822,211.67 177.5,211.5C 180.229,199.98 183.563,188.647 187.5,177.5 Z"/></g>
<g><path style="opacity:1" fill="#fff6f3" d="M 194.5,200.5 C 190.958,200.813 187.625,200.479 184.5,199.5C 185.891,194.156 187.391,188.823 189,183.5C 191.325,188.976 193.158,194.642 194.5,200.5 Z"/></g>
<g><path style="opacity:1" fill="#ffa287" d="M 184.5,199.5 C 187.625,200.479 190.958,200.813 194.5,200.5C 190.981,201.808 187.315,201.808 183.5,200.5C 183.624,199.893 183.957,199.56 184.5,199.5 Z"/></g>
</svg>
