<?xml version="1.0" encoding="UTF-8"?>
<!DOCTYPE svg PUBLIC "-//W3C//DTD SVG 1.1//EN" "http://www.w3.org/Graphics/SVG/1.1/DTD/svg11.dtd">
<svg xmlns="http://www.w3.org/2000/svg" version="1.1" width="600px" height="600px" style="shape-rendering:geometricPrecision; text-rendering:geometricPrecision; image-rendering:optimizeQuality; fill-rule:evenodd; clip-rule:evenodd" xmlns:xlink="http://www.w3.org/1999/xlink">
<g><path style="opacity:1" fill="#fefefe" d="M -0.5,-0.5 C 199.5,-0.5 399.5,-0.5 599.5,-0.5C 599.5,199.5 599.5,399.5 599.5,599.5C 399.5,599.5 199.5,599.5 -0.5,599.5C -0.5,399.5 -0.5,199.5 -0.5,-0.5 Z"/></g>
<g><path style="opacity:1" fill="#e2a710" d="M 568.5,178.5 C 568.832,187.525 568.498,196.525 567.5,205.5C 542.5,214.667 517.5,223.833 492.5,233C 497.019,233.175 501.353,233.675 505.5,234.5C 498.833,234.5 492.167,234.5 485.5,234.5C 485.5,216.167 485.5,197.833 485.5,179.5C 486.585,175.246 489.252,172.413 493.5,171C 515.5,170.333 537.5,170.333 559.5,171C 563.887,171.891 566.887,174.391 568.5,178.5 Z"/></g>
<g><path style="opacity:1" fill="#dfa412" d="M 568.5,178.5 C 569.498,209.662 569.832,240.996 569.5,272.5C 569.167,272.5 568.833,272.5 568.5,272.5C 568.5,268.167 568.5,263.833 568.5,259.5C 568.829,253.794 568.495,248.128 567.5,242.5C 554.167,247.5 540.833,252.5 527.5,257.5C 526.259,252.574 525.426,247.574 525,242.5C 522.697,240.165 520.197,240.165 517.5,242.5C 516.503,249.468 516.17,256.468 516.5,263.5C 516.5,269.5 516.5,275.5 516.5,281.5C 516.5,286.833 516.5,292.167 516.5,297.5C 516.5,307.833 516.5,318.167 516.5,328.5C 516.5,344.833 516.5,361.167 516.5,377.5C 516.5,393.833 516.5,410.167 516.5,426.5C 516.5,426.833 516.5,427.167 516.5,427.5C 516.167,427.5 515.833,427.5 515.5,427.5C 515.5,409.167 515.5,390.833 515.5,372.5C 515.5,356.833 515.5,341.167 515.5,325.5C 515.5,317.5 515.5,309.5 515.5,301.5C 515.5,289.833 515.5,278.167 515.5,266.5C 515.666,258.16 515.5,249.827 515,241.5C 513.007,237.586 509.84,235.252 505.5,234.5C 501.353,233.675 497.019,233.175 492.5,233C 517.5,223.833 542.5,214.667 567.5,205.5C 568.498,196.525 568.832,187.525 568.5,178.5 Z"/></g>
<g><path style="opacity:1" fill="#f4d14b" d="M 485.5,179.5 C 485.5,197.833 485.5,216.167 485.5,234.5C 492.321,235.329 499.321,235.829 506.5,236C 481.449,242.679 456.449,249.512 431.5,256.5C 431.795,258.735 431.461,260.735 430.5,262.5C 430.334,255.492 430.5,248.492 431,241.5C 432.167,239 434,237.167 436.5,236C 452.404,234.53 468.404,234.03 484.5,234.5C 484.17,215.992 484.503,197.659 485.5,179.5 Z"/></g>
<g><path style="opacity:1" fill="#dc9f0f" d="M 568.5,259.5 C 565.592,260.159 565.258,260.993 567.5,262C 553.782,266.792 540.282,271.958 527,277.5C 526.415,272.489 525.749,267.489 525,262.5C 522.281,263.444 519.448,263.777 516.5,263.5C 516.17,256.468 516.503,249.468 517.5,242.5C 520.197,240.165 522.697,240.165 525,242.5C 525.426,247.574 526.259,252.574 527.5,257.5C 540.833,252.5 554.167,247.5 567.5,242.5C 568.495,248.128 568.829,253.794 568.5,259.5 Z"/></g>
<g><path style="opacity:1" fill="#f1cb3d" d="M 485.5,234.5 C 492.167,234.5 498.833,234.5 505.5,234.5C 509.84,235.252 513.007,237.586 515,241.5C 515.5,249.827 515.666,258.16 515.5,266.5C 513.584,264.884 512.084,265.218 511,267.5C 509.951,266.483 508.784,266.316 507.5,267C 508.696,267.654 508.696,268.154 507.5,268.5C 506.707,268.069 505.873,267.735 505,267.5C 497.833,269.667 490.667,271.833 483.5,274C 484.696,274.654 484.696,275.154 483.5,275.5C 482.707,275.069 481.873,274.735 481,274.5C 479.989,274.892 479.489,275.559 479.5,276.5C 478.549,275.674 477.549,275.508 476.5,276C 477.696,276.654 477.696,277.154 476.5,277.5C 474.5,277.5 472.5,277.5 470.5,277.5C 467.206,278.018 464.372,279.352 462,281.5C 459.853,280.524 457.686,280.691 455.5,282C 456.696,282.654 456.696,283.154 455.5,283.5C 454.707,283.069 453.873,282.735 453,282.5C 449.19,283.744 445.356,284.911 441.5,286C 442.696,286.654 442.696,287.154 441.5,287.5C 439.147,286.435 436.814,286.602 434.5,288C 435.696,288.654 435.696,289.154 434.5,289.5C 432.931,288.286 432.098,286.619 432,284.5C 431.501,288.821 431.334,293.154 431.5,297.5C 438.687,297.175 445.687,297.509 452.5,298.5C 447.167,298.5 441.833,298.5 436.5,298.5C 434.5,298.5 432.5,298.5 430.5,298.5C 430.5,286.5 430.5,274.5 430.5,262.5C 431.461,260.735 431.795,258.735 431.5,256.5C 456.449,249.512 481.449,242.679 506.5,236C 499.321,235.829 492.321,235.329 485.5,234.5 Z"/></g>
<g><path style="opacity:1" fill="#d8980e" d="M 568.5,259.5 C 568.5,263.833 568.5,268.167 568.5,272.5C 568.5,276.5 568.5,280.5 568.5,284.5C 554.495,289.002 540.661,294.002 527,299.5C 526.333,292.833 525.667,286.167 525,279.5C 522.519,281.314 519.685,281.98 516.5,281.5C 516.5,275.5 516.5,269.5 516.5,263.5C 519.448,263.777 522.281,263.444 525,262.5C 525.749,267.489 526.415,272.489 527,277.5C 540.282,271.958 553.782,266.792 567.5,262C 565.258,260.993 565.592,260.159 568.5,259.5 Z"/></g>
<g><path style="opacity:1" fill="#ce8824" d="M 285.5,267.5 C 292.175,267.334 298.842,267.5 305.5,268C 315.855,271.876 319.355,279.043 316,289.5C 314.207,292.295 312.04,294.795 309.5,297C 319.909,303.35 322.409,312.183 317,323.5C 314.072,327.381 310.239,329.881 305.5,331C 298.586,331.811 291.752,331.645 285,330.5C 284.179,309.427 284.346,288.427 285.5,267.5 Z"/></g>
<g><path style="opacity:1" fill="#cd8720" d="M 30.5,268.5 C 39.0159,267.885 47.3492,268.718 55.5,271C 67.1563,280.839 67.4897,291.172 56.5,302C 54.2827,303.275 51.9494,304.275 49.5,305C 44.1771,305.499 38.8437,305.666 33.5,305.5C 33.6664,313.84 33.4997,322.173 33,330.5C 32,331.833 31,331.833 30,330.5C 29.1793,309.76 29.346,289.094 30.5,268.5 Z"/></g>
<g><path style="opacity:1" fill="#cf8a28" d="M 334.5,267.5 C 335.822,267.33 336.989,267.663 338,268.5C 338.667,289.167 338.667,309.833 338,330.5C 337,331.833 336,331.833 335,330.5C 334.5,309.503 334.333,288.503 334.5,267.5 Z"/></g>
<g><path style="opacity:1" fill="#fefcf9" d="M 288.5,271.5 C 293.844,271.334 299.177,271.501 304.5,272C 315.296,277.905 316.296,285.239 307.5,294C 306.167,294.667 304.833,295.333 303.5,296C 298.511,296.499 293.511,296.666 288.5,296.5C 288.5,288.167 288.5,279.833 288.5,271.5 Z"/></g>
<g><path style="opacity:1" fill="#fefdfb" d="M 33.5,272.5 C 39.1764,272.334 44.8431,272.501 50.5,273C 60.7057,277.443 63.2057,284.61 58,294.5C 56.8333,297 55,298.833 52.5,300C 46.2584,301.37 39.9251,301.87 33.5,301.5C 33.5,291.833 33.5,282.167 33.5,272.5 Z"/></g>
<g><path style="opacity:1" fill="#ce8723" d="M 85.5,285.5 C 106.371,284.868 115.538,294.868 113,315.5C 106.427,331.54 95.2603,336.04 79.5,329C 68.8954,319.452 66.7287,308.286 73,295.5C 76.5119,291.134 80.6786,287.801 85.5,285.5 Z"/></g>
<g><path style="opacity:1" fill="#ce8823" d="M 196.5,285.5 C 213.8,283.634 221.633,291.3 220,308.5C 208.915,309.487 197.748,309.821 186.5,309.5C 189.951,328.206 199.951,332.873 216.5,323.5C 218.283,324.348 218.783,325.681 218,327.5C 210.018,333.096 201.518,333.93 192.5,330C 181.421,318.938 179.588,306.438 187,292.5C 189.825,289.524 192.992,287.191 196.5,285.5 Z"/></g>
<g><path style="opacity:1" fill="#ce8824" d="M 232.5,285.5 C 233.822,285.33 234.989,285.663 236,286.5C 236.333,288.5 236.667,290.5 237,292.5C 240.882,287.139 246.049,284.972 252.5,286C 253.833,287 253.833,288 252.5,289C 244.878,288.225 239.711,291.392 237,298.5C 236.667,309.5 236.333,320.5 236,331.5C 234.989,332.337 233.822,332.67 232.5,332.5C 232.5,316.833 232.5,301.167 232.5,285.5 Z"/></g>
<g><path style="opacity:1" fill="#ce8926" d="M 121.5,285.5 C 123.411,285.574 124.578,286.574 125,288.5C 128.141,300.251 131.474,311.918 135,323.5C 138.454,311.508 142.287,299.674 146.5,288C 148.888,287.135 150.388,287.968 151,290.5C 154.485,301.438 157.819,312.438 161,323.5C 165.379,311.696 169.379,299.696 173,287.5C 174.079,285.606 175.413,285.273 177,286.5C 172.816,301.548 168.149,316.548 163,331.5C 161.989,332.337 160.822,332.67 159.5,332.5C 156.285,319.641 152.452,306.974 148,294.5C 143.545,306.99 139.711,319.657 136.5,332.5C 135.178,332.67 134.011,332.337 133,331.5C 128.911,316.978 124.744,302.478 120.5,288C 120.743,287.098 121.077,286.265 121.5,285.5 Z"/></g>
<g><path style="opacity:1" fill="#fefcfa" d="M 86.5,289.5 C 103.629,289.13 111.129,297.463 109,314.5C 105.469,324.684 98.3022,329.184 87.5,328C 74.4935,321.841 70.6601,312.007 76,298.5C 78.8395,294.673 82.3395,291.673 86.5,289.5 Z"/></g>
<g><path style="opacity:1" fill="#fefdfb" d="M 215.5,297.5 C 215.5,299.833 215.5,302.167 215.5,304.5C 206.167,304.5 196.833,304.5 187.5,304.5C 189.57,290.841 197.237,286.341 210.5,291C 212.79,292.777 214.457,294.944 215.5,297.5 Z"/></g>
<g><path style="opacity:1" fill="#edc331" d="M 515.5,266.5 C 515.5,278.167 515.5,289.833 515.5,301.5C 499.505,304.837 483.505,309.171 467.5,314.5C 465.578,312.997 464.412,310.997 464,308.5C 463.502,311.482 463.335,314.482 463.5,317.5C 463.5,322.833 463.5,328.167 463.5,333.5C 463.5,364.833 463.5,396.167 463.5,427.5C 463.167,427.5 462.833,427.5 462.5,427.5C 462.5,403.167 462.5,378.833 462.5,354.5C 462.5,341.5 462.5,328.5 462.5,315.5C 463.959,306.775 460.625,301.108 452.5,298.5C 445.687,297.509 438.687,297.175 431.5,297.5C 431.334,293.154 431.501,288.821 432,284.5C 432.098,286.619 432.931,288.286 434.5,289.5C 435.696,289.154 435.696,288.654 434.5,288C 436.814,286.602 439.147,286.435 441.5,287.5C 442.696,287.154 442.696,286.654 441.5,286C 445.356,284.911 449.19,283.744 453,282.5C 453.873,282.735 454.707,283.069 455.5,283.5C 456.696,283.154 456.696,282.654 455.5,282C 457.686,280.691 459.853,280.524 462,281.5C 464.372,279.352 467.206,278.018 470.5,277.5C 472.5,277.5 474.5,277.5 476.5,277.5C 477.696,277.154 477.696,276.654 476.5,276C 477.549,275.508 478.549,275.674 479.5,276.5C 479.489,275.559 479.989,274.892 481,274.5C 481.873,274.735 482.707,275.069 483.5,275.5C 484.696,275.154 484.696,274.654 483.5,274C 490.667,271.833 497.833,269.667 505,267.5C 505.873,267.735 506.707,268.069 507.5,268.5C 508.696,268.154 508.696,267.654 507.5,267C 508.784,266.316 509.951,266.483 511,267.5C 512.084,265.218 513.584,264.884 515.5,266.5 Z"/></g>
<g><path style="opacity:1" fill="#d3910d" d="M 568.5,272.5 C 568.833,272.5 569.167,272.5 569.5,272.5C 569.5,285.833 569.5,299.167 569.5,312.5C 568.679,309.359 568.179,306.025 568,302.5C 567.097,303.701 565.931,304.535 564.5,305C 552.052,309.205 539.718,313.705 527.5,318.5C 526.311,310.527 525.311,302.527 524.5,294.5C 521.805,295.508 519.138,296.508 516.5,297.5C 516.5,292.167 516.5,286.833 516.5,281.5C 519.685,281.98 522.519,281.314 525,279.5C 525.667,286.167 526.333,292.833 527,299.5C 540.661,294.002 554.495,289.002 568.5,284.5C 568.5,280.5 568.5,276.5 568.5,272.5 Z"/></g>
<g><path style="opacity:1" fill="#f6de71" d="M 436.5,298.5 C 441.833,298.5 447.167,298.5 452.5,298.5C 460.625,301.108 463.959,306.775 462.5,315.5C 461.85,315.196 461.183,314.863 460.5,314.5C 432.866,322.658 405.199,330.658 377.5,338.5C 377.334,332.491 377.501,326.491 378,320.5C 401.388,312.359 425.221,305.526 449.5,300C 444.981,299.825 440.647,299.325 436.5,298.5 Z"/></g>
<g><path style="opacity:1" fill="#f7e282" d="M 430.5,298.5 C 432.5,298.5 434.5,298.5 436.5,298.5C 440.647,299.325 444.981,299.825 449.5,300C 425.221,305.526 401.388,312.359 378,320.5C 377.501,326.491 377.334,332.491 377.5,338.5C 377.5,353.833 377.5,369.167 377.5,384.5C 377.5,395.833 377.5,407.167 377.5,418.5C 376.336,381.669 376.169,344.669 377,307.5C 378.5,303.333 381.333,300.5 385.5,299C 400.496,298.5 415.496,298.333 430.5,298.5 Z"/></g>
<g><path style="opacity:1" fill="#ebbd28" d="M 515.5,301.5 C 515.5,309.5 515.5,317.5 515.5,325.5C 514.883,325.389 514.383,325.056 514,324.5C 508.953,326.388 503.786,327.554 498.5,328C 503.31,326.423 508.143,324.923 513,323.5C 514.257,323.15 514.591,322.483 514,321.5C 498.592,326.395 483.092,331.061 467.5,335.5C 466.637,329.839 465.803,324.172 465,318.5C 464.617,317.944 464.117,317.611 463.5,317.5C 463.335,314.482 463.502,311.482 464,308.5C 464.412,310.997 465.578,312.997 467.5,314.5C 483.505,309.171 499.505,304.837 515.5,301.5 Z"/></g>
<g><path style="opacity:1" fill="#f7eddd" d="M 305.5,301.5 C 300.167,301.5 294.833,301.5 289.5,301.5C 289.5,309.833 289.5,318.167 289.5,326.5C 294.5,326.5 299.5,326.5 304.5,326.5C 299.36,327.488 294.026,327.821 288.5,327.5C 288.5,318.5 288.5,309.5 288.5,300.5C 294.358,300.178 300.025,300.511 305.5,301.5 Z"/></g>
<g><path style="opacity:1" fill="#fefefd" d="M 305.5,301.5 C 315.491,304.363 318.324,310.697 314,320.5C 311.703,323.98 308.536,325.98 304.5,326.5C 299.5,326.5 294.5,326.5 289.5,326.5C 289.5,318.167 289.5,309.833 289.5,301.5C 294.833,301.5 300.167,301.5 305.5,301.5 Z"/></g>
<g><path style="opacity:1" fill="#f4e3ca" d="M 215.5,297.5 C 216.473,299.948 216.806,302.615 216.5,305.5C 206.652,305.827 196.986,305.494 187.5,304.5C 196.833,304.5 206.167,304.5 215.5,304.5C 215.5,302.167 215.5,299.833 215.5,297.5 Z"/></g>
<g><path style="opacity:1" fill="#e9b721" d="M 463.5,317.5 C 464.117,317.611 464.617,317.944 465,318.5C 465.803,324.172 466.637,329.839 467.5,335.5C 483.092,331.061 498.592,326.395 514,321.5C 514.591,322.483 514.257,323.15 513,323.5C 508.143,324.923 503.31,326.423 498.5,328C 503.786,327.554 508.953,326.388 514,324.5C 514.383,325.056 514.883,325.389 515.5,325.5C 515.5,341.167 515.5,356.833 515.5,372.5C 499.227,377.319 482.894,381.985 466.5,386.5C 466.667,373.496 466.5,360.496 466,347.5C 465.788,344.242 465.288,341.076 464.5,338C 465.051,336.602 465.384,335.268 465.5,334C 464.906,333.536 464.239,333.369 463.5,333.5C 463.5,328.167 463.5,322.833 463.5,317.5 Z"/></g>
<g><path style="opacity:1" fill="#cc880a" d="M 569.5,312.5 C 569.832,347.671 569.498,382.671 568.5,417.5C 568.833,398.155 568.5,378.822 567.5,359.5C 554.167,364.5 540.833,369.5 527.5,374.5C 525.737,359.226 525.07,343.892 525.5,328.5C 522.5,328.5 519.5,328.5 516.5,328.5C 516.5,318.167 516.5,307.833 516.5,297.5C 519.138,296.508 521.805,295.508 524.5,294.5C 525.311,302.527 526.311,310.527 527.5,318.5C 539.718,313.705 552.052,309.205 564.5,305C 565.931,304.535 567.097,303.701 568,302.5C 568.179,306.025 568.679,309.359 569.5,312.5 Z"/></g>
<g><path style="opacity:1" fill="#f6db61" d="M 462.5,315.5 C 462.5,328.5 462.5,341.5 462.5,354.5C 461.992,356.842 460.992,359.009 459.5,361C 432.12,368.739 404.786,376.572 377.5,384.5C 377.5,369.167 377.5,353.833 377.5,338.5C 405.199,330.658 432.866,322.658 460.5,314.5C 461.183,314.863 461.85,315.196 462.5,315.5 Z"/></g>
<g><path style="opacity:1" fill="#e8b31e" d="M 463.5,333.5 C 464.239,333.369 464.906,333.536 465.5,334C 465.384,335.268 465.051,336.602 464.5,338C 465.288,341.076 465.788,344.242 466,347.5C 466.5,360.496 466.667,373.496 466.5,386.5C 482.894,381.985 499.227,377.319 515.5,372.5C 515.5,390.833 515.5,409.167 515.5,427.5C 498.167,427.5 480.833,427.5 463.5,427.5C 463.5,396.167 463.5,364.833 463.5,333.5 Z"/></g>
<g><path style="opacity:1" fill="#f8d95c" d="M 462.5,354.5 C 462.5,378.833 462.5,403.167 462.5,427.5C 436.831,427.667 411.165,427.5 385.5,427C 381.589,425.352 378.923,422.518 377.5,418.5C 377.5,407.167 377.5,395.833 377.5,384.5C 404.786,376.572 432.12,368.739 459.5,361C 460.992,359.009 461.992,356.842 462.5,354.5 Z"/></g>
<g><path style="opacity:1" fill="#c48107" d="M 516.5,328.5 C 519.5,328.5 522.5,328.5 525.5,328.5C 525.07,343.892 525.737,359.226 527.5,374.5C 540.833,369.5 554.167,364.5 567.5,359.5C 568.5,378.822 568.833,398.155 568.5,417.5C 567.765,422.737 564.765,425.904 559.5,427C 545.171,427.5 530.837,427.667 516.5,427.5C 516.5,427.167 516.5,426.833 516.5,426.5C 519.833,426.5 523.167,426.5 526.5,426.5C 525.963,409.17 525.463,391.837 525,374.5C 522.273,375.798 519.44,376.798 516.5,377.5C 516.5,361.167 516.5,344.833 516.5,328.5 Z"/></g>
<g><path style="opacity:1" fill="#bc7704" d="M 516.5,426.5 C 516.5,410.167 516.5,393.833 516.5,377.5C 519.44,376.798 522.273,375.798 525,374.5C 525.463,391.837 525.963,409.17 526.5,426.5C 523.167,426.5 519.833,426.5 516.5,426.5 Z"/></g>
</svg>
