<?xml version="1.0" encoding="UTF-8"?>
<!DOCTYPE svg PUBLIC "-//W3C//DTD SVG 1.1//EN" "http://www.w3.org/Graphics/SVG/1.1/DTD/svg11.dtd">
<svg xmlns="http://www.w3.org/2000/svg" version="1.1" width="725px" height="479px" style="shape-rendering:geometricPrecision; text-rendering:geometricPrecision; image-rendering:optimizeQuality; fill-rule:evenodd; clip-rule:evenodd" xmlns:xlink="http://www.w3.org/1999/xlink">
<g><path style="opacity:1" fill="#000000" d="M -0.5,-0.5 C 241.167,-0.5 482.833,-0.5 724.5,-0.5C 724.5,159.167 724.5,318.833 724.5,478.5C 482.833,478.5 241.167,478.5 -0.5,478.5C -0.5,318.833 -0.5,159.167 -0.5,-0.5 Z"/></g>
<g><path style="opacity:1" fill="#04a3ce" d="M 453.5,20.5 C 478.369,18.2281 495.535,28.5614 505,51.5C 509.794,65.7529 512.294,80.4195 512.5,95.5C 511.757,106.506 510.924,117.506 510,128.5C 507.986,138.097 506.486,147.763 505.5,157.5C 533.358,164.608 558.692,176.775 581.5,194C 616.08,223.981 616.08,253.981 581.5,284C 558.685,301.239 533.352,313.406 505.5,320.5C 512.893,350.875 514.393,381.542 510,412.5C 499.717,452.563 474.883,465.73 435.5,452C 416.316,444.124 398.649,433.791 382.5,421C 376.282,415.111 369.782,409.611 363,404.5C 344.109,421.713 323.276,436.213 300.5,448C 251.312,469.828 222.479,454.328 214,401.5C 213.196,393.686 212.696,385.853 212.5,378C 213.531,358.982 215.697,340.149 219,321.5C 195.102,313.874 172.602,303.374 151.5,290C 137.001,280.175 126.167,267.342 119,251.5C 114.943,235.399 118.276,221.065 129,208.5C 143.947,192.442 161.447,179.942 181.5,171C 193.86,165.77 206.36,160.936 219,156.5C 217.62,145.848 215.954,135.181 214,124.5C 212.689,109.185 212.356,93.8514 213,78.5C 219.22,27.6464 246.387,10.8131 294.5,28C 308.278,34.0531 321.278,41.3865 333.5,50C 343.312,57.6439 352.978,65.4772 362.5,73.5C 383.328,53.5201 406.995,37.6867 433.5,26C 440.208,23.8261 446.875,21.9927 453.5,20.5 Z"/></g>
<g><path style="opacity:1" fill="#000101" d="M 255.5,43.5 C 272.061,43.075 287.395,47.2416 301.5,56C 317.755,65.6324 332.755,76.9658 346.5,90C 331.405,105.224 317.738,121.557 305.5,139C 284.235,141.395 263.235,145.228 242.5,150.5C 236.012,128.307 233.512,105.64 235,82.5C 235.831,71.8388 238.831,61.8388 244,52.5C 247.183,48.4622 251.016,45.4622 255.5,43.5 Z"/></g>
<g><path style="opacity:1" fill="#000001" d="M 452.5,43.5 C 465.057,40.4358 474.89,44.1024 482,54.5C 487.776,67.5488 490.276,81.2155 489.5,95.5C 489.225,114.029 487.225,132.362 483.5,150.5C 462.727,145.779 441.727,142.279 420.5,140C 407.096,122.705 393.096,105.872 378.5,89.5C 396.235,72.4597 416.235,58.6264 438.5,48C 443.254,46.3583 447.921,44.8583 452.5,43.5 Z"/></g>
<g><path style="opacity:1" fill="#010304" d="M 361.5,105.5 C 371.71,115.211 381.044,125.711 389.5,137C 371.437,136.583 353.437,136.416 335.5,136.5C 344.19,126.147 352.856,115.814 361.5,105.5 Z"/></g>
<g><path style="opacity:1" fill="#000101" d="M 331.5,159.5 C 356.85,159.238 382.183,159.738 407.5,161C 424.479,185.107 439.312,210.607 452,237.5C 440.176,265.645 425.342,292.145 407.5,317C 377.5,319 347.5,319 317.5,317C 300.354,292.559 285.354,266.726 272.5,239.5C 285.101,212.105 299.934,186.105 317,161.5C 321.934,160.856 326.767,160.19 331.5,159.5 Z"/></g>
<g><path style="opacity:1" fill="#010304" d="M 284.5,164.5 C 285.675,164.281 286.675,164.614 287.5,165.5C 277.909,180.343 269.075,195.677 261,211.5C 255.398,198.529 250.898,185.195 247.5,171.5C 260.024,169.527 272.358,167.194 284.5,164.5 Z"/></g>
<g><path style="opacity:1" fill="#010304" d="M 436.5,165.5 C 450.304,166.248 463.97,168.748 477.5,173C 473.403,185.956 468.903,198.79 464,211.5C 456.066,195.276 446.899,179.942 436.5,165.5 Z"/></g>
<g><path style="opacity:1" fill="#000101" d="M 222.5,178.5 C 223.822,178.33 224.989,178.663 226,179.5C 232.278,199.837 239.445,219.837 247.5,239.5C 239.217,258.738 232.05,278.405 226,298.5C 202.339,293.15 180.505,283.317 160.5,269C 152.191,263.027 145.691,255.527 141,246.5C 138.354,238.975 139.354,231.975 144,225.5C 157.266,210.582 173.099,199.082 191.5,191C 201.813,186.513 212.147,182.347 222.5,178.5 Z"/></g>
<g><path style="opacity:1" fill="#000001" d="M 498.5,178.5 C 522.204,185.117 544.204,195.284 564.5,209C 573.533,215.363 580.366,223.529 585,233.5C 586.228,242.254 583.895,249.921 578,256.5C 565.665,268.922 551.498,278.755 535.5,286C 523.884,291.094 512.051,295.594 500,299.5C 493.387,278.826 485.887,258.492 477.5,238.5C 486.091,219.062 493.091,199.062 498.5,178.5 Z"/></g>
<g><path style="opacity:1" fill="#04a3cf" d="M 352.5,193.5 C 382.019,191.153 400.519,204.153 408,232.5C 409.237,257.236 398.403,274.07 375.5,283C 354.853,287.896 338.019,282.063 325,265.5C 310.736,240.731 314.57,219.231 336.5,201C 341.804,198.178 347.137,195.678 352.5,193.5 Z"/></g>
<g><path style="opacity:1" fill="#010406" d="M 260.5,266.5 C 268.969,282.099 277.969,297.432 287.5,312.5C 287,312.833 286.5,313.167 286,313.5C 274.785,311.571 263.619,309.405 252.5,307C 250.349,306.735 248.682,305.735 247.5,304C 251.545,291.364 255.878,278.864 260.5,266.5 Z"/></g>
<g><path style="opacity:1" fill="#010405" d="M 463.5,266.5 C 469.09,278.539 473.756,291.039 477.5,304C 477.095,304.945 476.428,305.612 475.5,306C 462.826,309.353 450.159,311.519 437.5,312.5C 447.191,297.788 455.858,282.455 463.5,266.5 Z"/></g>
<g><path style="opacity:1" fill="#000101" d="M 480.5,327.5 C 481.822,327.33 482.989,327.663 484,328.5C 491.223,355.969 492.223,383.636 487,411.5C 484.993,419.686 480.827,426.519 474.5,432C 467.715,434.446 460.715,435.113 453.5,434C 435.181,428.84 418.514,420.507 403.5,409C 394.981,402.238 386.648,395.238 378.5,388C 393.717,372.699 407.384,356.199 419.5,338.5C 440.161,335.883 460.494,332.216 480.5,327.5 Z"/></g>
<g><path style="opacity:1" fill="#000001" d="M 241.5,327.5 C 262.678,332.31 284.011,336.144 305.5,339C 318.214,356.073 331.881,372.407 346.5,388C 329.623,405.108 310.29,418.775 288.5,429C 280.128,432.374 271.462,434.541 262.5,435.5C 253.73,435.198 247.23,431.198 243,423.5C 239.577,415.477 237.244,407.143 236,398.5C 235.333,385.833 235.333,373.167 236,360.5C 237.512,349.439 239.346,338.439 241.5,327.5 Z"/></g>
<g><path style="opacity:1" fill="#010303" d="M 335.5,341.5 C 353.32,341.395 371.32,341.395 389.5,341.5C 380.854,351.98 372.021,362.314 363,372.5C 353.225,362.567 344.058,352.234 335.5,341.5 Z"/></g>
</svg>
