<?xml version="1.0" encoding="UTF-8"?>
<!DOCTYPE svg PUBLIC "-//W3C//DTD SVG 1.1//EN" "http://www.w3.org/Graphics/SVG/1.1/DTD/svg11.dtd">
<svg xmlns="http://www.w3.org/2000/svg" version="1.1" width="600px" height="600px" style="shape-rendering:geometricPrecision; text-rendering:geometricPrecision; image-rendering:optimizeQuality; fill-rule:evenodd; clip-rule:evenodd" xmlns:xlink="http://www.w3.org/1999/xlink">
<g><path style="opacity:1" fill="#fefefe" d="M -0.5,-0.5 C 199.5,-0.5 399.5,-0.5 599.5,-0.5C 599.5,199.5 599.5,399.5 599.5,599.5C 399.5,599.5 199.5,599.5 -0.5,599.5C -0.5,399.5 -0.5,199.5 -0.5,-0.5 Z"/></g>
<g><path style="opacity:1" fill="#df6d23" d="M 118.5,436.5 C 113.731,435.111 108.731,434.444 103.5,434.5C 84.6058,432.369 66.9391,426.535 50.5,417C 40.3159,411.154 33.4826,402.654 30,391.5C 29.3333,328.833 29.3333,266.167 30,203.5C 34.3392,193.494 41.1725,185.661 50.5,180C 66.3739,170.986 83.3739,165.486 101.5,163.5C 106.731,163.556 111.731,162.889 116.5,161.5C 150.1,158.617 182.767,162.783 214.5,174C 229.505,179.343 240.339,189.176 247,203.5C 247.667,267.5 247.667,331.5 247,395.5C 241.461,409.371 231.628,418.871 217.5,424C 185.515,435.917 152.515,440.084 118.5,436.5 Z"/></g>
<g><path style="opacity:1" fill="#e9955e" d="M 116.5,161.5 C 111.731,162.889 106.731,163.556 101.5,163.5C 106.269,162.111 111.269,161.444 116.5,161.5 Z"/></g>
<g><path style="opacity:1" fill="#fefdfd" d="M 122.5,178.5 C 152.487,176.097 181.487,180.264 209.5,191C 218.168,194.345 225.001,199.845 230,207.5C 229.996,215.328 226.496,221.162 219.5,225C 193.27,238.18 165.436,244.013 136,242.5C 110.317,243.43 85.8166,238.597 62.5,228C 56.643,224.508 51.8097,220.008 48,214.5C 47.3333,211.833 47.3333,209.167 48,206.5C 54.9566,197.761 63.7899,191.595 74.5,188C 82.9523,184.887 91.619,182.72 100.5,181.5C 108.066,181.228 115.399,180.228 122.5,178.5 Z"/></g>
<g><path style="opacity:1" fill="#f6d0b8" d="M 122.5,178.5 C 115.399,180.228 108.066,181.228 100.5,181.5C 107.601,179.772 114.934,178.772 122.5,178.5 Z"/></g>
<g><path style="opacity:1" fill="#df6e23" d="M 312.5,231.5 C 332.643,229.319 347.476,236.985 357,254.5C 358.895,259.325 359.728,264.325 359.5,269.5C 353.833,269.5 348.167,269.5 342.5,269.5C 341.294,256.462 334.128,249.795 321,249.5C 308.021,250.146 301.521,256.979 301.5,270C 301.684,288.174 310.684,295.174 328.5,291C 349.173,299.844 357.006,315.344 352,337.5C 343.324,358.094 327.824,366.594 305.5,363C 286.561,356.215 277.227,342.715 277.5,322.5C 283.161,322.907 288.828,323.24 294.5,323.5C 295.5,339.34 303.833,346.84 319.5,346C 332.106,342.622 337.606,334.456 336,321.5C 334.398,316.123 331.231,311.956 326.5,309C 303.395,311.222 289.228,301.055 284,278.5C 281.251,255.321 290.751,239.654 312.5,231.5 Z"/></g>
<g><path style="opacity:1" fill="#df6e24" d="M 416.5,232.5 C 453.004,228.987 478.838,243.654 494,276.5C 502.804,307.583 494.971,333.583 470.5,354.5C 474.049,359.772 477.716,364.938 481.5,370C 477.331,373.665 472.998,377.165 468.5,380.5C 456.232,365.469 444.565,349.969 433.5,334C 437.669,330.335 442.002,326.835 446.5,323.5C 450.855,329.016 455.355,334.35 460,339.5C 473.326,329.014 480.159,315.181 480.5,298C 477.551,270.717 462.551,254.717 435.5,250C 410.781,248.605 393.281,259.105 383,281.5C 375.229,309.861 384.063,331.361 409.5,346C 418.881,349.189 428.548,350.355 438.5,349.5C 439.819,355.419 440.486,361.419 440.5,367.5C 399.634,369.449 373.801,350.782 363,311.5C 360.109,270.926 377.942,244.592 416.5,232.5 Z"/></g>
<g><path style="opacity:1" fill="#df6e25" d="M 507.5,234.5 C 513.5,234.5 519.5,234.5 525.5,234.5C 525.333,267.835 525.5,301.168 526,334.5C 528.833,341.333 533.667,346.167 540.5,349C 550.161,349.5 559.828,349.666 569.5,349.5C 569.5,355.167 569.5,360.833 569.5,366.5C 558.495,366.667 547.495,366.5 536.5,366C 520.125,360.629 510.625,349.462 508,332.5C 507.5,299.835 507.333,267.168 507.5,234.5 Z"/></g>
<g><path style="opacity:1" fill="#f2c5a7" d="M 228.5,240.5 C 228.56,239.957 228.893,239.624 229.5,239.5C 230.824,250.993 230.824,262.326 229.5,273.5C 229.828,262.321 229.495,251.321 228.5,240.5 Z"/></g>
<g><path style="opacity:1" fill="#e89a66" d="M 48.5,239.5 C 47.5058,249.653 47.1724,259.986 47.5,270.5C 46.1765,259.993 46.1765,249.326 47.5,238.5C 48.1067,238.624 48.44,238.957 48.5,239.5 Z"/></g>
<g><path style="opacity:1" fill="#fefdfc" d="M 48.5,239.5 C 66.1819,250.45 85.5153,256.95 106.5,259C 142.733,263.42 178.066,259.753 212.5,248C 218.006,245.745 223.34,243.245 228.5,240.5C 229.495,251.321 229.828,262.321 229.5,273.5C 226.738,279.43 222.405,283.93 216.5,287C 187.123,299.839 156.456,304.672 124.5,301.5C 119.731,300.111 114.731,299.444 109.5,299.5C 89.9457,297.815 71.9457,291.649 55.5,281C 51.8497,278.191 49.183,274.691 47.5,270.5C 47.1724,259.986 47.5058,249.653 48.5,239.5 Z"/></g>
<g><path style="opacity:1" fill="#e89b68" d="M 48.5,297.5 C 47.5058,307.653 47.1724,317.986 47.5,328.5C 46.1765,317.993 46.1765,307.326 47.5,296.5C 48.1067,296.624 48.44,296.957 48.5,297.5 Z"/></g>
<g><path style="opacity:1" fill="#fefdfd" d="M 48.5,297.5 C 67.2192,308.796 87.5525,315.629 109.5,318C 115.498,318.591 121.498,319.091 127.5,319.5C 132.489,320.166 137.656,320.499 143,320.5C 150.728,320.684 158.228,320.017 165.5,318.5C 187.762,316.687 208.762,310.687 228.5,300.5C 229.494,310.987 229.828,321.654 229.5,332.5C 226.738,338.43 222.405,342.93 216.5,346C 192.519,356.863 167.353,361.696 141,360.5C 117.805,361.384 95.305,357.884 73.5,350C 64.5824,346.405 56.7491,341.238 50,334.5C 48.878,332.593 48.0447,330.593 47.5,328.5C 47.1724,317.986 47.5058,307.653 48.5,297.5 Z"/></g>
<g><path style="opacity:1" fill="#f6d5bf" d="M 109.5,299.5 C 114.731,299.444 119.731,300.111 124.5,301.5C 119.269,301.556 114.269,300.889 109.5,299.5 Z"/></g>
<g><path style="opacity:1" fill="#f1c4a6" d="M 228.5,300.5 C 228.56,299.957 228.893,299.624 229.5,299.5C 230.824,310.66 230.824,321.66 229.5,332.5C 229.828,321.654 229.494,310.987 228.5,300.5 Z"/></g>
<g><path style="opacity:1" fill="#f8decd" d="M 165.5,318.5 C 158.228,320.017 150.728,320.684 143,320.5C 137.656,320.499 132.489,320.166 127.5,319.5C 140.185,319.655 152.851,319.322 165.5,318.5 Z"/></g>
<g><path style="opacity:1" fill="#e89b68" d="M 48.5,356.5 C 47.5058,366.653 47.1724,376.986 47.5,387.5C 46.1765,376.993 46.1765,366.326 47.5,355.5C 48.1067,355.624 48.44,355.957 48.5,356.5 Z"/></g>
<g><path style="opacity:1" fill="#fefdfd" d="M 48.5,356.5 C 67.2217,367.796 87.555,374.63 109.5,377C 115.867,377.293 122.2,377.793 128.5,378.5C 133.322,379.166 138.322,379.499 143.5,379.5C 151.062,379.679 158.395,379.012 165.5,377.5C 187.802,375.779 208.802,369.779 228.5,359.5C 229.494,369.987 229.828,380.654 229.5,391.5C 226.347,398.152 221.347,402.985 214.5,406C 197.949,413.405 180.615,417.738 162.5,419C 149.838,419.5 137.171,419.667 124.5,419.5C 119.731,418.111 114.731,417.444 109.5,417.5C 89.9237,415.808 71.9237,409.642 55.5,399C 51.4179,396.095 48.7513,392.262 47.5,387.5C 47.1724,376.986 47.5058,366.653 48.5,356.5 Z"/></g>
<g><path style="opacity:1" fill="#f1c4a7" d="M 228.5,359.5 C 228.56,358.957 228.893,358.624 229.5,358.5C 230.824,369.66 230.824,380.66 229.5,391.5C 229.828,380.654 229.494,369.987 228.5,359.5 Z"/></g>
<g><path style="opacity:1" fill="#f8e0d0" d="M 165.5,377.5 C 158.395,379.012 151.062,379.679 143.5,379.5C 138.322,379.499 133.322,379.166 128.5,378.5C 140.852,378.649 153.185,378.315 165.5,377.5 Z"/></g>
<g><path style="opacity:1" fill="#f4c9ad" d="M 109.5,417.5 C 114.731,417.444 119.731,418.111 124.5,419.5C 119.269,419.556 114.269,418.889 109.5,417.5 Z"/></g>
<g><path style="opacity:1" fill="#e9935c" d="M 103.5,434.5 C 108.731,434.444 113.731,435.111 118.5,436.5C 113.269,436.556 108.269,435.889 103.5,434.5 Z"/></g>
</svg>
