<?xml version="1.0" encoding="UTF-8"?>
<!DOCTYPE svg PUBLIC "-//W3C//DTD SVG 1.1//EN" "http://www.w3.org/Graphics/SVG/1.1/DTD/svg11.dtd">
<svg xmlns="http://www.w3.org/2000/svg" version="1.1" width="512px" height="512px" style="shape-rendering:geometricPrecision; text-rendering:geometricPrecision; image-rendering:optimizeQuality; fill-rule:evenodd; clip-rule:evenodd" xmlns:xlink="http://www.w3.org/1999/xlink">
<g><path style="opacity:1" fill="#3178c6" d="M 39.5,-0.5 C 183.5,-0.5 327.5,-0.5 471.5,-0.5C 492.5,5.16667 505.833,18.5 511.5,39.5C 511.5,183.5 511.5,327.5 511.5,471.5C 505.833,492.5 492.5,505.833 471.5,511.5C 327.5,511.5 183.5,511.5 39.5,511.5C 18.5,505.833 5.16667,492.5 -0.5,471.5C -0.5,327.5 -0.5,183.5 -0.5,39.5C 5.16667,18.5 18.5,5.16667 39.5,-0.5 Z"/></g>
<g><path style="opacity:1" fill="#fdfefe" d="M 390.5,237.5 C 413.981,236.31 436.981,238.977 459.5,245.5C 459.667,261.17 459.5,276.837 459,292.5C 438.852,280.34 417.019,275.506 393.5,278C 383.485,279.418 375.652,284.252 370,292.5C 367.2,303.745 370.7,312.578 380.5,319C 399.802,328.651 419.136,338.318 438.5,348C 464.061,364.318 473.895,387.485 468,417.5C 461.97,441.864 446.803,457.364 422.5,464C 391.754,471.463 361.087,471.13 330.5,463C 326.044,461.459 321.711,459.626 317.5,457.5C 316.334,440.843 316.167,424.177 317,407.5C 344.358,429.553 374.524,434.72 407.5,423C 419.928,410.716 419.262,399.049 405.5,388C 402.328,386.248 399.328,384.248 396.5,382C 379.961,374.712 363.628,367.046 347.5,359C 322.921,343.67 312.421,321.503 316,292.5C 322.759,265.741 339.592,248.908 366.5,242C 374.605,240.277 382.605,238.777 390.5,237.5 Z"/></g>
<g><path style="opacity:1" fill="#fefefe" d="M 181.5,466.5 C 181.5,405.5 181.5,344.5 181.5,283.5C 160.167,283.5 138.833,283.5 117.5,283.5C 117.5,269.833 117.5,256.167 117.5,242.5C 177.167,242.5 236.833,242.5 296.5,242.5C 296.5,256.167 296.5,269.833 296.5,283.5C 275.167,283.5 253.833,283.5 232.5,283.5C 232.5,344.5 232.5,405.5 232.5,466.5C 215.5,466.5 198.5,466.5 181.5,466.5 Z"/></g>
<g><path style="opacity:1" fill="#4384ca" d="M 117.5,283.5 C 138.833,283.5 160.167,283.5 181.5,283.5C 181.5,344.5 181.5,405.5 181.5,466.5C 180.501,406.002 180.168,345.336 180.5,284.5C 159.327,284.831 138.327,284.497 117.5,283.5 Z"/></g>
</svg>
