<?xml version="1.0" encoding="UTF-8"?>
<!DOCTYPE svg PUBLIC "-//W3C//DTD SVG 1.1//EN" "http://www.w3.org/Graphics/SVG/1.1/DTD/svg11.dtd">
<svg xmlns="http://www.w3.org/2000/svg" version="1.1" width="900px" height="550px" style="shape-rendering:geometricPrecision; text-rendering:geometricPrecision; image-rendering:optimizeQuality; fill-rule:evenodd; clip-rule:evenodd" xmlns:xlink="http://www.w3.org/1999/xlink">
<g><path style="opacity:1" fill="#fefefe" d="M -0.5,-0.5 C 299.5,-0.5 599.5,-0.5 899.5,-0.5C 899.5,182.833 899.5,366.167 899.5,549.5C 599.5,549.5 299.5,549.5 -0.5,549.5C -0.5,366.167 -0.5,182.833 -0.5,-0.5 Z"/></g>
<g><path style="opacity:1" fill="#bfd9c3" d="M 328.5,44.5 C 328.5,44.8333 328.5,45.1667 328.5,45.5C 302.328,45.1689 276.328,45.5022 250.5,46.5C 249.957,46.44 249.624,46.1067 249.5,45.5C 275.825,44.5002 302.158,44.1669 328.5,44.5 Z"/></g>
<g><path style="opacity:1" fill="#7e8892" d="M 494.5,45.5 C 518.661,44.5024 542.994,44.169 567.5,44.5C 567.5,45.1667 567.833,45.5 568.5,45.5C 568.167,46.1667 567.833,46.8333 567.5,47.5C 567.167,47.5 566.833,47.5 566.5,47.5C 542.857,45.5098 518.857,44.8432 494.5,45.5 Z"/></g>
<g><path style="opacity:1" fill="#bfd9c4" d="M 567.5,44.5 C 594.167,44.5 620.833,44.5 647.5,44.5C 647.771,46.3797 647.104,47.713 645.5,48.5C 645.414,47.5041 645.748,46.6708 646.5,46C 620.502,45.5 594.502,45.3334 568.5,45.5C 567.833,45.5 567.5,45.1667 567.5,44.5 Z"/></g>
<g><path style="opacity:1" fill="#71ab88" d="M 250.5,46.5 C 276.328,45.5022 302.328,45.1689 328.5,45.5C 331.853,48.8677 334.186,52.8677 335.5,57.5C 331.775,55.7326 329.775,52.7326 329.5,48.5C 328.624,47.7492 327.624,47.2492 326.5,47C 302.169,46.5 277.836,46.3334 253.5,46.5C 254.406,49.4359 255.072,52.4359 255.5,55.5C 253.644,52.5914 251.977,49.5914 250.5,46.5 Z"/></g>
<g><path style="opacity:1" fill="#6eac86" d="M 568.5,45.5 C 594.502,45.3334 620.502,45.5 646.5,46C 645.748,46.6708 645.414,47.5041 645.5,48.5C 642.415,53.672 639.081,58.672 635.5,63.5C 635.643,61.7376 635.309,60.0709 634.5,58.5C 635.689,57.5713 637.022,57.238 638.5,57.5C 640.22,54.5521 641.554,51.3854 642.5,48C 641.5,47.6667 640.5,47.3333 639.5,47C 615.457,46.1866 591.457,46.3533 567.5,47.5C 567.833,46.8333 568.167,46.1667 568.5,45.5 Z"/></g>
<g><path style="opacity:1" fill="#68b181" d="M 335.5,57.5 C 343.85,69.5273 351.183,82.194 357.5,95.5C 358.971,101.785 361.971,107.118 366.5,111.5C 386.273,143.632 405.273,176.299 423.5,209.5C 423.343,210.873 423.51,212.207 424,213.5C 426.065,217.323 428.565,220.656 431.5,223.5C 436.973,232.523 442.64,241.523 448.5,250.5C 457.606,236.622 465.94,222.288 473.5,207.5C 479.737,197.366 485.737,187.033 491.5,176.5C 498.946,165.275 505.612,153.608 511.5,141.5C 513.912,141.756 515.579,140.756 516.5,138.5C 517.478,138.977 518.311,139.643 519,140.5C 519.333,140.167 519.667,139.833 520,139.5C 519.888,137.822 519.388,136.155 518.5,134.5C 519.977,132.361 520.977,130.028 521.5,127.5C 523.981,127.323 525.814,128.323 527,130.5C 527.44,128.924 528.273,127.59 529.5,126.5C 526.969,124.406 526.136,121.739 527,118.5C 531.054,117.01 532.554,114.343 531.5,110.5C 532.95,109.15 533.617,107.484 533.5,105.5C 541.084,91.8838 548.751,78.2171 556.5,64.5C 557.325,63.6143 558.325,63.281 559.5,63.5C 559.34,61.8008 559.506,60.1341 560,58.5C 562.421,54.9291 564.587,51.2625 566.5,47.5C 566.833,47.5 567.167,47.5 567.5,47.5C 591.457,46.3533 615.457,46.1866 639.5,47C 640.5,47.3333 641.5,47.6667 642.5,48C 641.554,51.3854 640.22,54.5521 638.5,57.5C 637.022,57.238 635.689,57.5713 634.5,58.5C 635.309,60.0709 635.643,61.7376 635.5,63.5C 573.901,171.713 511.567,279.38 448.5,386.5C 388.409,284.657 329.076,182.324 270.5,79.5C 268.815,77.9825 267.315,76.3159 266,74.5C 263.498,67.5277 259.998,61.1944 255.5,55.5C 255.072,52.4359 254.406,49.4359 253.5,46.5C 277.836,46.3334 302.169,46.5 326.5,47C 327.624,47.2492 328.624,47.7492 329.5,48.5C 329.775,52.7326 331.775,55.7326 335.5,57.5 Z"/></g>
<g><path style="opacity:1" fill="#394a5d" d="M 328.5,45.5 C 328.5,45.1667 328.5,44.8333 328.5,44.5C 353.169,44.3334 377.836,44.5 402.5,45C 417.831,70.5004 432.498,96.3338 446.5,122.5C 447.689,123.429 449.022,123.762 450.5,123.5C 450.343,122.127 450.51,120.793 451,119.5C 465.666,94.9845 480.166,70.3178 494.5,45.5C 518.857,44.8432 542.857,45.5098 566.5,47.5C 564.587,51.2625 562.421,54.9291 560,58.5C 559.506,60.1341 559.34,61.8008 559.5,63.5C 558.325,63.281 557.325,63.6143 556.5,64.5C 548.751,78.2171 541.084,91.8838 533.5,105.5C 530.688,108.806 528.521,112.473 527,116.5C 522.097,125.118 516.93,133.452 511.5,141.5C 505.612,153.608 498.946,165.275 491.5,176.5C 490.325,176.281 489.325,176.614 488.5,177.5C 485.501,183.645 482.334,189.645 479,195.5C 477.513,194.747 477.346,193.914 478.5,193C 475.607,191.851 472.607,191.351 469.5,191.5C 470.879,194.741 472.545,197.907 474.5,201C 473.713,203.099 473.38,205.266 473.5,207.5C 465.94,222.288 457.606,236.622 448.5,250.5C 442.64,241.523 436.973,232.523 431.5,223.5C 429.841,218.173 427.174,213.507 423.5,209.5C 405.273,176.299 386.273,143.632 366.5,111.5C 364.293,105.65 361.293,100.316 357.5,95.5C 351.183,82.194 343.85,69.5273 335.5,57.5C 334.186,52.8677 331.853,48.8677 328.5,45.5 Z"/></g>
<g><path style="opacity:1" fill="#6ba38a" d="M 357.5,95.5 C 361.293,100.316 364.293,105.65 366.5,111.5C 361.971,107.118 358.971,101.785 357.5,95.5 Z"/></g>
<g><path style="opacity:1" fill="#68a984" d="M 533.5,105.5 C 533.617,107.484 532.95,109.15 531.5,110.5C 532.554,114.343 531.054,117.01 527,118.5C 526.136,121.739 526.969,124.406 529.5,126.5C 528.273,127.59 527.44,128.924 527,130.5C 525.814,128.323 523.981,127.323 521.5,127.5C 520.977,130.028 519.977,132.361 518.5,134.5C 519.388,136.155 519.888,137.822 520,139.5C 519.667,139.833 519.333,140.167 519,140.5C 518.311,139.643 517.478,138.977 516.5,138.5C 515.579,140.756 513.912,141.756 511.5,141.5C 516.93,133.452 522.097,125.118 527,116.5C 528.521,112.473 530.688,108.806 533.5,105.5 Z"/></g>
<g><path style="opacity:1" fill="#354e58" d="M 491.5,176.5 C 485.737,187.033 479.737,197.366 473.5,207.5C 473.38,205.266 473.713,203.099 474.5,201C 472.545,197.907 470.879,194.741 469.5,191.5C 472.607,191.351 475.607,191.851 478.5,193C 477.346,193.914 477.513,194.747 479,195.5C 482.334,189.645 485.501,183.645 488.5,177.5C 489.325,176.614 490.325,176.281 491.5,176.5 Z"/></g>
<g><path style="opacity:1" fill="#669f84" d="M 423.5,209.5 C 427.174,213.507 429.841,218.173 431.5,223.5C 428.565,220.656 426.065,217.323 424,213.5C 423.51,212.207 423.343,210.873 423.5,209.5 Z"/></g>
<g><path style="opacity:1" fill="#9aa3ab" d="M 531.5,439.5 C 531.5,437.167 531.5,434.833 531.5,432.5C 529.833,432.5 528.167,432.5 526.5,432.5C 526.5,434.833 526.5,437.167 526.5,439.5C 525.527,437.052 525.194,434.385 525.5,431.5C 527.833,431.5 530.167,431.5 532.5,431.5C 532.806,434.385 532.473,437.052 531.5,439.5 Z"/></g>
<g><path style="opacity:1" fill="#384958" d="M 531.5,439.5 C 529.833,439.5 528.167,439.5 526.5,439.5C 526.5,437.167 526.5,434.833 526.5,432.5C 528.167,432.5 529.833,432.5 531.5,432.5C 531.5,434.833 531.5,437.167 531.5,439.5 Z"/></g>
<g><path style="opacity:1" fill="#3e4d5f" d="M 457.5,444.5 C 474.608,444.111 482.108,452.444 480,469.5C 470.25,470.486 460.416,470.819 450.5,470.5C 450.318,475.489 452.651,478.655 457.5,480C 460.5,480.667 463.5,480.667 466.5,480C 469.562,478.795 472.562,477.628 475.5,476.5C 476.229,478.993 477.063,481.326 478,483.5C 468.486,488.872 458.653,489.706 448.5,486C 438.224,474.087 437.891,461.921 447.5,449.5C 450.657,447.255 453.991,445.588 457.5,444.5 Z"/></g>
<g><path style="opacity:1" fill="#3c4a5c" d="M 551.5,445.5 C 558.139,444.828 564.472,445.828 570.5,448.5C 573.143,451.266 574.143,454.599 573.5,458.5C 570.5,458.5 567.5,458.5 564.5,458.5C 564.069,454.432 561.736,452.432 557.5,452.5C 553.185,452.974 551.352,455.307 552,459.5C 557.861,462.903 564.028,465.736 570.5,468C 576.505,473.344 576.839,479.01 571.5,485C 563.495,488.801 555.162,489.468 546.5,487C 541.436,484.371 539.436,480.204 540.5,474.5C 543.5,474.5 546.5,474.5 549.5,474.5C 549.444,477.561 550.778,479.728 553.5,481C 557.261,481.738 560.928,481.405 564.5,480C 567.104,477.258 566.771,474.758 563.5,472.5C 558.063,470.616 552.73,468.449 547.5,466C 539.948,457.481 541.282,450.648 551.5,445.5 Z"/></g>
<g><path style="opacity:1" fill="#f9fafa" d="M 457.5,453.5 C 461.308,453.163 464.974,453.663 468.5,455C 470.93,457.305 471.93,460.138 471.5,463.5C 464.159,463.666 456.826,463.5 449.5,463C 450.901,458.657 453.568,455.49 457.5,453.5 Z"/></g>
<g><path style="opacity:1" fill="#3d4c5f" d="M 416.5,474.5 C 417.492,467.352 417.825,460.019 417.5,452.5C 416.167,452.5 414.833,452.5 413.5,452.5C 413.5,450.167 413.5,447.833 413.5,445.5C 417.833,445.5 422.167,445.5 426.5,445.5C 426.333,456.838 426.5,468.172 427,479.5C 429.212,482.002 430.045,485.002 429.5,488.5C 426.482,488.665 423.482,488.498 420.5,488C 418.462,486.764 417.295,484.931 417,482.5C 409.488,489.435 401.321,490.268 392.5,485C 390.623,482.749 389.123,480.249 388,477.5C 387.5,469.507 387.334,461.507 387.5,453.5C 386.167,453.5 384.833,453.5 383.5,453.5C 383.5,450.833 383.5,448.167 383.5,445.5C 387.833,445.5 392.167,445.5 396.5,445.5C 396.334,455.506 396.5,465.506 397,475.5C 397.935,478.102 399.768,479.602 402.5,480C 408.906,481.981 413.573,480.148 416.5,474.5 Z"/></g>
<g><path style="opacity:1" fill="#a7b0b7" d="M 413.5,445.5 C 413.5,447.833 413.5,450.167 413.5,452.5C 414.833,452.5 416.167,452.5 417.5,452.5C 417.825,460.019 417.492,467.352 416.5,474.5C 416.5,467.5 416.5,460.5 416.5,453.5C 415.167,453.5 413.833,453.5 412.5,453.5C 412.194,450.615 412.527,447.948 413.5,445.5 Z"/></g>
<g><path style="opacity:1" fill="#3f4f61" d="M 518.5,445.5 C 522.833,445.5 527.167,445.5 531.5,445.5C 531.667,466.169 531.5,486.836 531,507.5C 528.005,510.265 524.505,511.098 520.5,510C 518.679,507.544 518.012,504.711 518.5,501.5C 519.833,501.5 521.167,501.5 522.5,501.5C 522.5,485.5 522.5,469.5 522.5,453.5C 521.167,453.5 519.833,453.5 518.5,453.5C 518.5,450.833 518.5,448.167 518.5,445.5 Z"/></g>
<g><path style="opacity:1" fill="#3b4a5d" d="M 317.5,424.5 C 321.167,424.5 324.833,424.5 328.5,424.5C 334.163,441.988 340.33,459.321 347,476.5C 353.068,459.462 359.235,442.462 365.5,425.5C 369.107,424.511 372.774,424.177 376.5,424.5C 376.5,426.833 376.5,429.167 376.5,431.5C 374.856,431.286 373.356,431.62 372,432.5C 365.193,451.089 358.693,469.756 352.5,488.5C 348.774,488.823 345.107,488.489 341.5,487.5C 334.905,469.549 328.405,451.549 322,433.5C 320.951,431.893 319.451,431.227 317.5,431.5C 317.5,429.167 317.5,426.833 317.5,424.5 Z"/></g>
<g><path style="opacity:1" fill="#39495a" d="M 494.5,479.5 C 497.167,479.5 499.833,479.5 502.5,479.5C 502.5,481.833 502.5,484.167 502.5,486.5C 499.833,486.5 497.167,486.5 494.5,486.5C 494.5,484.167 494.5,481.833 494.5,479.5 Z"/></g>
<g><path style="opacity:1" fill="#9ca6b1" d="M 494.5,479.5 C 494.5,481.833 494.5,484.167 494.5,486.5C 497.167,486.5 499.833,486.5 502.5,486.5C 499.713,487.477 496.713,487.81 493.5,487.5C 493.194,484.615 493.527,481.948 494.5,479.5 Z"/></g>
</svg>
